<?xml version="1.0" encoding="utf-8"?>
<!-- Generator: Adobe Illustrator 25.2.1, SVG Export Plug-In . SVG Version: 6.00 Build 0)  -->
<svg version="1.1" xmlns="http://www.w3.org/2000/svg" xmlns:xlink="http://www.w3.org/1999/xlink" x="0px" y="0px"
	 viewBox="0 0 86.6 112.5" style="enable-background:new 0 0 86.6 112.5;" xml:space="preserve">
<style type="text/css">
	
		.st0{fill-rule:evenodd;clip-rule:evenodd;stroke:#000000;stroke-width:2.834646e-06;stroke-linecap:round;stroke-linejoin:round;stroke-miterlimit:10;}
</style>
<g id="Layer_2">
</g>
<g id="Layer_1" xmlns:svg="http://www.w3.org/2000/svg">
	<desc>Picture generated by PCBNEW</desc>
	<g transform="translate(0 0) scale(1 1)">
	</g>
	<g transform="rotate(-359.923129 15561474.000000 31174496.000000)">
		<g>
		</g>
		<g>
			<path class="st0" d="M8.9,80.8L9,80.6l0.1-0.2l0.2-0.1l0.3-0.1H11l0.3,0.1l0.2,0.1l0.1,0.2l0.1,0.3v1.3l-0.1,0.3l-0.1,0.2
				l-0.2,0.1L11,82.8H9.6l-0.3-0.1l-0.2-0.1L9,82.4l-0.1-0.3V80.8z"/>
			<path class="st0" d="M14.1,80.8l0.1-0.3l0.1-0.2l0.2-0.1l0.3-0.1h1.4l0.3,0.1l0.2,0.1l0.1,0.2l0.1,0.3v1.3l-0.1,0.3l-0.1,0.2
				l-0.2,0.1l-0.3,0.1h-1.4l-0.3-0.1l-0.2-0.1l-0.1-0.2l-0.1-0.3V80.8z"/>
		</g>
		<g>
			<path class="st0" d="M17.4,23.9v-2.6H23v2.6H17.4z"/>
			<path class="st0" d="M17.4,27.5v-2.6H23v2.6H17.4z"/>
			<path class="st0" d="M17.4,31.1v-2.6H23v2.6H17.4z"/>
			<path class="st0" d="M17.4,34.7v-2.6H23v2.6H17.4z"/>
			<path class="st0" d="M17.4,38.3v-2.6H23v2.6H17.4z"/>
			<path class="st0" d="M17.4,41.9v-2.6H23v2.6H17.4z"/>
			<path class="st0" d="M17.4,45.5v-2.6H23v2.6H17.4z"/>
			<path class="st0" d="M17.4,49.1v-2.6H23v2.6H17.4z"/>
			<path class="st0" d="M17.4,52.7v-2.6H23v2.6H17.4z"/>
			<path class="st0" d="M17.4,56.3v-2.6H23v2.6H17.4z"/>
			<path class="st0" d="M17.4,59.9v-2.6H23v2.6H17.4z"/>
			<path class="st0" d="M17.4,63.5v-2.6H23v2.6H17.4z"/>
			<path class="st0" d="M17.4,67.1v-2.6H23v2.6H17.4z"/>
			<path class="st0" d="M17.4,70.7v-2.6H23v2.6H17.4z"/>
			<path class="st0" d="M29.4,75.1h-2.6v-5.7h2.6V75.1z"/>
			<path class="st0" d="M33,75.1h-2.6v-5.7H33V75.1z"/>
			<path class="st0" d="M36.6,75.1H34v-5.7h2.6V75.1z"/>
			<path class="st0" d="M40.2,75.1h-2.6v-5.7h2.6V75.1z"/>
			<path class="st0" d="M43.8,75.1h-2.6v-5.7h2.6V75.1z"/>
			<path class="st0" d="M47.4,75.1h-2.6v-5.7h2.6V75.1z"/>
			<path class="st0" d="M51,75.1h-2.6v-5.7H51V75.1z"/>
			<path class="st0" d="M54.6,75.1H52v-5.7h2.6V75.1z"/>
			<path class="st0" d="M58.2,75.1h-2.6v-5.7h2.6V75.1z"/>
			<path class="st0" d="M61.8,75.1h-2.6v-5.7h2.6V75.1z"/>
			<path class="st0" d="M65.5,70.7v-2.6h5.7v2.6H65.5z"/>
			<path class="st0" d="M65.5,67.1v-2.6h5.7v2.6H65.5z"/>
			<path class="st0" d="M65.5,63.5v-2.6h5.7v2.6H65.5z"/>
			<path class="st0" d="M65.5,59.9v-2.6h5.7v2.6H65.5z"/>
			<path class="st0" d="M65.5,56.3v-2.6h5.7v2.6H65.5z"/>
			<path class="st0" d="M65.5,52.7v-2.6h5.7v2.6H65.5z"/>
			<path class="st0" d="M65.5,49.1v-2.6h5.7v2.6H65.5z"/>
			<path class="st0" d="M65.5,45.5v-2.6h5.7v2.6H65.5z"/>
			<path class="st0" d="M65.5,41.9v-2.6h5.7v2.6H65.5z"/>
			<path class="st0" d="M65.5,38.3v-2.6h5.7v2.6H65.5z"/>
			<path class="st0" d="M65.5,34.7v-2.6h5.7v2.6H65.5z"/>
			<path class="st0" d="M65.5,31.1v-2.6h5.7v2.6H65.5z"/>
			<path class="st0" d="M65.5,27.5v-2.6h5.7v2.6H65.5z"/>
			<path class="st0" d="M65.5,23.9v-2.6h5.7v2.6H65.5z"/>
			<path class="st0" d="M34.4,50.9V36.8h14.2v14.2H34.4z"/>
		</g>
		<g>
			<path class="st0" d="M68.7,80.1l0.1-0.3l0.1-0.2l0.2-0.1l0.3-0.1h1.4l0.3,0.1l0.2,0.1l0.1,0.2l0.1,0.3v1.3l-0.1,0.3l-0.1,0.2
				L71,82.1l-0.3,0.1h-1.4l-0.3-0.1l-0.2-0.1l-0.1-0.2l-0.1-0.3V80.1z"/>
			<path class="st0" d="M73.9,80.1l0.1-0.3l0.1-0.2l0.2-0.1l0.3-0.1H76l0.3,0.1l0.2,0.1l0.1,0.2l0.1,0.3v1.3l-0.1,0.3l-0.1,0.2
				l-0.2,0.1L76,82.1h-1.4l-0.3-0.1l-0.2-0.1l-0.1-0.2l-0.1-0.3V80.1z"/>
		</g>
		<g>
			<path class="st0" d="M12.6,90.8H8V88h4.5V90.8z"/>
			<path class="st0" d="M30.7,90.8h-4.5V88h4.5V90.8z"/>
			<path class="st0" d="M12.6,101.6H8v-2.8h4.5V101.6z"/>
			<path class="st0" d="M30.7,101.6h-4.5v-2.8h4.5V101.6z"/>
		</g>
		<g>
			<path class="st0" d="M63.5,90.9h-4.5V88h4.5V90.9z"/>
			<path class="st0" d="M81.6,90.9h-4.5V88h4.5V90.9z"/>
			<path class="st0" d="M63.5,101.6h-4.5v-2.8h4.5V101.6z"/>
			<path class="st0" d="M81.6,101.6h-4.5v-2.8h4.5V101.6z"/>
		</g>
		<g>
			<path class="st0" d="M26.9,80.5L26.9,80.5l0.1-0.2l0.1-0.1l0.1,0h0.8l0.1,0l0.1,0.1l0.1,0.1l0,0.1V81l0,0.1l-0.1,0.1L28,81.3
				l-0.1,0h-0.8l-0.1,0l-0.1-0.1l-0.1-0.1l0-0.1V80.5z"/>
			<path class="st0" d="M24.4,80.5L24.4,80.5l0.1-0.2l0.1-0.1l0.1,0h0.8l0.1,0l0.1,0.1l0.1,0.1l0,0.1V81l0,0.1l-0.1,0.1l-0.1,0.1
				l-0.1,0h-0.8l-0.1,0l-0.1-0.1l-0.1-0.1l0-0.1V80.5z"/>
		</g>
	</g>
</g>
</svg>
