%TF.GenerationSoftware,KiCad,Pcbnew,(6.0.1)*%
%TF.CreationDate,2022-11-17T22:19:47+08:00*%
%TF.ProjectId,Scroller1,5363726f-6c6c-4657-9231-2e6b69636164,rev?*%
%TF.SameCoordinates,Original*%
%TF.FileFunction,Copper,L1,Top*%
%TF.FilePolarity,Positive*%
%FSLAX46Y46*%
G04 Gerber Fmt 4.6, Leading zero omitted, Abs format (unit mm)*
G04 Created by KiCad (PCBNEW (6.0.1)) date 2022-11-17 22:19:47*
%MOMM*%
%LPD*%
G01*
G04 APERTURE LIST*
G04 Aperture macros list*
%AMRoundRect*
0 Rectangle with rounded corners*
0 $1 Rounding radius*
0 $2 $3 $4 $5 $6 $7 $8 $9 X,Y pos of 4 corners*
0 Add a 4 corners polygon primitive as box body*
4,1,4,$2,$3,$4,$5,$6,$7,$8,$9,$2,$3,0*
0 Add four circle primitives for the rounded corners*
1,1,$1+$1,$2,$3*
1,1,$1+$1,$4,$5*
1,1,$1+$1,$6,$7*
1,1,$1+$1,$8,$9*
0 Add four rect primitives between the rounded corners*
20,1,$1+$1,$2,$3,$4,$5,0*
20,1,$1+$1,$4,$5,$6,$7,0*
20,1,$1+$1,$6,$7,$8,$9,0*
20,1,$1+$1,$8,$9,$2,$3,0*%
%AMFreePoly0*
4,1,19,-0.850000,0.510000,-0.510000,0.850000,0.255000,0.850000,0.408997,0.829726,0.552500,0.770285,0.675729,0.675729,0.770285,0.552500,0.829726,0.408997,0.850000,0.255000,0.850000,-0.510000,0.510000,-0.850000,-0.255000,-0.850000,-0.408997,-0.829726,-0.552500,-0.770285,-0.675729,-0.675729,-0.770285,-0.552500,-0.829726,-0.408997,-0.850000,-0.255000,-0.850000,0.510000,-0.850000,0.510000,
$1*%
G04 Aperture macros list end*
%TA.AperFunction,SMDPad,CuDef*%
%ADD10R,0.900000X1.200000*%
%TD*%
%TA.AperFunction,SMDPad,CuDef*%
%ADD11RoundRect,0.237500X0.237500X-0.250000X0.237500X0.250000X-0.237500X0.250000X-0.237500X-0.250000X0*%
%TD*%
%TA.AperFunction,SMDPad,CuDef*%
%ADD12RoundRect,0.237500X0.237500X-0.300000X0.237500X0.300000X-0.237500X0.300000X-0.237500X-0.300000X0*%
%TD*%
%TA.AperFunction,SMDPad,CuDef*%
%ADD13RoundRect,0.237500X-0.237500X0.250000X-0.237500X-0.250000X0.237500X-0.250000X0.237500X0.250000X0*%
%TD*%
%TA.AperFunction,SMDPad,CuDef*%
%ADD14RoundRect,0.208750X0.208750X0.431250X-0.208750X0.431250X-0.208750X-0.431250X0.208750X-0.431250X0*%
%TD*%
%TA.AperFunction,SMDPad,CuDef*%
%ADD15R,0.600000X2.200000*%
%TD*%
%TA.AperFunction,SMDPad,CuDef*%
%ADD16R,0.600000X0.700000*%
%TD*%
%TA.AperFunction,ComponentPad*%
%ADD17RoundRect,0.399500X0.450500X0.450500X-0.450500X0.450500X-0.450500X-0.450500X0.450500X-0.450500X0*%
%TD*%
%TA.AperFunction,ComponentPad*%
%ADD18O,1.700000X1.700000*%
%TD*%
%TA.AperFunction,ComponentPad*%
%ADD19FreePoly0,180.000000*%
%TD*%
%TA.AperFunction,ComponentPad*%
%ADD20C,1.700000*%
%TD*%
%TA.AperFunction,ComponentPad*%
%ADD21R,1.600000X1.600000*%
%TD*%
%TA.AperFunction,ComponentPad*%
%ADD22O,1.600000X1.600000*%
%TD*%
%TA.AperFunction,SMDPad,CuDef*%
%ADD23RoundRect,0.237500X-0.250000X-0.237500X0.250000X-0.237500X0.250000X0.237500X-0.250000X0.237500X0*%
%TD*%
%TA.AperFunction,SMDPad,CuDef*%
%ADD24R,1.300000X0.300000*%
%TD*%
%TA.AperFunction,SMDPad,CuDef*%
%ADD25R,2.200000X1.800000*%
%TD*%
%TA.AperFunction,ViaPad*%
%ADD26C,1.500000*%
%TD*%
%TA.AperFunction,Conductor*%
%ADD27C,0.500000*%
%TD*%
%TA.AperFunction,Conductor*%
%ADD28C,0.300000*%
%TD*%
%TA.AperFunction,Conductor*%
%ADD29C,0.250000*%
%TD*%
%TA.AperFunction,Conductor*%
%ADD30C,1.000000*%
%TD*%
G04 APERTURE END LIST*
D10*
%TO.P,D1_1,1,K*%
%TO.N,/Row 2*%
X119194000Y-91821000D03*
%TO.P,D1_1,2,A*%
%TO.N,Net-(D1_1-Pad2)*%
X115894000Y-91821000D03*
%TD*%
D11*
%TO.P,RS_2,1*%
%TO.N,Net-(ESP32-Pad17)*%
X182696075Y-78279000D03*
%TO.P,RS_2,2*%
%TO.N,GND*%
X182696075Y-76454000D03*
%TD*%
D12*
%TO.P,C1,1*%
%TO.N,GND*%
X178040000Y-124714000D03*
%TO.P,C1,2*%
%TO.N,Net-(C1-Pad2)*%
X178040000Y-122989000D03*
%TD*%
D10*
%TO.P,D2_0,1,K*%
%TO.N,/Row 3*%
X138496000Y-110871000D03*
%TO.P,D2_0,2,A*%
%TO.N,Net-(D2_0-Pad2)*%
X135196000Y-110871000D03*
%TD*%
D13*
%TO.P,RT_4,1*%
%TO.N,+3V3*%
X194550000Y-94234000D03*
%TO.P,RT_4,2*%
%TO.N,SDA*%
X194550000Y-96059000D03*
%TD*%
D10*
%TO.P,D0_1,1,K*%
%TO.N,/Row 1*%
X118135400Y-72517000D03*
%TO.P,D0_1,2,A*%
%TO.N,Net-(D0_1-Pad2)*%
X114835400Y-72517000D03*
%TD*%
D14*
%TO.P,C2,1*%
%TO.N,+3V3*%
X178032500Y-95504000D03*
%TO.P,C2,2*%
%TO.N,GND*%
X176777500Y-95504000D03*
%TD*%
D10*
%TO.P,D1_0,1,K*%
%TO.N,/Row 2*%
X138498000Y-91821000D03*
%TO.P,D1_0,2,A*%
%TO.N,Net-(D1_0-Pad2)*%
X135198000Y-91821000D03*
%TD*%
D15*
%TO.P,UM1,1,VDD*%
%TO.N,+3V3*%
X181850035Y-119692460D03*
%TO.P,UM1,2,MODE*%
%TO.N,Net-(RT_1-Pad2)*%
X183120035Y-119692460D03*
%TO.P,UM1,3,OUT*%
%TO.N,Net-(C1-Pad2)*%
X184390035Y-119692460D03*
%TO.P,UM1,4,GND*%
%TO.N,GND*%
X185660035Y-119692460D03*
%TO.P,UM1,5,PUSH*%
%TO.N,unconnected-(UM1-Pad5)*%
X185660035Y-114492460D03*
%TO.P,UM1,6,A/SDA*%
%TO.N,SDA*%
X184390035Y-114492460D03*
%TO.P,UM1,7,B/SCL*%
%TO.N,SCL*%
X183120035Y-114492460D03*
%TO.P,UM1,8,Z/CSn*%
%TO.N,CSn*%
X181850035Y-114492460D03*
%TD*%
D10*
%TO.P,D1_2,1,K*%
%TO.N,/Row 2*%
X100016000Y-91821000D03*
%TO.P,D1_2,2,A*%
%TO.N,Net-(D1_2-Pad2)*%
X96716000Y-91821000D03*
%TD*%
%TO.P,D2_3,1,K*%
%TO.N,/Row 3*%
X81092000Y-110871000D03*
%TO.P,D2_3,2,A*%
%TO.N,Net-(D2_3-Pad2)*%
X77792000Y-110871000D03*
%TD*%
D13*
%TO.P,RT_2,1*%
%TO.N,+3V3*%
X190740000Y-94314000D03*
%TO.P,RT_2,2*%
%TO.N,CSn*%
X190740000Y-96139000D03*
%TD*%
D16*
%TO.P,D1,1,K*%
%TO.N,+3V3*%
X178054000Y-99949000D03*
%TO.P,D1,2,A*%
%TO.N,GND*%
X176654000Y-99949000D03*
%TD*%
D17*
%TO.P,TMC1,1,+VCC_IO*%
%TO.N,+3V3*%
X150472107Y-126961107D03*
D18*
%TO.P,TMC1,2,GND*%
%TO.N,GND*%
X150472107Y-129501107D03*
%TO.P,TMC1,3,UH_in*%
%TO.N,/UH_In*%
X150472107Y-132041107D03*
%TO.P,TMC1,4,UL_in*%
%TO.N,/UL_In*%
X150472107Y-134581107D03*
%TO.P,TMC1,5,VH_in*%
%TO.N,/VH_In*%
X150472107Y-137121107D03*
%TO.P,TMC1,6,VL_in*%
%TO.N,/VL_In*%
X150472107Y-139661107D03*
%TO.P,TMC1,7,WH_in*%
%TO.N,/WH_In*%
X150472107Y-142201107D03*
%TO.P,TMC1,8,WL_in*%
%TO.N,/WL_In*%
X150472107Y-144741107D03*
D17*
%TO.P,TMC1,9,+VBAT*%
%TO.N,+5V*%
X173272107Y-126961107D03*
D18*
%TO.P,TMC1,10,GND*%
%TO.N,GND*%
X173272107Y-129501107D03*
%TO.P,TMC1,11,GND*%
X173272107Y-132041107D03*
%TO.P,TMC1,12,W*%
%TO.N,/W_Out*%
X173272107Y-134581107D03*
%TO.P,TMC1,13,V*%
%TO.N,/V_Out*%
X173272107Y-137121107D03*
%TO.P,TMC1,14,W*%
%TO.N,/U_Out*%
X173272107Y-139661107D03*
%TO.P,TMC1,15,GND*%
%TO.N,GND*%
X173272107Y-142201107D03*
%TO.P,TMC1,16,DIAG*%
%TO.N,unconnected-(TMC1-Pad16)*%
X173272107Y-144741107D03*
%TD*%
D11*
%TO.P,RM_1,1*%
%TO.N,Net-(QMK1-Pad11)*%
X182696075Y-72286500D03*
%TO.P,RM_1,2*%
%TO.N,Net-(ESP32-Pad6)*%
X182696075Y-70461500D03*
%TD*%
D19*
%TO.P,ESP32,1,EN*%
%TO.N,unconnected-(ESP32-Pad1)*%
X175500000Y-82804000D03*
D20*
%TO.P,ESP32,2,GPIO3*%
%TO.N,unconnected-(ESP32-Pad2)*%
X175500000Y-80264000D03*
%TO.P,ESP32,3,GPIO5*%
%TO.N,unconnected-(ESP32-Pad3)*%
X175500000Y-77724000D03*
%TO.P,ESP32,4,GPIO7*%
%TO.N,unconnected-(ESP32-Pad4)*%
X175500000Y-75184000D03*
%TO.P,ESP32,5,GPIO9*%
%TO.N,unconnected-(ESP32-Pad5)*%
X175500000Y-72644000D03*
%TO.P,ESP32,6,GPIO11*%
%TO.N,Net-(ESP32-Pad6)*%
X175500000Y-70104000D03*
%TO.P,ESP32,7,GPIO12*%
%TO.N,SDA*%
X175500000Y-67564000D03*
%TO.P,ESP32,8,3V3*%
%TO.N,+3V3*%
X175500000Y-65024000D03*
%TO.P,ESP32,9,VBUS*%
%TO.N,+5V*%
X152640000Y-65024000D03*
%TO.P,ESP32,10,GND*%
%TO.N,GND*%
X152640000Y-67564000D03*
%TO.P,ESP32,11,XTAL_32K_N*%
%TO.N,unconnected-(ESP32-Pad11)*%
X152640000Y-70104000D03*
%TO.P,ESP32,12,DAC_2*%
%TO.N,unconnected-(ESP32-Pad12)*%
X152640000Y-72644000D03*
%TO.P,ESP32,13,GPIO33*%
%TO.N,/WL_In*%
X152640000Y-75184000D03*
%TO.P,ESP32,14,GPIO35*%
%TO.N,/VL_In*%
X152640000Y-77724000D03*
%TO.P,ESP32,15,GPIO37*%
%TO.N,/UL_In*%
X152640000Y-80264000D03*
%TO.P,ESP32,16,MTCK*%
%TO.N,Net-(ESP32-Pad16)*%
X152640000Y-82804000D03*
%TO.P,ESP32,17,GPIO1*%
%TO.N,Net-(ESP32-Pad17)*%
X172960000Y-82804000D03*
%TO.P,ESP32,18,GPIO2*%
%TO.N,unconnected-(ESP32-Pad18)*%
X172960000Y-80264000D03*
%TO.P,ESP32,19,GPIO4*%
%TO.N,CSn*%
X172960000Y-77724000D03*
%TO.P,ESP32,20,GPIO6*%
%TO.N,unconnected-(ESP32-Pad20)*%
X172960000Y-75184000D03*
%TO.P,ESP32,21,GPIO8*%
%TO.N,unconnected-(ESP32-Pad21)*%
X172960000Y-72644000D03*
%TO.P,ESP32,22,GPIO10*%
%TO.N,unconnected-(ESP32-Pad22)*%
X172960000Y-70104000D03*
%TO.P,ESP32,23,GPIO13*%
%TO.N,SCL*%
X172960000Y-67564000D03*
%TO.P,ESP32,24,GPIO14*%
%TO.N,unconnected-(ESP32-Pad24)*%
X172960000Y-65024000D03*
%TO.P,ESP32,25,XTAL_32K_P*%
%TO.N,unconnected-(ESP32-Pad25)*%
X155180000Y-65024000D03*
%TO.P,ESP32,26,GND*%
%TO.N,GND*%
X155180000Y-67564000D03*
%TO.P,ESP32,27,DAC_1*%
%TO.N,unconnected-(ESP32-Pad27)*%
X155180000Y-70104000D03*
%TO.P,ESP32,28,GPIO21*%
%TO.N,unconnected-(ESP32-Pad28)*%
X155180000Y-72644000D03*
%TO.P,ESP32,29,GPIO34*%
%TO.N,/WH_In*%
X155180000Y-75184000D03*
%TO.P,ESP32,30,GPIO36*%
%TO.N,/VH_In*%
X155180000Y-77724000D03*
%TO.P,ESP32,31,GPIO38*%
%TO.N,/UH_In*%
X155180000Y-80264000D03*
%TO.P,ESP32,32,MTDO*%
%TO.N,unconnected-(ESP32-Pad32)*%
X155180000Y-82804000D03*
%TD*%
D13*
%TO.P,RT_3,1*%
%TO.N,+3V3*%
X186295000Y-94314000D03*
%TO.P,RT_3,2*%
%TO.N,SCL*%
X186295000Y-96139000D03*
%TD*%
D21*
%TO.P,QMK1,1,D1/TX*%
%TO.N,Net-(QMK1-Pad1)*%
X195185000Y-59944000D03*
D22*
%TO.P,QMK1,2,D0/RX*%
%TO.N,Net-(ESP32-Pad16)*%
X195185000Y-62484000D03*
%TO.P,QMK1,3,GND*%
%TO.N,GND*%
X195185000Y-65024000D03*
%TO.P,QMK1,4,GND*%
X195185000Y-67564000D03*
%TO.P,QMK1,5,D2*%
%TO.N,unconnected-(QMK1-Pad5)*%
X195185000Y-70104000D03*
%TO.P,QMK1,6,~D3*%
%TO.N,unconnected-(QMK1-Pad6)*%
X195185000Y-72644000D03*
%TO.P,QMK1,7,D4/A6*%
%TO.N,unconnected-(QMK1-Pad7)*%
X195185000Y-75184000D03*
%TO.P,QMK1,8,~D5*%
%TO.N,unconnected-(QMK1-Pad8)*%
X195185000Y-77724000D03*
%TO.P,QMK1,9,~D6/A7*%
%TO.N,unconnected-(QMK1-Pad9)*%
X195185000Y-80264000D03*
%TO.P,QMK1,10,D7*%
%TO.N,unconnected-(QMK1-Pad10)*%
X195185000Y-82804000D03*
%TO.P,QMK1,11,D8/A8*%
%TO.N,Net-(QMK1-Pad11)*%
X195185000Y-85344000D03*
%TO.P,QMK1,12,~D9/A9*%
%TO.N,unconnected-(QMK1-Pad12)*%
X195185000Y-87884000D03*
%TO.P,QMK1,13,~D10/A10*%
%TO.N,/Col 4*%
X210425000Y-87884000D03*
%TO.P,QMK1,14,D16*%
%TO.N,/Col 3*%
X210425000Y-85344000D03*
%TO.P,QMK1,15,D14*%
%TO.N,/Col 2*%
X210425000Y-82804000D03*
%TO.P,QMK1,16,D15*%
%TO.N,/Col 1*%
X210425000Y-80264000D03*
%TO.P,QMK1,17,D18/A0*%
%TO.N,/Row 4*%
X210425000Y-77724000D03*
%TO.P,QMK1,18,D19/A1*%
%TO.N,/Row 3*%
X210425000Y-75184000D03*
%TO.P,QMK1,19,D20/A2*%
%TO.N,/Row 2*%
X210425000Y-72644000D03*
%TO.P,QMK1,20,D21/A3*%
%TO.N,/Row 1*%
X210425000Y-70104000D03*
%TO.P,QMK1,21,VCC*%
%TO.N,+5V*%
X210425000Y-67564000D03*
%TO.P,QMK1,22,RST*%
%TO.N,unconnected-(QMK1-Pad22)*%
X210425000Y-65024000D03*
%TO.P,QMK1,23,GND*%
%TO.N,GND*%
X210425000Y-62484000D03*
%TO.P,QMK1,24,RAW*%
%TO.N,unconnected-(QMK1-Pad24)*%
X210425000Y-59944000D03*
%TD*%
D23*
%TO.P,RT_1,1*%
%TO.N,+3V3*%
X176492500Y-105664000D03*
%TO.P,RT_1,2*%
%TO.N,Net-(RT_1-Pad2)*%
X178317500Y-105664000D03*
%TD*%
D10*
%TO.P,D0_3,1,K*%
%TO.N,/Row 1*%
X81092000Y-72517000D03*
%TO.P,D0_3,2,A*%
%TO.N,Net-(D0_3-Pad2)*%
X77792000Y-72517000D03*
%TD*%
D11*
%TO.P,RS_1,1*%
%TO.N,Net-(QMK1-Pad1)*%
X182696075Y-84709000D03*
%TO.P,RS_1,2*%
%TO.N,Net-(ESP32-Pad17)*%
X182696075Y-82884000D03*
%TD*%
D10*
%TO.P,D3_1,1,K*%
%TO.N,/Row 4*%
X118684000Y-129921000D03*
%TO.P,D3_1,2,A*%
%TO.N,Net-(D3_1-Pad2)*%
X115384000Y-129921000D03*
%TD*%
%TO.P,D2_1,1,K*%
%TO.N,/Row 3*%
X118938000Y-110871000D03*
%TO.P,D2_1,2,A*%
%TO.N,Net-(D2_1-Pad2)*%
X115638000Y-110871000D03*
%TD*%
D24*
%TO.P,UVW1,1,Pin_1*%
%TO.N,/U_Out*%
X203890000Y-127234000D03*
%TO.P,UVW1,2,Pin_2*%
X203890000Y-126734000D03*
%TO.P,UVW1,3,Pin_3*%
%TO.N,/V_Out*%
X203890000Y-126234000D03*
%TO.P,UVW1,4,Pin_4*%
X203890000Y-125734000D03*
%TO.P,UVW1,5,Pin_5*%
%TO.N,/W_Out*%
X203890000Y-125234000D03*
%TO.P,UVW1,6,Pin_6*%
X203890000Y-124734000D03*
D25*
%TO.P,UVW1,MP*%
%TO.N,N/C*%
X207140000Y-129134000D03*
X207140000Y-122834000D03*
%TD*%
D10*
%TO.P,D2_2,1,K*%
%TO.N,/Row 3*%
X100014000Y-110871000D03*
%TO.P,D2_2,2,A*%
%TO.N,Net-(D2_2-Pad2)*%
X96714000Y-110871000D03*
%TD*%
%TO.P,D3_3,1,K*%
%TO.N,/Row 4*%
X81092000Y-129921000D03*
%TO.P,D3_3,2,A*%
%TO.N,Net-(D3_3-Pad2)*%
X77792000Y-129921000D03*
%TD*%
%TO.P,D3_0,1,K*%
%TO.N,/Row 4*%
X138242000Y-129921000D03*
%TO.P,D3_0,2,A*%
%TO.N,Net-(D3_0-Pad2)*%
X134942000Y-129921000D03*
%TD*%
%TO.P,D0_2,1,K*%
%TO.N,/Row 1*%
X100142000Y-72517000D03*
%TO.P,D0_2,2,A*%
%TO.N,Net-(D0_2-Pad2)*%
X96842000Y-72517000D03*
%TD*%
%TO.P,D1_3,1,K*%
%TO.N,/Row 2*%
X80966000Y-91821000D03*
%TO.P,D1_3,2,A*%
%TO.N,Net-(D1_3-Pad2)*%
X77666000Y-91821000D03*
%TD*%
D11*
%TO.P,RM_2,1*%
%TO.N,Net-(ESP32-Pad6)*%
X182696075Y-67206500D03*
%TO.P,RM_2,2*%
%TO.N,GND*%
X182696075Y-65381500D03*
%TD*%
D10*
%TO.P,D3_2,1,K*%
%TO.N,/Row 4*%
X99760000Y-129921000D03*
%TO.P,D3_2,2,A*%
%TO.N,Net-(D3_2-Pad2)*%
X96460000Y-129921000D03*
%TD*%
%TO.P,D0_0,1,K*%
%TO.N,/Row 1*%
X138242000Y-72517000D03*
%TO.P,D0_0,2,A*%
%TO.N,Net-(D0_0-Pad2)*%
X134942000Y-72517000D03*
%TD*%
D26*
%TO.N,GND*%
X174230000Y-102489000D03*
X166610000Y-136779000D03*
X183648575Y-74866500D03*
X187565000Y-117094000D03*
X173595000Y-95504000D03*
X184390000Y-66294000D03*
%TO.N,+3V3*%
X166610000Y-96139000D03*
X190740000Y-92329000D03*
X194407536Y-92471464D03*
X165975000Y-129159000D03*
X186295000Y-92329000D03*
X181215000Y-94869000D03*
X169785000Y-63754000D03*
%TO.N,Net-(D0_0-Pad2)*%
X127642000Y-80264000D03*
%TO.N,Net-(D0_1-Pad2)*%
X108592000Y-80264000D03*
%TO.N,Net-(D0_2-Pad2)*%
X89542000Y-80264000D03*
%TO.N,Net-(D0_3-Pad2)*%
X70492000Y-80264000D03*
%TO.N,Net-(D1_0-Pad2)*%
X127642000Y-92964000D03*
%TO.N,Net-(D1_1-Pad2)*%
X108592000Y-92964000D03*
%TO.N,Net-(D1_2-Pad2)*%
X89542000Y-92964000D03*
%TO.N,Net-(D1_3-Pad2)*%
X70492000Y-92964000D03*
%TO.N,Net-(D2_0-Pad2)*%
X127642000Y-112014000D03*
%TO.N,Net-(D2_1-Pad2)*%
X108592000Y-112014000D03*
%TO.N,Net-(D2_2-Pad2)*%
X89542000Y-112014000D03*
%TO.N,Net-(D2_3-Pad2)*%
X70492000Y-112014000D03*
%TO.N,Net-(D3_0-Pad2)*%
X127642000Y-131064000D03*
%TO.N,Net-(D3_1-Pad2)*%
X108592000Y-131064000D03*
%TO.N,Net-(D3_2-Pad2)*%
X89542000Y-131064000D03*
%TO.N,Net-(D3_3-Pad2)*%
X70492000Y-131064000D03*
%TO.N,SDA*%
X179521075Y-78994000D03*
%TO.N,Net-(ESP32-Pad17)*%
X182186555Y-80389480D03*
%TO.N,CSn*%
X180086000Y-109474000D03*
X190740000Y-99314000D03*
%TD*%
D27*
%TO.N,GND*%
X152640000Y-67564000D02*
X155180000Y-67564000D01*
X178040000Y-124714000D02*
X179310000Y-124714000D01*
X185660035Y-122808965D02*
X185660035Y-119692460D01*
X169150000Y-139954000D02*
X171397107Y-142201107D01*
X169150000Y-136779000D02*
X166610000Y-136779000D01*
X183331075Y-65381500D02*
X183688575Y-65381500D01*
X170712893Y-132041107D02*
X169150000Y-133604000D01*
X165975000Y-91059000D02*
X170420000Y-95504000D01*
X183648575Y-76136500D02*
X183331075Y-76454000D01*
X186930000Y-122809000D02*
X185660000Y-122809000D01*
X183648575Y-74866500D02*
X183648575Y-76136500D01*
X187565000Y-117094000D02*
X187565000Y-122174000D01*
X175792893Y-132041107D02*
X173272107Y-132041107D01*
X165975000Y-68834000D02*
X165975000Y-91059000D01*
X183688575Y-65381500D02*
X184601075Y-66294000D01*
X169150000Y-133604000D02*
X169150000Y-136779000D01*
X181215000Y-122809000D02*
X185660000Y-122809000D01*
X176654000Y-99949000D02*
X175500000Y-101103000D01*
X179310000Y-124714000D02*
X181215000Y-122809000D01*
X173272107Y-132041107D02*
X170712893Y-132041107D01*
X169150000Y-136779000D02*
X169150000Y-139954000D01*
X178040000Y-127889000D02*
X176427893Y-129501107D01*
X176427893Y-129501107D02*
X173272107Y-129501107D01*
X164705000Y-67564000D02*
X155180000Y-67564000D01*
X164705000Y-67564000D02*
X165975000Y-68834000D01*
X171397107Y-142201107D02*
X173272107Y-142201107D01*
X175500000Y-101219000D02*
X174230000Y-102489000D01*
X178040000Y-124714000D02*
X178040000Y-127889000D01*
X176777500Y-95504000D02*
X176777500Y-99825500D01*
X185660000Y-122809000D02*
X185660035Y-122808965D01*
X174865000Y-95504000D02*
X173595000Y-95504000D01*
X187565000Y-122174000D02*
X186930000Y-122809000D01*
X170420000Y-95504000D02*
X174865000Y-95504000D01*
X176427893Y-131406107D02*
X175792893Y-132041107D01*
X175500000Y-101103000D02*
X175500000Y-101219000D01*
X176427893Y-129501107D02*
X176427893Y-131406107D01*
X176777500Y-95504000D02*
X174865000Y-95504000D01*
X176777500Y-99825500D02*
X176654000Y-99949000D01*
D28*
%TO.N,Net-(C1-Pad2)*%
X184390000Y-122174000D02*
X184390035Y-122173965D01*
X178855000Y-122174000D02*
X184390000Y-122174000D01*
X184390035Y-122173965D02*
X184390035Y-119692460D01*
X178040000Y-122989000D02*
X178855000Y-122174000D01*
D27*
%TO.N,+3V3*%
X177038000Y-116092000D02*
X177038000Y-110589850D01*
D28*
X180580000Y-95504000D02*
X181215000Y-94869000D01*
D27*
X176530000Y-105701500D02*
X176492500Y-105664000D01*
X166610000Y-103124000D02*
X169150000Y-105664000D01*
X169150000Y-105664000D02*
X176492500Y-105664000D01*
X186295000Y-94314000D02*
X186295000Y-92329000D01*
X194550000Y-94234000D02*
X194550000Y-92613928D01*
X178054000Y-95525500D02*
X178032500Y-95504000D01*
X175500000Y-65024000D02*
X173595000Y-63119000D01*
X178054000Y-101840000D02*
X176492500Y-103401500D01*
X175441540Y-119692460D02*
X180638460Y-119692460D01*
X176492500Y-105664000D02*
X176492500Y-103401500D01*
X176530000Y-110081850D02*
X176530000Y-105701500D01*
X173595000Y-63119000D02*
X172960000Y-63119000D01*
X178054000Y-99949000D02*
X178054000Y-95525500D01*
D28*
X178032500Y-95504000D02*
X180580000Y-95504000D01*
D27*
X194550000Y-92613928D02*
X194407536Y-92471464D01*
X172960000Y-63119000D02*
X170420000Y-63119000D01*
X170420000Y-63119000D02*
X169785000Y-63754000D01*
X165975000Y-129159000D02*
X175441540Y-119692460D01*
X190740000Y-94314000D02*
X190740000Y-92329000D01*
X180638460Y-119692460D02*
X177038000Y-116092000D01*
X166610000Y-96139000D02*
X166610000Y-103124000D01*
X181850035Y-119692460D02*
X180638460Y-119692460D01*
X177038000Y-110589850D02*
X176530000Y-110081850D01*
X178054000Y-99949000D02*
X178054000Y-101840000D01*
D28*
%TO.N,/Row 1*%
X208280000Y-67959000D02*
X210425000Y-70104000D01*
X81092000Y-72517000D02*
X81092000Y-70934000D01*
X141210000Y-67564000D02*
X154418000Y-54356000D01*
X205232000Y-54356000D02*
X208280000Y-57404000D01*
X122562000Y-67564000D02*
X140342000Y-67564000D01*
X119192000Y-72517000D02*
X119192000Y-70934000D01*
X119192000Y-70934000D02*
X122562000Y-67564000D01*
X208280000Y-57404000D02*
X208280000Y-67959000D01*
X154418000Y-54356000D02*
X205232000Y-54356000D01*
X100142000Y-72204000D02*
X104782000Y-67564000D01*
X84462000Y-67564000D02*
X104782000Y-67564000D01*
X104782000Y-67564000D02*
X122562000Y-67564000D01*
X138242000Y-72517000D02*
X138242000Y-69664000D01*
X139305000Y-67564000D02*
X141210000Y-67564000D01*
X81092000Y-70934000D02*
X84462000Y-67564000D01*
X138242000Y-69664000D02*
X140342000Y-67564000D01*
X100142000Y-72517000D02*
X100142000Y-72204000D01*
X119192000Y-72517000D02*
X118135400Y-72517000D01*
%TO.N,Net-(D0_0-Pad2)*%
X127642000Y-72644000D02*
X127642000Y-80264000D01*
X134942000Y-72517000D02*
X127769000Y-72517000D01*
X127769000Y-72517000D02*
X127642000Y-72644000D01*
%TO.N,Net-(D0_1-Pad2)*%
X108719000Y-72517000D02*
X114835400Y-72517000D01*
X108592000Y-72644000D02*
X108592000Y-80264000D01*
X108719000Y-72517000D02*
X108592000Y-72644000D01*
%TO.N,Net-(D0_2-Pad2)*%
X89669000Y-72517000D02*
X89542000Y-72644000D01*
X89542000Y-72644000D02*
X89542000Y-80264000D01*
X96842000Y-72517000D02*
X89669000Y-72517000D01*
%TO.N,Net-(D0_3-Pad2)*%
X70492000Y-72644000D02*
X70492000Y-80264000D01*
X70619000Y-72517000D02*
X70492000Y-72644000D01*
X77792000Y-72517000D02*
X70619000Y-72517000D01*
%TO.N,/Row 2*%
X203708000Y-55372000D02*
X206756000Y-58420000D01*
X84462000Y-95504000D02*
X102242000Y-95504000D01*
X138498000Y-91821000D02*
X138498000Y-92390000D01*
X155307000Y-55372000D02*
X203708000Y-55372000D01*
X102242000Y-95504000D02*
X103512000Y-95504000D01*
X100016000Y-92008000D02*
X103512000Y-95504000D01*
X138498000Y-92390000D02*
X141612000Y-95504000D01*
X144385000Y-66294000D02*
X155307000Y-55372000D01*
X103512000Y-95504000D02*
X122562000Y-95504000D01*
X119194000Y-92136000D02*
X122562000Y-95504000D01*
X206756000Y-68975000D02*
X210425000Y-72644000D01*
X100016000Y-91821000D02*
X100016000Y-92008000D01*
X80966000Y-91821000D02*
X80966000Y-92008000D01*
X80966000Y-92008000D02*
X84462000Y-95504000D01*
X140575000Y-95504000D02*
X144385000Y-95504000D01*
X206756000Y-58420000D02*
X206756000Y-68975000D01*
X122562000Y-95504000D02*
X140342000Y-95504000D01*
X140342000Y-95504000D02*
X141612000Y-95504000D01*
X119194000Y-91821000D02*
X119194000Y-92136000D01*
X144385000Y-95504000D02*
X144385000Y-66294000D01*
D29*
%TO.N,Net-(D1_0-Pad2)*%
X135198000Y-91821000D02*
X128785000Y-91821000D01*
X128785000Y-91821000D02*
X127642000Y-92964000D01*
%TO.N,Net-(D1_1-Pad2)*%
X109735000Y-91821000D02*
X108592000Y-92964000D01*
X115894000Y-91821000D02*
X109735000Y-91821000D01*
%TO.N,Net-(D1_2-Pad2)*%
X96716000Y-91821000D02*
X90685000Y-91821000D01*
X90685000Y-91821000D02*
X89542000Y-92964000D01*
%TO.N,Net-(D1_3-Pad2)*%
X77666000Y-91821000D02*
X71635000Y-91821000D01*
X71635000Y-91821000D02*
X70492000Y-92964000D01*
D28*
%TO.N,/Row 3*%
X81922000Y-113284000D02*
X102242000Y-113284000D01*
X81092000Y-112454000D02*
X81922000Y-113284000D01*
X139305000Y-113284000D02*
X144385000Y-113284000D01*
X118938000Y-110871000D02*
X118938000Y-112200000D01*
X118938000Y-112200000D02*
X120022000Y-113284000D01*
X140342000Y-112717000D02*
X140342000Y-113284000D01*
X100014000Y-111056000D02*
X102242000Y-113284000D01*
X202692000Y-56388000D02*
X205232000Y-58928000D01*
X102242000Y-113284000D02*
X120022000Y-113284000D01*
X146290000Y-111379000D02*
X146290000Y-66294000D01*
X100014000Y-110871000D02*
X100014000Y-111056000D01*
X146290000Y-66294000D02*
X156196000Y-56388000D01*
X156196000Y-56388000D02*
X202692000Y-56388000D01*
X120022000Y-113284000D02*
X140342000Y-113284000D01*
X138496000Y-110871000D02*
X140342000Y-112717000D01*
X81092000Y-110871000D02*
X81092000Y-112454000D01*
X205232000Y-58928000D02*
X205232000Y-69991000D01*
X144385000Y-113284000D02*
X146290000Y-111379000D01*
X205232000Y-69991000D02*
X210425000Y-75184000D01*
D29*
%TO.N,Net-(D2_0-Pad2)*%
X128785000Y-110871000D02*
X127642000Y-112014000D01*
X135196000Y-110871000D02*
X128785000Y-110871000D01*
%TO.N,Net-(D2_1-Pad2)*%
X109735000Y-110871000D02*
X108592000Y-112014000D01*
X115638000Y-110871000D02*
X109735000Y-110871000D01*
%TO.N,Net-(D2_2-Pad2)*%
X90685000Y-110871000D02*
X89542000Y-112014000D01*
X96714000Y-110871000D02*
X90685000Y-110871000D01*
%TO.N,Net-(D2_3-Pad2)*%
X71635000Y-110871000D02*
X70492000Y-112014000D01*
X77792000Y-110871000D02*
X71635000Y-110871000D01*
%TO.N,/Row 4*%
X118684000Y-130071000D02*
X120947000Y-132334000D01*
X118684000Y-129921000D02*
X118684000Y-130071000D01*
X157085000Y-57404000D02*
X201676000Y-57404000D01*
X203708000Y-71120000D02*
X206248000Y-73660000D01*
X139305000Y-132334000D02*
X144385000Y-132334000D01*
X206248000Y-73660000D02*
X206361000Y-73660000D01*
X102173000Y-132334000D02*
X121292000Y-132334000D01*
X147560000Y-66929000D02*
X157085000Y-57404000D01*
X138242000Y-130234000D02*
X140342000Y-132334000D01*
X138242000Y-129921000D02*
X138242000Y-130234000D01*
X201676000Y-57404000D02*
X203708000Y-59436000D01*
X206361000Y-73660000D02*
X210425000Y-77724000D01*
X144385000Y-132334000D02*
X147560000Y-129159000D01*
X147560000Y-129159000D02*
X147560000Y-66929000D01*
X120947000Y-132334000D02*
X140342000Y-132334000D01*
X83355000Y-132334000D02*
X102173000Y-132334000D01*
X81092000Y-130071000D02*
X83355000Y-132334000D01*
X81092000Y-129921000D02*
X81092000Y-130071000D01*
X203708000Y-59436000D02*
X203708000Y-71120000D01*
X99760000Y-129921000D02*
X102173000Y-132334000D01*
%TO.N,Net-(D3_0-Pad2)*%
X134942000Y-129921000D02*
X128785000Y-129921000D01*
X128785000Y-129921000D02*
X127642000Y-131064000D01*
%TO.N,Net-(D3_1-Pad2)*%
X109735000Y-129921000D02*
X108592000Y-131064000D01*
X115384000Y-129921000D02*
X109735000Y-129921000D01*
%TO.N,Net-(D3_2-Pad2)*%
X90685000Y-129921000D02*
X89542000Y-131064000D01*
X96460000Y-129921000D02*
X90685000Y-129921000D01*
%TO.N,Net-(D3_3-Pad2)*%
X77792000Y-129921000D02*
X71635000Y-129921000D01*
X71635000Y-129921000D02*
X70492000Y-131064000D01*
D28*
%TO.N,Net-(ESP32-Pad6)*%
X182696075Y-67206500D02*
X182696075Y-70461500D01*
X180513575Y-70461500D02*
X180156075Y-70104000D01*
X180156075Y-70104000D02*
X175500000Y-70104000D01*
X180513575Y-70461500D02*
X182696075Y-70461500D01*
%TO.N,SDA*%
X192645000Y-103124000D02*
X194550000Y-101219000D01*
X188200000Y-87249000D02*
X181215000Y-87249000D01*
X192645000Y-94154000D02*
X192645000Y-91694000D01*
X181215000Y-87249000D02*
X179521075Y-85555075D01*
X179521075Y-85555075D02*
X179521075Y-78994000D01*
X192645000Y-91694000D02*
X188200000Y-87249000D01*
X194550000Y-96059000D02*
X192645000Y-94154000D01*
X194550000Y-101219000D02*
X194550000Y-96059000D01*
X184390035Y-112013965D02*
X186295000Y-110109000D01*
X186295000Y-108204000D02*
X191375000Y-103124000D01*
X184390035Y-114492460D02*
X184390035Y-112013965D01*
X186295000Y-110109000D02*
X186295000Y-108204000D01*
X191375000Y-103124000D02*
X192645000Y-103124000D01*
%TO.N,Net-(ESP32-Pad16)*%
X152143145Y-73984489D02*
X149465000Y-71306344D01*
X153136855Y-73984489D02*
X152143145Y-73984489D01*
X153839511Y-74687145D02*
X153136855Y-73984489D01*
X152640000Y-82804000D02*
X153839511Y-81604489D01*
X154581072Y-61214000D02*
X190754000Y-61214000D01*
X190754000Y-61214000D02*
X192024000Y-62484000D01*
X192024000Y-62484000D02*
X195185000Y-62484000D01*
X153839511Y-81604489D02*
X153839511Y-74687145D01*
X149465000Y-71306344D02*
X149465000Y-66330072D01*
X149465000Y-66330072D02*
X154581072Y-61214000D01*
%TO.N,Net-(ESP32-Pad17)*%
X182186555Y-80389480D02*
X182696075Y-80899000D01*
X182696075Y-79879960D02*
X182186555Y-80389480D01*
X182696075Y-80899000D02*
X182696075Y-82884000D01*
X182696075Y-78279000D02*
X182696075Y-79879960D01*
%TO.N,CSn*%
X181850035Y-111633035D02*
X181850035Y-114492460D01*
X186930000Y-88519000D02*
X188835000Y-90424000D01*
X188835000Y-90424000D02*
X188835000Y-94234000D01*
X180580000Y-88519000D02*
X186930000Y-88519000D01*
X176135000Y-86614000D02*
X178675000Y-86614000D01*
X180086000Y-109869000D02*
X181850035Y-111633035D01*
X188835000Y-94234000D02*
X190740000Y-96139000D01*
X171690000Y-86614000D02*
X176135000Y-86614000D01*
X169785000Y-84709000D02*
X170420000Y-85344000D01*
X180086000Y-109474000D02*
X180086000Y-109869000D01*
X169785000Y-78359000D02*
X169785000Y-84709000D01*
X170420000Y-77724000D02*
X169785000Y-78359000D01*
X178675000Y-86614000D02*
X180580000Y-88519000D01*
X190740000Y-96139000D02*
X190740000Y-99314000D01*
X170420000Y-85344000D02*
X171690000Y-86614000D01*
X172960000Y-77724000D02*
X170420000Y-77724000D01*
%TO.N,SCL*%
X186295000Y-96139000D02*
X181215000Y-101219000D01*
X181215000Y-110109000D02*
X183120035Y-112014035D01*
X179310000Y-89154000D02*
X171055000Y-89154000D01*
X167880000Y-85979000D02*
X167880000Y-72644000D01*
X171055000Y-89154000D02*
X167880000Y-85979000D01*
X183120035Y-112014035D02*
X183120035Y-114492460D01*
X186295000Y-96139000D02*
X179310000Y-89154000D01*
X167880000Y-72644000D02*
X172960000Y-67564000D01*
X181215000Y-101219000D02*
X181215000Y-110109000D01*
D27*
%TO.N,/WH_In*%
X163435000Y-129238214D02*
X163435000Y-78994000D01*
X150472107Y-142201107D02*
X163435000Y-129238214D01*
X159625000Y-75184000D02*
X155180000Y-75184000D01*
X163435000Y-78994000D02*
X159625000Y-75184000D01*
%TO.N,/VH_In*%
X158990000Y-110744000D02*
X160260000Y-109474000D01*
X150472107Y-137121107D02*
X158990000Y-128603214D01*
X157720000Y-77724000D02*
X155180000Y-77724000D01*
X158990000Y-128603214D02*
X158990000Y-110744000D01*
X160260000Y-80264000D02*
X157720000Y-77724000D01*
X160260000Y-109474000D02*
X160260000Y-80264000D01*
%TO.N,/UH_In*%
X156450000Y-80264000D02*
X155180000Y-80264000D01*
X152932893Y-132041107D02*
X154545000Y-130429000D01*
X154545000Y-110109000D02*
X157720000Y-106934000D01*
X157720000Y-106934000D02*
X157720000Y-81534000D01*
X157720000Y-81534000D02*
X156450000Y-80264000D01*
X150472107Y-132041107D02*
X152932893Y-132041107D01*
X154545000Y-130429000D02*
X154545000Y-110109000D01*
D28*
%TO.N,Net-(QMK1-Pad1)*%
X182696075Y-84709000D02*
X183331075Y-85344000D01*
X199136000Y-90932000D02*
X199136000Y-61976000D01*
X199136000Y-61976000D02*
X197104000Y-59944000D01*
X194564000Y-90932000D02*
X199136000Y-90932000D01*
X188976000Y-85344000D02*
X194564000Y-90932000D01*
X197104000Y-59944000D02*
X195185000Y-59944000D01*
X183331075Y-85344000D02*
X188976000Y-85344000D01*
%TO.N,Net-(QMK1-Pad11)*%
X189507500Y-72286500D02*
X189507500Y-79666500D01*
X189507500Y-72286500D02*
X182696075Y-72286500D01*
X189507500Y-79666500D02*
X195185000Y-85344000D01*
%TO.N,Net-(RT_1-Pad2)*%
X183120035Y-118892460D02*
X181321575Y-117094000D01*
X178317500Y-109751500D02*
X178317500Y-105664000D01*
X180580000Y-117094000D02*
X180580000Y-112014000D01*
X183120035Y-119692460D02*
X183120035Y-118892460D01*
X181321575Y-117094000D02*
X180580000Y-117094000D01*
X180580000Y-112014000D02*
X178317500Y-109751500D01*
D30*
%TO.N,/W_Out*%
X201890000Y-123404000D02*
X202438000Y-123952000D01*
X191008000Y-133604000D02*
X191008000Y-127000000D01*
D28*
X203890000Y-125234000D02*
X203212000Y-125234000D01*
D30*
X191008000Y-127000000D02*
X194604000Y-123404000D01*
X194604000Y-123404000D02*
X201890000Y-123404000D01*
D28*
X203212000Y-125234000D02*
X202712000Y-124734000D01*
D30*
X173272107Y-134581107D02*
X179793107Y-134581107D01*
D28*
X202712000Y-124734000D02*
X203890000Y-124734000D01*
D30*
X202438000Y-123952000D02*
X202438000Y-124460000D01*
X187960000Y-136652000D02*
X191008000Y-133604000D01*
X181864000Y-136652000D02*
X187960000Y-136652000D01*
X179793107Y-134581107D02*
X181864000Y-136652000D01*
%TO.N,/V_Out*%
X200591893Y-125944000D02*
X202398000Y-125944000D01*
X180340000Y-139700000D02*
X188976000Y-139700000D01*
X194056000Y-128016000D02*
X196128000Y-125944000D01*
D28*
X203890000Y-126234000D02*
X202688000Y-126234000D01*
X203890000Y-125734000D02*
X202608000Y-125734000D01*
D30*
X188976000Y-139700000D02*
X194056000Y-134620000D01*
X194056000Y-134620000D02*
X194056000Y-128016000D01*
X173272107Y-137121107D02*
X177761107Y-137121107D01*
X196128000Y-125944000D02*
X200591893Y-125944000D01*
D28*
X202608000Y-125734000D02*
X202398000Y-125944000D01*
X202688000Y-126234000D02*
X202398000Y-125944000D01*
D30*
X177761107Y-137121107D02*
X180340000Y-139700000D01*
%TO.N,/U_Out*%
X197104000Y-136652000D02*
X197104000Y-129540000D01*
X197104000Y-129540000D02*
X198198893Y-128445107D01*
X179324000Y-143256000D02*
X190500000Y-143256000D01*
D28*
X202712000Y-127234000D02*
X203212000Y-126734000D01*
X203212000Y-126734000D02*
X203890000Y-126734000D01*
D30*
X173272107Y-139661107D02*
X175729107Y-139661107D01*
D28*
X203890000Y-127234000D02*
X202712000Y-127234000D01*
D30*
X198198893Y-128445107D02*
X202262893Y-128445107D01*
X202262893Y-128445107D02*
X202438000Y-128270000D01*
X190500000Y-143256000D02*
X197104000Y-136652000D01*
X202438000Y-128270000D02*
X202438000Y-127508000D01*
X175729107Y-139661107D02*
X179324000Y-143256000D01*
%TD*%
M02*
