M48
; DRILL file {KiCad (6.0.1)} date Thu Nov 17 22:19:49 2022
; FORMAT={-:-/ absolute / inch / decimal}
; #@! TF.CreationDate,2022-11-17T22:19:49+08:00
; #@! TF.GenerationSoftware,Kicad,Pcbnew,(6.0.1)
; #@! TF.FileFunction,NonPlated,1,2,NPTH
FMAT,2
INCH
; #@! TA.AperFunction,NonPlated,NPTH,ComponentDrill
T1C0.0670
; #@! TA.AperFunction,NonPlated,NPTH,ComponentDrill
T2C0.1181
; #@! TA.AperFunction,NonPlated,NPTH,ComponentDrill
T3C0.1260
; #@! TA.AperFunction,NonPlated,NPTH,ComponentDrill
T4C0.1570
%
G90
G05
T1
X2.9276Y-3.185
X2.9276Y-3.935
X2.9276Y-4.685
X2.9276Y-5.435
X3.3276Y-3.185
X3.3276Y-3.935
X3.3276Y-4.685
X3.3276Y-5.435
X3.6776Y-3.185
X3.6776Y-3.935
X3.6776Y-4.685
X3.6776Y-5.435
X4.0776Y-3.185
X4.0776Y-3.935
X4.0776Y-4.685
X4.0776Y-5.435
X4.4276Y-3.185
X4.4276Y-3.935
X4.4276Y-4.685
X4.4276Y-5.435
X4.8276Y-3.185
X4.8276Y-3.935
X4.8276Y-4.685
X4.8276Y-5.435
X5.1776Y-3.185
X5.1776Y-3.935
X5.1776Y-4.685
X5.1776Y-5.435
X5.5776Y-3.185
X5.5776Y-3.935
X5.5776Y-4.685
X5.5776Y-5.435
T2
X3.0276Y-3.385
X3.0276Y-4.135
X3.0276Y-4.885
X3.0276Y-5.635
X3.2776Y-3.285
X3.2776Y-4.035
X3.2776Y-4.785
X3.2776Y-5.535
X3.7776Y-3.385
X3.7776Y-4.135
X3.7776Y-4.885
X3.7776Y-5.635
X4.0276Y-3.285
X4.0276Y-4.035
X4.0276Y-4.785
X4.0276Y-5.535
X4.5276Y-3.385
X4.5276Y-4.135
X4.5276Y-4.885
X4.5276Y-5.635
X4.7776Y-3.285
X4.7776Y-4.035
X4.7776Y-4.785
X4.7776Y-5.535
X5.2776Y-3.385
X5.2776Y-4.135
X5.2776Y-4.885
X5.2776Y-5.635
X5.5276Y-3.285
X5.5276Y-4.035
X5.5276Y-4.785
X5.5276Y-5.535
T3
X2.675Y-2.2518
X2.675Y-5.6928
X8.4861Y-2.2518
X8.4861Y-5.6928
T4
X3.1276Y-3.185
X3.1276Y-3.935
X3.1276Y-4.685
X3.1276Y-5.435
X3.8776Y-3.185
X3.8776Y-3.935
X3.8776Y-4.685
X3.8776Y-5.435
X4.6276Y-3.185
X4.6276Y-3.935
X4.6276Y-4.685
X4.6276Y-5.435
X5.3776Y-3.185
X5.3776Y-3.935
X5.3776Y-4.685
X5.3776Y-5.435
T0
M30
