M48
; DRILL file {KiCad (6.0.1)} date Tue Nov  8 22:53:42 2022
; FORMAT={-:-/ absolute / inch / decimal}
; #@! TF.CreationDate,2022-11-08T22:53:42+08:00
; #@! TF.GenerationSoftware,Kicad,Pcbnew,(6.0.1)
; #@! TF.FileFunction,Plated,1,2,PTH
FMAT,2
INCH
; #@! TA.AperFunction,Plated,PTH,ViaDrill
T1C0.0197
; #@! TA.AperFunction,Plated,PTH,ComponentDrill
T2C0.0315
; #@! TA.AperFunction,Plated,PTH,ComponentDrill
T3C0.0394
%
G90
G05
T1
X2.7753Y-3.16
X2.7753Y-3.66
X2.7753Y-4.41
X2.7753Y-5.16
X3.5253Y-3.16
X3.5253Y-3.66
X3.5253Y-4.41
X3.5253Y-5.16
X4.2753Y-3.16
X4.2753Y-3.66
X4.2753Y-4.41
X4.2753Y-5.16
X5.0253Y-3.16
X5.0253Y-3.66
X5.0253Y-4.41
X5.0253Y-5.16
X6.5344Y-5.085
X6.5594Y-3.785
X6.5594Y-5.385
X6.6844Y-2.51
X6.8344Y-3.76
X6.8594Y-4.035
X7.0678Y-3.11
X7.0844Y-4.21
X7.1344Y-3.735
X7.1727Y-3.1649
X7.2303Y-2.9475
X7.2594Y-2.61
X7.3344Y-3.635
X7.3844Y-4.61
X7.5094Y-3.635
X7.5094Y-3.91
X7.6538Y-3.6406
T2
X7.6844Y-2.36
X7.6844Y-2.46
X7.6844Y-2.56
X7.6844Y-2.66
X7.6844Y-2.76
X7.6844Y-2.86
X7.6844Y-2.96
X7.6844Y-3.06
X7.6844Y-3.16
X7.6844Y-3.26
X7.6844Y-3.36
X7.6844Y-3.46
X8.2844Y-2.36
X8.2844Y-2.46
X8.2844Y-2.56
X8.2844Y-2.66
X8.2844Y-2.76
X8.2844Y-2.86
X8.2844Y-2.96
X8.2844Y-3.06
X8.2844Y-3.16
X8.2844Y-3.26
X8.2844Y-3.36
X8.2844Y-3.46
T3
X5.9241Y-4.9985
X5.9241Y-5.0985
X5.9241Y-5.1985
X5.9241Y-5.2985
X5.9241Y-5.3985
X5.9241Y-5.4985
X5.9241Y-5.5985
X5.9241Y-5.6985
X6.0094Y-2.56
X6.0094Y-2.66
X6.0094Y-2.76
X6.0094Y-2.86
X6.0094Y-2.96
X6.0094Y-3.06
X6.0094Y-3.16
X6.0094Y-3.26
X6.1094Y-2.56
X6.1094Y-2.66
X6.1094Y-2.76
X6.1094Y-2.86
X6.1094Y-2.96
X6.1094Y-3.06
X6.1094Y-3.16
X6.1094Y-3.26
X6.8094Y-2.56
X6.8094Y-2.66
X6.8094Y-2.76
X6.8094Y-2.86
X6.8094Y-2.96
X6.8094Y-3.06
X6.8094Y-3.16
X6.8094Y-3.26
X6.8217Y-4.9985
X6.8217Y-5.0985
X6.8217Y-5.1985
X6.8217Y-5.2985
X6.8217Y-5.3985
X6.8217Y-5.4985
X6.8217Y-5.5985
X6.8217Y-5.6985
X6.9094Y-2.56
X6.9094Y-2.66
X6.9094Y-2.76
X6.9094Y-2.86
X6.9094Y-2.96
X6.9094Y-3.06
X6.9094Y-3.16
X6.9094Y-3.26
T0
M30
