%TF.GenerationSoftware,KiCad,Pcbnew,(6.0.1)*%
%TF.CreationDate,2022-11-08T22:53:37+08:00*%
%TF.ProjectId,Scroller1,5363726f-6c6c-4657-9231-2e6b69636164,rev?*%
%TF.SameCoordinates,Original*%
%TF.FileFunction,Soldermask,Top*%
%TF.FilePolarity,Negative*%
%FSLAX46Y46*%
G04 Gerber Fmt 4.6, Leading zero omitted, Abs format (unit mm)*
G04 Created by KiCad (PCBNEW (6.0.1)) date 2022-11-08 22:53:37*
%MOMM*%
%LPD*%
G01*
G04 APERTURE LIST*
G04 Aperture macros list*
%AMRoundRect*
0 Rectangle with rounded corners*
0 $1 Rounding radius*
0 $2 $3 $4 $5 $6 $7 $8 $9 X,Y pos of 4 corners*
0 Add a 4 corners polygon primitive as box body*
4,1,4,$2,$3,$4,$5,$6,$7,$8,$9,$2,$3,0*
0 Add four circle primitives for the rounded corners*
1,1,$1+$1,$2,$3*
1,1,$1+$1,$4,$5*
1,1,$1+$1,$6,$7*
1,1,$1+$1,$8,$9*
0 Add four rect primitives between the rounded corners*
20,1,$1+$1,$2,$3,$4,$5,0*
20,1,$1+$1,$4,$5,$6,$7,0*
20,1,$1+$1,$6,$7,$8,$9,0*
20,1,$1+$1,$8,$9,$2,$3,0*%
%AMFreePoly0*
4,1,37,0.261526,0.899572,0.415523,0.879298,0.428131,0.875920,0.571634,0.816479,0.582938,0.809953,0.706167,0.715397,0.715397,0.706167,0.809953,0.582938,0.816479,0.571634,0.875920,0.428131,0.879298,0.415523,0.899572,0.261526,0.900000,0.255000,0.900000,-0.510000,0.885355,-0.545355,0.545355,-0.885355,0.510000,-0.900000,-0.255000,-0.900000,-0.261526,-0.899572,-0.415523,-0.879298,
-0.428131,-0.875920,-0.571634,-0.816479,-0.582938,-0.809953,-0.706167,-0.715397,-0.715397,-0.706167,-0.809953,-0.582938,-0.816479,-0.571634,-0.875920,-0.428131,-0.879298,-0.415523,-0.899572,-0.261526,-0.900000,-0.255000,-0.900000,0.510000,-0.885355,0.545355,-0.545355,0.885355,-0.510000,0.900000,0.255000,0.900000,0.261526,0.899572,0.261526,0.899572,$1*%
G04 Aperture macros list end*
%ADD10RoundRect,0.050000X0.450000X0.600000X-0.450000X0.600000X-0.450000X-0.600000X0.450000X-0.600000X0*%
%ADD11RoundRect,0.287500X0.237500X-0.250000X0.237500X0.250000X-0.237500X0.250000X-0.237500X-0.250000X0*%
%ADD12C,3.300000*%
%ADD13RoundRect,0.287500X0.237500X-0.300000X0.237500X0.300000X-0.237500X0.300000X-0.237500X-0.300000X0*%
%ADD14RoundRect,0.287500X-0.237500X0.250000X-0.237500X-0.250000X0.237500X-0.250000X0.237500X0.250000X0*%
%ADD15C,4.087800*%
%ADD16C,3.100000*%
%ADD17C,1.801800*%
%ADD18RoundRect,0.258750X0.208750X0.431250X-0.208750X0.431250X-0.208750X-0.431250X0.208750X-0.431250X0*%
%ADD19RoundRect,0.050000X-0.300000X-1.100000X0.300000X-1.100000X0.300000X1.100000X-0.300000X1.100000X0*%
%ADD20RoundRect,0.050000X-0.300000X-0.350000X0.300000X-0.350000X0.300000X0.350000X-0.300000X0.350000X0*%
%ADD21RoundRect,0.449500X0.450500X0.450500X-0.450500X0.450500X-0.450500X-0.450500X0.450500X-0.450500X0*%
%ADD22O,1.800000X1.800000*%
%ADD23FreePoly0,180.000000*%
%ADD24C,1.800000*%
%ADD25RoundRect,0.050000X0.800000X0.800000X-0.800000X0.800000X-0.800000X-0.800000X0.800000X-0.800000X0*%
%ADD26O,1.700000X1.700000*%
%ADD27RoundRect,0.287500X-0.250000X-0.237500X0.250000X-0.237500X0.250000X0.237500X-0.250000X0.237500X0*%
%ADD28RoundRect,0.050000X0.500000X-0.200000X0.500000X0.200000X-0.500000X0.200000X-0.500000X-0.200000X0*%
%ADD29RoundRect,0.050000X0.650000X-1.000000X0.650000X1.000000X-0.650000X1.000000X-0.650000X-1.000000X0*%
G04 APERTURE END LIST*
D10*
%TO.C,D1_1*%
X119194000Y-91821000D03*
X115894000Y-91821000D03*
%TD*%
D11*
%TO.C,RS_2*%
X182696075Y-78279000D03*
X182696075Y-76454000D03*
%TD*%
D12*
%TO.C,MHole_3*%
X215546000Y-57196000D03*
%TD*%
D13*
%TO.C,C1*%
X178040000Y-124714000D03*
X178040000Y-122989000D03*
%TD*%
D10*
%TO.C,D2_0*%
X138496000Y-110871000D03*
X135196000Y-110871000D03*
%TD*%
D14*
%TO.C,RT_4*%
X194550000Y-94234000D03*
X194550000Y-96059000D03*
%TD*%
D10*
%TO.C,D0_1*%
X118135400Y-72517000D03*
X114835400Y-72517000D03*
%TD*%
D15*
%TO.C,SW_0_0*%
X136592000Y-80899000D03*
D16*
X140402000Y-83439000D03*
D17*
X141672000Y-80899000D03*
D16*
X134052000Y-85979000D03*
D17*
X131512000Y-80899000D03*
%TD*%
D18*
%TO.C,C2*%
X178032500Y-95504000D03*
X176777500Y-95504000D03*
%TD*%
D10*
%TO.C,D1_0*%
X138498000Y-91821000D03*
X135198000Y-91821000D03*
%TD*%
D16*
%TO.C,SW_2_1*%
X115002000Y-124079000D03*
D17*
X122622000Y-118999000D03*
X112462000Y-118999000D03*
D16*
X121352000Y-121539000D03*
D15*
X117542000Y-118999000D03*
%TD*%
D12*
%TO.C,MHole_1*%
X67946000Y-57196000D03*
%TD*%
%TO.C,MHole_6*%
X215546000Y-144596000D03*
%TD*%
D19*
%TO.C,UM1*%
X181850035Y-119692460D03*
X183120035Y-119692460D03*
X184390035Y-119692460D03*
X185660035Y-119692460D03*
X185660035Y-114492460D03*
X184390035Y-114492460D03*
X183120035Y-114492460D03*
X181850035Y-114492460D03*
%TD*%
D17*
%TO.C,SW_1_0*%
X131512000Y-99949000D03*
D16*
X134052000Y-105029000D03*
D15*
X136592000Y-99949000D03*
D17*
X141672000Y-99949000D03*
D16*
X140402000Y-102489000D03*
%TD*%
D10*
%TO.C,D1_2*%
X100016000Y-91821000D03*
X96716000Y-91821000D03*
%TD*%
%TO.C,D2_3*%
X81092000Y-110871000D03*
X77792000Y-110871000D03*
%TD*%
D16*
%TO.C,SW_3_0*%
X140402000Y-140589000D03*
D17*
X141672000Y-138049000D03*
D15*
X136592000Y-138049000D03*
D17*
X131512000Y-138049000D03*
D16*
X134052000Y-143129000D03*
%TD*%
D17*
%TO.C,SW_1_3*%
X84522000Y-99949000D03*
X74362000Y-99949000D03*
D16*
X83252000Y-102489000D03*
X76902000Y-105029000D03*
D15*
X79442000Y-99949000D03*
%TD*%
D16*
%TO.C,SW_1_2*%
X102302000Y-102489000D03*
D15*
X98492000Y-99949000D03*
D17*
X103572000Y-99949000D03*
D16*
X95952000Y-105029000D03*
D17*
X93412000Y-99949000D03*
%TD*%
D14*
%TO.C,RT_2*%
X190740000Y-94314000D03*
X190740000Y-96139000D03*
%TD*%
D20*
%TO.C,D1*%
X178054000Y-99949000D03*
X176654000Y-99949000D03*
%TD*%
D21*
%TO.C,TMC1*%
X150472107Y-126961107D03*
D22*
X150472107Y-129501107D03*
X150472107Y-132041107D03*
X150472107Y-134581107D03*
X150472107Y-137121107D03*
X150472107Y-139661107D03*
X150472107Y-142201107D03*
X150472107Y-144741107D03*
D21*
X173272107Y-126961107D03*
D22*
X173272107Y-129501107D03*
X173272107Y-132041107D03*
X173272107Y-134581107D03*
X173272107Y-137121107D03*
X173272107Y-139661107D03*
X173272107Y-142201107D03*
X173272107Y-144741107D03*
%TD*%
D11*
%TO.C,RM_1*%
X182696075Y-72286500D03*
X182696075Y-70461500D03*
%TD*%
D16*
%TO.C,SW_0_3*%
X76902000Y-85979000D03*
D15*
X79442000Y-80899000D03*
D17*
X74362000Y-80899000D03*
D16*
X83252000Y-83439000D03*
D17*
X84522000Y-80899000D03*
%TD*%
%TO.C,SW_3_2*%
X103572000Y-138049000D03*
X93412000Y-138049000D03*
D16*
X95952000Y-143129000D03*
X102302000Y-140589000D03*
D15*
X98492000Y-138049000D03*
%TD*%
D23*
%TO.C,ESP32*%
X175500000Y-82804000D03*
D24*
X175500000Y-80264000D03*
X175500000Y-77724000D03*
X175500000Y-75184000D03*
X175500000Y-72644000D03*
X175500000Y-70104000D03*
X175500000Y-67564000D03*
X175500000Y-65024000D03*
X152640000Y-65024000D03*
X152640000Y-67564000D03*
X152640000Y-70104000D03*
X152640000Y-72644000D03*
X152640000Y-75184000D03*
X152640000Y-77724000D03*
X152640000Y-80264000D03*
X152640000Y-82804000D03*
X172960000Y-82804000D03*
X172960000Y-80264000D03*
X172960000Y-77724000D03*
X172960000Y-75184000D03*
X172960000Y-72644000D03*
X172960000Y-70104000D03*
X172960000Y-67564000D03*
X172960000Y-65024000D03*
X155180000Y-65024000D03*
X155180000Y-67564000D03*
X155180000Y-70104000D03*
X155180000Y-72644000D03*
X155180000Y-75184000D03*
X155180000Y-77724000D03*
X155180000Y-80264000D03*
X155180000Y-82804000D03*
%TD*%
D16*
%TO.C,SW_0_1*%
X115002000Y-85979000D03*
D17*
X112462000Y-80899000D03*
D15*
X117542000Y-80899000D03*
D17*
X122622000Y-80899000D03*
D16*
X121352000Y-83439000D03*
%TD*%
D14*
%TO.C,RT_3*%
X186295000Y-94314000D03*
X186295000Y-96139000D03*
%TD*%
D25*
%TO.C,QMK1*%
X195185000Y-59944000D03*
D26*
X195185000Y-62484000D03*
X195185000Y-65024000D03*
X195185000Y-67564000D03*
X195185000Y-70104000D03*
X195185000Y-72644000D03*
X195185000Y-75184000D03*
X195185000Y-77724000D03*
X195185000Y-80264000D03*
X195185000Y-82804000D03*
X195185000Y-85344000D03*
X195185000Y-87884000D03*
X210425000Y-87884000D03*
X210425000Y-85344000D03*
X210425000Y-82804000D03*
X210425000Y-80264000D03*
X210425000Y-77724000D03*
X210425000Y-75184000D03*
X210425000Y-72644000D03*
X210425000Y-70104000D03*
X210425000Y-67564000D03*
X210425000Y-65024000D03*
X210425000Y-62484000D03*
X210425000Y-59944000D03*
%TD*%
D27*
%TO.C,RT_1*%
X176492500Y-105664000D03*
X178317500Y-105664000D03*
%TD*%
D10*
%TO.C,D0_3*%
X81092000Y-72517000D03*
X77792000Y-72517000D03*
%TD*%
D11*
%TO.C,RS_1*%
X182696075Y-84709000D03*
X182696075Y-82884000D03*
%TD*%
D10*
%TO.C,D3_1*%
X118684000Y-129921000D03*
X115384000Y-129921000D03*
%TD*%
D17*
%TO.C,SW_3_1*%
X112462000Y-138049000D03*
X122622000Y-138049000D03*
D15*
X117542000Y-138049000D03*
D16*
X121352000Y-140589000D03*
X115002000Y-143129000D03*
%TD*%
%TO.C,SW_1_1*%
X121352000Y-102489000D03*
D15*
X117542000Y-99949000D03*
D17*
X122622000Y-99949000D03*
X112462000Y-99949000D03*
D16*
X115002000Y-105029000D03*
%TD*%
D10*
%TO.C,D2_1*%
X118938000Y-110871000D03*
X115638000Y-110871000D03*
%TD*%
D28*
%TO.C,UVW1*%
X202947000Y-128444000D03*
X202947000Y-127444000D03*
X202947000Y-126444000D03*
X202947000Y-125444000D03*
X202947000Y-124444000D03*
X202947000Y-123444000D03*
D29*
X205647000Y-120644000D03*
X205647000Y-131244000D03*
%TD*%
D10*
%TO.C,D2_2*%
X100014000Y-110871000D03*
X96714000Y-110871000D03*
%TD*%
D15*
%TO.C,SW_2_2*%
X98492000Y-118999000D03*
D16*
X95952000Y-124079000D03*
D17*
X103572000Y-118999000D03*
D16*
X102302000Y-121539000D03*
D17*
X93412000Y-118999000D03*
%TD*%
D16*
%TO.C,SW_2_3*%
X76902000Y-124079000D03*
X83252000Y-121539000D03*
D17*
X84522000Y-118999000D03*
X74362000Y-118999000D03*
D15*
X79442000Y-118999000D03*
%TD*%
D10*
%TO.C,D3_3*%
X81092000Y-129921000D03*
X77792000Y-129921000D03*
%TD*%
%TO.C,D3_0*%
X138242000Y-129921000D03*
X134942000Y-129921000D03*
%TD*%
D17*
%TO.C,SW_0_2*%
X103572000Y-80899000D03*
D16*
X102302000Y-83439000D03*
X95952000Y-85979000D03*
D15*
X98492000Y-80899000D03*
D17*
X93412000Y-80899000D03*
%TD*%
D12*
%TO.C,MHole_4*%
X67946000Y-144596000D03*
%TD*%
D10*
%TO.C,D0_2*%
X100142000Y-72517000D03*
X96842000Y-72517000D03*
%TD*%
%TO.C,D1_3*%
X80966000Y-91821000D03*
X77666000Y-91821000D03*
%TD*%
D11*
%TO.C,RM_2*%
X182696075Y-67206500D03*
X182696075Y-65381500D03*
%TD*%
D10*
%TO.C,D3_2*%
X99760000Y-129921000D03*
X96460000Y-129921000D03*
%TD*%
%TO.C,D0_0*%
X138242000Y-72517000D03*
X134942000Y-72517000D03*
%TD*%
D17*
%TO.C,SW_3_3*%
X84522000Y-138049000D03*
D16*
X76902000Y-143129000D03*
D17*
X74362000Y-138049000D03*
D16*
X83252000Y-140589000D03*
D15*
X79442000Y-138049000D03*
%TD*%
%TO.C,SW_2_0*%
X136592000Y-118999000D03*
D17*
X131512000Y-118999000D03*
D16*
X134052000Y-124079000D03*
X140402000Y-121539000D03*
D17*
X141672000Y-118999000D03*
%TD*%
M02*
