%TF.GenerationSoftware,KiCad,Pcbnew,(6.0.1)*%
%TF.CreationDate,2022-11-17T23:17:31+08:00*%
%TF.ProjectId,ESP32_Adapter,45535033-325f-4416-9461-707465722e6b,rev?*%
%TF.SameCoordinates,Original*%
%TF.FileFunction,Copper,L1,Top*%
%TF.FilePolarity,Positive*%
%FSLAX46Y46*%
G04 Gerber Fmt 4.6, Leading zero omitted, Abs format (unit mm)*
G04 Created by KiCad (PCBNEW (6.0.1)) date 2022-11-17 23:17:31*
%MOMM*%
%LPD*%
G01*
G04 APERTURE LIST*
G04 Aperture macros list*
%AMRoundRect*
0 Rectangle with rounded corners*
0 $1 Rounding radius*
0 $2 $3 $4 $5 $6 $7 $8 $9 X,Y pos of 4 corners*
0 Add a 4 corners polygon primitive as box body*
4,1,4,$2,$3,$4,$5,$6,$7,$8,$9,$2,$3,0*
0 Add four circle primitives for the rounded corners*
1,1,$1+$1,$2,$3*
1,1,$1+$1,$4,$5*
1,1,$1+$1,$6,$7*
1,1,$1+$1,$8,$9*
0 Add four rect primitives between the rounded corners*
20,1,$1+$1,$2,$3,$4,$5,0*
20,1,$1+$1,$4,$5,$6,$7,0*
20,1,$1+$1,$6,$7,$8,$9,0*
20,1,$1+$1,$8,$9,$2,$3,0*%
%AMFreePoly0*
4,1,19,-0.850000,0.510000,-0.510000,0.850000,0.255000,0.850000,0.408997,0.829726,0.552500,0.770285,0.675729,0.675729,0.770285,0.552500,0.829726,0.408997,0.850000,0.255000,0.850000,-0.510000,0.510000,-0.850000,-0.255000,-0.850000,-0.408997,-0.829726,-0.552500,-0.770285,-0.675729,-0.675729,-0.770285,-0.552500,-0.829726,-0.408997,-0.850000,-0.255000,-0.850000,0.510000,-0.850000,0.510000,
$1*%
G04 Aperture macros list end*
%TA.AperFunction,ComponentPad*%
%ADD10FreePoly0,180.000000*%
%TD*%
%TA.AperFunction,ComponentPad*%
%ADD11C,1.700000*%
%TD*%
%TA.AperFunction,SMDPad,CuDef*%
%ADD12R,0.900000X2.000000*%
%TD*%
%TA.AperFunction,SMDPad,CuDef*%
%ADD13R,2.000000X0.900000*%
%TD*%
%TA.AperFunction,SMDPad,CuDef*%
%ADD14R,5.000000X5.000000*%
%TD*%
%TA.AperFunction,SMDPad,CuDef*%
%ADD15RoundRect,0.237500X0.237500X-0.300000X0.237500X0.300000X-0.237500X0.300000X-0.237500X-0.300000X0*%
%TD*%
%TA.AperFunction,SMDPad,CuDef*%
%ADD16RoundRect,0.237500X-0.300000X-0.237500X0.300000X-0.237500X0.300000X0.237500X-0.300000X0.237500X0*%
%TD*%
%TA.AperFunction,SMDPad,CuDef*%
%ADD17R,2.000000X1.500000*%
%TD*%
%TA.AperFunction,SMDPad,CuDef*%
%ADD18R,2.000000X3.800000*%
%TD*%
%TA.AperFunction,ViaPad*%
%ADD19C,1.500000*%
%TD*%
%TA.AperFunction,Conductor*%
%ADD20C,0.300000*%
%TD*%
%TA.AperFunction,Conductor*%
%ADD21C,0.500000*%
%TD*%
G04 APERTURE END LIST*
D10*
%TO.P,S2m1,1,EN*%
%TO.N,unconnected-(S2m1-Pad1)*%
X115824000Y-90002000D03*
D11*
%TO.P,S2m1,2,GPIO3*%
%TO.N,unconnected-(S2m1-Pad2)*%
X115824000Y-87462000D03*
%TO.P,S2m1,3,GPIO5*%
%TO.N,unconnected-(S2m1-Pad3)*%
X115824000Y-84922000D03*
%TO.P,S2m1,4,GPIO7*%
%TO.N,unconnected-(S2m1-Pad4)*%
X115824000Y-82382000D03*
%TO.P,S2m1,5,GPIO9*%
%TO.N,unconnected-(S2m1-Pad5)*%
X115824000Y-79842000D03*
%TO.P,S2m1,6,GPIO11*%
%TO.N,BTN_NEXT*%
X115824000Y-77302000D03*
%TO.P,S2m1,7,GPIO12*%
%TO.N,MT_SDA*%
X115824000Y-74762000D03*
%TO.P,S2m1,8,3V3*%
%TO.N,+3V3*%
X115824000Y-72222000D03*
%TO.P,S2m1,9,VBUS*%
%TO.N,+5V*%
X92964000Y-72222000D03*
%TO.P,S2m1,10,GND*%
%TO.N,GND*%
X92964000Y-74762000D03*
%TO.P,S2m1,11,XTAL_32K_N*%
%TO.N,unconnected-(S2m1-Pad11)*%
X92964000Y-77302000D03*
%TO.P,S2m1,12,DAC_2*%
%TO.N,unconnected-(S2m1-Pad12)*%
X92964000Y-79842000D03*
%TO.P,S2m1,13,GPIO33*%
%TO.N,WL*%
X92964000Y-82382000D03*
%TO.P,S2m1,14,GPIO35*%
%TO.N,VL*%
X92964000Y-84922000D03*
%TO.P,S2m1,15,GPIO37*%
%TO.N,UL*%
X92964000Y-87462000D03*
%TO.P,S2m1,16,MTCK*%
%TO.N,SERIAL_TX*%
X92964000Y-90002000D03*
%TO.P,S2m1,17,GPIO1*%
%TO.N,SERIAL_RX*%
X113284000Y-90002000D03*
%TO.P,S2m1,18,GPIO2*%
%TO.N,unconnected-(S2m1-Pad18)*%
X113284000Y-87462000D03*
%TO.P,S2m1,19,GPIO4*%
%TO.N,MT_CSN*%
X113284000Y-84922000D03*
%TO.P,S2m1,20,GPIO6*%
%TO.N,unconnected-(S2m1-Pad20)*%
X113284000Y-82382000D03*
%TO.P,S2m1,21,GPIO8*%
%TO.N,unconnected-(S2m1-Pad21)*%
X113284000Y-79842000D03*
%TO.P,S2m1,22,GPIO10*%
%TO.N,unconnected-(S2m1-Pad22)*%
X113284000Y-77302000D03*
%TO.P,S2m1,23,GPIO13*%
%TO.N,MT_SCL*%
X113284000Y-74762000D03*
%TO.P,S2m1,24,GPIO14*%
%TO.N,unconnected-(S2m1-Pad24)*%
X113284000Y-72222000D03*
%TO.P,S2m1,25,XTAL_32K_P*%
%TO.N,unconnected-(S2m1-Pad25)*%
X95504000Y-72222000D03*
%TO.P,S2m1,26,GND*%
%TO.N,GND*%
X95504000Y-74762000D03*
%TO.P,S2m1,27,DAC_1*%
%TO.N,unconnected-(S2m1-Pad27)*%
X95504000Y-77302000D03*
%TO.P,S2m1,28,GPIO21*%
%TO.N,unconnected-(S2m1-Pad28)*%
X95504000Y-79842000D03*
%TO.P,S2m1,29,GPIO34*%
%TO.N,WH*%
X95504000Y-82382000D03*
%TO.P,S2m1,30,GPIO36*%
%TO.N,VH*%
X95504000Y-84922000D03*
%TO.P,S2m1,31,GPIO38*%
%TO.N,UH*%
X95504000Y-87462000D03*
%TO.P,S2m1,32,MTDO*%
%TO.N,unconnected-(S2m1-Pad32)*%
X95504000Y-90002000D03*
%TD*%
D12*
%TO.P,ESP32,1,GND*%
%TO.N,GND*%
X112776000Y-94742000D03*
%TO.P,ESP32,2,VDD*%
%TO.N,+5V*%
X111506000Y-94742000D03*
%TO.P,ESP32,3,EN*%
%TO.N,unconnected-(ESP32-Pad3)*%
X110236000Y-94742000D03*
%TO.P,ESP32,4,SENSOR_VP*%
%TO.N,unconnected-(ESP32-Pad4)*%
X108966000Y-94742000D03*
%TO.P,ESP32,5,SENSOR_VN*%
%TO.N,unconnected-(ESP32-Pad5)*%
X107696000Y-94742000D03*
%TO.P,ESP32,6,IO34*%
%TO.N,unconnected-(ESP32-Pad6)*%
X106426000Y-94742000D03*
%TO.P,ESP32,7,IO35*%
%TO.N,unconnected-(ESP32-Pad7)*%
X105156000Y-94742000D03*
%TO.P,ESP32,8,IO32*%
%TO.N,VL*%
X103886000Y-94742000D03*
%TO.P,ESP32,9,IO33*%
%TO.N,WL*%
X102616000Y-94742000D03*
%TO.P,ESP32,10,IO25*%
%TO.N,UL*%
X101346000Y-94742000D03*
%TO.P,ESP32,11,IO26*%
%TO.N,UH*%
X100076000Y-94742000D03*
%TO.P,ESP32,12,IO27*%
%TO.N,VH*%
X98806000Y-94742000D03*
%TO.P,ESP32,13,IO14*%
%TO.N,MT_CSN*%
X97536000Y-94742000D03*
%TO.P,ESP32,14,IO12*%
%TO.N,WH*%
X96266000Y-94742000D03*
D13*
%TO.P,ESP32,15,GND*%
%TO.N,GND*%
X95266000Y-97527000D03*
%TO.P,ESP32,16,IO13*%
%TO.N,MT_SCL*%
X95266000Y-98797000D03*
%TO.P,ESP32,17,SHD/SD2*%
%TO.N,unconnected-(ESP32-Pad17)*%
X95266000Y-100067000D03*
%TO.P,ESP32,18,SWP/SD3*%
%TO.N,unconnected-(ESP32-Pad18)*%
X95266000Y-101337000D03*
%TO.P,ESP32,19,SCS/CMD*%
%TO.N,unconnected-(ESP32-Pad19)*%
X95266000Y-102607000D03*
%TO.P,ESP32,20,SCK/CLK*%
%TO.N,unconnected-(ESP32-Pad20)*%
X95266000Y-103877000D03*
%TO.P,ESP32,21,SDO/SD0*%
%TO.N,unconnected-(ESP32-Pad21)*%
X95266000Y-105147000D03*
%TO.P,ESP32,22,SDI/SD1*%
%TO.N,unconnected-(ESP32-Pad22)*%
X95266000Y-106417000D03*
%TO.P,ESP32,23,IO15*%
%TO.N,unconnected-(ESP32-Pad23)*%
X95266000Y-107687000D03*
%TO.P,ESP32,24,IO2*%
%TO.N,unconnected-(ESP32-Pad24)*%
X95266000Y-108957000D03*
D12*
%TO.P,ESP32,25,IO0*%
%TO.N,unconnected-(ESP32-Pad25)*%
X96266000Y-111742000D03*
%TO.P,ESP32,26,IO4*%
%TO.N,MT_SDA*%
X97536000Y-111742000D03*
%TO.P,ESP32,27,IO16*%
%TO.N,SERIAL_TX*%
X98806000Y-111742000D03*
%TO.P,ESP32,28,IO17*%
%TO.N,SERIAL_RX*%
X100076000Y-111742000D03*
%TO.P,ESP32,29,IO5*%
%TO.N,unconnected-(ESP32-Pad29)*%
X101346000Y-111742000D03*
%TO.P,ESP32,30,IO18*%
%TO.N,unconnected-(ESP32-Pad30)*%
X102616000Y-111742000D03*
%TO.P,ESP32,31,IO19*%
%TO.N,unconnected-(ESP32-Pad31)*%
X103886000Y-111742000D03*
%TO.P,ESP32,32,NC*%
%TO.N,unconnected-(ESP32-Pad32)*%
X105156000Y-111742000D03*
%TO.P,ESP32,33,IO21*%
%TO.N,unconnected-(ESP32-Pad33)*%
X106426000Y-111742000D03*
%TO.P,ESP32,34,RXD0/IO3*%
%TO.N,unconnected-(ESP32-Pad34)*%
X107696000Y-111742000D03*
%TO.P,ESP32,35,TXD0/IO1*%
%TO.N,unconnected-(ESP32-Pad35)*%
X108966000Y-111742000D03*
%TO.P,ESP32,36,IO22*%
%TO.N,BTN_NEXT*%
X110236000Y-111742000D03*
%TO.P,ESP32,37,IO23*%
%TO.N,unconnected-(ESP32-Pad37)*%
X111506000Y-111742000D03*
%TO.P,ESP32,38,GND*%
%TO.N,GND*%
X112776000Y-111742000D03*
D14*
%TO.P,ESP32,39,GND*%
X105276000Y-102242000D03*
%TD*%
D15*
%TO.P,C2,1*%
%TO.N,+3V3*%
X100584000Y-75893000D03*
%TO.P,C2,2*%
%TO.N,GND*%
X100584000Y-74168000D03*
%TD*%
D16*
%TO.P,C1,1*%
%TO.N,+5V*%
X98705500Y-72136000D03*
%TO.P,C1,2*%
%TO.N,GND*%
X100430500Y-72136000D03*
%TD*%
D17*
%TO.P,AMS1117,1,GND*%
%TO.N,GND*%
X103428000Y-74154000D03*
D18*
%TO.P,AMS1117,2,VO*%
%TO.N,+3V3*%
X109728000Y-76454000D03*
D17*
X103428000Y-76454000D03*
%TO.P,AMS1117,3,VI*%
%TO.N,+5V*%
X103428000Y-78754000D03*
%TD*%
D19*
%TO.N,MT_CSN*%
X93218000Y-111506000D03*
%TO.N,MT_SCL*%
X107188000Y-85090000D03*
X98298000Y-103124000D03*
%TO.N,SERIAL_RX*%
X112776000Y-100584000D03*
X108712000Y-106426000D03*
%TO.N,MT_SDA*%
X106172000Y-107950000D03*
%TO.N,BTN_NEXT*%
X110236000Y-108204000D03*
%TO.N,GND*%
X108966000Y-97536000D03*
%TO.N,WH*%
X93726000Y-92964000D03*
%TO.N,VH*%
X97282000Y-91694000D03*
%TO.N,UH*%
X99314000Y-90678000D03*
%TO.N,GND*%
X106426000Y-74422000D03*
%TD*%
D20*
%TO.N,MT_CSN*%
X93218000Y-96774000D02*
X93218000Y-111506000D01*
X97536000Y-96042000D02*
X97058000Y-96520000D01*
X97058000Y-96520000D02*
X93472000Y-96520000D01*
X97536000Y-94742000D02*
X97536000Y-96042000D01*
X93472000Y-96520000D02*
X93218000Y-96774000D01*
D21*
%TO.N,GND*%
X104648000Y-98552000D02*
X105673000Y-97527000D01*
X98486425Y-97527000D02*
X99511425Y-98552000D01*
X99511425Y-98552000D02*
X104648000Y-98552000D01*
X95266000Y-97527000D02*
X98486425Y-97527000D01*
D20*
%TO.N,MT_SCL*%
X111506000Y-76540000D02*
X113284000Y-74762000D01*
X111506000Y-82042000D02*
X111506000Y-76540000D01*
X108458000Y-85090000D02*
X111506000Y-82042000D01*
X107188000Y-85090000D02*
X108458000Y-85090000D01*
X97282000Y-102108000D02*
X98298000Y-103124000D01*
X97282000Y-99513000D02*
X97282000Y-101854000D01*
X97282000Y-101854000D02*
X97282000Y-102108000D01*
X96566000Y-98797000D02*
X97282000Y-99513000D01*
X95266000Y-98797000D02*
X96566000Y-98797000D01*
%TO.N,SERIAL_TX*%
X91948000Y-91018000D02*
X92964000Y-90002000D01*
X98056000Y-113792000D02*
X92710000Y-113792000D01*
X92710000Y-113792000D02*
X91948000Y-113030000D01*
X98806000Y-113042000D02*
X98056000Y-113792000D01*
X91948000Y-113030000D02*
X91948000Y-91018000D01*
X98806000Y-111742000D02*
X98806000Y-113042000D01*
%TO.N,SERIAL_RX*%
X113284000Y-92710000D02*
X113284000Y-90002000D01*
X113792000Y-93218000D02*
X113284000Y-92710000D01*
X113792000Y-98298000D02*
X113792000Y-93218000D01*
X112776000Y-99314000D02*
X113792000Y-98298000D01*
X112776000Y-100584000D02*
X112776000Y-99314000D01*
X108204000Y-106426000D02*
X108712000Y-106426000D01*
X106934000Y-109728000D02*
X108204000Y-108458000D01*
X101210978Y-109728000D02*
X106934000Y-109728000D01*
X108204000Y-108458000D02*
X108204000Y-106426000D01*
X100076000Y-110862978D02*
X101210978Y-109728000D01*
X100076000Y-111742000D02*
X100076000Y-110862978D01*
%TO.N,MT_SDA*%
X99314000Y-108204000D02*
X97536000Y-109982000D01*
X105918000Y-108204000D02*
X99314000Y-108204000D01*
X106172000Y-107950000D02*
X105918000Y-108204000D01*
X97536000Y-109982000D02*
X97536000Y-111742000D01*
%TO.N,BTN_NEXT*%
X110236000Y-111742000D02*
X110236000Y-108204000D01*
D21*
%TO.N,GND*%
X112776000Y-105156000D02*
X112776000Y-111742000D01*
X109862000Y-102242000D02*
X112776000Y-105156000D01*
X105276000Y-102242000D02*
X109862000Y-102242000D01*
X105276000Y-102242000D02*
X105276000Y-97924000D01*
X105673000Y-97527000D02*
X108957000Y-97527000D01*
X105276000Y-97924000D02*
X105673000Y-97527000D01*
%TO.N,+5V*%
X103428000Y-83616000D02*
X103428000Y-78754000D01*
X106426000Y-86614000D02*
X103428000Y-83616000D01*
X106426000Y-88162000D02*
X106426000Y-86614000D01*
X111506000Y-93242000D02*
X106426000Y-88162000D01*
X111506000Y-94742000D02*
X111506000Y-93242000D01*
%TO.N,GND*%
X111482000Y-97536000D02*
X108966000Y-97536000D01*
X112776000Y-96242000D02*
X111482000Y-97536000D01*
X112776000Y-94742000D02*
X112776000Y-96242000D01*
X108957000Y-97527000D02*
X108966000Y-97536000D01*
D20*
%TO.N,WH*%
X95504000Y-94742000D02*
X93726000Y-92964000D01*
X96266000Y-94742000D02*
X95504000Y-94742000D01*
%TO.N,VH*%
X98806000Y-93218000D02*
X97282000Y-91694000D01*
X98806000Y-94742000D02*
X98806000Y-93218000D01*
%TO.N,UH*%
X100076000Y-91440000D02*
X99314000Y-90678000D01*
X100076000Y-94742000D02*
X100076000Y-91440000D01*
%TO.N,UL*%
X94304489Y-88802489D02*
X92964000Y-87462000D01*
X100232489Y-88802489D02*
X94304489Y-88802489D01*
X101346000Y-89916000D02*
X100232489Y-88802489D01*
X101346000Y-94742000D02*
X101346000Y-89916000D01*
%TO.N,WL*%
X92608123Y-86262489D02*
X91694000Y-85348366D01*
X91694000Y-83652000D02*
X92964000Y-82382000D01*
X102616000Y-88392000D02*
X100486489Y-86262489D01*
X102616000Y-94742000D02*
X102616000Y-88392000D01*
X100486489Y-86262489D02*
X92608123Y-86262489D01*
X91694000Y-85348366D02*
X91694000Y-83652000D01*
%TO.N,VL*%
X94304489Y-83581511D02*
X92964000Y-84922000D01*
X100853511Y-83581511D02*
X94304489Y-83581511D01*
X103886000Y-86614000D02*
X100853511Y-83581511D01*
X103886000Y-94742000D02*
X103886000Y-86614000D01*
D21*
%TO.N,GND*%
X103428000Y-74154000D02*
X106158000Y-74154000D01*
X106158000Y-74154000D02*
X106426000Y-74422000D01*
X92964000Y-74762000D02*
X95504000Y-74762000D01*
X103414000Y-74168000D02*
X103428000Y-74154000D01*
X100584000Y-74168000D02*
X103414000Y-74168000D01*
%TO.N,+3V3*%
X113706000Y-70104000D02*
X115824000Y-72222000D01*
X111252000Y-70104000D02*
X113706000Y-70104000D01*
X109728000Y-71628000D02*
X111252000Y-70104000D01*
X109728000Y-76454000D02*
X109728000Y-71628000D01*
X103428000Y-76454000D02*
X109728000Y-76454000D01*
X101092000Y-76454000D02*
X103428000Y-76454000D01*
X100584000Y-75946000D02*
X101092000Y-76454000D01*
X100584000Y-75893000D02*
X100584000Y-75946000D01*
%TO.N,GND*%
X100584000Y-74168000D02*
X100584000Y-72289500D01*
X100584000Y-72289500D02*
X100430500Y-72136000D01*
%TO.N,+5V*%
X98298000Y-72543500D02*
X98705500Y-72136000D01*
X99328000Y-78754000D02*
X98298000Y-77724000D01*
X98298000Y-77724000D02*
X98298000Y-72543500D01*
X103428000Y-78754000D02*
X99328000Y-78754000D01*
X93980000Y-70104000D02*
X92964000Y-71120000D01*
X97790000Y-70104000D02*
X93980000Y-70104000D01*
X92964000Y-71120000D02*
X92964000Y-72222000D01*
X98705500Y-71019500D02*
X97790000Y-70104000D01*
X98705500Y-72136000D02*
X98705500Y-71019500D01*
%TD*%
M02*
