M48
; DRILL file {KiCad (6.0.1)} date Thu Nov 17 23:17:35 2022
; FORMAT={-:-/ absolute / inch / decimal}
; #@! TF.CreationDate,2022-11-17T23:17:35+08:00
; #@! TF.GenerationSoftware,Kicad,Pcbnew,(6.0.1)
; #@! TF.FileFunction,Plated,1,2,PTH
FMAT,2
INCH
; #@! TA.AperFunction,Plated,PTH,ViaDrill
T1C0.0197
; #@! TA.AperFunction,Plated,PTH,ComponentDrill
T2C0.0394
%
G90
G05
T1
X3.67Y-4.39
X3.69Y-3.66
X3.83Y-3.61
X3.87Y-4.06
X3.91Y-3.57
X4.18Y-4.25
X4.19Y-2.93
X4.22Y-3.35
X4.28Y-4.19
X4.29Y-3.84
X4.34Y-4.26
X4.44Y-3.96
T2
X3.66Y-2.8434
X3.66Y-2.9434
X3.66Y-3.0434
X3.66Y-3.1434
X3.66Y-3.2434
X3.66Y-3.3434
X3.66Y-3.4434
X3.66Y-3.5434
X3.76Y-2.8434
X3.76Y-2.9434
X3.76Y-3.0434
X3.76Y-3.1434
X3.76Y-3.2434
X3.76Y-3.3434
X3.76Y-3.4434
X3.76Y-3.5434
X4.46Y-2.8434
X4.46Y-2.9434
X4.46Y-3.0434
X4.46Y-3.1434
X4.46Y-3.2434
X4.46Y-3.3434
X4.46Y-3.4434
X4.46Y-3.5434
X4.56Y-2.8434
X4.56Y-2.9434
X4.56Y-3.0434
X4.56Y-3.1434
X4.56Y-3.2434
X4.56Y-3.3434
X4.56Y-3.4434
X4.56Y-3.5434
T0
M30
