<?xml version="1.0" encoding="utf-8"?>
<!-- Generator: Adobe Illustrator 25.2.1, SVG Export Plug-In . SVG Version: 6.00 Build 0)  -->
<svg version="1.1" id="Layer_1" xmlns:svg="http://www.w3.org/2000/svg"
	 xmlns="http://www.w3.org/2000/svg" xmlns:xlink="http://www.w3.org/1999/xlink" x="0px" y="0px" viewBox="0 0 595.3 841.9"
	 style="enable-background:new 0 0 595.3 841.9;" xml:space="preserve">
<style type="text/css">
	
		.st0{fill-rule:evenodd;clip-rule:evenodd;stroke:#000000;stroke-width:2.834646e-06;stroke-linecap:round;stroke-linejoin:round;stroke-miterlimit:10;}
</style>
<desc>Picture generated by PCBNEW</desc>
<g transform="translate(0 0) scale(1 1)">
</g>
<g>
	<g>
		<path class="st0" d="M284.4,216.7l-0.3-0.1l-0.2-0.1l-0.1-0.2l-0.1-0.3v-1.7l0.1-0.3l0.1-0.2l0.2-0.1l0.3-0.1h1.3l0.3,0.1l0.2,0.1
			l0.1,0.2l0.1,0.3v1.7l-0.1,0.3l-0.1,0.2l-0.2,0.1l-0.3,0.1H284.4z"/>
		<path class="st0" d="M284.4,211.8l-0.3-0.1l-0.2-0.1l-0.1-0.2l-0.1-0.3v-1.7l0.1-0.3l0.1-0.2l0.2-0.1l0.3-0.1h1.3l0.3,0.1l0.2,0.1
			l0.1,0.2l0.1,0.3v1.7l-0.1,0.3l-0.1,0.2l-0.2,0.1l-0.3,0.1H284.4z"/>
	</g>
	<g>
		<path class="st0" d="M290.3,212.3v-4.3h5.7v4.3H290.3z"/>
		<path class="st0" d="M290.3,218.8v-4.3h5.7v4.3H290.3z"/>
		<path class="st0" d="M308.2,222.1v-10.8h5.7v10.8H308.2z"/>
		<path class="st0" d="M290.3,225.4v-4.3h5.7v4.3H290.3z"/>
	</g>
	<g>
		<path class="st0" d="M318.4,265.7h2.6v5.7h-2.6V265.7z"/>
		<path class="st0" d="M314.8,265.7h2.6v5.7h-2.6V265.7z"/>
		<path class="st0" d="M311.2,265.7h2.6v5.7h-2.6V265.7z"/>
		<path class="st0" d="M307.6,265.7h2.6v5.7h-2.6V265.7z"/>
		<path class="st0" d="M304,265.7h2.6v5.7H304V265.7z"/>
		<path class="st0" d="M300.4,265.7h2.6v5.7h-2.6V265.7z"/>
		<path class="st0" d="M296.8,265.7h2.6v5.7h-2.6V265.7z"/>
		<path class="st0" d="M293.2,265.7h2.6v5.7h-2.6V265.7z"/>
		<path class="st0" d="M289.6,265.7h2.6v5.7h-2.6V265.7z"/>
		<path class="st0" d="M286,265.7h2.6v5.7H286V265.7z"/>
		<path class="st0" d="M282.4,265.7h2.6v5.7h-2.6V265.7z"/>
		<path class="st0" d="M278.8,265.7h2.6v5.7h-2.6V265.7z"/>
		<path class="st0" d="M275.2,265.7h2.6v5.7h-2.6V265.7z"/>
		<path class="st0" d="M271.6,265.7h2.6v5.7h-2.6V265.7z"/>
		<path class="st0" d="M267.2,277.7v-2.6h5.7v2.6H267.2z"/>
		<path class="st0" d="M267.2,281.3v-2.6h5.7v2.6H267.2z"/>
		<path class="st0" d="M267.2,284.9v-2.6h5.7v2.6H267.2z"/>
		<path class="st0" d="M267.2,288.5V286h5.7v2.6H267.2z"/>
		<path class="st0" d="M267.2,292.1v-2.6h5.7v2.6H267.2z"/>
		<path class="st0" d="M267.2,295.7v-2.6h5.7v2.6H267.2z"/>
		<path class="st0" d="M267.2,299.3v-2.6h5.7v2.6H267.2z"/>
		<path class="st0" d="M267.2,302.9v-2.6h5.7v2.6H267.2z"/>
		<path class="st0" d="M267.2,306.5V304h5.7v2.6H267.2z"/>
		<path class="st0" d="M267.2,310.1v-2.6h5.7v2.6H267.2z"/>
		<path class="st0" d="M271.6,313.9h2.6v5.7h-2.6V313.9z"/>
		<path class="st0" d="M275.2,313.9h2.6v5.7h-2.6V313.9z"/>
		<path class="st0" d="M278.8,313.9h2.6v5.7h-2.6V313.9z"/>
		<path class="st0" d="M282.4,313.9h2.6v5.7h-2.6V313.9z"/>
		<path class="st0" d="M286,313.9h2.6v5.7H286V313.9z"/>
		<path class="st0" d="M289.6,313.9h2.6v5.7h-2.6V313.9z"/>
		<path class="st0" d="M293.2,313.9h2.6v5.7h-2.6V313.9z"/>
		<path class="st0" d="M296.8,313.9h2.6v5.7h-2.6V313.9z"/>
		<path class="st0" d="M300.4,313.9h2.6v5.7h-2.6V313.9z"/>
		<path class="st0" d="M304,313.9h2.6v5.7H304V313.9z"/>
		<path class="st0" d="M307.6,313.9h2.6v5.7h-2.6V313.9z"/>
		<path class="st0" d="M311.2,313.9h2.6v5.7h-2.6V313.9z"/>
		<path class="st0" d="M314.8,313.9h2.6v5.7h-2.6V313.9z"/>
		<path class="st0" d="M318.4,313.9h2.6v5.7h-2.6V313.9z"/>
		<path class="st0" d="M291.3,282.7h14.2v14.2h-14.2V282.7z"/>
	</g>
	<g>
		<path class="st0" d="M278.3,203.8l0.1-0.3l0.1-0.2l0.2-0.1l0.3-0.1h1.7l0.3,0.1l0.2,0.1l0.1,0.2l0.1,0.3v1.3l-0.1,0.3l-0.1,0.2
			l-0.2,0.1l-0.3,0.1h-1.7l-0.3-0.1l-0.2-0.1l-0.1-0.2l-0.1-0.3V203.8z"/>
		<path class="st0" d="M283.2,203.8l0.1-0.3l0.1-0.2l0.2-0.1l0.3-0.1h1.7l0.3,0.1l0.2,0.1l0.1,0.2l0.1,0.3v1.3l-0.1,0.3l-0.1,0.2
			l-0.2,0.1l-0.3,0.1h-1.7l-0.3-0.1l-0.2-0.1l-0.1-0.2l-0.1-0.3V203.8z"/>
	</g>
</g>
</svg>
