<?xml version="1.0" encoding="utf-8"?>
<!-- Generator: Adobe Illustrator 25.2.1, SVG Export Plug-In . SVG Version: 6.00 Build 0)  -->
<svg version="1.1" id="Layer_1" xmlns:svg="http://www.w3.org/2000/svg"
	 xmlns="http://www.w3.org/2000/svg" xmlns:xlink="http://www.w3.org/1999/xlink" x="0px" y="0px" viewBox="0 0 439.1 268.8"
	 style="enable-background:new 0 0 439.1 268.8;" xml:space="preserve">
<style type="text/css">
	
		.st0{fill-rule:evenodd;clip-rule:evenodd;stroke:#000000;stroke-width:2.834646e-06;stroke-linecap:round;stroke-linejoin:round;stroke-miterlimit:10;}
</style>
<desc>Picture generated by PCBNEW</desc>
<g>
	<g>
		<path class="st0" d="M157,107.1v3.4h-2.6v-3.4H157z"/>
		<path class="st0" d="M147.6,107.1v3.4h-2.6v-3.4H147.6z"/>
	</g>
	<g>
		<path class="st0" d="M335,71.8l-0.3-0.1l-0.2-0.1l-0.1-0.2l-0.1-0.3v-1.4l0.1-0.3l0.1-0.2l0.2-0.1L335,69h1.3l0.3,0.1l0.2,0.1
			l0.1,0.2l0.1,0.3v1.4l-0.1,0.3l-0.1,0.2l-0.2,0.1l-0.3,0.1H335z"/>
		<path class="st0" d="M335,66.6l-0.3-0.1l-0.2-0.1l-0.1-0.2l-0.1-0.3v-1.4l0.1-0.3l0.1-0.2l0.2-0.1l0.3-0.1h1.3l0.3,0.1l0.2,0.1
			l0.1,0.2l0.1,0.3v1.4l-0.1,0.3l-0.1,0.2l-0.2,0.1l-0.3,0.1H335z"/>
	</g>
	<g>
		<path class="st0" d="M321.8,203.6l-0.3-0.1l-0.2-0.1l-0.1-0.2l-0.1-0.3v-1.7l0.1-0.3l0.1-0.2l0.2-0.1l0.3-0.1h1.3l0.3,0.1l0.2,0.1
			l0.1,0.2l0.1,0.3v1.7l-0.1,0.3l-0.1,0.2l-0.2,0.1l-0.3,0.1H321.8z"/>
		<path class="st0" d="M321.8,198.7l-0.3-0.1l-0.2-0.1l-0.1-0.2l-0.1-0.3v-1.7l0.1-0.3l0.1-0.2l0.2-0.1l0.3-0.1h1.3l0.3,0.1l0.2,0.1
			l0.1,0.2l0.1,0.3v1.7l-0.1,0.3l-0.1,0.2l-0.2,0.1l-0.3,0.1H321.8z"/>
	</g>
	<g>
		<path class="st0" d="M211.7,161.1v3.4h-2.6v-3.4H211.7z"/>
		<path class="st0" d="M202.3,161.1v3.4h-2.6v-3.4H202.3z"/>
	</g>
	<g>
		<path class="st0" d="M370,114.2l0.3,0.1l0.2,0.1l0.1,0.2l0.1,0.3v1.4l-0.1,0.3l-0.1,0.2l-0.2,0.1L370,117h-1.3l-0.3-0.1l-0.2-0.1
			l-0.1-0.2l-0.1-0.3v-1.4l0.1-0.3l0.1-0.2l0.2-0.1l0.3-0.1H370z"/>
		<path class="st0" d="M370,119.4l0.3,0.1l0.2,0.1l0.1,0.2l0.1,0.3v1.4l-0.1,0.3l-0.1,0.2l-0.2,0.1l-0.3,0.1h-1.3l-0.3-0.1l-0.2-0.1
			l-0.1-0.2l-0.1-0.3v-1.4l0.1-0.3l0.1-0.2l0.2-0.1l0.3-0.1H370z"/>
	</g>
	<g>
		<path class="st0" d="M154,52.4v3.4h-2.6v-3.4H154z"/>
		<path class="st0" d="M144.6,52.4v3.4h-2.6v-3.4H144.6z"/>
	</g>
	<g>
		<path class="st0" d="M323.7,120.5l0,0.2l-0.1,0.2l-0.2,0.1l-0.2,0h-1.2l-0.2,0l-0.2-0.1l-0.1-0.2l0-0.2V118l0-0.2l0.1-0.2l0.2-0.1
			l0.2,0h1.2l0.2,0l0.2,0.1l0.1,0.2l0,0.2V120.5z"/>
		<path class="st0" d="M320.1,120.5l0,0.2l-0.1,0.2l-0.2,0.1l-0.2,0h-1.2l-0.2,0l-0.2-0.1l-0.1-0.2l0-0.2V118l0-0.2l0.1-0.2l0.2-0.1
			l0.2,0h1.2l0.2,0l0.2,0.1l0.1,0.2l0,0.2V120.5z"/>
	</g>
	<g>
		<path class="st0" d="M211.7,107.1v3.4h-2.6v-3.4H211.7z"/>
		<path class="st0" d="M202.3,107.1v3.4h-2.6v-3.4H202.3z"/>
	</g>
	<g>
		<path class="st0" d="M332.4,190.9v-6.2h1.7v6.2H332.4z"/>
		<path class="st0" d="M336,190.9v-6.2h1.7v6.2H336z"/>
		<path class="st0" d="M339.6,190.9v-6.2h1.7v6.2H339.6z"/>
		<path class="st0" d="M343.2,190.9v-6.2h1.7v6.2H343.2z"/>
		<path class="st0" d="M343.2,176.2v-6.2h1.7v6.2H343.2z"/>
		<path class="st0" d="M339.6,176.2v-6.2h1.7v6.2H339.6z"/>
		<path class="st0" d="M336,176.2v-6.2h1.7v6.2H336z"/>
		<path class="st0" d="M332.4,176.2v-6.2h1.7v6.2H332.4z"/>
	</g>
	<g>
		<path class="st0" d="M102.6,107.1v3.4H100v-3.4H102.6z"/>
		<path class="st0" d="M93.2,107.1v3.4h-2.6v-3.4H93.2z"/>
	</g>
	<g>
		<path class="st0" d="M49,161.1v3.4h-2.6v-3.4H49z"/>
		<path class="st0" d="M39.6,161.1v3.4H37v-3.4H39.6z"/>
	</g>
	<g>
		<path class="st0" d="M359.2,114.5l0.3,0.1l0.2,0.1l0.1,0.2l0.1,0.3v1.4l-0.1,0.3l-0.1,0.2l-0.2,0.1l-0.3,0.1h-1.3l-0.3-0.1
			l-0.2-0.1l-0.1-0.2l-0.1-0.3v-1.4l0.1-0.3l0.1-0.2l0.2-0.1l0.3-0.1H359.2z"/>
		<path class="st0" d="M359.2,119.6l0.3,0.1l0.2,0.1l0.1,0.2l0.1,0.3v1.4l-0.1,0.3l-0.1,0.2l-0.2,0.1l-0.3,0.1h-1.3l-0.3-0.1
			l-0.2-0.1l-0.1-0.2l-0.1-0.3v-1.4l0.1-0.3l0.1-0.2l0.2-0.1l0.3-0.1H359.2z"/>
	</g>
	<g>
		<path class="st0" d="M321.7,132.8v-2h1.7v2H321.7z"/>
		<path class="st0" d="M317.7,132.8v-2h1.7v2H317.7z"/>
	</g>
	<g>
		<path class="st0" d="M335,54.8l-0.3-0.1l-0.2-0.1l-0.1-0.2l-0.1-0.3v-1.4l0.1-0.3l0.1-0.2l0.2-0.1L335,52h1.3l0.3,0.1l0.2,0.1
			l0.1,0.2l0.1,0.3v1.4l-0.1,0.3l-0.1,0.2l-0.2,0.1l-0.3,0.1H335z"/>
		<path class="st0" d="M335,49.6l-0.3-0.1l-0.2-0.1l-0.1-0.2l-0.1-0.3v-1.4l0.1-0.3l0.1-0.2l0.2-0.1l0.3-0.1h1.3l0.3,0.1l0.2,0.1
			l0.1,0.2l0.1,0.3V49l-0.1,0.3l-0.1,0.2l-0.2,0.1l-0.3,0.1H335z"/>
	</g>
	<g>
		<path class="st0" d="M346.6,114.5l0.3,0.1l0.2,0.1l0.1,0.2l0.1,0.3v1.4l-0.1,0.3L347,117l-0.2,0.1l-0.3,0.1h-1.3l-0.3-0.1
			l-0.2-0.1l-0.1-0.2l-0.1-0.3v-1.4l0.1-0.3l0.1-0.2l0.2-0.1l0.3-0.1H346.6z"/>
		<path class="st0" d="M346.6,119.6l0.3,0.1l0.2,0.1l0.1,0.2l0.1,0.3v1.4l-0.1,0.3l-0.1,0.2l-0.2,0.1l-0.3,0.1h-1.3l-0.3-0.1
			l-0.2-0.1l-0.1-0.2l-0.1-0.3v-1.4l0.1-0.3l0.1-0.2l0.2-0.1l0.3-0.1H346.6z"/>
	</g>
	<g>
		<path class="st0" d="M316.7,147.4l0.1-0.3l0.1-0.2l0.2-0.1l0.3-0.1h1.4l0.3,0.1l0.2,0.1l0.1,0.2l0.1,0.3v1.3l-0.1,0.3l-0.1,0.2
			l-0.2,0.1l-0.3,0.1h-1.4l-0.3-0.1l-0.2-0.1l-0.1-0.2l-0.1-0.3V147.4z"/>
		<path class="st0" d="M321.9,147.4l0.1-0.3l0.1-0.2l0.2-0.1l0.3-0.1h1.4l0.3,0.1l0.2,0.1l0.1,0.2l0.1,0.3v1.3l-0.1,0.3l-0.1,0.2
			l-0.2,0.1l-0.3,0.1h-1.4l-0.3-0.1l-0.2-0.1l-0.1-0.2l-0.1-0.3V147.4z"/>
	</g>
	<g>
		<path class="st0" d="M49,52.4v3.4h-2.6v-3.4H49z"/>
		<path class="st0" d="M39.6,52.4v3.4H37v-3.4H39.6z"/>
	</g>
	<g>
		<path class="st0" d="M335,90l-0.3-0.1l-0.2-0.1l-0.1-0.2l-0.1-0.3v-1.4l0.1-0.3l0.1-0.2l0.2-0.1l0.3-0.1h1.3l0.3,0.1l0.2,0.1
			l0.1,0.2l0.1,0.3v1.4l-0.1,0.3l-0.1,0.2l-0.2,0.1l-0.3,0.1H335z"/>
		<path class="st0" d="M335,84.8l-0.3-0.1l-0.2-0.1l-0.1-0.2l-0.1-0.3v-1.4l0.1-0.3l0.1-0.2l0.2-0.1l0.3-0.1h1.3l0.3,0.1l0.2,0.1
			l0.1,0.2l0.1,0.3v1.4l-0.1,0.3l-0.1,0.2l-0.2,0.1l-0.3,0.1H335z"/>
	</g>
	<g>
		<path class="st0" d="M155.5,215.1v3.4H153v-3.4H155.5z"/>
		<path class="st0" d="M146.2,215.1v3.4h-2.6v-3.4H146.2z"/>
	</g>
	<g>
		<path class="st0" d="M156.2,161.1v3.4h-2.6v-3.4H156.2z"/>
		<path class="st0" d="M146.9,161.1v3.4h-2.6v-3.4H146.9z"/>
	</g>
	<g>
		<path class="st0" d="M397.6,209.6h-3.7v-0.9h3.7V209.6z"/>
		<path class="st0" d="M397.6,208.2h-3.7v-0.9h3.7V208.2z"/>
		<path class="st0" d="M397.6,206.8h-3.7v-0.9h3.7V206.8z"/>
		<path class="st0" d="M397.6,205.3h-3.7v-0.9h3.7V205.3z"/>
		<path class="st0" d="M397.6,203.9h-3.7v-0.9h3.7V203.9z"/>
		<path class="st0" d="M397.6,202.5h-3.7v-0.9h3.7V202.5z"/>
		<path class="st0" d="M408.1,217.1h-6.2V212h6.2V217.1z"/>
		<path class="st0" d="M408.1,199.3h-6.2v-5.1h6.2V199.3z"/>
	</g>
	<g>
		<path class="st0" d="M102.6,161.1v3.4H100v-3.4H102.6z"/>
		<path class="st0" d="M93.2,161.1v3.4h-2.6v-3.4H93.2z"/>
	</g>
	<g>
		<path class="st0" d="M49,215.1v3.4h-2.6v-3.4H49z"/>
		<path class="st0" d="M39.6,215.1v3.4H37v-3.4H39.6z"/>
	</g>
	<g>
		<path class="st0" d="M211,215.1v3.4h-2.6v-3.4H211z"/>
		<path class="st0" d="M201.6,215.1v3.4H199v-3.4H201.6z"/>
	</g>
	<g>
		<path class="st0" d="M103,52.4v3.4h-2.6v-3.4H103z"/>
		<path class="st0" d="M93.6,52.4v3.4H91v-3.4H93.6z"/>
	</g>
	<g>
		<path class="st0" d="M48.6,107.1v3.4H46v-3.4H48.6z"/>
		<path class="st0" d="M39.2,107.1v3.4h-2.6v-3.4H39.2z"/>
	</g>
	<g>
		<path class="st0" d="M335,40.4l-0.3-0.1l-0.2-0.1l-0.1-0.2l-0.1-0.3v-1.4l0.1-0.3l0.1-0.2l0.2-0.1l0.3-0.1h1.3l0.3,0.1l0.2,0.1
			l0.1,0.2l0.1,0.3v1.4L337,40l-0.1,0.2l-0.2,0.1l-0.3,0.1H335z"/>
		<path class="st0" d="M335,35.2l-0.3-0.1l-0.2-0.1l-0.1-0.2l-0.1-0.3v-1.4l0.1-0.3l0.1-0.2l0.2-0.1l0.3-0.1h1.3l0.3,0.1l0.2,0.1
			l0.1,0.2l0.1,0.3v1.4l-0.1,0.3l-0.1,0.2l-0.2,0.1l-0.3,0.1H335z"/>
	</g>
	<g>
		<path class="st0" d="M101.9,215.1v3.4h-2.6v-3.4H101.9z"/>
		<path class="st0" d="M92.5,215.1v3.4H90v-3.4H92.5z"/>
	</g>
	<g>
		<path class="st0" d="M211,52.4v3.4h-2.6v-3.4H211z"/>
		<path class="st0" d="M201.6,52.4v3.4H199v-3.4H201.6z"/>
	</g>
</g>
<g transform="translate(0 0) scale(1 1)">
</g>
</svg>
