<?xml version="1.0" encoding="utf-8"?>
<!-- Generator: Adobe Illustrator 25.2.1, SVG Export Plug-In . SVG Version: 6.00 Build 0)  -->
<svg version="1.1" id="Layer_1" xmlns:svg="http://www.w3.org/2000/svg"
	 xmlns="http://www.w3.org/2000/svg" xmlns:xlink="http://www.w3.org/1999/xlink" x="0px" y="0px" viewBox="0 0 251.6 274.4"
	 style="enable-background:new 0 0 251.6 274.4;" xml:space="preserve">
<style type="text/css">
	
		.st0{fill-rule:evenodd;clip-rule:evenodd;stroke:#000000;stroke-width:2.834646e-06;stroke-linecap:round;stroke-linejoin:round;stroke-miterlimit:10;}
</style>
<desc>Picture generated by PCBNEW</desc>
<g transform="translate(0 0) scale(1 1)">
</g>
<g>
	<g>
		<path class="st0" d="M160.5,19.2l0.3,0.1l0.2,0.1l0.1,0.2l0.1,0.3v1.7l-0.1,0.3L161,22l-0.2,0.1l-0.3,0.1h-1.3l-0.3-0.1l-0.2-0.1
			l-0.1-0.2l-0.1-0.3v-1.7l0.1-0.3l0.1-0.2l0.2-0.1l0.3-0.1H160.5z"/>
		<path class="st0" d="M160.5,24.1l0.3,0.1l0.2,0.1l0.1,0.2l0.1,0.3v1.7l-0.1,0.3l-0.1,0.2l-0.2,0.1l-0.3,0.1h-1.3l-0.3-0.1
			l-0.2-0.1l-0.1-0.2l-0.1-0.3v-1.7l0.1-0.3l0.1-0.2l0.2-0.1l0.3-0.1H160.5z"/>
	</g>
	<g>
		<path class="st0" d="M137.8,70.2l0.3,0.1l0.2,0.1l0.1,0.2l0.1,0.3v1.4l-0.1,0.3l-0.1,0.2l-0.2,0.1l-0.3,0.1h-1.3l-0.3-0.1
			l-0.2-0.1l-0.1-0.2l-0.1-0.3v-1.4l0.1-0.3l0.1-0.2l0.2-0.1l0.3-0.1H137.8z"/>
		<path class="st0" d="M137.8,75.4l0.3,0.1l0.2,0.1l0.1,0.2l0.1,0.3v1.4l-0.1,0.3l-0.1,0.2l-0.2,0.1l-0.3,0.1h-1.3l-0.3-0.1L136,78
			l-0.1-0.2l-0.1-0.3v-1.4l0.1-0.3l0.1-0.2l0.2-0.1l0.3-0.1H137.8z"/>
	</g>
	<g>
		<path class="st0" d="M138.7,52.8l-0.3-0.1l-0.2-0.1l-0.1-0.2l-0.1-0.3v-1.4l0.1-0.3l0.1-0.2l0.2-0.1l0.3-0.1h1.3l0.3,0.1l0.2,0.1
			l0.1,0.2l0.1,0.3v1.4l-0.1,0.3l-0.1,0.2l-0.2,0.1l-0.3,0.1H138.7z"/>
		<path class="st0" d="M138.7,47.6l-0.3-0.1l-0.2-0.1l-0.1-0.2l-0.1-0.3v-1.4l0.1-0.3l0.1-0.2l0.2-0.1l0.3-0.1h1.3l0.3,0.1l0.2,0.1
			l0.1,0.2l0.1,0.3v1.4l-0.1,0.3l-0.1,0.2l-0.2,0.1l-0.3,0.1H138.7z"/>
	</g>
	<g>
		<path class="st0" d="M139.3,202.1L139,202l-0.2-0.1l-0.1-0.2l-0.1-0.3v-1.7l0.1-0.3l0.1-0.2l0.2-0.1l0.3-0.1h1.3l0.3,0.1l0.2,0.1
			l0.1,0.2l0.1,0.3v1.7l-0.1,0.3l-0.1,0.2l-0.2,0.1l-0.3,0.1H139.3z"/>
		<path class="st0" d="M139.3,197.2l-0.3-0.1l-0.2-0.1l-0.1-0.2l-0.1-0.3v-1.7l0.1-0.3l0.1-0.2l0.2-0.1l0.3-0.1h1.3l0.3,0.1l0.2,0.1
			l0.1,0.2l0.1,0.3v1.7l-0.1,0.3l-0.1,0.2l-0.2,0.1l-0.3,0.1H139.3z"/>
	</g>
	<g>
		<path class="st0" d="M137.8,80.3l0.3,0.1l0.2,0.1l0.1,0.2l0.1,0.3v1.4l-0.1,0.3l-0.1,0.2l-0.2,0.1l-0.3,0.1h-1.3l-0.3-0.1
			l-0.2-0.1l-0.1-0.2l-0.1-0.3v-1.4l0.1-0.3l0.1-0.2l0.2-0.1l0.3-0.1H137.8z"/>
		<path class="st0" d="M137.8,85.4l0.3,0.1l0.2,0.1l0.1,0.2l0.1,0.3v1.4l-0.1,0.3l-0.1,0.2l-0.2,0.1l-0.3,0.1h-1.3l-0.3-0.1L136,88
			l-0.1-0.2l-0.1-0.3v-1.4l0.1-0.3l0.1-0.2l0.2-0.1l0.3-0.1H137.8z"/>
	</g>
	<g>
		<path class="st0" d="M167.2,254.5h-3.7v-0.9h3.7V254.5z"/>
		<path class="st0" d="M167.2,253.1h-3.7v-0.9h3.7V253.1z"/>
		<path class="st0" d="M167.2,251.6h-3.7v-0.9h3.7V251.6z"/>
		<path class="st0" d="M167.2,250.2h-3.7v-0.9h3.7V250.2z"/>
		<path class="st0" d="M167.2,248.8h-3.7V248h3.7V248.8z"/>
		<path class="st0" d="M167.2,247.4h-3.7v-0.9h3.7V247.4z"/>
		<path class="st0" d="M177.7,244.1h-6.2V239h6.2V244.1z"/>
		<path class="st0" d="M177.7,262h-6.2v-5.1h6.2V262z"/>
	</g>
	<g>
		<path class="st0" d="M138.7,63.8l-0.3-0.1l-0.2-0.1l-0.1-0.2l-0.1-0.3v-1.4l0.1-0.3l0.1-0.2l0.2-0.1l0.3-0.1h1.3l0.3,0.1l0.2,0.1
			l0.1,0.2l0.1,0.3v1.4l-0.1,0.3l-0.1,0.2l-0.2,0.1l-0.3,0.1H138.7z"/>
		<path class="st0" d="M138.7,58.6l-0.3-0.1l-0.2-0.1l-0.1-0.2L138,58v-1.4l0.1-0.3l0.1-0.2l0.2-0.1l0.3-0.1h1.3l0.3,0.1l0.2,0.1
			l0.1,0.2l0.1,0.3V58l-0.1,0.3l-0.1,0.2l-0.2,0.1l-0.3,0.1H138.7z"/>
	</g>
	<g>
		<path class="st0" d="M152.4,33.9v4.3h-5.7v-4.3H152.4z"/>
		<path class="st0" d="M134.6,24.2v10.8h-5.7V24.2H134.6z"/>
		<path class="st0" d="M152.4,27.4v4.3h-5.7v-4.3H152.4z"/>
		<path class="st0" d="M152.4,20.9v4.3h-5.7v-4.3H152.4z"/>
	</g>
	<g>
		<path class="st0" d="M143.6,195.1v-6.2h1.7v6.2H143.6z"/>
		<path class="st0" d="M147.2,195.1v-6.2h1.7v6.2H147.2z"/>
		<path class="st0" d="M150.8,195.1v-6.2h1.7v6.2H150.8z"/>
		<path class="st0" d="M154.4,195.1v-6.2h1.7v6.2H154.4z"/>
		<path class="st0" d="M154.4,180.4v-6.2h1.7v6.2H154.4z"/>
		<path class="st0" d="M150.8,180.4v-6.2h1.7v6.2H150.8z"/>
		<path class="st0" d="M147.2,180.4v-6.2h1.7v6.2H147.2z"/>
		<path class="st0" d="M143.6,180.4v-6.2h1.7v6.2H143.6z"/>
	</g>
	<g>
		<path class="st0" d="M160.2,31.4l0.3,0.1l0.2,0.1l0.1,0.2l0.1,0.3v1.7l-0.1,0.3l-0.1,0.2l-0.2,0.1l-0.3,0.1h-1.3l-0.3-0.1
			l-0.2-0.1l-0.1-0.2l-0.1-0.3v-1.7l0.1-0.3l0.1-0.2l0.2-0.1l0.3-0.1H160.2z"/>
		<path class="st0" d="M160.2,36.3l0.3,0.1l0.2,0.1l0.1,0.2l0.1,0.3v1.7l-0.1,0.3l-0.1,0.2l-0.2,0.1l-0.3,0.1h-1.3l-0.3-0.1
			l-0.2-0.1l-0.1-0.2l-0.1-0.3V37l0.1-0.3l0.1-0.2l0.2-0.1l0.3-0.1H160.2z"/>
	</g>
	<g>
		<path class="st0" d="M143.8,202.2v-3.4h2.6v3.4H143.8z"/>
		<path class="st0" d="M153.1,202.2v-3.4h2.6v3.4H153.1z"/>
	</g>
</g>
</svg>
