<?xml version="1.0" standalone="no"?>
 <!DOCTYPE svg PUBLIC "-//W3C//DTD SVG 1.1//EN" 
 "http://www.w3.org/Graphics/SVG/1.1/DTD/svg11.dtd"> 
<svg
  xmlns:svg="http://www.w3.org/2000/svg"
  xmlns="http://www.w3.org/2000/svg"
  xmlns:xlink="http://www.w3.org/1999/xlink"
  version="1.1"
  width="8.877300cm" height="9.679940cm" viewBox="0 0 88773000 96799400">
<title>SVG Picture created as Scroller Motor 1-F_Paste.svg date 2023/04/18 22:20:31 </title>
  <desc>Picture generated by PCBNEW </desc>
<g style="fill:#000000; fill-opacity:1.000000;stroke:#000000; stroke-opacity:1.000000;
stroke-linecap:round; stroke-linejoin:round;"
 transform="translate(0 0) scale(1 1)">
</g>
<g style="fill:#000000; fill-opacity:0.0; 
stroke:#000000; stroke-width:0.000000; stroke-opacity:1; 
stroke-linecap:round; stroke-linejoin:round;">
<g >
</g>
<g >
</g>
<g style="fill:#000000; fill-opacity:0.0; 
stroke:#000000; stroke-width:0.000000; stroke-opacity:1; 
stroke-linecap:round; stroke-linejoin:round;">
</g>
<g style="fill:#000000; fill-opacity:0.0; 
stroke:#000000; stroke-width:1.000000; stroke-opacity:1; 
stroke-linecap:round; stroke-linejoin:round;">
</g>
<g style="fill:#000000; fill-opacity:1.0; 
stroke:#000000; stroke-width:1.000000; stroke-opacity:1; 
stroke-linecap:round; stroke-linejoin:round;">
<path style="fill:#000000; fill-opacity:1.0; 
stroke:#000000; stroke-width:1.000000; stroke-opacity:1; 
stroke-linecap:round; stroke-linejoin:round;fill-rule:evenodd;"
d="M 56612500.000000,6762500.000000
56703387.000000,6780579.000000
56780438.000000,6832062.000000
56831921.000000,6909113.000000
56850000.000000,7000000.000000
56850000.000000,7600000.000000
56831921.000000,7690887.000000
56780438.000000,7767938.000000
56703387.000000,7819421.000000
56612500.000000,7837500.000000
56137500.000000,7837500.000000
56046613.000000,7819421.000000
55969562.000000,7767938.000000
55918079.000000,7690887.000000
55900000.000000,7600000.000000
55900000.000000,7000000.000000
55918079.000000,6909113.000000
55969562.000000,6832062.000000
56046613.000000,6780579.000000
56137500.000000,6762500.000000
Z" /> 
<path style="fill:#000000; fill-opacity:1.0; 
stroke:#000000; stroke-width:1.000000; stroke-opacity:1; 
stroke-linecap:round; stroke-linejoin:round;fill-rule:evenodd;"
d="M 56612500.000000,8487500.000000
56703387.000000,8505579.000000
56780438.000000,8557062.000000
56831921.000000,8634113.000000
56850000.000000,8725000.000000
56850000.000000,9325000.000000
56831921.000000,9415887.000000
56780438.000000,9492938.000000
56703387.000000,9544421.000000
56612500.000000,9562500.000000
56137500.000000,9562500.000000
56046613.000000,9544421.000000
55969562.000000,9492938.000000
55918079.000000,9415887.000000
55900000.000000,9325000.000000
55900000.000000,8725000.000000
55918079.000000,8634113.000000
55969562.000000,8557062.000000
56046613.000000,8505579.000000
56137500.000000,8487500.000000
Z" /> 
</g>
<g >
</g>
<g >
</g>
<g >
</g>
<g style="fill:#000000; fill-opacity:1.0; 
stroke:#000000; stroke-width:1.000000; stroke-opacity:1; 
stroke-linecap:round; stroke-linejoin:round;">
<path style="fill:#000000; fill-opacity:1.0; 
stroke:#000000; stroke-width:1.000000; stroke-opacity:1; 
stroke-linecap:round; stroke-linejoin:round;fill-rule:evenodd;"
d="M 48612500.000000,24780000.000000
48703387.000000,24798079.000000
48780438.000000,24849562.000000
48831921.000000,24926613.000000
48850000.000000,25017500.000000
48850000.000000,25517500.000000
48831921.000000,25608387.000000
48780438.000000,25685438.000000
48703387.000000,25736921.000000
48612500.000000,25755000.000000
48137500.000000,25755000.000000
48046613.000000,25736921.000000
47969562.000000,25685438.000000
47918079.000000,25608387.000000
47900000.000000,25517500.000000
47900000.000000,25017500.000000
47918079.000000,24926613.000000
47969562.000000,24849562.000000
48046613.000000,24798079.000000
48137500.000000,24780000.000000
Z" /> 
<path style="fill:#000000; fill-opacity:1.0; 
stroke:#000000; stroke-width:1.000000; stroke-opacity:1; 
stroke-linecap:round; stroke-linejoin:round;fill-rule:evenodd;"
d="M 48612500.000000,26605000.000000
48703387.000000,26623079.000000
48780438.000000,26674562.000000
48831921.000000,26751613.000000
48850000.000000,26842500.000000
48850000.000000,27342500.000000
48831921.000000,27433387.000000
48780438.000000,27510438.000000
48703387.000000,27561921.000000
48612500.000000,27580000.000000
48137500.000000,27580000.000000
48046613.000000,27561921.000000
47969562.000000,27510438.000000
47918079.000000,27433387.000000
47900000.000000,27342500.000000
47900000.000000,26842500.000000
47918079.000000,26751613.000000
47969562.000000,26674562.000000
48046613.000000,26623079.000000
48137500.000000,26605000.000000
Z" /> 
</g>
<g >
</g>
<g >
</g>
<g style="fill:#000000; fill-opacity:1.0; 
stroke:#000000; stroke-width:1.000000; stroke-opacity:1; 
stroke-linecap:round; stroke-linejoin:round;">
<path style="fill:#000000; fill-opacity:1.0; 
stroke:#000000; stroke-width:1.000000; stroke-opacity:1; 
stroke-linecap:round; stroke-linejoin:round;fill-rule:evenodd;"
d="M 48937500.000000,18612500.000000
48846613.000000,18594421.000000
48769562.000000,18542938.000000
48718079.000000,18465887.000000
48700000.000000,18375000.000000
48700000.000000,17875000.000000
48718079.000000,17784113.000000
48769562.000000,17707062.000000
48846613.000000,17655579.000000
48937500.000000,17637500.000000
49412500.000000,17637500.000000
49503387.000000,17655579.000000
49580438.000000,17707062.000000
49631921.000000,17784113.000000
49650000.000000,17875000.000000
49650000.000000,18375000.000000
49631921.000000,18465887.000000
49580438.000000,18542938.000000
49503387.000000,18594421.000000
49412500.000000,18612500.000000
Z" /> 
<path style="fill:#000000; fill-opacity:1.0; 
stroke:#000000; stroke-width:1.000000; stroke-opacity:1; 
stroke-linecap:round; stroke-linejoin:round;fill-rule:evenodd;"
d="M 48937500.000000,16787500.000000
48846613.000000,16769421.000000
48769562.000000,16717938.000000
48718079.000000,16640887.000000
48700000.000000,16550000.000000
48700000.000000,16050000.000000
48718079.000000,15959113.000000
48769562.000000,15882062.000000
48846613.000000,15830579.000000
48937500.000000,15812500.000000
49412500.000000,15812500.000000
49503387.000000,15830579.000000
49580438.000000,15882062.000000
49631921.000000,15959113.000000
49650000.000000,16050000.000000
49650000.000000,16550000.000000
49631921.000000,16640887.000000
49580438.000000,16717938.000000
49503387.000000,16769421.000000
49412500.000000,16787500.000000
Z" /> 
</g>
<g >
</g>
<g >
</g>
<g >
</g>
<g style="fill:#000000; fill-opacity:1.0; 
stroke:#000000; stroke-width:1.000000; stroke-opacity:1; 
stroke-linecap:round; stroke-linejoin:round;">
<path style="fill:#000000; fill-opacity:1.0; 
stroke:#000000; stroke-width:1.000000; stroke-opacity:1; 
stroke-linecap:round; stroke-linejoin:round;fill-rule:evenodd;"
d="M 49137500.000000,71287500.000000
49046613.000000,71269421.000000
48969562.000000,71217938.000000
48918079.000000,71140887.000000
48900000.000000,71050000.000000
48900000.000000,70450000.000000
48918079.000000,70359113.000000
48969562.000000,70282062.000000
49046613.000000,70230579.000000
49137500.000000,70212500.000000
49612500.000000,70212500.000000
49703387.000000,70230579.000000
49780438.000000,70282062.000000
49831921.000000,70359113.000000
49850000.000000,70450000.000000
49850000.000000,71050000.000000
49831921.000000,71140887.000000
49780438.000000,71217938.000000
49703387.000000,71269421.000000
49612500.000000,71287500.000000
Z" /> 
<path style="fill:#000000; fill-opacity:1.0; 
stroke:#000000; stroke-width:1.000000; stroke-opacity:1; 
stroke-linecap:round; stroke-linejoin:round;fill-rule:evenodd;"
d="M 49137500.000000,69562500.000000
49046613.000000,69544421.000000
48969562.000000,69492938.000000
48918079.000000,69415887.000000
48900000.000000,69325000.000000
48900000.000000,68725000.000000
48918079.000000,68634113.000000
48969562.000000,68557062.000000
49046613.000000,68505579.000000
49137500.000000,68487500.000000
49612500.000000,68487500.000000
49703387.000000,68505579.000000
49780438.000000,68557062.000000
49831921.000000,68634113.000000
49850000.000000,68725000.000000
49850000.000000,69325000.000000
49831921.000000,69415887.000000
49780438.000000,69492938.000000
49703387.000000,69544421.000000
49612500.000000,69562500.000000
Z" /> 
</g>
<g >
</g>
<g style="fill:#000000; fill-opacity:1.0; 
stroke:#000000; stroke-width:1.000000; stroke-opacity:1; 
stroke-linecap:round; stroke-linejoin:round;">
<path style="fill:#000000; fill-opacity:1.0; 
stroke:#000000; stroke-width:1.000000; stroke-opacity:1; 
stroke-linecap:round; stroke-linejoin:round;fill-rule:evenodd;"
d="M 48612500.000000,28312500.000000
48703387.000000,28330579.000000
48780438.000000,28382062.000000
48831921.000000,28459113.000000
48850000.000000,28550000.000000
48850000.000000,29050000.000000
48831921.000000,29140887.000000
48780438.000000,29217938.000000
48703387.000000,29269421.000000
48612500.000000,29287500.000000
48137500.000000,29287500.000000
48046613.000000,29269421.000000
47969562.000000,29217938.000000
47918079.000000,29140887.000000
47900000.000000,29050000.000000
47900000.000000,28550000.000000
47918079.000000,28459113.000000
47969562.000000,28382062.000000
48046613.000000,28330579.000000
48137500.000000,28312500.000000
Z" /> 
<path style="fill:#000000; fill-opacity:1.0; 
stroke:#000000; stroke-width:1.000000; stroke-opacity:1; 
stroke-linecap:round; stroke-linejoin:round;fill-rule:evenodd;"
d="M 48612500.000000,30137500.000000
48703387.000000,30155579.000000
48780438.000000,30207062.000000
48831921.000000,30284113.000000
48850000.000000,30375000.000000
48850000.000000,30875000.000000
48831921.000000,30965887.000000
48780438.000000,31042938.000000
48703387.000000,31094421.000000
48612500.000000,31112500.000000
48137500.000000,31112500.000000
48046613.000000,31094421.000000
47969562.000000,31042938.000000
47918079.000000,30965887.000000
47900000.000000,30875000.000000
47900000.000000,30375000.000000
47918079.000000,30284113.000000
47969562.000000,30207062.000000
48046613.000000,30155579.000000
48137500.000000,30137500.000000
Z" /> 
</g>
<g >
</g>
<g style="fill:#000000; fill-opacity:1.0; 
stroke:#000000; stroke-width:1.000000; stroke-opacity:1; 
stroke-linecap:round; stroke-linejoin:round;">
<path style="fill:#000000; fill-opacity:1.0; 
stroke:#000000; stroke-width:1.000000; stroke-opacity:1; 
stroke-linecap:round; stroke-linejoin:round;fill-rule:evenodd;"
d="M 58974999.000000,89774999.000000
57675001.000000,89774999.000000
57675001.000000,89475001.000000
58974999.000000,89475001.000000
Z" /> 
<path style="fill:#000000; fill-opacity:1.0; 
stroke:#000000; stroke-width:1.000000; stroke-opacity:1; 
stroke-linecap:round; stroke-linejoin:round;fill-rule:evenodd;"
d="M 58974999.000000,89274999.000000
57675001.000000,89274999.000000
57675001.000000,88975001.000000
58974999.000000,88975001.000000
Z" /> 
<path style="fill:#000000; fill-opacity:1.0; 
stroke:#000000; stroke-width:1.000000; stroke-opacity:1; 
stroke-linecap:round; stroke-linejoin:round;fill-rule:evenodd;"
d="M 58974999.000000,88774999.000000
57675001.000000,88774999.000000
57675001.000000,88475001.000000
58974999.000000,88475001.000000
Z" /> 
<path style="fill:#000000; fill-opacity:1.0; 
stroke:#000000; stroke-width:1.000000; stroke-opacity:1; 
stroke-linecap:round; stroke-linejoin:round;fill-rule:evenodd;"
d="M 58974999.000000,88274999.000000
57675001.000000,88274999.000000
57675001.000000,87975001.000000
58974999.000000,87975001.000000
Z" /> 
<path style="fill:#000000; fill-opacity:1.0; 
stroke:#000000; stroke-width:1.000000; stroke-opacity:1; 
stroke-linecap:round; stroke-linejoin:round;fill-rule:evenodd;"
d="M 58974999.000000,87774999.000000
57675001.000000,87774999.000000
57675001.000000,87475001.000000
58974999.000000,87475001.000000
Z" /> 
<path style="fill:#000000; fill-opacity:1.0; 
stroke:#000000; stroke-width:1.000000; stroke-opacity:1; 
stroke-linecap:round; stroke-linejoin:round;fill-rule:evenodd;"
d="M 58974999.000000,87274999.000000
57675001.000000,87274999.000000
57675001.000000,86975001.000000
58974999.000000,86975001.000000
Z" /> 
<path style="fill:#000000; fill-opacity:1.0; 
stroke:#000000; stroke-width:1.000000; stroke-opacity:1; 
stroke-linecap:round; stroke-linejoin:round;fill-rule:evenodd;"
d="M 62674999.000000,86124999.000000
60475001.000000,86124999.000000
60475001.000000,84325001.000000
62674999.000000,84325001.000000
Z" /> 
<path style="fill:#000000; fill-opacity:1.0; 
stroke:#000000; stroke-width:1.000000; stroke-opacity:1; 
stroke-linecap:round; stroke-linejoin:round;fill-rule:evenodd;"
d="M 62674999.000000,92424999.000000
60475001.000000,92424999.000000
60475001.000000,90625001.000000
62674999.000000,90625001.000000
Z" /> 
</g>
<g >
</g>
<g >
</g>
<g >
</g>
<g >
</g>
<g style="fill:#000000; fill-opacity:1.0; 
stroke:#000000; stroke-width:1.000000; stroke-opacity:1; 
stroke-linecap:round; stroke-linejoin:round;">
<path style="fill:#000000; fill-opacity:1.0; 
stroke:#000000; stroke-width:1.000000; stroke-opacity:1; 
stroke-linecap:round; stroke-linejoin:round;fill-rule:evenodd;"
d="M 48937500.000000,22512500.000000
48846613.000000,22494421.000000
48769562.000000,22442938.000000
48718079.000000,22365887.000000
48700000.000000,22275000.000000
48700000.000000,21775000.000000
48718079.000000,21684113.000000
48769562.000000,21607062.000000
48846613.000000,21555579.000000
48937500.000000,21537500.000000
49412500.000000,21537500.000000
49503387.000000,21555579.000000
49580438.000000,21607062.000000
49631921.000000,21684113.000000
49650000.000000,21775000.000000
49650000.000000,22275000.000000
49631921.000000,22365887.000000
49580438.000000,22442938.000000
49503387.000000,22494421.000000
49412500.000000,22512500.000000
Z" /> 
<path style="fill:#000000; fill-opacity:1.0; 
stroke:#000000; stroke-width:1.000000; stroke-opacity:1; 
stroke-linecap:round; stroke-linejoin:round;fill-rule:evenodd;"
d="M 48937500.000000,20687500.000000
48846613.000000,20669421.000000
48769562.000000,20617938.000000
48718079.000000,20540887.000000
48700000.000000,20450000.000000
48700000.000000,19950000.000000
48718079.000000,19859113.000000
48769562.000000,19782062.000000
48846613.000000,19730579.000000
48937500.000000,19712500.000000
49412500.000000,19712500.000000
49503387.000000,19730579.000000
49580438.000000,19782062.000000
49631921.000000,19859113.000000
49650000.000000,19950000.000000
49650000.000000,20450000.000000
49631921.000000,20540887.000000
49580438.000000,20617938.000000
49503387.000000,20669421.000000
49412500.000000,20687500.000000
Z" /> 
</g>
<g >
</g>
<g style="fill:#000000; fill-opacity:1.0; 
stroke:#000000; stroke-width:1.000000; stroke-opacity:1; 
stroke-linecap:round; stroke-linejoin:round;">
<path style="fill:#000000; fill-opacity:1.0; 
stroke:#000000; stroke-width:1.000000; stroke-opacity:1; 
stroke-linecap:round; stroke-linejoin:round;fill-rule:evenodd;"
d="M 53774999.000000,11975001.000000
53774999.000000,13474999.000000
51775001.000000,13474999.000000
51775001.000000,11975001.000000
Z" /> 
<path style="fill:#000000; fill-opacity:1.0; 
stroke:#000000; stroke-width:1.000000; stroke-opacity:1; 
stroke-linecap:round; stroke-linejoin:round;fill-rule:evenodd;"
d="M 47474999.000000,8525001.000000
47474999.000000,12324999.000000
45475001.000000,12324999.000000
45475001.000000,8525001.000000
Z" /> 
<path style="fill:#000000; fill-opacity:1.0; 
stroke:#000000; stroke-width:1.000000; stroke-opacity:1; 
stroke-linecap:round; stroke-linejoin:round;fill-rule:evenodd;"
d="M 53774999.000000,9675001.000000
53774999.000000,11174999.000000
51775001.000000,11174999.000000
51775001.000000,9675001.000000
Z" /> 
<path style="fill:#000000; fill-opacity:1.0; 
stroke:#000000; stroke-width:1.000000; stroke-opacity:1; 
stroke-linecap:round; stroke-linejoin:round;fill-rule:evenodd;"
d="M 53774999.000000,7375001.000000
53774999.000000,8874999.000000
51775001.000000,8874999.000000
51775001.000000,7375001.000000
Z" /> 
</g>
<g >
</g>
<g style="fill:#000000; fill-opacity:1.0; 
stroke:#000000; stroke-width:1.000000; stroke-opacity:1; 
stroke-linecap:round; stroke-linejoin:round;">
<path style="fill:#000000; fill-opacity:1.0; 
stroke:#000000; stroke-width:1.000000; stroke-opacity:1; 
stroke-linecap:round; stroke-linejoin:round;fill-rule:evenodd;"
d="M 50670001.000000,68824999.000000
50670001.000000,66625001.000000
51269999.000000,66625001.000000
51269999.000000,68824999.000000
Z" /> 
<path style="fill:#000000; fill-opacity:1.0; 
stroke:#000000; stroke-width:1.000000; stroke-opacity:1; 
stroke-linecap:round; stroke-linejoin:round;fill-rule:evenodd;"
d="M 51940001.000000,68824999.000000
51940001.000000,66625001.000000
52539999.000000,66625001.000000
52539999.000000,68824999.000000
Z" /> 
<path style="fill:#000000; fill-opacity:1.0; 
stroke:#000000; stroke-width:1.000000; stroke-opacity:1; 
stroke-linecap:round; stroke-linejoin:round;fill-rule:evenodd;"
d="M 53210001.000000,68824999.000000
53210001.000000,66625001.000000
53809999.000000,66625001.000000
53809999.000000,68824999.000000
Z" /> 
<path style="fill:#000000; fill-opacity:1.0; 
stroke:#000000; stroke-width:1.000000; stroke-opacity:1; 
stroke-linecap:round; stroke-linejoin:round;fill-rule:evenodd;"
d="M 54480001.000000,68824999.000000
54480001.000000,66625001.000000
55079999.000000,66625001.000000
55079999.000000,68824999.000000
Z" /> 
<path style="fill:#000000; fill-opacity:1.0; 
stroke:#000000; stroke-width:1.000000; stroke-opacity:1; 
stroke-linecap:round; stroke-linejoin:round;fill-rule:evenodd;"
d="M 54480001.000000,63624999.000000
54480001.000000,61425001.000000
55079999.000000,61425001.000000
55079999.000000,63624999.000000
Z" /> 
<path style="fill:#000000; fill-opacity:1.0; 
stroke:#000000; stroke-width:1.000000; stroke-opacity:1; 
stroke-linecap:round; stroke-linejoin:round;fill-rule:evenodd;"
d="M 53210001.000000,63624999.000000
53210001.000000,61425001.000000
53809999.000000,61425001.000000
53809999.000000,63624999.000000
Z" /> 
<path style="fill:#000000; fill-opacity:1.0; 
stroke:#000000; stroke-width:1.000000; stroke-opacity:1; 
stroke-linecap:round; stroke-linejoin:round;fill-rule:evenodd;"
d="M 51940001.000000,63624999.000000
51940001.000000,61425001.000000
52539999.000000,61425001.000000
52539999.000000,63624999.000000
Z" /> 
<path style="fill:#000000; fill-opacity:1.0; 
stroke:#000000; stroke-width:1.000000; stroke-opacity:1; 
stroke-linecap:round; stroke-linejoin:round;fill-rule:evenodd;"
d="M 50670001.000000,63624999.000000
50670001.000000,61425001.000000
51269999.000000,61425001.000000
51269999.000000,63624999.000000
Z" /> 
</g>
<g >
</g>
<g >
</g>
<g style="fill:#000000; fill-opacity:1.0; 
stroke:#000000; stroke-width:1.000000; stroke-opacity:1; 
stroke-linecap:round; stroke-linejoin:round;">
<path style="fill:#000000; fill-opacity:1.0; 
stroke:#000000; stroke-width:1.000000; stroke-opacity:1; 
stroke-linecap:round; stroke-linejoin:round;fill-rule:evenodd;"
d="M 56512500.000000,11087500.000000
56603387.000000,11105579.000000
56680438.000000,11157062.000000
56731921.000000,11234113.000000
56750000.000000,11325000.000000
56750000.000000,11925000.000000
56731921.000000,12015887.000000
56680438.000000,12092938.000000
56603387.000000,12144421.000000
56512500.000000,12162500.000000
56037500.000000,12162500.000000
55946613.000000,12144421.000000
55869562.000000,12092938.000000
55818079.000000,12015887.000000
55800000.000000,11925000.000000
55800000.000000,11325000.000000
55818079.000000,11234113.000000
55869562.000000,11157062.000000
55946613.000000,11105579.000000
56037500.000000,11087500.000000
Z" /> 
<path style="fill:#000000; fill-opacity:1.0; 
stroke:#000000; stroke-width:1.000000; stroke-opacity:1; 
stroke-linecap:round; stroke-linejoin:round;fill-rule:evenodd;"
d="M 56512500.000000,12812500.000000
56603387.000000,12830579.000000
56680438.000000,12882062.000000
56731921.000000,12959113.000000
56750000.000000,13050000.000000
56750000.000000,13650000.000000
56731921.000000,13740887.000000
56680438.000000,13817938.000000
56603387.000000,13869421.000000
56512500.000000,13887500.000000
56037500.000000,13887500.000000
55946613.000000,13869421.000000
55869562.000000,13817938.000000
55818079.000000,13740887.000000
55800000.000000,13650000.000000
55800000.000000,13050000.000000
55818079.000000,12959113.000000
55869562.000000,12882062.000000
55946613.000000,12830579.000000
56037500.000000,12812500.000000
Z" /> 
</g>
<g >
</g>
<g >
</g>
<g >
</g>
<g style="fill:#000000; fill-opacity:1.0; 
stroke:#000000; stroke-width:1.000000; stroke-opacity:1; 
stroke-linecap:round; stroke-linejoin:round;">
<path style="fill:#000000; fill-opacity:1.0; 
stroke:#000000; stroke-width:1.000000; stroke-opacity:1; 
stroke-linecap:round; stroke-linejoin:round;fill-rule:evenodd;"
d="M 50725001.000000,71324999.000000
50725001.000000,70125001.000000
51624999.000000,70125001.000000
51624999.000000,71324999.000000
Z" /> 
<path style="fill:#000000; fill-opacity:1.0; 
stroke:#000000; stroke-width:1.000000; stroke-opacity:1; 
stroke-linecap:round; stroke-linejoin:round;fill-rule:evenodd;"
d="M 54025001.000000,71324999.000000
54025001.000000,70125001.000000
54924999.000000,70125001.000000
54924999.000000,71324999.000000
Z" /> 
</g>
<g >
</g>
<g >
</g>
<g >
</g>
<g >
</g>
</g>
<g style="fill:#000000; fill-opacity:1.0; 
stroke:#000000; stroke-width:1.000000; stroke-opacity:1; 
stroke-linecap:round; stroke-linejoin:round;">
</g>
<g style="fill:#000000; fill-opacity:1.0; 
stroke:#000000; stroke-width:100000.000000; stroke-opacity:1; 
stroke-linecap:round; stroke-linejoin:round;">
</g>
<g style="fill:#000000; fill-opacity:0.0; 
stroke:#000000; stroke-width:100000.000000; stroke-opacity:1; 
stroke-linecap:round; stroke-linejoin:round;">
<path d="M75000 93325000
L75000 8125000
" />
<path d="M85275000.000000 96725000.000000 A3400000.000000 3400000.000000 0.0 0 0 88675000.000000 93325000.000000" />
<path d="M3475000.000000 4725000.000000 A3400000.000000 3400000.000000 0.0 0 0 75000.000000 8125000.000000" />
</g>
<g style="fill:#000000; fill-opacity:0.0; 
stroke:#000000; stroke-width:200000.000000; stroke-opacity:1; 
stroke-linecap:round; stroke-linejoin:round;">
<path d="M88675000.000000 8125000.000000 A3400000.000000 3400000.000000 0.0 0 0 85275000.000000 4725000.000000" />
</g>
<g style="fill:#000000; fill-opacity:0.0; 
stroke:#000000; stroke-width:100000.000000; stroke-opacity:1; 
stroke-linecap:round; stroke-linejoin:round;">
<path d="M85275000 96725000
L3475000 96725000
" />
<path d="M88675000 8125000
L88675000 93325000
" />
<path d="M3475000 4725000
L85275000 4725000
" />
<path d="M75000.000000 93325000.000000 A3400000.000000 3400000.000000 0.0 0 0 3475000.000000 96725000.000000" />
</g>
<g style="fill:#000000; fill-opacity:0.0; 
stroke:#000000; stroke-width:200000.000000; stroke-opacity:1; 
stroke-linecap:round; stroke-linejoin:round;">
<path d="M59475000 66625618
L59475000 63625618
" />
<path d="M46275000 63625618
L46275000 66625618
" />
<path d="M56275000 63625618
L56275000 66625000
" />
<path d="M49475000 66625000
L49475000 63625618
" />
<path d="M59475000.000000 63625618.000000 A1600000.000000 1600000.000000 0.0 0 0 56275000.000000 63625618.000000" />
<path d="M56275000.029838 66625000.000006 A1600000.000000 1600000.000000 0.0 0 0 59474999.970162 66625617.999994" />
<path d="M49475000.000000 63625618.000000 A1600000.000000 1600000.000000 0.0 0 0 46275000.000000 63625618.000000" />
<path d="M46275000.029838 66625617.999994 A1600000.000000 1600000.000000 0.0 1 0 49474999.970162 66625000.000006" />
</g>
<g style="fill:#000000; fill-opacity:0.0; 
stroke:#000000; stroke-width:120000.000000; stroke-opacity:1; 
stroke-linecap:round; stroke-linejoin:round;">
<circle cx="43375000.000000" cy="65125000.000000" r="1300000.000000" /> 
<circle cx="62375000.000000" cy="65125000.000000" r="1300000.000000" /> 
<circle cx="52875000.000000" cy="55625000.000000" r="1300000.000000" /> 
<circle cx="52888140.000000" cy="76102241.000000" r="1100000.000000" /> 
<circle cx="43348721.000000" cy="59625000.000000" r="1100000.000000" /> 
<circle cx="62388140.000000" cy="59647759.000000" r="1100000.000000" /> 
<g >
</g>
<g >
</g>
<g >
</g>
<g >
</g>
<g >
</g>
<g >
</g>
<g >
</g>
<g >
</g>
<g >
</g>
<g >
</g>
<g >
</g>
<g >
</g>
<g >
</g>
<g >
</g>
<g >
</g>
<g >
</g>
<g >
</g>
<g >
</g>
<g >
</g>
<g >
</g>
<g >
</g>
<g >
</g>
<g >
</g>
<g >
</g>
<g >
</g>
<g >
</g>
<g >
</g>
</g> 
</svg>
