%TF.GenerationSoftware,KiCad,Pcbnew,(6.0.1)*%
%TF.CreationDate,2023-03-02T15:38:04+08:00*%
%TF.ProjectId,Scroller Motor 1,5363726f-6c6c-4657-9220-4d6f746f7220,rev?*%
%TF.SameCoordinates,Original*%
%TF.FileFunction,Legend,Top*%
%TF.FilePolarity,Positive*%
%FSLAX46Y46*%
G04 Gerber Fmt 4.6, Leading zero omitted, Abs format (unit mm)*
G04 Created by KiCad (PCBNEW (6.0.1)) date 2023-03-02 15:38:04*
%MOMM*%
%LPD*%
G01*
G04 APERTURE LIST*
%ADD10C,0.300000*%
%ADD11C,0.150000*%
%ADD12C,0.100000*%
%ADD13C,0.120000*%
G04 APERTURE END LIST*
D10*
X133550000Y-90292857D02*
X133764285Y-90364285D01*
X133835714Y-90435714D01*
X133907142Y-90578571D01*
X133907142Y-90792857D01*
X133835714Y-90935714D01*
X133764285Y-91007142D01*
X133621428Y-91078571D01*
X133050000Y-91078571D01*
X133050000Y-89578571D01*
X133550000Y-89578571D01*
X133692857Y-89650000D01*
X133764285Y-89721428D01*
X133835714Y-89864285D01*
X133835714Y-90007142D01*
X133764285Y-90150000D01*
X133692857Y-90221428D01*
X133550000Y-90292857D01*
X133050000Y-90292857D01*
X134335714Y-89578571D02*
X135192857Y-89578571D01*
X134764285Y-91078571D02*
X134764285Y-89578571D01*
X135692857Y-91078571D02*
X135692857Y-89578571D01*
X136550000Y-91078571D01*
X136550000Y-89578571D01*
X132857142Y-86578571D02*
X133714285Y-86578571D01*
X133285714Y-88078571D02*
X133285714Y-86578571D01*
X134071428Y-86578571D02*
X135071428Y-88078571D01*
X135071428Y-86578571D02*
X134071428Y-88078571D01*
X133750000Y-85478571D02*
X133250000Y-84764285D01*
X132892857Y-85478571D02*
X132892857Y-83978571D01*
X133464285Y-83978571D01*
X133607142Y-84050000D01*
X133678571Y-84121428D01*
X133750000Y-84264285D01*
X133750000Y-84478571D01*
X133678571Y-84621428D01*
X133607142Y-84692857D01*
X133464285Y-84764285D01*
X132892857Y-84764285D01*
X134250000Y-83978571D02*
X135250000Y-85478571D01*
X135250000Y-83978571D02*
X134250000Y-85478571D01*
D11*
X155514285Y-80671428D02*
X156276190Y-80671428D01*
X155895238Y-81052380D02*
X155895238Y-80290476D01*
X157228571Y-80052380D02*
X156752380Y-80052380D01*
X156704761Y-80528571D01*
X156752380Y-80480952D01*
X156847619Y-80433333D01*
X157085714Y-80433333D01*
X157180952Y-80480952D01*
X157228571Y-80528571D01*
X157276190Y-80623809D01*
X157276190Y-80861904D01*
X157228571Y-80957142D01*
X157180952Y-81004761D01*
X157085714Y-81052380D01*
X156847619Y-81052380D01*
X156752380Y-81004761D01*
X156704761Y-80957142D01*
X157561904Y-80052380D02*
X157895238Y-81052380D01*
X158228571Y-80052380D01*
X123004761Y-101814285D02*
X123052380Y-101671428D01*
X123052380Y-101433333D01*
X123004761Y-101338095D01*
X122957142Y-101290476D01*
X122861904Y-101242857D01*
X122766666Y-101242857D01*
X122671428Y-101290476D01*
X122623809Y-101338095D01*
X122576190Y-101433333D01*
X122528571Y-101623809D01*
X122480952Y-101719047D01*
X122433333Y-101766666D01*
X122338095Y-101814285D01*
X122242857Y-101814285D01*
X122147619Y-101766666D01*
X122100000Y-101719047D01*
X122052380Y-101623809D01*
X122052380Y-101385714D01*
X122100000Y-101242857D01*
X123052380Y-100814285D02*
X122052380Y-100814285D01*
X122052380Y-100576190D01*
X122100000Y-100433333D01*
X122195238Y-100338095D01*
X122290476Y-100290476D01*
X122480952Y-100242857D01*
X122623809Y-100242857D01*
X122814285Y-100290476D01*
X122909523Y-100338095D01*
X123004761Y-100433333D01*
X123052380Y-100576190D01*
X123052380Y-100814285D01*
X122766666Y-99861904D02*
X122766666Y-99385714D01*
X123052380Y-99957142D02*
X122052380Y-99623809D01*
X123052380Y-99290476D01*
X120204761Y-101790476D02*
X120252380Y-101647619D01*
X120252380Y-101409523D01*
X120204761Y-101314285D01*
X120157142Y-101266666D01*
X120061904Y-101219047D01*
X119966666Y-101219047D01*
X119871428Y-101266666D01*
X119823809Y-101314285D01*
X119776190Y-101409523D01*
X119728571Y-101600000D01*
X119680952Y-101695238D01*
X119633333Y-101742857D01*
X119538095Y-101790476D01*
X119442857Y-101790476D01*
X119347619Y-101742857D01*
X119300000Y-101695238D01*
X119252380Y-101600000D01*
X119252380Y-101361904D01*
X119300000Y-101219047D01*
X120157142Y-100219047D02*
X120204761Y-100266666D01*
X120252380Y-100409523D01*
X120252380Y-100504761D01*
X120204761Y-100647619D01*
X120109523Y-100742857D01*
X120014285Y-100790476D01*
X119823809Y-100838095D01*
X119680952Y-100838095D01*
X119490476Y-100790476D01*
X119395238Y-100742857D01*
X119300000Y-100647619D01*
X119252380Y-100504761D01*
X119252380Y-100409523D01*
X119300000Y-100266666D01*
X119347619Y-100219047D01*
X120252380Y-99314285D02*
X120252380Y-99790476D01*
X119252380Y-99790476D01*
X117357142Y-101219047D02*
X117404761Y-101266666D01*
X117452380Y-101409523D01*
X117452380Y-101504761D01*
X117404761Y-101647619D01*
X117309523Y-101742857D01*
X117214285Y-101790476D01*
X117023809Y-101838095D01*
X116880952Y-101838095D01*
X116690476Y-101790476D01*
X116595238Y-101742857D01*
X116500000Y-101647619D01*
X116452380Y-101504761D01*
X116452380Y-101409523D01*
X116500000Y-101266666D01*
X116547619Y-101219047D01*
X117404761Y-100838095D02*
X117452380Y-100695238D01*
X117452380Y-100457142D01*
X117404761Y-100361904D01*
X117357142Y-100314285D01*
X117261904Y-100266666D01*
X117166666Y-100266666D01*
X117071428Y-100314285D01*
X117023809Y-100361904D01*
X116976190Y-100457142D01*
X116928571Y-100647619D01*
X116880952Y-100742857D01*
X116833333Y-100790476D01*
X116738095Y-100838095D01*
X116642857Y-100838095D01*
X116547619Y-100790476D01*
X116500000Y-100742857D01*
X116452380Y-100647619D01*
X116452380Y-100409523D01*
X116500000Y-100266666D01*
X116785714Y-99838095D02*
X117452380Y-99838095D01*
X116880952Y-99838095D02*
X116833333Y-99790476D01*
X116785714Y-99695238D01*
X116785714Y-99552380D01*
X116833333Y-99457142D01*
X116928571Y-99409523D01*
X117452380Y-99409523D01*
X152000000Y-127000000D02*
G75*
G03*
X152000000Y-127000000I-25000000J0D01*
G01*
%TO.C,TMC1*%
X94527619Y-140406666D02*
X94527619Y-140978095D01*
X93527619Y-140692380D02*
X94527619Y-140692380D01*
X93527619Y-141311428D02*
X94527619Y-141311428D01*
X93813333Y-141644761D01*
X94527619Y-141978095D01*
X93527619Y-141978095D01*
X93622857Y-143025714D02*
X93575238Y-142978095D01*
X93527619Y-142835238D01*
X93527619Y-142740000D01*
X93575238Y-142597142D01*
X93670476Y-142501904D01*
X93765714Y-142454285D01*
X93956190Y-142406666D01*
X94099047Y-142406666D01*
X94289523Y-142454285D01*
X94384761Y-142501904D01*
X94480000Y-142597142D01*
X94527619Y-142740000D01*
X94527619Y-142835238D01*
X94480000Y-142978095D01*
X94432380Y-143025714D01*
X93527619Y-143978095D02*
X93527619Y-143406666D01*
X93527619Y-143692380D02*
X94527619Y-143692380D01*
X94384761Y-143597142D01*
X94289523Y-143501904D01*
X94241904Y-143406666D01*
D12*
X82611428Y-133489285D02*
X83211428Y-133346428D01*
X82782857Y-133232142D01*
X83211428Y-133117857D01*
X82611428Y-132975000D01*
X83211428Y-132460714D02*
X83211428Y-132746428D01*
X82611428Y-132746428D01*
X85011428Y-133589285D02*
X85611428Y-133446428D01*
X85182857Y-133332142D01*
X85611428Y-133217857D01*
X85011428Y-133075000D01*
X85611428Y-132846428D02*
X85011428Y-132846428D01*
X85297142Y-132846428D02*
X85297142Y-132503571D01*
X85611428Y-132503571D02*
X85011428Y-132503571D01*
X92611428Y-151405000D02*
X93211428Y-151262142D01*
X92782857Y-151147857D01*
X93211428Y-151033571D01*
X92611428Y-150890714D01*
X90111428Y-133517857D02*
X90711428Y-133317857D01*
X90111428Y-133117857D01*
X90711428Y-132917857D02*
X90111428Y-132917857D01*
X90397142Y-132917857D02*
X90397142Y-132575000D01*
X90711428Y-132575000D02*
X90111428Y-132575000D01*
X98492380Y-147401868D02*
X98492380Y-146830440D01*
X99492380Y-147116154D02*
X98492380Y-147116154D01*
X99492380Y-146497107D02*
X98492380Y-146497107D01*
X99206666Y-146163773D01*
X98492380Y-145830440D01*
X99492380Y-145830440D01*
X99397142Y-144782821D02*
X99444761Y-144830440D01*
X99492380Y-144973297D01*
X99492380Y-145068535D01*
X99444761Y-145211392D01*
X99349523Y-145306630D01*
X99254285Y-145354249D01*
X99063809Y-145401868D01*
X98920952Y-145401868D01*
X98730476Y-145354249D01*
X98635238Y-145306630D01*
X98540000Y-145211392D01*
X98492380Y-145068535D01*
X98492380Y-144973297D01*
X98540000Y-144830440D01*
X98587619Y-144782821D01*
X98492380Y-143925678D02*
X98492380Y-144116154D01*
X98540000Y-144211392D01*
X98587619Y-144259011D01*
X98730476Y-144354249D01*
X98920952Y-144401868D01*
X99301904Y-144401868D01*
X99397142Y-144354249D01*
X99444761Y-144306630D01*
X99492380Y-144211392D01*
X99492380Y-144020916D01*
X99444761Y-143925678D01*
X99397142Y-143878059D01*
X99301904Y-143830440D01*
X99063809Y-143830440D01*
X98968571Y-143878059D01*
X98920952Y-143925678D01*
X98873333Y-144020916D01*
X98873333Y-144211392D01*
X98920952Y-144306630D01*
X98968571Y-144354249D01*
X99063809Y-144401868D01*
X98492380Y-143497107D02*
X98492380Y-142878059D01*
X98873333Y-143211392D01*
X98873333Y-143068535D01*
X98920952Y-142973297D01*
X98968571Y-142925678D01*
X99063809Y-142878059D01*
X99301904Y-142878059D01*
X99397142Y-142925678D01*
X99444761Y-142973297D01*
X99492380Y-143068535D01*
X99492380Y-143354249D01*
X99444761Y-143449487D01*
X99397142Y-143497107D01*
X98492380Y-142259011D02*
X98492380Y-142163773D01*
X98540000Y-142068535D01*
X98587619Y-142020916D01*
X98682857Y-141973297D01*
X98873333Y-141925678D01*
X99111428Y-141925678D01*
X99301904Y-141973297D01*
X99397142Y-142020916D01*
X99444761Y-142068535D01*
X99492380Y-142163773D01*
X99492380Y-142259011D01*
X99444761Y-142354249D01*
X99397142Y-142401868D01*
X99301904Y-142449487D01*
X99111428Y-142497107D01*
X98873333Y-142497107D01*
X98682857Y-142449487D01*
X98587619Y-142401868D01*
X98540000Y-142354249D01*
X98492380Y-142259011D01*
X98492380Y-141306630D02*
X98492380Y-141211392D01*
X98540000Y-141116154D01*
X98587619Y-141068535D01*
X98682857Y-141020916D01*
X98873333Y-140973297D01*
X99111428Y-140973297D01*
X99301904Y-141020916D01*
X99397142Y-141068535D01*
X99444761Y-141116154D01*
X99492380Y-141211392D01*
X99492380Y-141306630D01*
X99444761Y-141401868D01*
X99397142Y-141449487D01*
X99301904Y-141497107D01*
X99111428Y-141544726D01*
X98873333Y-141544726D01*
X98682857Y-141497107D01*
X98587619Y-141449487D01*
X98540000Y-141401868D01*
X98492380Y-141306630D01*
X99111428Y-140544726D02*
X99111428Y-139782821D01*
X98968571Y-138973297D02*
X99016190Y-138830440D01*
X99063809Y-138782821D01*
X99159047Y-138735202D01*
X99301904Y-138735202D01*
X99397142Y-138782821D01*
X99444761Y-138830440D01*
X99492380Y-138925678D01*
X99492380Y-139306630D01*
X98492380Y-139306630D01*
X98492380Y-138973297D01*
X98540000Y-138878059D01*
X98587619Y-138830440D01*
X98682857Y-138782821D01*
X98778095Y-138782821D01*
X98873333Y-138830440D01*
X98920952Y-138878059D01*
X98968571Y-138973297D01*
X98968571Y-139306630D01*
X98492380Y-138116154D02*
X98492380Y-137925678D01*
X98540000Y-137830440D01*
X98635238Y-137735202D01*
X98825714Y-137687583D01*
X99159047Y-137687583D01*
X99349523Y-137735202D01*
X99444761Y-137830440D01*
X99492380Y-137925678D01*
X99492380Y-138116154D01*
X99444761Y-138211392D01*
X99349523Y-138306630D01*
X99159047Y-138354249D01*
X98825714Y-138354249D01*
X98635238Y-138306630D01*
X98540000Y-138211392D01*
X98492380Y-138116154D01*
X98968571Y-136925678D02*
X99016190Y-136782821D01*
X99063809Y-136735202D01*
X99159047Y-136687583D01*
X99301904Y-136687583D01*
X99397142Y-136735202D01*
X99444761Y-136782821D01*
X99492380Y-136878059D01*
X99492380Y-137259011D01*
X98492380Y-137259011D01*
X98492380Y-136925678D01*
X98540000Y-136830440D01*
X98587619Y-136782821D01*
X98682857Y-136735202D01*
X98778095Y-136735202D01*
X98873333Y-136782821D01*
X98920952Y-136830440D01*
X98968571Y-136925678D01*
X98968571Y-137259011D01*
X87580036Y-133417857D02*
X88180036Y-133217857D01*
X87580036Y-133017857D01*
X88180036Y-132532142D02*
X88180036Y-132817857D01*
X87580036Y-132817857D01*
X100682857Y-151347857D02*
X100682857Y-150890714D01*
X100911428Y-151119285D02*
X100454285Y-151119285D01*
X100311428Y-150690714D02*
X100911428Y-150490714D01*
X100311428Y-150290714D01*
X100911428Y-150090714D02*
X100311428Y-150090714D01*
X100540000Y-150090714D02*
X100511428Y-150033571D01*
X100511428Y-149919285D01*
X100540000Y-149862142D01*
X100568571Y-149833571D01*
X100625714Y-149805000D01*
X100797142Y-149805000D01*
X100854285Y-149833571D01*
X100882857Y-149862142D01*
X100911428Y-149919285D01*
X100911428Y-150033571D01*
X100882857Y-150090714D01*
X100911428Y-149290714D02*
X100597142Y-149290714D01*
X100540000Y-149319285D01*
X100511428Y-149376428D01*
X100511428Y-149490714D01*
X100540000Y-149547857D01*
X100882857Y-149290714D02*
X100911428Y-149347857D01*
X100911428Y-149490714D01*
X100882857Y-149547857D01*
X100825714Y-149576428D01*
X100768571Y-149576428D01*
X100711428Y-149547857D01*
X100682857Y-149490714D01*
X100682857Y-149347857D01*
X100654285Y-149290714D01*
X100511428Y-149090714D02*
X100511428Y-148862142D01*
X100311428Y-149005000D02*
X100825714Y-149005000D01*
X100882857Y-148976428D01*
X100911428Y-148919285D01*
X100911428Y-148862142D01*
X95208607Y-133432142D02*
X95694321Y-133432142D01*
X95751464Y-133403571D01*
X95780036Y-133375000D01*
X95808607Y-133317857D01*
X95808607Y-133203571D01*
X95780036Y-133146428D01*
X95751464Y-133117857D01*
X95694321Y-133089285D01*
X95208607Y-133089285D01*
X95808607Y-132803571D02*
X95208607Y-132803571D01*
X95494321Y-132803571D02*
X95494321Y-132460714D01*
X95808607Y-132460714D02*
X95208607Y-132460714D01*
X97740000Y-151076428D02*
X97711428Y-151133571D01*
X97711428Y-151219285D01*
X97740000Y-151305000D01*
X97797142Y-151362142D01*
X97854285Y-151390714D01*
X97968571Y-151419285D01*
X98054285Y-151419285D01*
X98168571Y-151390714D01*
X98225714Y-151362142D01*
X98282857Y-151305000D01*
X98311428Y-151219285D01*
X98311428Y-151162142D01*
X98282857Y-151076428D01*
X98254285Y-151047857D01*
X98054285Y-151047857D01*
X98054285Y-151162142D01*
X98311428Y-150790714D02*
X97711428Y-150790714D01*
X98311428Y-150447857D01*
X97711428Y-150447857D01*
X98311428Y-150162142D02*
X97711428Y-150162142D01*
X97711428Y-150019285D01*
X97740000Y-149933571D01*
X97797142Y-149876428D01*
X97854285Y-149847857D01*
X97968571Y-149819285D01*
X98054285Y-149819285D01*
X98168571Y-149847857D01*
X98225714Y-149876428D01*
X98282857Y-149933571D01*
X98311428Y-150019285D01*
X98311428Y-150162142D01*
X85040000Y-151076428D02*
X85011428Y-151133571D01*
X85011428Y-151219285D01*
X85040000Y-151305000D01*
X85097142Y-151362142D01*
X85154285Y-151390714D01*
X85268571Y-151419285D01*
X85354285Y-151419285D01*
X85468571Y-151390714D01*
X85525714Y-151362142D01*
X85582857Y-151305000D01*
X85611428Y-151219285D01*
X85611428Y-151162142D01*
X85582857Y-151076428D01*
X85554285Y-151047857D01*
X85354285Y-151047857D01*
X85354285Y-151162142D01*
X85611428Y-150790714D02*
X85011428Y-150790714D01*
X85611428Y-150447857D01*
X85011428Y-150447857D01*
X85611428Y-150162142D02*
X85011428Y-150162142D01*
X85011428Y-150019285D01*
X85040000Y-149933571D01*
X85097142Y-149876428D01*
X85154285Y-149847857D01*
X85268571Y-149819285D01*
X85354285Y-149819285D01*
X85468571Y-149847857D01*
X85525714Y-149876428D01*
X85582857Y-149933571D01*
X85611428Y-150019285D01*
X85611428Y-150162142D01*
X92665750Y-133332142D02*
X93151464Y-133332142D01*
X93208607Y-133303571D01*
X93237179Y-133275000D01*
X93265750Y-133217857D01*
X93265750Y-133103571D01*
X93237179Y-133046428D01*
X93208607Y-133017857D01*
X93151464Y-132989285D01*
X92665750Y-132989285D01*
X93265750Y-132417857D02*
X93265750Y-132703571D01*
X92665750Y-132703571D01*
X83094321Y-151362142D02*
X82494321Y-151362142D01*
X82494321Y-151219285D01*
X82522893Y-151133571D01*
X82580035Y-151076428D01*
X82637178Y-151047857D01*
X82751464Y-151019285D01*
X82837178Y-151019285D01*
X82951464Y-151047857D01*
X83008607Y-151076428D01*
X83065750Y-151133571D01*
X83094321Y-151219285D01*
X83094321Y-151362142D01*
X83094321Y-150762142D02*
X82494321Y-150762142D01*
X82922893Y-150505000D02*
X82922893Y-150219285D01*
X83094321Y-150562142D02*
X82494321Y-150362142D01*
X83094321Y-150162142D01*
X82522893Y-149647857D02*
X82494321Y-149705000D01*
X82494321Y-149790714D01*
X82522893Y-149876428D01*
X82580035Y-149933571D01*
X82637178Y-149962142D01*
X82751464Y-149990714D01*
X82837178Y-149990714D01*
X82951464Y-149962142D01*
X83008607Y-149933571D01*
X83065750Y-149876428D01*
X83094321Y-149790714D01*
X83094321Y-149733571D01*
X83065750Y-149647857D01*
X83037178Y-149619285D01*
X82837178Y-149619285D01*
X82837178Y-149733571D01*
X90111428Y-151462142D02*
X90711428Y-151262142D01*
X90111428Y-151062142D01*
X95240000Y-151076428D02*
X95211428Y-151133571D01*
X95211428Y-151219285D01*
X95240000Y-151305000D01*
X95297142Y-151362142D01*
X95354285Y-151390714D01*
X95468571Y-151419285D01*
X95554285Y-151419285D01*
X95668571Y-151390714D01*
X95725714Y-151362142D01*
X95782857Y-151305000D01*
X95811428Y-151219285D01*
X95811428Y-151162142D01*
X95782857Y-151076428D01*
X95754285Y-151047857D01*
X95554285Y-151047857D01*
X95554285Y-151162142D01*
X95811428Y-150790714D02*
X95211428Y-150790714D01*
X95811428Y-150447857D01*
X95211428Y-150447857D01*
X95811428Y-150162142D02*
X95211428Y-150162142D01*
X95211428Y-150019285D01*
X95240000Y-149933571D01*
X95297142Y-149876428D01*
X95354285Y-149847857D01*
X95468571Y-149819285D01*
X95554285Y-149819285D01*
X95668571Y-149847857D01*
X95725714Y-149876428D01*
X95782857Y-149933571D01*
X95811428Y-150019285D01*
X95811428Y-150162142D01*
X100294321Y-137117857D02*
X100894321Y-136917857D01*
X100294321Y-136717857D01*
X100894321Y-136517857D02*
X100294321Y-136517857D01*
X100294321Y-136117857D02*
X100294321Y-136003571D01*
X100322893Y-135946428D01*
X100380035Y-135889285D01*
X100494321Y-135860714D01*
X100694321Y-135860714D01*
X100808607Y-135889285D01*
X100865750Y-135946428D01*
X100894321Y-136003571D01*
X100894321Y-136117857D01*
X100865750Y-136175000D01*
X100808607Y-136232142D01*
X100694321Y-136260714D01*
X100494321Y-136260714D01*
X100380035Y-136232142D01*
X100322893Y-136175000D01*
X100294321Y-136117857D01*
X100265750Y-135175000D02*
X101037178Y-135689285D01*
X100124893Y-135117857D02*
X100124893Y-134546428D01*
X100865750Y-135003571D02*
X100894321Y-134917857D01*
X100894321Y-134775000D01*
X100865750Y-134717857D01*
X100837178Y-134689285D01*
X100780035Y-134660714D01*
X100722893Y-134660714D01*
X100665750Y-134689285D01*
X100637178Y-134717857D01*
X100608607Y-134775000D01*
X100580035Y-134889285D01*
X100551464Y-134946428D01*
X100522893Y-134975000D01*
X100465750Y-135003571D01*
X100408607Y-135003571D01*
X100351464Y-134975000D01*
X100322893Y-134946428D01*
X100294321Y-134889285D01*
X100294321Y-134746428D01*
X100322893Y-134660714D01*
X100124893Y-134546428D02*
X100124893Y-134089285D01*
X100294321Y-134489285D02*
X100294321Y-134146428D01*
X100894321Y-134317857D02*
X100294321Y-134317857D01*
X100124893Y-134089285D02*
X100124893Y-133489285D01*
X100894321Y-133946428D02*
X100294321Y-133946428D01*
X100294321Y-133803571D01*
X100322893Y-133717857D01*
X100380035Y-133660714D01*
X100437178Y-133632142D01*
X100551464Y-133603571D01*
X100637178Y-133603571D01*
X100751464Y-133632142D01*
X100808607Y-133660714D01*
X100865750Y-133717857D01*
X100894321Y-133803571D01*
X100894321Y-133946428D01*
X100124893Y-133489285D02*
X100124893Y-132889285D01*
X100580035Y-133146428D02*
X100608607Y-133060714D01*
X100637178Y-133032142D01*
X100694321Y-133003571D01*
X100780035Y-133003571D01*
X100837178Y-133032142D01*
X100865750Y-133060714D01*
X100894321Y-133117857D01*
X100894321Y-133346428D01*
X100294321Y-133346428D01*
X100294321Y-133146428D01*
X100322893Y-133089285D01*
X100351464Y-133060714D01*
X100408607Y-133032142D01*
X100465750Y-133032142D01*
X100522893Y-133060714D01*
X100551464Y-133089285D01*
X100580035Y-133146428D01*
X100580035Y-133346428D01*
X100124893Y-132889285D02*
X100124893Y-132375000D01*
X100608607Y-132632142D02*
X100894321Y-132632142D01*
X100294321Y-132832142D02*
X100608607Y-132632142D01*
X100294321Y-132432142D01*
X87411428Y-151390714D02*
X87897142Y-151390714D01*
X87954285Y-151362142D01*
X87982857Y-151333571D01*
X88011428Y-151276428D01*
X88011428Y-151162142D01*
X87982857Y-151105000D01*
X87954285Y-151076428D01*
X87897142Y-151047857D01*
X87411428Y-151047857D01*
X97780036Y-133717857D02*
X97751464Y-133775000D01*
X97751464Y-133860714D01*
X97780036Y-133946428D01*
X97837178Y-134003571D01*
X97894321Y-134032142D01*
X98008607Y-134060714D01*
X98094321Y-134060714D01*
X98208607Y-134032142D01*
X98265750Y-134003571D01*
X98322893Y-133946428D01*
X98351464Y-133860714D01*
X98351464Y-133803571D01*
X98322893Y-133717857D01*
X98294321Y-133689285D01*
X98094321Y-133689285D01*
X98094321Y-133803571D01*
X98351464Y-133432142D02*
X97751464Y-133432142D01*
X98351464Y-133089285D01*
X97751464Y-133089285D01*
X98351464Y-132803571D02*
X97751464Y-132803571D01*
X97751464Y-132660714D01*
X97780036Y-132575000D01*
X97837178Y-132517857D01*
X97894321Y-132489285D01*
X98008607Y-132460714D01*
X98094321Y-132460714D01*
X98208607Y-132489285D01*
X98265750Y-132517857D01*
X98322893Y-132575000D01*
X98351464Y-132660714D01*
X98351464Y-132803571D01*
D11*
%TO.C,C4*%
X120833333Y-127127142D02*
X120785714Y-127174761D01*
X120642857Y-127222380D01*
X120547619Y-127222380D01*
X120404761Y-127174761D01*
X120309523Y-127079523D01*
X120261904Y-126984285D01*
X120214285Y-126793809D01*
X120214285Y-126650952D01*
X120261904Y-126460476D01*
X120309523Y-126365238D01*
X120404761Y-126270000D01*
X120547619Y-126222380D01*
X120642857Y-126222380D01*
X120785714Y-126270000D01*
X120833333Y-126317619D01*
X121690476Y-126555714D02*
X121690476Y-127222380D01*
X121452380Y-126174761D02*
X121214285Y-126889047D01*
X121833333Y-126889047D01*
%TO.C,C3*%
X131557142Y-130966666D02*
X131604761Y-131014285D01*
X131652380Y-131157142D01*
X131652380Y-131252380D01*
X131604761Y-131395238D01*
X131509523Y-131490476D01*
X131414285Y-131538095D01*
X131223809Y-131585714D01*
X131080952Y-131585714D01*
X130890476Y-131538095D01*
X130795238Y-131490476D01*
X130700000Y-131395238D01*
X130652380Y-131252380D01*
X130652380Y-131157142D01*
X130700000Y-131014285D01*
X130747619Y-130966666D01*
X130652380Y-130633333D02*
X130652380Y-130014285D01*
X131033333Y-130347619D01*
X131033333Y-130204761D01*
X131080952Y-130109523D01*
X131128571Y-130061904D01*
X131223809Y-130014285D01*
X131461904Y-130014285D01*
X131557142Y-130061904D01*
X131604761Y-130109523D01*
X131652380Y-130204761D01*
X131652380Y-130490476D01*
X131604761Y-130585714D01*
X131557142Y-130633333D01*
%TO.C,C1*%
X92557142Y-121766666D02*
X92604761Y-121814285D01*
X92652380Y-121957142D01*
X92652380Y-122052380D01*
X92604761Y-122195238D01*
X92509523Y-122290476D01*
X92414285Y-122338095D01*
X92223809Y-122385714D01*
X92080952Y-122385714D01*
X91890476Y-122338095D01*
X91795238Y-122290476D01*
X91700000Y-122195238D01*
X91652380Y-122052380D01*
X91652380Y-121957142D01*
X91700000Y-121814285D01*
X91747619Y-121766666D01*
X92652380Y-120814285D02*
X92652380Y-121385714D01*
X92652380Y-121100000D02*
X91652380Y-121100000D01*
X91795238Y-121195238D01*
X91890476Y-121290476D01*
X91938095Y-121385714D01*
%TO.C,RM_1*%
X124437380Y-87919047D02*
X123961190Y-88252380D01*
X124437380Y-88490476D02*
X123437380Y-88490476D01*
X123437380Y-88109523D01*
X123485000Y-88014285D01*
X123532619Y-87966666D01*
X123627857Y-87919047D01*
X123770714Y-87919047D01*
X123865952Y-87966666D01*
X123913571Y-88014285D01*
X123961190Y-88109523D01*
X123961190Y-88490476D01*
X124437380Y-87490476D02*
X123437380Y-87490476D01*
X124151666Y-87157142D01*
X123437380Y-86823809D01*
X124437380Y-86823809D01*
X124532619Y-86585714D02*
X124532619Y-85823809D01*
X124437380Y-85061904D02*
X124437380Y-85633333D01*
X124437380Y-85347619D02*
X123437380Y-85347619D01*
X123580238Y-85442857D01*
X123675476Y-85538095D01*
X123723095Y-85633333D01*
%TO.C,RS_2*%
X124437380Y-82661309D02*
X123961190Y-82994642D01*
X124437380Y-83232738D02*
X123437380Y-83232738D01*
X123437380Y-82851785D01*
X123485000Y-82756547D01*
X123532619Y-82708928D01*
X123627857Y-82661309D01*
X123770714Y-82661309D01*
X123865952Y-82708928D01*
X123913571Y-82756547D01*
X123961190Y-82851785D01*
X123961190Y-83232738D01*
X124389761Y-82280357D02*
X124437380Y-82137500D01*
X124437380Y-81899404D01*
X124389761Y-81804166D01*
X124342142Y-81756547D01*
X124246904Y-81708928D01*
X124151666Y-81708928D01*
X124056428Y-81756547D01*
X124008809Y-81804166D01*
X123961190Y-81899404D01*
X123913571Y-82089880D01*
X123865952Y-82185119D01*
X123818333Y-82232738D01*
X123723095Y-82280357D01*
X123627857Y-82280357D01*
X123532619Y-82232738D01*
X123485000Y-82185119D01*
X123437380Y-82089880D01*
X123437380Y-81851785D01*
X123485000Y-81708928D01*
X124532619Y-81518452D02*
X124532619Y-80756547D01*
X123532619Y-80566071D02*
X123485000Y-80518452D01*
X123437380Y-80423214D01*
X123437380Y-80185119D01*
X123485000Y-80089880D01*
X123532619Y-80042261D01*
X123627857Y-79994642D01*
X123723095Y-79994642D01*
X123865952Y-80042261D01*
X124437380Y-80613690D01*
X124437380Y-79994642D01*
%TO.C,RT_1*%
X121071428Y-123252380D02*
X120738095Y-122776190D01*
X120500000Y-123252380D02*
X120500000Y-122252380D01*
X120880952Y-122252380D01*
X120976190Y-122300000D01*
X121023809Y-122347619D01*
X121071428Y-122442857D01*
X121071428Y-122585714D01*
X121023809Y-122680952D01*
X120976190Y-122728571D01*
X120880952Y-122776190D01*
X120500000Y-122776190D01*
X121357142Y-122252380D02*
X121928571Y-122252380D01*
X121642857Y-123252380D02*
X121642857Y-122252380D01*
X122023809Y-123347619D02*
X122785714Y-123347619D01*
X123547619Y-123252380D02*
X122976190Y-123252380D01*
X123261904Y-123252380D02*
X123261904Y-122252380D01*
X123166666Y-122395238D01*
X123071428Y-122490476D01*
X122976190Y-122538095D01*
%TO.C,QMK1*%
X145033333Y-101547619D02*
X144938095Y-101500000D01*
X144842857Y-101404761D01*
X144700000Y-101261904D01*
X144604761Y-101214285D01*
X144509523Y-101214285D01*
X144557142Y-101452380D02*
X144461904Y-101404761D01*
X144366666Y-101309523D01*
X144319047Y-101119047D01*
X144319047Y-100785714D01*
X144366666Y-100595238D01*
X144461904Y-100500000D01*
X144557142Y-100452380D01*
X144747619Y-100452380D01*
X144842857Y-100500000D01*
X144938095Y-100595238D01*
X144985714Y-100785714D01*
X144985714Y-101119047D01*
X144938095Y-101309523D01*
X144842857Y-101404761D01*
X144747619Y-101452380D01*
X144557142Y-101452380D01*
X145414285Y-101452380D02*
X145414285Y-100452380D01*
X145747619Y-101166666D01*
X146080952Y-100452380D01*
X146080952Y-101452380D01*
X146557142Y-101452380D02*
X146557142Y-100452380D01*
X147128571Y-101452380D02*
X146700000Y-100880952D01*
X147128571Y-100452380D02*
X146557142Y-101023809D01*
X148080952Y-101452380D02*
X147509523Y-101452380D01*
X147795238Y-101452380D02*
X147795238Y-100452380D01*
X147700000Y-100595238D01*
X147604761Y-100690476D01*
X147509523Y-100738095D01*
%TO.C,RM_2*%
X124437380Y-91919047D02*
X123961190Y-92252380D01*
X124437380Y-92490476D02*
X123437380Y-92490476D01*
X123437380Y-92109523D01*
X123485000Y-92014285D01*
X123532619Y-91966666D01*
X123627857Y-91919047D01*
X123770714Y-91919047D01*
X123865952Y-91966666D01*
X123913571Y-92014285D01*
X123961190Y-92109523D01*
X123961190Y-92490476D01*
X124437380Y-91490476D02*
X123437380Y-91490476D01*
X124151666Y-91157142D01*
X123437380Y-90823809D01*
X124437380Y-90823809D01*
X124532619Y-90585714D02*
X124532619Y-89823809D01*
X123532619Y-89633333D02*
X123485000Y-89585714D01*
X123437380Y-89490476D01*
X123437380Y-89252380D01*
X123485000Y-89157142D01*
X123532619Y-89109523D01*
X123627857Y-89061904D01*
X123723095Y-89061904D01*
X123865952Y-89109523D01*
X124437380Y-89680952D01*
X124437380Y-89061904D01*
%TO.C,ESP32*%
X95647142Y-83128571D02*
X95980476Y-83128571D01*
X96123333Y-83652380D02*
X95647142Y-83652380D01*
X95647142Y-82652380D01*
X96123333Y-82652380D01*
X96504285Y-83604761D02*
X96647142Y-83652380D01*
X96885238Y-83652380D01*
X96980476Y-83604761D01*
X97028095Y-83557142D01*
X97075714Y-83461904D01*
X97075714Y-83366666D01*
X97028095Y-83271428D01*
X96980476Y-83223809D01*
X96885238Y-83176190D01*
X96694761Y-83128571D01*
X96599523Y-83080952D01*
X96551904Y-83033333D01*
X96504285Y-82938095D01*
X96504285Y-82842857D01*
X96551904Y-82747619D01*
X96599523Y-82700000D01*
X96694761Y-82652380D01*
X96932857Y-82652380D01*
X97075714Y-82700000D01*
X97504285Y-83652380D02*
X97504285Y-82652380D01*
X97885238Y-82652380D01*
X97980476Y-82700000D01*
X98028095Y-82747619D01*
X98075714Y-82842857D01*
X98075714Y-82985714D01*
X98028095Y-83080952D01*
X97980476Y-83128571D01*
X97885238Y-83176190D01*
X97504285Y-83176190D01*
X98409047Y-82652380D02*
X99028095Y-82652380D01*
X98694761Y-83033333D01*
X98837619Y-83033333D01*
X98932857Y-83080952D01*
X98980476Y-83128571D01*
X99028095Y-83223809D01*
X99028095Y-83461904D01*
X98980476Y-83557142D01*
X98932857Y-83604761D01*
X98837619Y-83652380D01*
X98551904Y-83652380D01*
X98456666Y-83604761D01*
X98409047Y-83557142D01*
X99409047Y-82747619D02*
X99456666Y-82700000D01*
X99551904Y-82652380D01*
X99790000Y-82652380D01*
X99885238Y-82700000D01*
X99932857Y-82747619D01*
X99980476Y-82842857D01*
X99980476Y-82938095D01*
X99932857Y-83080952D01*
X99361428Y-83652380D01*
X99980476Y-83652380D01*
X106426095Y-75586000D02*
X106330857Y-75538380D01*
X106188000Y-75538380D01*
X106045142Y-75586000D01*
X105949904Y-75681238D01*
X105902285Y-75776476D01*
X105854666Y-75966952D01*
X105854666Y-76109809D01*
X105902285Y-76300285D01*
X105949904Y-76395523D01*
X106045142Y-76490761D01*
X106188000Y-76538380D01*
X106283238Y-76538380D01*
X106426095Y-76490761D01*
X106473714Y-76443142D01*
X106473714Y-76109809D01*
X106283238Y-76109809D01*
X106902285Y-76538380D02*
X106902285Y-75538380D01*
X107473714Y-76538380D01*
X107473714Y-75538380D01*
X107949904Y-76538380D02*
X107949904Y-75538380D01*
X108188000Y-75538380D01*
X108330857Y-75586000D01*
X108426095Y-75681238D01*
X108473714Y-75776476D01*
X108521333Y-75966952D01*
X108521333Y-76109809D01*
X108473714Y-76300285D01*
X108426095Y-76395523D01*
X108330857Y-76490761D01*
X108188000Y-76538380D01*
X107949904Y-76538380D01*
X104597523Y-91314571D02*
X104740380Y-91362190D01*
X104788000Y-91409809D01*
X104835619Y-91505047D01*
X104835619Y-91647904D01*
X104788000Y-91743142D01*
X104740380Y-91790761D01*
X104645142Y-91838380D01*
X104264190Y-91838380D01*
X104264190Y-90838380D01*
X104597523Y-90838380D01*
X104692761Y-90886000D01*
X104740380Y-90933619D01*
X104788000Y-91028857D01*
X104788000Y-91124095D01*
X104740380Y-91219333D01*
X104692761Y-91266952D01*
X104597523Y-91314571D01*
X104264190Y-91314571D01*
X105026095Y-91933619D02*
X105788000Y-91933619D01*
X106026095Y-91838380D02*
X106026095Y-90838380D01*
X106597523Y-91838380D01*
X106597523Y-90838380D01*
X106978476Y-90838380D02*
X107645142Y-91838380D01*
X107645142Y-90838380D02*
X106978476Y-91838380D01*
X107883238Y-90838380D02*
X108454666Y-90838380D01*
X108168952Y-91838380D02*
X108168952Y-90838380D01*
X87182476Y-78178380D02*
X87182476Y-78987904D01*
X87230095Y-79083142D01*
X87277714Y-79130761D01*
X87372952Y-79178380D01*
X87563428Y-79178380D01*
X87658666Y-79130761D01*
X87706285Y-79083142D01*
X87753904Y-78987904D01*
X87753904Y-78178380D01*
X88230095Y-79178380D02*
X88230095Y-78178380D01*
X88230095Y-78654571D02*
X88801523Y-78654571D01*
X88801523Y-79178380D02*
X88801523Y-78178380D01*
X105364190Y-89090761D02*
X105507047Y-89138380D01*
X105745142Y-89138380D01*
X105840380Y-89090761D01*
X105888000Y-89043142D01*
X105935619Y-88947904D01*
X105935619Y-88852666D01*
X105888000Y-88757428D01*
X105840380Y-88709809D01*
X105745142Y-88662190D01*
X105554666Y-88614571D01*
X105459428Y-88566952D01*
X105411809Y-88519333D01*
X105364190Y-88424095D01*
X105364190Y-88328857D01*
X105411809Y-88233619D01*
X105459428Y-88186000D01*
X105554666Y-88138380D01*
X105792761Y-88138380D01*
X105935619Y-88186000D01*
X106126095Y-89233619D02*
X106888000Y-89233619D01*
X106983238Y-88138380D02*
X107554666Y-88138380D01*
X107268952Y-89138380D02*
X107268952Y-88138380D01*
X107792761Y-88138380D02*
X108459428Y-89138380D01*
X108459428Y-88138380D02*
X107792761Y-89138380D01*
X105997523Y-81590761D02*
X106140380Y-81638380D01*
X106378476Y-81638380D01*
X106473714Y-81590761D01*
X106521333Y-81543142D01*
X106568952Y-81447904D01*
X106568952Y-81352666D01*
X106521333Y-81257428D01*
X106473714Y-81209809D01*
X106378476Y-81162190D01*
X106188000Y-81114571D01*
X106092761Y-81066952D01*
X106045142Y-81019333D01*
X105997523Y-80924095D01*
X105997523Y-80828857D01*
X106045142Y-80733619D01*
X106092761Y-80686000D01*
X106188000Y-80638380D01*
X106426095Y-80638380D01*
X106568952Y-80686000D01*
X107568952Y-81543142D02*
X107521333Y-81590761D01*
X107378476Y-81638380D01*
X107283238Y-81638380D01*
X107140380Y-81590761D01*
X107045142Y-81495523D01*
X106997523Y-81400285D01*
X106949904Y-81209809D01*
X106949904Y-81066952D01*
X106997523Y-80876476D01*
X107045142Y-80781238D01*
X107140380Y-80686000D01*
X107283238Y-80638380D01*
X107378476Y-80638380D01*
X107521333Y-80686000D01*
X107568952Y-80733619D01*
X108473714Y-81638380D02*
X107997523Y-81638380D01*
X107997523Y-80638380D01*
X87258666Y-90778380D02*
X87496761Y-91778380D01*
X87687238Y-91064095D01*
X87877714Y-91778380D01*
X88115809Y-90778380D01*
X88972952Y-91778380D02*
X88496761Y-91778380D01*
X88496761Y-90778380D01*
X105973714Y-79090761D02*
X106116571Y-79138380D01*
X106354666Y-79138380D01*
X106449904Y-79090761D01*
X106497523Y-79043142D01*
X106545142Y-78947904D01*
X106545142Y-78852666D01*
X106497523Y-78757428D01*
X106449904Y-78709809D01*
X106354666Y-78662190D01*
X106164190Y-78614571D01*
X106068952Y-78566952D01*
X106021333Y-78519333D01*
X105973714Y-78424095D01*
X105973714Y-78328857D01*
X106021333Y-78233619D01*
X106068952Y-78186000D01*
X106164190Y-78138380D01*
X106402285Y-78138380D01*
X106545142Y-78186000D01*
X106973714Y-79138380D02*
X106973714Y-78138380D01*
X107211809Y-78138380D01*
X107354666Y-78186000D01*
X107449904Y-78281238D01*
X107497523Y-78376476D01*
X107545142Y-78566952D01*
X107545142Y-78709809D01*
X107497523Y-78900285D01*
X107449904Y-78995523D01*
X107354666Y-79090761D01*
X107211809Y-79138380D01*
X106973714Y-79138380D01*
X107926095Y-78852666D02*
X108402285Y-78852666D01*
X107830857Y-79138380D02*
X108164190Y-78138380D01*
X108497523Y-79138380D01*
X87134857Y-83178380D02*
X87468190Y-84178380D01*
X87801523Y-83178380D01*
X88134857Y-84178380D02*
X88134857Y-83178380D01*
X88134857Y-83654571D02*
X88706285Y-83654571D01*
X88706285Y-84178380D02*
X88706285Y-83178380D01*
X87201523Y-80678380D02*
X87201523Y-81487904D01*
X87249142Y-81583142D01*
X87296761Y-81630761D01*
X87392000Y-81678380D01*
X87582476Y-81678380D01*
X87677714Y-81630761D01*
X87725333Y-81583142D01*
X87772952Y-81487904D01*
X87772952Y-80678380D01*
X88725333Y-81678380D02*
X88249142Y-81678380D01*
X88249142Y-80678380D01*
X87153904Y-75578380D02*
X87772952Y-75578380D01*
X87439619Y-75959333D01*
X87582476Y-75959333D01*
X87677714Y-76006952D01*
X87725333Y-76054571D01*
X87772952Y-76149809D01*
X87772952Y-76387904D01*
X87725333Y-76483142D01*
X87677714Y-76530761D01*
X87582476Y-76578380D01*
X87296761Y-76578380D01*
X87201523Y-76530761D01*
X87153904Y-76483142D01*
X88058666Y-75578380D02*
X88392000Y-76578380D01*
X88725333Y-75578380D01*
X88963428Y-75578380D02*
X89582476Y-75578380D01*
X89249142Y-75959333D01*
X89392000Y-75959333D01*
X89487238Y-76006952D01*
X89534857Y-76054571D01*
X89582476Y-76149809D01*
X89582476Y-76387904D01*
X89534857Y-76483142D01*
X89487238Y-76530761D01*
X89392000Y-76578380D01*
X89106285Y-76578380D01*
X89011047Y-76530761D01*
X88963428Y-76483142D01*
X87153904Y-85678380D02*
X87487238Y-86678380D01*
X87820571Y-85678380D01*
X88630095Y-86678380D02*
X88153904Y-86678380D01*
X88153904Y-85678380D01*
X105145142Y-86690761D02*
X105288000Y-86738380D01*
X105526095Y-86738380D01*
X105621333Y-86690761D01*
X105668952Y-86643142D01*
X105716571Y-86547904D01*
X105716571Y-86452666D01*
X105668952Y-86357428D01*
X105621333Y-86309809D01*
X105526095Y-86262190D01*
X105335619Y-86214571D01*
X105240380Y-86166952D01*
X105192761Y-86119333D01*
X105145142Y-86024095D01*
X105145142Y-85928857D01*
X105192761Y-85833619D01*
X105240380Y-85786000D01*
X105335619Y-85738380D01*
X105573714Y-85738380D01*
X105716571Y-85786000D01*
X105907047Y-86833619D02*
X106668952Y-86833619D01*
X107478476Y-86738380D02*
X107145142Y-86262190D01*
X106907047Y-86738380D02*
X106907047Y-85738380D01*
X107288000Y-85738380D01*
X107383238Y-85786000D01*
X107430857Y-85833619D01*
X107478476Y-85928857D01*
X107478476Y-86071714D01*
X107430857Y-86166952D01*
X107383238Y-86214571D01*
X107288000Y-86262190D01*
X106907047Y-86262190D01*
X107811809Y-85738380D02*
X108478476Y-86738380D01*
X108478476Y-85738380D02*
X107811809Y-86738380D01*
X106497523Y-84143142D02*
X106449904Y-84190761D01*
X106307047Y-84238380D01*
X106211809Y-84238380D01*
X106068952Y-84190761D01*
X105973714Y-84095523D01*
X105926095Y-84000285D01*
X105878476Y-83809809D01*
X105878476Y-83666952D01*
X105926095Y-83476476D01*
X105973714Y-83381238D01*
X106068952Y-83286000D01*
X106211809Y-83238380D01*
X106307047Y-83238380D01*
X106449904Y-83286000D01*
X106497523Y-83333619D01*
X106878476Y-84190761D02*
X107021333Y-84238380D01*
X107259428Y-84238380D01*
X107354666Y-84190761D01*
X107402285Y-84143142D01*
X107449904Y-84047904D01*
X107449904Y-83952666D01*
X107402285Y-83857428D01*
X107354666Y-83809809D01*
X107259428Y-83762190D01*
X107068952Y-83714571D01*
X106973714Y-83666952D01*
X106926095Y-83619333D01*
X106878476Y-83524095D01*
X106878476Y-83428857D01*
X106926095Y-83333619D01*
X106973714Y-83286000D01*
X107068952Y-83238380D01*
X107307047Y-83238380D01*
X107449904Y-83286000D01*
X107878476Y-84238380D02*
X107878476Y-83238380D01*
X108449904Y-84238380D01*
X108449904Y-83238380D01*
X87139619Y-88278380D02*
X87377714Y-89278380D01*
X87568190Y-88564095D01*
X87758666Y-89278380D01*
X87996761Y-88278380D01*
X88377714Y-89278380D02*
X88377714Y-88278380D01*
X88377714Y-88754571D02*
X88949142Y-88754571D01*
X88949142Y-89278380D02*
X88949142Y-88278380D01*
%TO.C,RS_1*%
X124437380Y-78851309D02*
X123961190Y-79184642D01*
X124437380Y-79422738D02*
X123437380Y-79422738D01*
X123437380Y-79041785D01*
X123485000Y-78946547D01*
X123532619Y-78898928D01*
X123627857Y-78851309D01*
X123770714Y-78851309D01*
X123865952Y-78898928D01*
X123913571Y-78946547D01*
X123961190Y-79041785D01*
X123961190Y-79422738D01*
X124389761Y-78470357D02*
X124437380Y-78327500D01*
X124437380Y-78089404D01*
X124389761Y-77994166D01*
X124342142Y-77946547D01*
X124246904Y-77898928D01*
X124151666Y-77898928D01*
X124056428Y-77946547D01*
X124008809Y-77994166D01*
X123961190Y-78089404D01*
X123913571Y-78279880D01*
X123865952Y-78375119D01*
X123818333Y-78422738D01*
X123723095Y-78470357D01*
X123627857Y-78470357D01*
X123532619Y-78422738D01*
X123485000Y-78375119D01*
X123437380Y-78279880D01*
X123437380Y-78041785D01*
X123485000Y-77898928D01*
X124532619Y-77708452D02*
X124532619Y-76946547D01*
X124437380Y-76184642D02*
X124437380Y-76756071D01*
X124437380Y-76470357D02*
X123437380Y-76470357D01*
X123580238Y-76565595D01*
X123675476Y-76660833D01*
X123723095Y-76756071D01*
%TO.C,AMS1*%
X96053095Y-112506666D02*
X96529285Y-112506666D01*
X95957857Y-112792380D02*
X96291190Y-111792380D01*
X96624523Y-112792380D01*
X96957857Y-112792380D02*
X96957857Y-111792380D01*
X97291190Y-112506666D01*
X97624523Y-111792380D01*
X97624523Y-112792380D01*
X98053095Y-112744761D02*
X98195952Y-112792380D01*
X98434047Y-112792380D01*
X98529285Y-112744761D01*
X98576904Y-112697142D01*
X98624523Y-112601904D01*
X98624523Y-112506666D01*
X98576904Y-112411428D01*
X98529285Y-112363809D01*
X98434047Y-112316190D01*
X98243571Y-112268571D01*
X98148333Y-112220952D01*
X98100714Y-112173333D01*
X98053095Y-112078095D01*
X98053095Y-111982857D01*
X98100714Y-111887619D01*
X98148333Y-111840000D01*
X98243571Y-111792380D01*
X98481666Y-111792380D01*
X98624523Y-111840000D01*
X99576904Y-112792380D02*
X99005476Y-112792380D01*
X99291190Y-112792380D02*
X99291190Y-111792380D01*
X99195952Y-111935238D01*
X99100714Y-112030476D01*
X99005476Y-112078095D01*
%TO.C,MT6701*%
X131252380Y-126219047D02*
X130252380Y-126219047D01*
X130966666Y-125885714D01*
X130252380Y-125552380D01*
X131252380Y-125552380D01*
X130252380Y-125219047D02*
X130252380Y-124647619D01*
X131252380Y-124933333D02*
X130252380Y-124933333D01*
X130252380Y-123885714D02*
X130252380Y-124076190D01*
X130300000Y-124171428D01*
X130347619Y-124219047D01*
X130490476Y-124314285D01*
X130680952Y-124361904D01*
X131061904Y-124361904D01*
X131157142Y-124314285D01*
X131204761Y-124266666D01*
X131252380Y-124171428D01*
X131252380Y-123980952D01*
X131204761Y-123885714D01*
X131157142Y-123838095D01*
X131061904Y-123790476D01*
X130823809Y-123790476D01*
X130728571Y-123838095D01*
X130680952Y-123885714D01*
X130633333Y-123980952D01*
X130633333Y-124171428D01*
X130680952Y-124266666D01*
X130728571Y-124314285D01*
X130823809Y-124361904D01*
X130252380Y-123457142D02*
X130252380Y-122790476D01*
X131252380Y-123219047D01*
X130252380Y-122219047D02*
X130252380Y-122123809D01*
X130300000Y-122028571D01*
X130347619Y-121980952D01*
X130442857Y-121933333D01*
X130633333Y-121885714D01*
X130871428Y-121885714D01*
X131061904Y-121933333D01*
X131157142Y-121980952D01*
X131204761Y-122028571D01*
X131252380Y-122123809D01*
X131252380Y-122219047D01*
X131204761Y-122314285D01*
X131157142Y-122361904D01*
X131061904Y-122409523D01*
X130871428Y-122457142D01*
X130633333Y-122457142D01*
X130442857Y-122409523D01*
X130347619Y-122361904D01*
X130300000Y-122314285D01*
X130252380Y-122219047D01*
X131252380Y-120933333D02*
X131252380Y-121504761D01*
X131252380Y-121219047D02*
X130252380Y-121219047D01*
X130395238Y-121314285D01*
X130490476Y-121409523D01*
X130538095Y-121504761D01*
%TO.C,Mnt0*%
X125452380Y-126952380D02*
X125452380Y-125952380D01*
X125785714Y-126666666D01*
X126119047Y-125952380D01*
X126119047Y-126952380D01*
X126595238Y-126285714D02*
X126595238Y-126952380D01*
X126595238Y-126380952D02*
X126642857Y-126333333D01*
X126738095Y-126285714D01*
X126880952Y-126285714D01*
X126976190Y-126333333D01*
X127023809Y-126428571D01*
X127023809Y-126952380D01*
X127357142Y-126285714D02*
X127738095Y-126285714D01*
X127500000Y-125952380D02*
X127500000Y-126809523D01*
X127547619Y-126904761D01*
X127642857Y-126952380D01*
X127738095Y-126952380D01*
X128261904Y-125952380D02*
X128357142Y-125952380D01*
X128452380Y-126000000D01*
X128500000Y-126047619D01*
X128547619Y-126142857D01*
X128595238Y-126333333D01*
X128595238Y-126571428D01*
X128547619Y-126761904D01*
X128500000Y-126857142D01*
X128452380Y-126904761D01*
X128357142Y-126952380D01*
X128261904Y-126952380D01*
X128166666Y-126904761D01*
X128119047Y-126857142D01*
X128071428Y-126761904D01*
X128023809Y-126571428D01*
X128023809Y-126333333D01*
X128071428Y-126142857D01*
X128119047Y-126047619D01*
X128166666Y-126000000D01*
X128261904Y-125952380D01*
%TO.C,C2*%
X92357142Y-112566666D02*
X92404761Y-112614285D01*
X92452380Y-112757142D01*
X92452380Y-112852380D01*
X92404761Y-112995238D01*
X92309523Y-113090476D01*
X92214285Y-113138095D01*
X92023809Y-113185714D01*
X91880952Y-113185714D01*
X91690476Y-113138095D01*
X91595238Y-113090476D01*
X91500000Y-112995238D01*
X91452380Y-112852380D01*
X91452380Y-112757142D01*
X91500000Y-112614285D01*
X91547619Y-112566666D01*
X91547619Y-112185714D02*
X91500000Y-112138095D01*
X91452380Y-112042857D01*
X91452380Y-111804761D01*
X91500000Y-111709523D01*
X91547619Y-111661904D01*
X91642857Y-111614285D01*
X91738095Y-111614285D01*
X91880952Y-111661904D01*
X92452380Y-112233333D01*
X92452380Y-111614285D01*
%TO.C,D1*%
X119686904Y-130252380D02*
X119686904Y-129252380D01*
X119925000Y-129252380D01*
X120067857Y-129300000D01*
X120163095Y-129395238D01*
X120210714Y-129490476D01*
X120258333Y-129680952D01*
X120258333Y-129823809D01*
X120210714Y-130014285D01*
X120163095Y-130109523D01*
X120067857Y-130204761D01*
X119925000Y-130252380D01*
X119686904Y-130252380D01*
X121210714Y-130252380D02*
X120639285Y-130252380D01*
X120925000Y-130252380D02*
X120925000Y-129252380D01*
X120829761Y-129395238D01*
X120734523Y-129490476D01*
X120639285Y-129538095D01*
D13*
%TO.C,TMC1*%
X100838000Y-154686000D02*
X82550000Y-154686000D01*
X101854000Y-130302000D02*
X101854000Y-153670000D01*
X82550000Y-129286000D02*
X100838000Y-129286000D01*
X81534000Y-153670000D02*
X81534000Y-130302000D01*
X81534000Y-153670000D02*
G75*
G03*
X82550000Y-154686000I1016002J2D01*
G01*
X101854000Y-130302000D02*
G75*
G03*
X100838000Y-129286000I-1016002J-2D01*
G01*
X100838000Y-154686000D02*
G75*
G03*
X101854000Y-153670000I-2J1016002D01*
G01*
X82550000Y-129286000D02*
G75*
G03*
X81534000Y-130302000I2J-1016002D01*
G01*
%TO.C,C4*%
X122453733Y-127690000D02*
X122746267Y-127690000D01*
X122453733Y-128710000D02*
X122746267Y-128710000D01*
%TO.C,J2*%
X115990000Y-96270000D02*
X115990000Y-98930000D01*
X121130000Y-96270000D02*
X115990000Y-96270000D01*
X122400000Y-96270000D02*
X123730000Y-96270000D01*
X121130000Y-98930000D02*
X115990000Y-98930000D01*
X123730000Y-96270000D02*
X123730000Y-97600000D01*
X121130000Y-96270000D02*
X121130000Y-98930000D01*
%TO.C,J3*%
X132130000Y-83390000D02*
X129470000Y-83390000D01*
X132130000Y-88530000D02*
X132130000Y-83390000D01*
X132130000Y-89800000D02*
X132130000Y-91130000D01*
X129470000Y-88530000D02*
X129470000Y-83390000D01*
X132130000Y-91130000D02*
X130800000Y-91130000D01*
X132130000Y-88530000D02*
X129470000Y-88530000D01*
%TO.C,C3*%
X131510000Y-128283767D02*
X131510000Y-127991233D01*
X130490000Y-128283767D02*
X130490000Y-127991233D01*
%TO.C,C1*%
X92585000Y-119118767D02*
X92585000Y-118826233D01*
X91565000Y-119118767D02*
X91565000Y-118826233D01*
%TO.C,RM_1*%
X123077500Y-86740276D02*
X123077500Y-87249724D01*
X122032500Y-86740276D02*
X122032500Y-87249724D01*
%TO.C,RS_2*%
X122032500Y-81382776D02*
X122032500Y-81892224D01*
X123077500Y-81382776D02*
X123077500Y-81892224D01*
%TO.C,RT_1*%
X122477500Y-125367224D02*
X122477500Y-124857776D01*
X123522500Y-125367224D02*
X123522500Y-124857776D01*
%TO.C,QMK1*%
X137033000Y-102235000D02*
X152400000Y-102235000D01*
X152400000Y-99695000D02*
X152400000Y-102235000D01*
X142113000Y-69215000D02*
X137033000Y-69215000D01*
X139700000Y-74295000D02*
X137030000Y-74295000D01*
X137033000Y-69215000D02*
X137030000Y-102235000D01*
X149987000Y-66675000D02*
X149987000Y-69215000D01*
X155067000Y-102235000D02*
X155067000Y-69215000D01*
X142113000Y-66675000D02*
X142113000Y-69215000D01*
X139700000Y-71755000D02*
X137030000Y-71755000D01*
X149987000Y-66675000D02*
X142113000Y-66675000D01*
X155067000Y-69215000D02*
X149987000Y-69215000D01*
X152400000Y-99695000D02*
X152400000Y-71755000D01*
X152400000Y-71755000D02*
X155070000Y-71755000D01*
X152400000Y-102235000D02*
X155067000Y-102235000D01*
X139700000Y-102235000D02*
X139700000Y-71755000D01*
X139700000Y-102235000D02*
X137030000Y-102235000D01*
%TO.C,RM_2*%
X122032500Y-90272776D02*
X122032500Y-90782224D01*
X123077500Y-90272776D02*
X123077500Y-90782224D01*
D12*
%TO.C,ESP32*%
X113030000Y-103790500D02*
X113030000Y-69246500D01*
X85090000Y-106330500D02*
X110490000Y-106330500D01*
X82550000Y-69246500D02*
X82550000Y-103790500D01*
X110490000Y-66706500D02*
X85090000Y-66706500D01*
X82550000Y-103790500D02*
G75*
G03*
X85090000Y-106330500I2540001J1D01*
G01*
X113030000Y-69246500D02*
G75*
G03*
X110490000Y-66706500I-2540001J-1D01*
G01*
X85090000Y-66706500D02*
G75*
G03*
X82550000Y-69246500I1J-2540001D01*
G01*
X110490000Y-106330500D02*
G75*
G03*
X113030000Y-103790500I-1J2540001D01*
G01*
D13*
%TO.C,RS_1*%
X122032500Y-77572776D02*
X122032500Y-78082224D01*
X123077500Y-77572776D02*
X123077500Y-78082224D01*
%TO.C,AMS1*%
X95965000Y-120250000D02*
X99725000Y-120250000D01*
X93715000Y-113430000D02*
X99725000Y-113430000D01*
X99725000Y-113430000D02*
X99725000Y-114690000D01*
X99725000Y-120250000D02*
X99725000Y-118990000D01*
%TO.C,MT6701*%
X125095000Y-131200000D02*
X124295000Y-130400000D01*
X124295000Y-122800000D02*
X129705000Y-122800000D01*
X129705000Y-122800000D02*
X129705000Y-131200000D01*
X124295000Y-130400000D02*
X124295000Y-122800000D01*
X129705000Y-131200000D02*
X125095000Y-131200000D01*
%TO.C,C2*%
X92585000Y-115308767D02*
X92585000Y-115016233D01*
X91565000Y-115308767D02*
X91565000Y-115016233D01*
%TO.C,D1*%
X123600000Y-129200000D02*
X121750000Y-129200000D01*
X121750000Y-129200000D02*
X121750000Y-130400000D01*
X123600000Y-130400000D02*
X121750000Y-130400000D01*
%TO.C,J1*%
X109740000Y-154100000D02*
X106240000Y-154100000D01*
X102940000Y-154850000D02*
X104740000Y-154850000D01*
X106240000Y-154100000D02*
X106240000Y-154850000D01*
X111240000Y-154850000D02*
X113040000Y-154850000D01*
X102940000Y-154100000D02*
X102940000Y-154850000D01*
X102940000Y-152600000D02*
X103690000Y-152600000D01*
X109740000Y-154850000D02*
X109740000Y-154100000D01*
X104740000Y-154850000D02*
X104740000Y-154100000D01*
X113040000Y-154850000D02*
X113040000Y-154100000D01*
X104740000Y-154100000D02*
X102940000Y-154100000D01*
X102930000Y-154860000D02*
X113050000Y-154860000D01*
X111240000Y-154100000D02*
X111240000Y-154850000D01*
X103690000Y-149650000D02*
X107990000Y-149650000D01*
X112290000Y-152600000D02*
X112290000Y-151260000D01*
X113040000Y-152600000D02*
X112290000Y-152600000D01*
X113040000Y-154100000D02*
X111240000Y-154100000D01*
X113340000Y-155150000D02*
X113340000Y-153900000D01*
X107990000Y-149650000D02*
X111230000Y-149650000D01*
X113050000Y-154860000D02*
X113050000Y-148890000D01*
X112090000Y-155150000D02*
X113340000Y-155150000D01*
X102930000Y-148890000D02*
X102930000Y-154860000D01*
X106240000Y-154850000D02*
X109740000Y-154850000D01*
X103690000Y-152600000D02*
X103690000Y-149650000D01*
X113050000Y-148890000D02*
X102930000Y-148890000D01*
%TD*%
M02*
