%TF.GenerationSoftware,KiCad,Pcbnew,(6.0.1)*%
%TF.CreationDate,2023-03-02T15:38:04+08:00*%
%TF.ProjectId,Scroller Motor 1,5363726f-6c6c-4657-9220-4d6f746f7220,rev?*%
%TF.SameCoordinates,Original*%
%TF.FileFunction,Profile,NP*%
%FSLAX46Y46*%
G04 Gerber Fmt 4.6, Leading zero omitted, Abs format (unit mm)*
G04 Created by KiCad (PCBNEW (6.0.1)) date 2023-03-02 15:38:04*
%MOMM*%
%LPD*%
G01*
G04 APERTURE LIST*
%TA.AperFunction,Profile*%
%ADD10C,0.100000*%
%TD*%
%TA.AperFunction,Profile*%
%ADD11C,0.200000*%
%TD*%
%TA.AperFunction,Profile*%
%ADD12C,0.120000*%
%TD*%
G04 APERTURE END LIST*
D10*
X74200000Y-155200000D02*
X74200000Y-70000000D01*
X159400000Y-158600000D02*
X77600000Y-158600000D01*
X162800000Y-70000000D02*
X162800000Y-155200000D01*
X77600000Y-66600000D02*
X159400000Y-66600000D01*
X77600000Y-66600000D02*
G75*
G03*
X74200000Y-70000000I0J-3400000D01*
G01*
X74200000Y-155200000D02*
G75*
G03*
X77600000Y-158600000I3400000J0D01*
G01*
X159400000Y-158600000D02*
G75*
G03*
X162800000Y-155200000I0J3400000D01*
G01*
D11*
X162799999Y-70000000D02*
G75*
G03*
X159400000Y-66600000I-3399999J1D01*
G01*
D12*
%TO.C,Mnt0*%
X128600000Y-119000000D02*
X128600000Y-112000000D01*
X128600000Y-142000000D02*
X128600000Y-135000000D01*
X125400000Y-135000000D02*
X125400000Y-142000000D01*
X136500000Y-125400000D02*
X142000000Y-125400000D01*
X117500000Y-128600000D02*
X112000000Y-128600000D01*
X112000000Y-125400000D02*
X117500000Y-125400000D01*
X125400000Y-112000000D02*
X125400000Y-119000000D01*
X142000000Y-128600000D02*
X136500000Y-128600000D01*
X142000000Y-128600000D02*
G75*
G03*
X142000000Y-125400000I0J1600000D01*
G01*
X128600000Y-112000000D02*
G75*
G03*
X125400000Y-112000000I-1600000J0D01*
G01*
X136500000Y-125400000D02*
G75*
G03*
X136500000Y-128600000I0J-1600000D01*
G01*
X125400000Y-119000000D02*
G75*
G03*
X128600000Y-119000000I1600000J0D01*
G01*
X112000000Y-125400000D02*
G75*
G03*
X112000000Y-128600000I0J-1600000D01*
G01*
X128600000Y-135000000D02*
G75*
G03*
X125400000Y-135000000I-1600000J0D01*
G01*
X117500000Y-128600000D02*
G75*
G03*
X117500000Y-125400000I0J1600000D01*
G01*
X125400000Y-142000000D02*
G75*
G03*
X128600000Y-142000000I1600000J0D01*
G01*
%TD*%
M02*
