M48
; DRILL file {KiCad (6.0.1)} date Thu Mar  2 15:38:06 2023
; FORMAT={-:-/ absolute / inch / decimal}
; #@! TF.CreationDate,2023-03-02T15:38:06+08:00
; #@! TF.GenerationSoftware,Kicad,Pcbnew,(6.0.1)
; #@! TF.FileFunction,Plated,1,2,PTH
FMAT,2
INCH
; #@! TA.AperFunction,Plated,PTH,ViaDrill
T1C0.0197
; #@! TA.AperFunction,Plated,PTH,ComponentDrill
T2C0.0315
; #@! TA.AperFunction,Plated,PTH,ComponentDrill
T3C0.0374
; #@! TA.AperFunction,Plated,PTH,ComponentDrill
T4C0.0394
%
G90
G05
T1
X3.525Y-4.5
X3.525Y-4.65
X4.125Y-5.1
X4.125Y-5.25
X4.6535Y-3.5197
X4.6614Y-3.4173
X4.675Y-3.175
X4.7244Y-3.5984
X4.725Y-3.275
X4.85Y-5.325
T2
X5.45Y-2.875
X5.45Y-2.975
X5.45Y-3.075
X5.45Y-3.175
X5.45Y-3.275
X5.45Y-3.375
X5.45Y-3.475
X5.45Y-3.575
X5.45Y-3.675
X5.45Y-3.775
X5.45Y-3.875
X5.45Y-3.975
X6.05Y-2.875
X6.05Y-2.975
X6.05Y-3.075
X6.05Y-3.175
X6.05Y-3.275
X6.05Y-3.375
X6.05Y-3.475
X6.05Y-3.575
X6.05Y-3.675
X6.05Y-3.775
X6.05Y-3.875
X6.05Y-3.975
T3
X4.1531Y-6.0
X4.2516Y-6.0
X4.35Y-6.0
T4
X3.2615Y-5.1396
X3.2615Y-6.0373
X3.3532Y-2.9963
X3.3532Y-3.0963
X3.3532Y-3.1963
X3.3532Y-3.2963
X3.3532Y-3.3963
X3.3532Y-3.4963
X3.3532Y-3.5963
X3.3615Y-5.1396
X3.3615Y-6.0373
X3.4615Y-5.1396
X3.4615Y-6.0373
X3.5615Y-5.1396
X3.5615Y-6.0373
X3.6615Y-5.1396
X3.6615Y-6.0373
X3.7615Y-5.1396
X3.7615Y-6.0373
X3.8615Y-5.1396
X3.8615Y-6.0373
X3.9615Y-5.1396
X3.9615Y-6.0373
X4.35Y-2.9971
X4.35Y-3.0971
X4.35Y-3.1971
X4.35Y-3.2971
X4.35Y-3.3971
X4.35Y-3.4971
X4.35Y-3.5971
X4.6189Y-3.8425
X4.7189Y-3.8425
X4.8189Y-3.8425
X5.1496Y-3.3354
X5.1496Y-3.4354
X5.1496Y-3.5354
T0
M30
