%TF.GenerationSoftware,KiCad,Pcbnew,(6.0.1)*%
%TF.CreationDate,2023-04-08T22:05:36+08:00*%
%TF.ProjectId,Scroller Motor 1,5363726f-6c6c-4657-9220-4d6f746f7220,rev?*%
%TF.SameCoordinates,Original*%
%TF.FileFunction,Soldermask,Top*%
%TF.FilePolarity,Negative*%
%FSLAX46Y46*%
G04 Gerber Fmt 4.6, Leading zero omitted, Abs format (unit mm)*
G04 Created by KiCad (PCBNEW (6.0.1)) date 2023-04-08 22:05:36*
%MOMM*%
%LPD*%
G01*
G04 APERTURE LIST*
G04 Aperture macros list*
%AMRoundRect*
0 Rectangle with rounded corners*
0 $1 Rounding radius*
0 $2 $3 $4 $5 $6 $7 $8 $9 X,Y pos of 4 corners*
0 Add a 4 corners polygon primitive as box body*
4,1,4,$2,$3,$4,$5,$6,$7,$8,$9,$2,$3,0*
0 Add four circle primitives for the rounded corners*
1,1,$1+$1,$2,$3*
1,1,$1+$1,$4,$5*
1,1,$1+$1,$6,$7*
1,1,$1+$1,$8,$9*
0 Add four rect primitives between the rounded corners*
20,1,$1+$1,$2,$3,$4,$5,0*
20,1,$1+$1,$4,$5,$6,$7,0*
20,1,$1+$1,$6,$7,$8,$9,0*
20,1,$1+$1,$8,$9,$2,$3,0*%
G04 Aperture macros list end*
%ADD10RoundRect,0.050000X1.100000X-0.900000X1.100000X0.900000X-1.100000X0.900000X-1.100000X-0.900000X0*%
%ADD11RoundRect,0.050000X0.650000X-0.150000X0.650000X0.150000X-0.650000X0.150000X-0.650000X-0.150000X0*%
%ADD12RoundRect,0.449500X0.450500X-0.450500X0.450500X0.450500X-0.450500X0.450500X-0.450500X-0.450500X0*%
%ADD13O,1.800000X1.800000*%
%ADD14RoundRect,0.287500X-0.237500X0.300000X-0.237500X-0.300000X0.237500X-0.300000X0.237500X0.300000X0*%
%ADD15C,3.300000*%
%ADD16RoundRect,0.050000X-0.850000X0.850000X-0.850000X-0.850000X0.850000X-0.850000X0.850000X0.850000X0*%
%ADD17RoundRect,0.287500X-0.237500X0.250000X-0.237500X-0.250000X0.237500X-0.250000X0.237500X0.250000X0*%
%ADD18RoundRect,0.287500X0.237500X-0.250000X0.237500X0.250000X-0.237500X0.250000X-0.237500X-0.250000X0*%
%ADD19RoundRect,0.050000X0.800000X0.800000X-0.800000X0.800000X-0.800000X-0.800000X0.800000X-0.800000X0*%
%ADD20O,1.700000X1.700000*%
%ADD21RoundRect,0.287500X0.237500X-0.300000X0.237500X0.300000X-0.237500X0.300000X-0.237500X-0.300000X0*%
%ADD22RoundRect,0.050000X0.850000X0.850000X-0.850000X0.850000X-0.850000X-0.850000X0.850000X-0.850000X0*%
%ADD23C,1.800000*%
%ADD24RoundRect,0.050000X1.000000X0.750000X-1.000000X0.750000X-1.000000X-0.750000X1.000000X-0.750000X0*%
%ADD25RoundRect,0.050000X1.000000X1.900000X-1.000000X1.900000X-1.000000X-1.900000X1.000000X-1.900000X0*%
%ADD26RoundRect,0.050000X-0.300000X-1.100000X0.300000X-1.100000X0.300000X1.100000X-0.300000X1.100000X0*%
%ADD27RoundRect,0.050000X-0.450000X-0.600000X0.450000X-0.600000X0.450000X0.600000X-0.450000X0.600000X0*%
%ADD28C,1.300000*%
%ADD29RoundRect,0.300000X-0.725000X0.600000X-0.725000X-0.600000X0.725000X-0.600000X0.725000X0.600000X0*%
%ADD30O,2.050000X1.800000*%
G04 APERTURE END LIST*
D10*
%TO.C,J4*%
X135700000Y-147100000D03*
X135700000Y-153400000D03*
D11*
X132450000Y-151500000D03*
X132450000Y-151000000D03*
X132450000Y-150500000D03*
X132450000Y-150000000D03*
X132450000Y-149500000D03*
X132450000Y-149000000D03*
%TD*%
D12*
%TO.C,TMC1*%
X100622893Y-130547107D03*
D13*
X98082893Y-130547107D03*
X95542893Y-130547107D03*
X93002893Y-130547107D03*
X90462893Y-130547107D03*
X87922893Y-130547107D03*
X85382893Y-130547107D03*
X82842893Y-130547107D03*
D12*
X100622893Y-153347107D03*
D13*
X98082893Y-153347107D03*
X95542893Y-153347107D03*
X93002893Y-153347107D03*
X90462893Y-153347107D03*
X87922893Y-153347107D03*
X85382893Y-153347107D03*
X82842893Y-153347107D03*
%TD*%
D14*
%TO.C,C1*%
X130500000Y-69175000D03*
X130500000Y-70900000D03*
%TD*%
D15*
%TO.C,MHole_4*%
X77600000Y-70000000D03*
%TD*%
D16*
%TO.C,J2*%
X122400000Y-97600000D03*
D13*
X119860000Y-97600000D03*
X117320000Y-97600000D03*
%TD*%
D17*
%TO.C,RM_1*%
X122500000Y-87142500D03*
X122500000Y-88967500D03*
%TD*%
D15*
%TO.C,MHole_3*%
X77600000Y-155200000D03*
%TD*%
D18*
%TO.C,RS_2*%
X123300000Y-80000000D03*
X123300000Y-78175000D03*
%TD*%
D19*
%TO.C,QMK1*%
X138430000Y-73025000D03*
D20*
X138430000Y-75565000D03*
X138430000Y-78105000D03*
X138430000Y-80645000D03*
X138430000Y-83185000D03*
X138430000Y-85725000D03*
X138430000Y-88265000D03*
X138430000Y-90805000D03*
X138430000Y-93345000D03*
X138430000Y-95885000D03*
X138430000Y-98425000D03*
X138430000Y-100965000D03*
X153670000Y-100965000D03*
X153670000Y-98425000D03*
X153670000Y-95885000D03*
X153670000Y-93345000D03*
X153670000Y-90805000D03*
X153670000Y-88265000D03*
X153670000Y-85725000D03*
X153670000Y-83185000D03*
X153670000Y-80645000D03*
X153670000Y-78105000D03*
X153670000Y-75565000D03*
X153670000Y-73025000D03*
%TD*%
D21*
%TO.C,C4*%
X123500000Y-132625000D03*
X123500000Y-130900000D03*
%TD*%
D17*
%TO.C,RM_2*%
X122500000Y-90675000D03*
X122500000Y-92500000D03*
%TD*%
D22*
%TO.C,J3*%
X130800000Y-89800000D03*
D13*
X130800000Y-87260000D03*
X130800000Y-84720000D03*
%TD*%
%TO.C,ESP32*%
X85170500Y-76106000D03*
X85170500Y-78646000D03*
X85170500Y-81186000D03*
X85170500Y-83726000D03*
X85170500Y-86266000D03*
X85170500Y-88806000D03*
D23*
X85170500Y-91346000D03*
X110490000Y-76126000D03*
D13*
X110490000Y-78666000D03*
X110490000Y-81206000D03*
X110490000Y-83746000D03*
X110490000Y-86286000D03*
X110490000Y-88826000D03*
X110490000Y-91366000D03*
%TD*%
D18*
%TO.C,RS_1*%
X123300000Y-83900000D03*
X123300000Y-82075000D03*
%TD*%
D24*
%TO.C,AMS1*%
X126900000Y-74600000D03*
D25*
X120600000Y-72300000D03*
D24*
X126900000Y-72300000D03*
X126900000Y-70000000D03*
%TD*%
D26*
%TO.C,MT6701*%
X125095000Y-124400000D03*
X126365000Y-124400000D03*
X127635000Y-124400000D03*
X128905000Y-124400000D03*
X128905000Y-129600000D03*
X127635000Y-129600000D03*
X126365000Y-129600000D03*
X125095000Y-129600000D03*
%TD*%
D14*
%TO.C,C2*%
X130400000Y-73500000D03*
X130400000Y-75225000D03*
%TD*%
D15*
%TO.C,MHole_2*%
X159400000Y-155200000D03*
%TD*%
%TO.C,MHole_1*%
X159385000Y-70000000D03*
%TD*%
D27*
%TO.C,D1*%
X125300000Y-132600000D03*
X128600000Y-132600000D03*
%TD*%
D28*
%TO.C,J1*%
X104000000Y-146100000D03*
D29*
X106000000Y-147700000D03*
D30*
X106000000Y-150200000D03*
X106000000Y-152700000D03*
%TD*%
M02*
