%TF.GenerationSoftware,KiCad,Pcbnew,(6.0.1)*%
%TF.CreationDate,2023-04-08T22:05:36+08:00*%
%TF.ProjectId,Scroller Motor 1,5363726f-6c6c-4657-9220-4d6f746f7220,rev?*%
%TF.SameCoordinates,Original*%
%TF.FileFunction,Profile,NP*%
%FSLAX46Y46*%
G04 Gerber Fmt 4.6, Leading zero omitted, Abs format (unit mm)*
G04 Created by KiCad (PCBNEW (6.0.1)) date 2023-04-08 22:05:36*
%MOMM*%
%LPD*%
G01*
G04 APERTURE LIST*
%TA.AperFunction,Profile*%
%ADD10C,0.100000*%
%TD*%
%TA.AperFunction,Profile*%
%ADD11C,0.200000*%
%TD*%
%TA.AperFunction,Profile*%
%ADD12C,0.120000*%
%TD*%
G04 APERTURE END LIST*
D10*
X74200000Y-155200000D02*
X74200000Y-70000000D01*
X159400000Y-158600000D02*
G75*
G03*
X162800000Y-155200000I0J3400000D01*
G01*
X77600000Y-66600000D02*
G75*
G03*
X74200000Y-70000000I0J-3400000D01*
G01*
D11*
X162800000Y-70000000D02*
G75*
G03*
X159400000Y-66600000I-3400000J0D01*
G01*
D10*
X159400000Y-158600000D02*
X77600000Y-158600000D01*
X162800000Y-70000000D02*
X162800000Y-155200000D01*
X77600000Y-66600000D02*
X159400000Y-66600000D01*
X74200000Y-155200000D02*
G75*
G03*
X77600000Y-158600000I3400000J0D01*
G01*
D12*
%TO.C,Mnt2*%
X128300000Y-117500000D02*
G75*
G03*
X128300000Y-117500000I-1300000J0D01*
G01*
X137800000Y-127000000D02*
G75*
G03*
X137800000Y-127000000I-1300000J0D01*
G01*
X118800000Y-127000000D02*
G75*
G03*
X118800000Y-127000000I-1300000J0D01*
G01*
%TO.C,Mnt0*%
X128113140Y-137977241D02*
G75*
G03*
X128113140Y-137977241I-1100000J0D01*
G01*
X137613140Y-121522759D02*
G75*
G03*
X137613140Y-121522759I-1100000J0D01*
G01*
X118573721Y-121500000D02*
G75*
G03*
X118573721Y-121500000I-1100000J0D01*
G01*
D11*
%TO.C,Mnt1*%
X120400000Y-125500618D02*
X120400000Y-128500618D01*
X133600000Y-128500618D02*
X133600000Y-125500618D01*
X123600000Y-128500000D02*
X123600000Y-125500618D01*
X130400000Y-125500618D02*
X130400000Y-128500000D01*
X133600000Y-125500618D02*
G75*
G03*
X130400000Y-125500618I-1600000J0D01*
G01*
X123600000Y-125500618D02*
G75*
G03*
X120400000Y-125500618I-1600000J0D01*
G01*
X120400000Y-128500618D02*
G75*
G03*
X123600000Y-128500000I1600000J309D01*
G01*
X130400000Y-128500000D02*
G75*
G03*
X133600000Y-128500618I1600000J-309D01*
G01*
%TD*%
M02*
