%TF.GenerationSoftware,KiCad,Pcbnew,(6.0.1)*%
%TF.CreationDate,2023-04-08T22:05:36+08:00*%
%TF.ProjectId,Scroller Motor 1,5363726f-6c6c-4657-9220-4d6f746f7220,rev?*%
%TF.SameCoordinates,Original*%
%TF.FileFunction,Copper,L1,Top*%
%TF.FilePolarity,Positive*%
%FSLAX46Y46*%
G04 Gerber Fmt 4.6, Leading zero omitted, Abs format (unit mm)*
G04 Created by KiCad (PCBNEW (6.0.1)) date 2023-04-08 22:05:36*
%MOMM*%
%LPD*%
G01*
G04 APERTURE LIST*
G04 Aperture macros list*
%AMRoundRect*
0 Rectangle with rounded corners*
0 $1 Rounding radius*
0 $2 $3 $4 $5 $6 $7 $8 $9 X,Y pos of 4 corners*
0 Add a 4 corners polygon primitive as box body*
4,1,4,$2,$3,$4,$5,$6,$7,$8,$9,$2,$3,0*
0 Add four circle primitives for the rounded corners*
1,1,$1+$1,$2,$3*
1,1,$1+$1,$4,$5*
1,1,$1+$1,$6,$7*
1,1,$1+$1,$8,$9*
0 Add four rect primitives between the rounded corners*
20,1,$1+$1,$2,$3,$4,$5,0*
20,1,$1+$1,$4,$5,$6,$7,0*
20,1,$1+$1,$6,$7,$8,$9,0*
20,1,$1+$1,$8,$9,$2,$3,0*%
G04 Aperture macros list end*
%TA.AperFunction,SMDPad,CuDef*%
%ADD10R,2.200000X1.800000*%
%TD*%
%TA.AperFunction,SMDPad,CuDef*%
%ADD11R,1.300000X0.300000*%
%TD*%
%TA.AperFunction,ComponentPad*%
%ADD12RoundRect,0.399500X0.450500X-0.450500X0.450500X0.450500X-0.450500X0.450500X-0.450500X-0.450500X0*%
%TD*%
%TA.AperFunction,ComponentPad*%
%ADD13O,1.700000X1.700000*%
%TD*%
%TA.AperFunction,SMDPad,CuDef*%
%ADD14RoundRect,0.237500X-0.237500X0.300000X-0.237500X-0.300000X0.237500X-0.300000X0.237500X0.300000X0*%
%TD*%
%TA.AperFunction,ComponentPad*%
%ADD15R,1.700000X1.700000*%
%TD*%
%TA.AperFunction,SMDPad,CuDef*%
%ADD16RoundRect,0.237500X-0.237500X0.250000X-0.237500X-0.250000X0.237500X-0.250000X0.237500X0.250000X0*%
%TD*%
%TA.AperFunction,SMDPad,CuDef*%
%ADD17RoundRect,0.237500X0.237500X-0.250000X0.237500X0.250000X-0.237500X0.250000X-0.237500X-0.250000X0*%
%TD*%
%TA.AperFunction,ComponentPad*%
%ADD18R,1.600000X1.600000*%
%TD*%
%TA.AperFunction,ComponentPad*%
%ADD19O,1.600000X1.600000*%
%TD*%
%TA.AperFunction,SMDPad,CuDef*%
%ADD20RoundRect,0.237500X0.237500X-0.300000X0.237500X0.300000X-0.237500X0.300000X-0.237500X-0.300000X0*%
%TD*%
%TA.AperFunction,ComponentPad*%
%ADD21C,1.700000*%
%TD*%
%TA.AperFunction,SMDPad,CuDef*%
%ADD22R,2.000000X1.500000*%
%TD*%
%TA.AperFunction,SMDPad,CuDef*%
%ADD23R,2.000000X3.800000*%
%TD*%
%TA.AperFunction,SMDPad,CuDef*%
%ADD24R,0.600000X2.200000*%
%TD*%
%TA.AperFunction,SMDPad,CuDef*%
%ADD25R,0.900000X1.200000*%
%TD*%
%TA.AperFunction,ComponentPad*%
%ADD26RoundRect,0.250000X-0.725000X0.600000X-0.725000X-0.600000X0.725000X-0.600000X0.725000X0.600000X0*%
%TD*%
%TA.AperFunction,ComponentPad*%
%ADD27O,1.950000X1.700000*%
%TD*%
%TA.AperFunction,ViaPad*%
%ADD28C,1.500000*%
%TD*%
%TA.AperFunction,Conductor*%
%ADD29C,1.000000*%
%TD*%
%TA.AperFunction,Conductor*%
%ADD30C,0.300000*%
%TD*%
%TA.AperFunction,Conductor*%
%ADD31C,0.500000*%
%TD*%
%TA.AperFunction,Conductor*%
%ADD32C,0.250000*%
%TD*%
G04 APERTURE END LIST*
D10*
%TO.P,J4,MP*%
%TO.N,N/C*%
X135700000Y-147100000D03*
X135700000Y-153400000D03*
D11*
%TO.P,J4,1,Pin_1*%
%TO.N,/W_Out*%
X132450000Y-151500000D03*
%TO.P,J4,2,Pin_2*%
X132450000Y-151000000D03*
%TO.P,J4,3,Pin_3*%
%TO.N,/V_Out*%
X132450000Y-150500000D03*
%TO.P,J4,4,Pin_4*%
X132450000Y-150000000D03*
%TO.P,J4,5,Pin_5*%
%TO.N,/U_Out*%
X132450000Y-149500000D03*
%TO.P,J4,6,Pin_6*%
X132450000Y-149000000D03*
%TD*%
D12*
%TO.P,TMC1,1,+VCC_IO*%
%TO.N,+3V3*%
X100622893Y-130547107D03*
D13*
%TO.P,TMC1,2,GND*%
%TO.N,GND*%
X98082893Y-130547107D03*
%TO.P,TMC1,3,UH_in*%
%TO.N,UH_in*%
X95542893Y-130547107D03*
%TO.P,TMC1,4,UL_in*%
%TO.N,UL_in*%
X93002893Y-130547107D03*
%TO.P,TMC1,5,VH_in*%
%TO.N,VH_in*%
X90462893Y-130547107D03*
%TO.P,TMC1,6,VL_in*%
%TO.N,VL_in*%
X87922893Y-130547107D03*
%TO.P,TMC1,7,WH_in*%
%TO.N,WH_in*%
X85382893Y-130547107D03*
%TO.P,TMC1,8,WL_in*%
%TO.N,WL_in*%
X82842893Y-130547107D03*
D12*
%TO.P,TMC1,9,+VBAT*%
%TO.N,+5V*%
X100622893Y-153347107D03*
D13*
%TO.P,TMC1,10,GND*%
%TO.N,GND*%
X98082893Y-153347107D03*
%TO.P,TMC1,11,GND*%
X95542893Y-153347107D03*
%TO.P,TMC1,12,W*%
%TO.N,/W_Out*%
X93002893Y-153347107D03*
%TO.P,TMC1,13,V*%
%TO.N,/V_Out*%
X90462893Y-153347107D03*
%TO.P,TMC1,14,W*%
%TO.N,/U_Out*%
X87922893Y-153347107D03*
%TO.P,TMC1,15,GND*%
%TO.N,GND*%
X85382893Y-153347107D03*
%TO.P,TMC1,16,DIAG*%
%TO.N,unconnected-(TMC1-Pad16)*%
X82842893Y-153347107D03*
%TD*%
D14*
%TO.P,C1,1*%
%TO.N,+5V*%
X130500000Y-69175000D03*
%TO.P,C1,2*%
%TO.N,GND*%
X130500000Y-70900000D03*
%TD*%
D15*
%TO.P,J2,1,Pin_1*%
%TO.N,SDA*%
X122400000Y-97600000D03*
D13*
%TO.P,J2,2,Pin_2*%
%TO.N,SCL*%
X119860000Y-97600000D03*
%TO.P,J2,3,Pin_3*%
%TO.N,CSn*%
X117320000Y-97600000D03*
%TD*%
D16*
%TO.P,RM_1,1*%
%TO.N,BTN_NEXT_O*%
X122500000Y-87142500D03*
%TO.P,RM_1,2*%
%TO.N,BTN_NXT*%
X122500000Y-88967500D03*
%TD*%
D17*
%TO.P,RS_2,1*%
%TO.N,Net-(ESP32-Pad12)*%
X123300000Y-80000000D03*
%TO.P,RS_2,2*%
%TO.N,GND*%
X123300000Y-78175000D03*
%TD*%
D18*
%TO.P,QMK1,1,D1/TX*%
%TO.N,SERIAL_RX*%
X138430000Y-73025000D03*
D19*
%TO.P,QMK1,2,D0/RX*%
%TO.N,SERIAL_TX*%
X138430000Y-75565000D03*
%TO.P,QMK1,3,GND*%
%TO.N,GND*%
X138430000Y-78105000D03*
%TO.P,QMK1,4,GND*%
X138430000Y-80645000D03*
%TO.P,QMK1,5,D2*%
%TO.N,unconnected-(QMK1-Pad5)*%
X138430000Y-83185000D03*
%TO.P,QMK1,6,~D3*%
%TO.N,unconnected-(QMK1-Pad6)*%
X138430000Y-85725000D03*
%TO.P,QMK1,7,D4/A6*%
%TO.N,unconnected-(QMK1-Pad7)*%
X138430000Y-88265000D03*
%TO.P,QMK1,8,~D5*%
%TO.N,unconnected-(QMK1-Pad8)*%
X138430000Y-90805000D03*
%TO.P,QMK1,9,~D6/A7*%
%TO.N,unconnected-(QMK1-Pad9)*%
X138430000Y-93345000D03*
%TO.P,QMK1,10,D7*%
%TO.N,unconnected-(QMK1-Pad10)*%
X138430000Y-95885000D03*
%TO.P,QMK1,11,D8/A8*%
%TO.N,BTN_NEXT_O*%
X138430000Y-98425000D03*
%TO.P,QMK1,12,~D9/A9*%
%TO.N,unconnected-(QMK1-Pad12)*%
X138430000Y-100965000D03*
%TO.P,QMK1,13,~D10/A10*%
%TO.N,Col 4*%
X153670000Y-100965000D03*
%TO.P,QMK1,14,D16*%
%TO.N,Col 3*%
X153670000Y-98425000D03*
%TO.P,QMK1,15,D14*%
%TO.N,Col 2*%
X153670000Y-95885000D03*
%TO.P,QMK1,16,D15*%
%TO.N,Col 1*%
X153670000Y-93345000D03*
%TO.P,QMK1,17,D18/A0*%
%TO.N,Row 4*%
X153670000Y-90805000D03*
%TO.P,QMK1,18,D19/A1*%
%TO.N,Row 3*%
X153670000Y-88265000D03*
%TO.P,QMK1,19,D20/A2*%
%TO.N,Row 2*%
X153670000Y-85725000D03*
%TO.P,QMK1,20,D21/A3*%
%TO.N,Row 1*%
X153670000Y-83185000D03*
%TO.P,QMK1,21,VCC*%
%TO.N,+5V*%
X153670000Y-80645000D03*
%TO.P,QMK1,22,RST*%
%TO.N,unconnected-(QMK1-Pad22)*%
X153670000Y-78105000D03*
%TO.P,QMK1,23,GND*%
%TO.N,GND*%
X153670000Y-75565000D03*
%TO.P,QMK1,24,RAW*%
%TO.N,unconnected-(QMK1-Pad24)*%
X153670000Y-73025000D03*
%TD*%
D20*
%TO.P,C4,1*%
%TO.N,+3V3*%
X123500000Y-132625000D03*
%TO.P,C4,2*%
%TO.N,GND*%
X123500000Y-130900000D03*
%TD*%
D16*
%TO.P,RM_2,1*%
%TO.N,BTN_NXT*%
X122500000Y-90675000D03*
%TO.P,RM_2,2*%
%TO.N,GND*%
X122500000Y-92500000D03*
%TD*%
D15*
%TO.P,J3,1,Pin_1*%
%TO.N,BTN_NEXT_O*%
X130800000Y-89800000D03*
D13*
%TO.P,J3,2,Pin_2*%
%TO.N,SERIAL_TX*%
X130800000Y-87260000D03*
%TO.P,J3,3,Pin_3*%
%TO.N,SERIAL_RX*%
X130800000Y-84720000D03*
%TD*%
%TO.P,ESP32,1,3V3*%
%TO.N,+3V3*%
X85170500Y-76106000D03*
%TO.P,ESP32,2,UH*%
%TO.N,UH_in*%
X85170500Y-78646000D03*
%TO.P,ESP32,3,UL*%
%TO.N,UL_in*%
X85170500Y-81186000D03*
%TO.P,ESP32,4,VH*%
%TO.N,VH_in*%
X85170500Y-83726000D03*
%TO.P,ESP32,5,VL*%
%TO.N,VL_in*%
X85170500Y-86266000D03*
%TO.P,ESP32,6,WH*%
%TO.N,WH_in*%
X85170500Y-88806000D03*
D21*
%TO.P,ESP32,7,WL*%
%TO.N,WL_in*%
X85170500Y-91346000D03*
%TO.P,ESP32,8,GND*%
%TO.N,GND*%
X110490000Y-76126000D03*
D13*
%TO.P,ESP32,9,SDA*%
%TO.N,SDA*%
X110490000Y-78666000D03*
%TO.P,ESP32,10,SCL*%
%TO.N,SCL*%
X110490000Y-81206000D03*
%TO.P,ESP32,11,CSN*%
%TO.N,CSn*%
X110490000Y-83746000D03*
%TO.P,ESP32,12,S_RX*%
%TO.N,Net-(ESP32-Pad12)*%
X110490000Y-86286000D03*
%TO.P,ESP32,13,S_TX*%
%TO.N,SERIAL_TX*%
X110490000Y-88826000D03*
%TO.P,ESP32,14,B_NXT*%
%TO.N,BTN_NXT*%
X110490000Y-91366000D03*
%TD*%
D17*
%TO.P,RS_1,1*%
%TO.N,SERIAL_RX*%
X123300000Y-83900000D03*
%TO.P,RS_1,2*%
%TO.N,Net-(ESP32-Pad12)*%
X123300000Y-82075000D03*
%TD*%
D22*
%TO.P,AMS1,1,GND*%
%TO.N,GND*%
X126900000Y-74600000D03*
D23*
%TO.P,AMS1,2,VO*%
%TO.N,+3V3*%
X120600000Y-72300000D03*
D22*
X126900000Y-72300000D03*
%TO.P,AMS1,3,VI*%
%TO.N,+5V*%
X126900000Y-70000000D03*
%TD*%
D24*
%TO.P,MT6701,8,Z/CSn*%
%TO.N,CSn*%
X125095000Y-124400000D03*
%TO.P,MT6701,7,B/SCL*%
%TO.N,SCL*%
X126365000Y-124400000D03*
%TO.P,MT6701,6,A/SDA*%
%TO.N,SDA*%
X127635000Y-124400000D03*
%TO.P,MT6701,5,PUSH*%
%TO.N,unconnected-(MT6701-Pad5)*%
X128905000Y-124400000D03*
%TO.P,MT6701,4,GND*%
%TO.N,GND*%
X128905000Y-129600000D03*
%TO.P,MT6701,3,OUT*%
%TO.N,unconnected-(MT6701-Pad3)*%
X127635000Y-129600000D03*
%TO.P,MT6701,2,MODE*%
%TO.N,unconnected-(MT6701-Pad2)*%
X126365000Y-129600000D03*
%TO.P,MT6701,1,VDD*%
%TO.N,+3V3*%
X125095000Y-129600000D03*
%TD*%
D14*
%TO.P,C2,1*%
%TO.N,+3V3*%
X130400000Y-73500000D03*
%TO.P,C2,2*%
%TO.N,GND*%
X130400000Y-75225000D03*
%TD*%
D25*
%TO.P,D1,1,K*%
%TO.N,+3V3*%
X125300000Y-132600000D03*
%TO.P,D1,2,A*%
%TO.N,GND*%
X128600000Y-132600000D03*
%TD*%
D26*
%TO.P,J1,1,Pin_1*%
%TO.N,/U_Out*%
X106000000Y-147700000D03*
D27*
%TO.P,J1,2,Pin_2*%
%TO.N,/V_Out*%
X106000000Y-150200000D03*
%TO.P,J1,3,Pin_3*%
%TO.N,/W_Out*%
X106000000Y-152700000D03*
%TD*%
D28*
%TO.N,GND*%
X121700000Y-131400500D03*
X119945000Y-92460000D03*
X120000000Y-77200000D03*
X130900000Y-132400000D03*
%TO.N,Net-(ESP32-Pad12)*%
X118500000Y-82100000D03*
%TO.N,SERIAL_TX*%
X118400000Y-86800000D03*
%TO.N,BTN_NXT*%
X118145000Y-90460000D03*
%TD*%
D29*
%TO.N,+5V*%
X148590000Y-146610000D02*
X148590000Y-83820000D01*
X102850786Y-155575000D02*
X139625000Y-155575000D01*
X100622893Y-153347107D02*
X102850786Y-155575000D01*
X139625000Y-155575000D02*
X148590000Y-146610000D01*
D30*
%TO.N,/V_Out*%
X131000000Y-150500000D02*
X130700000Y-150200000D01*
X132450000Y-150500000D02*
X131000000Y-150500000D01*
X130900000Y-150000000D02*
X130700000Y-150200000D01*
X132450000Y-150000000D02*
X130900000Y-150000000D01*
D29*
%TO.N,/U_Out*%
X131100000Y-147700000D02*
X132400000Y-149000000D01*
X106000000Y-147700000D02*
X131100000Y-147700000D01*
X132400000Y-149000000D02*
X132450000Y-149000000D01*
%TO.N,/W_Out*%
X132400000Y-151500000D02*
X132450000Y-151500000D01*
X131200000Y-152700000D02*
X132400000Y-151500000D01*
X106000000Y-152700000D02*
X131200000Y-152700000D01*
%TO.N,/V_Out*%
X106000000Y-150200000D02*
X130700000Y-150200000D01*
D31*
%TO.N,GND*%
X121700000Y-131400500D02*
X122200500Y-130900000D01*
X122200500Y-130900000D02*
X123500000Y-130900000D01*
%TO.N,+3V3*%
X125095000Y-131495000D02*
X125095000Y-129600000D01*
X125100000Y-131500000D02*
X125095000Y-131495000D01*
X120800000Y-132600000D02*
X124900000Y-132600000D01*
X124900000Y-132600000D02*
X125100000Y-132400000D01*
X118747107Y-130547107D02*
X120800000Y-132600000D01*
X125100000Y-132400000D02*
X125100000Y-131500000D01*
X100622893Y-130547107D02*
X118747107Y-130547107D01*
D29*
%TO.N,/W_Out*%
X102730000Y-151130000D02*
X104300000Y-152700000D01*
X104300000Y-152700000D02*
X106000000Y-152700000D01*
X95220000Y-151130000D02*
X102730000Y-151130000D01*
X93002893Y-153347107D02*
X95220000Y-151130000D01*
%TO.N,/U_Out*%
X103800000Y-147700000D02*
X106000000Y-147700000D01*
X103600000Y-147500000D02*
X103800000Y-147700000D01*
X93770000Y-147500000D02*
X103600000Y-147500000D01*
%TO.N,/V_Out*%
X103700000Y-149500000D02*
X104400000Y-150200000D01*
X94310000Y-149500000D02*
X103700000Y-149500000D01*
X90462893Y-153347107D02*
X94310000Y-149500000D01*
X104400000Y-150200000D02*
X106000000Y-150200000D01*
%TO.N,/U_Out*%
X87922893Y-153347107D02*
X93770000Y-147500000D01*
D31*
%TO.N,GND*%
X130700000Y-132600000D02*
X130900000Y-132400000D01*
X128600000Y-132600000D02*
X130700000Y-132600000D01*
X128600000Y-131750000D02*
X128905000Y-131445000D01*
X128600000Y-132600000D02*
X128600000Y-131750000D01*
X128905000Y-131505000D02*
X128905000Y-131445000D01*
X130900000Y-132400000D02*
X129800000Y-132400000D01*
X129800000Y-132400000D02*
X128905000Y-131505000D01*
D29*
X120574000Y-76126000D02*
X110490000Y-76126000D01*
X132400000Y-71300000D02*
X132400000Y-74600000D01*
X126300000Y-76100000D02*
X123177000Y-76100000D01*
X123151000Y-76126000D02*
X120574000Y-76126000D01*
X131775000Y-75225000D02*
X130400000Y-75225000D01*
D30*
X119985000Y-92500000D02*
X122500000Y-92500000D01*
D29*
X132000000Y-70900000D02*
X132400000Y-71300000D01*
X123300000Y-76275000D02*
X123151000Y-76126000D01*
X126900000Y-74600000D02*
X127525000Y-75225000D01*
X132400000Y-74600000D02*
X131775000Y-75225000D01*
X120000000Y-77200000D02*
X120574000Y-76626000D01*
X127525000Y-75225000D02*
X130400000Y-75225000D01*
X123300000Y-76275000D02*
X123300000Y-78175000D01*
X123177000Y-76100000D02*
X123151000Y-76126000D01*
X126900000Y-75500000D02*
X126300000Y-76100000D01*
D31*
X128905000Y-131445000D02*
X128905000Y-129600000D01*
D29*
X130500000Y-70900000D02*
X132000000Y-70900000D01*
X120574000Y-76626000D02*
X120574000Y-76126000D01*
X126900000Y-74600000D02*
X126900000Y-75500000D01*
%TO.N,+3V3*%
X100600000Y-83000000D02*
X100600000Y-130524214D01*
X126900000Y-72300000D02*
X129200000Y-72300000D01*
X89346000Y-76106000D02*
X93706000Y-76106000D01*
X97100000Y-72300000D02*
X93294000Y-76106000D01*
X85170500Y-76106000D02*
X89346000Y-76106000D01*
X93706000Y-76106000D02*
X100600000Y-83000000D01*
X120600000Y-72300000D02*
X92300000Y-72300000D01*
X92300000Y-72300000D02*
X88976500Y-72300000D01*
X126900000Y-72300000D02*
X120600000Y-72300000D01*
X100600000Y-130524214D02*
X100622893Y-130547107D01*
X129200000Y-72300000D02*
X130400000Y-73500000D01*
X88976500Y-72300000D02*
X85170500Y-76106000D01*
X93294000Y-76106000D02*
X89346000Y-76106000D01*
%TO.N,+5V*%
X151765000Y-80645000D02*
X153670000Y-80645000D01*
X143575000Y-69175000D02*
X130500000Y-69175000D01*
X148590000Y-83820000D02*
X148590000Y-74190000D01*
X127725000Y-69175000D02*
X130500000Y-69175000D01*
X148590000Y-83820000D02*
X151765000Y-80645000D01*
X148590000Y-74190000D02*
X143575000Y-69175000D01*
X126900000Y-70000000D02*
X127725000Y-69175000D01*
D31*
%TO.N,UH_in*%
X90346000Y-78646000D02*
X95500000Y-83800000D01*
X95500000Y-130504214D02*
X95542893Y-130547107D01*
X85170500Y-78646000D02*
X90346000Y-78646000D01*
X95500000Y-83800000D02*
X95500000Y-130504214D01*
%TO.N,UL_in*%
X85170500Y-81186000D02*
X89786000Y-81186000D01*
X93002893Y-84402893D02*
X93002893Y-130547107D01*
X89786000Y-81186000D02*
X93002893Y-84402893D01*
%TO.N,VH_in*%
X90462893Y-130547107D02*
X90462893Y-99937107D01*
X90462893Y-99937107D02*
X91000000Y-99400000D01*
X88326000Y-83726000D02*
X85170500Y-83726000D01*
X91000000Y-86400000D02*
X88326000Y-83726000D01*
X91000000Y-99400000D02*
X91000000Y-86400000D01*
%TO.N,VL_in*%
X87356000Y-86086000D02*
X85170500Y-86086000D01*
X87900000Y-96885000D02*
X89300000Y-95485000D01*
X89300000Y-95485000D02*
X89300000Y-88030000D01*
X89300000Y-88030000D02*
X87356000Y-86086000D01*
X87900000Y-130524214D02*
X87900000Y-96885000D01*
X87922893Y-130547107D02*
X87900000Y-130524214D01*
%TO.N,WH_in*%
X85400000Y-130530000D02*
X85400000Y-94940000D01*
X87630000Y-89535000D02*
X86721000Y-88626000D01*
X87630000Y-92710000D02*
X87630000Y-89535000D01*
X85400000Y-94940000D02*
X87630000Y-92710000D01*
X85382893Y-130547107D02*
X85400000Y-130530000D01*
X86721000Y-88626000D02*
X85170500Y-88626000D01*
%TO.N,WL_in*%
X82900000Y-130490000D02*
X82900000Y-93436500D01*
X82900000Y-93436500D02*
X85170500Y-91166000D01*
X82842893Y-130547107D02*
X82900000Y-130490000D01*
D30*
%TO.N,SDA*%
X127635000Y-123600000D02*
X123825000Y-119790000D01*
X116586000Y-83566000D02*
X111506000Y-78486000D01*
X123825000Y-98825000D02*
X116586000Y-91586000D01*
X111506000Y-78486000D02*
X110490000Y-78486000D01*
X123825000Y-119790000D02*
X123825000Y-98825000D01*
X127635000Y-124400000D02*
X127635000Y-123600000D01*
X116586000Y-91586000D02*
X116586000Y-83566000D01*
%TO.N,SCL*%
X115400000Y-85400000D02*
X111026000Y-81026000D01*
X126365000Y-124400000D02*
X126365000Y-123600000D01*
X111026000Y-81026000D02*
X110490000Y-81026000D01*
X115400000Y-93175000D02*
X115400000Y-85400000D01*
X122555000Y-119790000D02*
X122555000Y-100330000D01*
X126365000Y-123600000D02*
X122555000Y-119790000D01*
X122555000Y-100330000D02*
X115400000Y-93175000D01*
D32*
%TO.N,CSn*%
X114300000Y-94580000D02*
X114300000Y-86900000D01*
D30*
X121285000Y-119985000D02*
X121285000Y-101685000D01*
X121285000Y-101685000D02*
X117390000Y-97790000D01*
X125095000Y-123795000D02*
X121285000Y-119985000D01*
D32*
X114300000Y-86900000D02*
X111146000Y-83746000D01*
X117320000Y-97600000D02*
X114300000Y-94580000D01*
D30*
X125095000Y-124400000D02*
X125095000Y-123795000D01*
D32*
X111146000Y-83746000D02*
X110490000Y-83746000D01*
D30*
%TO.N,Net-(ESP32-Pad12)*%
X123300000Y-82075000D02*
X118525000Y-82075000D01*
X123300000Y-82075000D02*
X123300000Y-80000000D01*
X118525000Y-82075000D02*
X118500000Y-82100000D01*
%TO.N,SERIAL_TX*%
X130800000Y-87260000D02*
X135000000Y-83060000D01*
X135000000Y-78995000D02*
X138430000Y-75565000D01*
X135000000Y-83060000D02*
X135000000Y-78995000D01*
X127800000Y-85600000D02*
X129460000Y-87260000D01*
X129460000Y-87260000D02*
X130800000Y-87260000D01*
X120140000Y-85600000D02*
X127800000Y-85600000D01*
X118940000Y-86800000D02*
X120140000Y-85600000D01*
X118400000Y-86800000D02*
X118940000Y-86800000D01*
%TO.N,BTN_NXT*%
X118360000Y-90675000D02*
X122500000Y-90675000D01*
X122500000Y-88967500D02*
X122500000Y-90675000D01*
%TO.N,SERIAL_RX*%
X130800000Y-84720000D02*
X132600000Y-82920000D01*
X130420000Y-84720000D02*
X130800000Y-84720000D01*
X129900000Y-84100000D02*
X130520000Y-84720000D01*
X136575000Y-73025000D02*
X138430000Y-73025000D01*
X123800000Y-84100000D02*
X129900000Y-84100000D01*
X130520000Y-84720000D02*
X130800000Y-84720000D01*
X132600000Y-82920000D02*
X132600000Y-77000000D01*
X132600000Y-77000000D02*
X136575000Y-73025000D01*
%TO.N,BTN_NEXT_O*%
X128100000Y-89800000D02*
X130800000Y-89800000D01*
X122500000Y-87142500D02*
X125442500Y-87142500D01*
X125442500Y-87142500D02*
X128100000Y-89800000D01*
X136225000Y-98425000D02*
X138430000Y-98425000D01*
X130800000Y-89800000D02*
X130800000Y-93000000D01*
X130800000Y-93000000D02*
X136225000Y-98425000D01*
%TD*%
M02*
