%TF.GenerationSoftware,KiCad,Pcbnew,(6.0.1)*%
%TF.CreationDate,2022-11-10T11:06:11+08:00*%
%TF.ProjectId,Scroller1,5363726f-6c6c-4657-9231-2e6b69636164,rev?*%
%TF.SameCoordinates,Original*%
%TF.FileFunction,Legend,Bot*%
%TF.FilePolarity,Positive*%
%FSLAX46Y46*%
G04 Gerber Fmt 4.6, Leading zero omitted, Abs format (unit mm)*
G04 Created by KiCad (PCBNEW (6.0.1)) date 2022-11-10 11:06:11*
%MOMM*%
%LPD*%
G01*
G04 APERTURE LIST*
%ADD10C,0.150000*%
%ADD11C,0.100000*%
G04 APERTURE END LIST*
D10*
%TO.C,SW_0_0*%
X134020571Y-89558761D02*
X134163428Y-89606380D01*
X134401523Y-89606380D01*
X134496761Y-89558761D01*
X134544380Y-89511142D01*
X134592000Y-89415904D01*
X134592000Y-89320666D01*
X134544380Y-89225428D01*
X134496761Y-89177809D01*
X134401523Y-89130190D01*
X134211047Y-89082571D01*
X134115809Y-89034952D01*
X134068190Y-88987333D01*
X134020571Y-88892095D01*
X134020571Y-88796857D01*
X134068190Y-88701619D01*
X134115809Y-88654000D01*
X134211047Y-88606380D01*
X134449142Y-88606380D01*
X134592000Y-88654000D01*
X134925333Y-88606380D02*
X135163428Y-89606380D01*
X135353904Y-88892095D01*
X135544380Y-89606380D01*
X135782476Y-88606380D01*
X135925333Y-89701619D02*
X136687238Y-89701619D01*
X137115809Y-88606380D02*
X137211047Y-88606380D01*
X137306285Y-88654000D01*
X137353904Y-88701619D01*
X137401523Y-88796857D01*
X137449142Y-88987333D01*
X137449142Y-89225428D01*
X137401523Y-89415904D01*
X137353904Y-89511142D01*
X137306285Y-89558761D01*
X137211047Y-89606380D01*
X137115809Y-89606380D01*
X137020571Y-89558761D01*
X136972952Y-89511142D01*
X136925333Y-89415904D01*
X136877714Y-89225428D01*
X136877714Y-88987333D01*
X136925333Y-88796857D01*
X136972952Y-88701619D01*
X137020571Y-88654000D01*
X137115809Y-88606380D01*
X137639619Y-89701619D02*
X138401523Y-89701619D01*
X138830095Y-88606380D02*
X138925333Y-88606380D01*
X139020571Y-88654000D01*
X139068190Y-88701619D01*
X139115809Y-88796857D01*
X139163428Y-88987333D01*
X139163428Y-89225428D01*
X139115809Y-89415904D01*
X139068190Y-89511142D01*
X139020571Y-89558761D01*
X138925333Y-89606380D01*
X138830095Y-89606380D01*
X138734857Y-89558761D01*
X138687238Y-89511142D01*
X138639619Y-89415904D01*
X138592000Y-89225428D01*
X138592000Y-88987333D01*
X138639619Y-88796857D01*
X138687238Y-88701619D01*
X138734857Y-88654000D01*
X138830095Y-88606380D01*
%TO.C,SW_2_1*%
X114970571Y-127658761D02*
X115113428Y-127706380D01*
X115351523Y-127706380D01*
X115446761Y-127658761D01*
X115494380Y-127611142D01*
X115542000Y-127515904D01*
X115542000Y-127420666D01*
X115494380Y-127325428D01*
X115446761Y-127277809D01*
X115351523Y-127230190D01*
X115161047Y-127182571D01*
X115065809Y-127134952D01*
X115018190Y-127087333D01*
X114970571Y-126992095D01*
X114970571Y-126896857D01*
X115018190Y-126801619D01*
X115065809Y-126754000D01*
X115161047Y-126706380D01*
X115399142Y-126706380D01*
X115542000Y-126754000D01*
X115875333Y-126706380D02*
X116113428Y-127706380D01*
X116303904Y-126992095D01*
X116494380Y-127706380D01*
X116732476Y-126706380D01*
X116875333Y-127801619D02*
X117637238Y-127801619D01*
X117827714Y-126801619D02*
X117875333Y-126754000D01*
X117970571Y-126706380D01*
X118208666Y-126706380D01*
X118303904Y-126754000D01*
X118351523Y-126801619D01*
X118399142Y-126896857D01*
X118399142Y-126992095D01*
X118351523Y-127134952D01*
X117780095Y-127706380D01*
X118399142Y-127706380D01*
X118589619Y-127801619D02*
X119351523Y-127801619D01*
X120113428Y-127706380D02*
X119542000Y-127706380D01*
X119827714Y-127706380D02*
X119827714Y-126706380D01*
X119732476Y-126849238D01*
X119637238Y-126944476D01*
X119542000Y-126992095D01*
%TO.C,SW_1_0*%
X134020571Y-108608761D02*
X134163428Y-108656380D01*
X134401523Y-108656380D01*
X134496761Y-108608761D01*
X134544380Y-108561142D01*
X134592000Y-108465904D01*
X134592000Y-108370666D01*
X134544380Y-108275428D01*
X134496761Y-108227809D01*
X134401523Y-108180190D01*
X134211047Y-108132571D01*
X134115809Y-108084952D01*
X134068190Y-108037333D01*
X134020571Y-107942095D01*
X134020571Y-107846857D01*
X134068190Y-107751619D01*
X134115809Y-107704000D01*
X134211047Y-107656380D01*
X134449142Y-107656380D01*
X134592000Y-107704000D01*
X134925333Y-107656380D02*
X135163428Y-108656380D01*
X135353904Y-107942095D01*
X135544380Y-108656380D01*
X135782476Y-107656380D01*
X135925333Y-108751619D02*
X136687238Y-108751619D01*
X137449142Y-108656380D02*
X136877714Y-108656380D01*
X137163428Y-108656380D02*
X137163428Y-107656380D01*
X137068190Y-107799238D01*
X136972952Y-107894476D01*
X136877714Y-107942095D01*
X137639619Y-108751619D02*
X138401523Y-108751619D01*
X138830095Y-107656380D02*
X138925333Y-107656380D01*
X139020571Y-107704000D01*
X139068190Y-107751619D01*
X139115809Y-107846857D01*
X139163428Y-108037333D01*
X139163428Y-108275428D01*
X139115809Y-108465904D01*
X139068190Y-108561142D01*
X139020571Y-108608761D01*
X138925333Y-108656380D01*
X138830095Y-108656380D01*
X138734857Y-108608761D01*
X138687238Y-108561142D01*
X138639619Y-108465904D01*
X138592000Y-108275428D01*
X138592000Y-108037333D01*
X138639619Y-107846857D01*
X138687238Y-107751619D01*
X138734857Y-107704000D01*
X138830095Y-107656380D01*
%TO.C,SW_3_0*%
X134020571Y-146708761D02*
X134163428Y-146756380D01*
X134401523Y-146756380D01*
X134496761Y-146708761D01*
X134544380Y-146661142D01*
X134592000Y-146565904D01*
X134592000Y-146470666D01*
X134544380Y-146375428D01*
X134496761Y-146327809D01*
X134401523Y-146280190D01*
X134211047Y-146232571D01*
X134115809Y-146184952D01*
X134068190Y-146137333D01*
X134020571Y-146042095D01*
X134020571Y-145946857D01*
X134068190Y-145851619D01*
X134115809Y-145804000D01*
X134211047Y-145756380D01*
X134449142Y-145756380D01*
X134592000Y-145804000D01*
X134925333Y-145756380D02*
X135163428Y-146756380D01*
X135353904Y-146042095D01*
X135544380Y-146756380D01*
X135782476Y-145756380D01*
X135925333Y-146851619D02*
X136687238Y-146851619D01*
X136830095Y-145756380D02*
X137449142Y-145756380D01*
X137115809Y-146137333D01*
X137258666Y-146137333D01*
X137353904Y-146184952D01*
X137401523Y-146232571D01*
X137449142Y-146327809D01*
X137449142Y-146565904D01*
X137401523Y-146661142D01*
X137353904Y-146708761D01*
X137258666Y-146756380D01*
X136972952Y-146756380D01*
X136877714Y-146708761D01*
X136830095Y-146661142D01*
X137639619Y-146851619D02*
X138401523Y-146851619D01*
X138830095Y-145756380D02*
X138925333Y-145756380D01*
X139020571Y-145804000D01*
X139068190Y-145851619D01*
X139115809Y-145946857D01*
X139163428Y-146137333D01*
X139163428Y-146375428D01*
X139115809Y-146565904D01*
X139068190Y-146661142D01*
X139020571Y-146708761D01*
X138925333Y-146756380D01*
X138830095Y-146756380D01*
X138734857Y-146708761D01*
X138687238Y-146661142D01*
X138639619Y-146565904D01*
X138592000Y-146375428D01*
X138592000Y-146137333D01*
X138639619Y-145946857D01*
X138687238Y-145851619D01*
X138734857Y-145804000D01*
X138830095Y-145756380D01*
%TO.C,SW_1_3*%
X76870571Y-108608761D02*
X77013428Y-108656380D01*
X77251523Y-108656380D01*
X77346761Y-108608761D01*
X77394380Y-108561142D01*
X77442000Y-108465904D01*
X77442000Y-108370666D01*
X77394380Y-108275428D01*
X77346761Y-108227809D01*
X77251523Y-108180190D01*
X77061047Y-108132571D01*
X76965809Y-108084952D01*
X76918190Y-108037333D01*
X76870571Y-107942095D01*
X76870571Y-107846857D01*
X76918190Y-107751619D01*
X76965809Y-107704000D01*
X77061047Y-107656380D01*
X77299142Y-107656380D01*
X77442000Y-107704000D01*
X77775333Y-107656380D02*
X78013428Y-108656380D01*
X78203904Y-107942095D01*
X78394380Y-108656380D01*
X78632476Y-107656380D01*
X78775333Y-108751619D02*
X79537238Y-108751619D01*
X80299142Y-108656380D02*
X79727714Y-108656380D01*
X80013428Y-108656380D02*
X80013428Y-107656380D01*
X79918190Y-107799238D01*
X79822952Y-107894476D01*
X79727714Y-107942095D01*
X80489619Y-108751619D02*
X81251523Y-108751619D01*
X81394380Y-107656380D02*
X82013428Y-107656380D01*
X81680095Y-108037333D01*
X81822952Y-108037333D01*
X81918190Y-108084952D01*
X81965809Y-108132571D01*
X82013428Y-108227809D01*
X82013428Y-108465904D01*
X81965809Y-108561142D01*
X81918190Y-108608761D01*
X81822952Y-108656380D01*
X81537238Y-108656380D01*
X81442000Y-108608761D01*
X81394380Y-108561142D01*
%TO.C,SW_1_2*%
X95920571Y-108608761D02*
X96063428Y-108656380D01*
X96301523Y-108656380D01*
X96396761Y-108608761D01*
X96444380Y-108561142D01*
X96492000Y-108465904D01*
X96492000Y-108370666D01*
X96444380Y-108275428D01*
X96396761Y-108227809D01*
X96301523Y-108180190D01*
X96111047Y-108132571D01*
X96015809Y-108084952D01*
X95968190Y-108037333D01*
X95920571Y-107942095D01*
X95920571Y-107846857D01*
X95968190Y-107751619D01*
X96015809Y-107704000D01*
X96111047Y-107656380D01*
X96349142Y-107656380D01*
X96492000Y-107704000D01*
X96825333Y-107656380D02*
X97063428Y-108656380D01*
X97253904Y-107942095D01*
X97444380Y-108656380D01*
X97682476Y-107656380D01*
X97825333Y-108751619D02*
X98587238Y-108751619D01*
X99349142Y-108656380D02*
X98777714Y-108656380D01*
X99063428Y-108656380D02*
X99063428Y-107656380D01*
X98968190Y-107799238D01*
X98872952Y-107894476D01*
X98777714Y-107942095D01*
X99539619Y-108751619D02*
X100301523Y-108751619D01*
X100492000Y-107751619D02*
X100539619Y-107704000D01*
X100634857Y-107656380D01*
X100872952Y-107656380D01*
X100968190Y-107704000D01*
X101015809Y-107751619D01*
X101063428Y-107846857D01*
X101063428Y-107942095D01*
X101015809Y-108084952D01*
X100444380Y-108656380D01*
X101063428Y-108656380D01*
D11*
%TO.C,TMC1*%
X156779964Y-126632535D02*
X156579964Y-127232535D01*
X156379964Y-126632535D01*
X156179964Y-127232535D02*
X156179964Y-126632535D01*
X155779964Y-126632535D02*
X155665678Y-126632535D01*
X155608535Y-126661107D01*
X155551392Y-126718249D01*
X155522821Y-126832535D01*
X155522821Y-127032535D01*
X155551392Y-127146821D01*
X155608535Y-127203964D01*
X155665678Y-127232535D01*
X155779964Y-127232535D01*
X155837107Y-127203964D01*
X155894249Y-127146821D01*
X155922821Y-127032535D01*
X155922821Y-126832535D01*
X155894249Y-126718249D01*
X155837107Y-126661107D01*
X155779964Y-126632535D01*
X154837107Y-126603964D02*
X155351392Y-127375392D01*
X154779964Y-126463107D02*
X154208535Y-126463107D01*
X154665678Y-127203964D02*
X154579964Y-127232535D01*
X154437107Y-127232535D01*
X154379964Y-127203964D01*
X154351392Y-127175392D01*
X154322821Y-127118249D01*
X154322821Y-127061107D01*
X154351392Y-127003964D01*
X154379964Y-126975392D01*
X154437107Y-126946821D01*
X154551392Y-126918249D01*
X154608535Y-126889678D01*
X154637107Y-126861107D01*
X154665678Y-126803964D01*
X154665678Y-126746821D01*
X154637107Y-126689678D01*
X154608535Y-126661107D01*
X154551392Y-126632535D01*
X154408535Y-126632535D01*
X154322821Y-126661107D01*
X154208535Y-126463107D02*
X153751392Y-126463107D01*
X154151392Y-126632535D02*
X153808535Y-126632535D01*
X153979964Y-127232535D02*
X153979964Y-126632535D01*
X153751392Y-126463107D02*
X153151392Y-126463107D01*
X153608535Y-127232535D02*
X153608535Y-126632535D01*
X153465678Y-126632535D01*
X153379964Y-126661107D01*
X153322821Y-126718249D01*
X153294249Y-126775392D01*
X153265678Y-126889678D01*
X153265678Y-126975392D01*
X153294249Y-127089678D01*
X153322821Y-127146821D01*
X153379964Y-127203964D01*
X153465678Y-127232535D01*
X153608535Y-127232535D01*
X153151392Y-126463107D02*
X152551392Y-126463107D01*
X152808535Y-126918249D02*
X152722821Y-126946821D01*
X152694249Y-126975392D01*
X152665678Y-127032535D01*
X152665678Y-127118249D01*
X152694249Y-127175392D01*
X152722821Y-127203964D01*
X152779964Y-127232535D01*
X153008535Y-127232535D01*
X153008535Y-126632535D01*
X152808535Y-126632535D01*
X152751392Y-126661107D01*
X152722821Y-126689678D01*
X152694249Y-126746821D01*
X152694249Y-126803964D01*
X152722821Y-126861107D01*
X152751392Y-126889678D01*
X152808535Y-126918249D01*
X153008535Y-126918249D01*
X152551392Y-126463107D02*
X152037107Y-126463107D01*
X152294249Y-126946821D02*
X152294249Y-127232535D01*
X152494249Y-126632535D02*
X152294249Y-126946821D01*
X152094249Y-126632535D01*
D10*
%TO.C,SW_0_3*%
X76870571Y-89558761D02*
X77013428Y-89606380D01*
X77251523Y-89606380D01*
X77346761Y-89558761D01*
X77394380Y-89511142D01*
X77442000Y-89415904D01*
X77442000Y-89320666D01*
X77394380Y-89225428D01*
X77346761Y-89177809D01*
X77251523Y-89130190D01*
X77061047Y-89082571D01*
X76965809Y-89034952D01*
X76918190Y-88987333D01*
X76870571Y-88892095D01*
X76870571Y-88796857D01*
X76918190Y-88701619D01*
X76965809Y-88654000D01*
X77061047Y-88606380D01*
X77299142Y-88606380D01*
X77442000Y-88654000D01*
X77775333Y-88606380D02*
X78013428Y-89606380D01*
X78203904Y-88892095D01*
X78394380Y-89606380D01*
X78632476Y-88606380D01*
X78775333Y-89701619D02*
X79537238Y-89701619D01*
X79965809Y-88606380D02*
X80061047Y-88606380D01*
X80156285Y-88654000D01*
X80203904Y-88701619D01*
X80251523Y-88796857D01*
X80299142Y-88987333D01*
X80299142Y-89225428D01*
X80251523Y-89415904D01*
X80203904Y-89511142D01*
X80156285Y-89558761D01*
X80061047Y-89606380D01*
X79965809Y-89606380D01*
X79870571Y-89558761D01*
X79822952Y-89511142D01*
X79775333Y-89415904D01*
X79727714Y-89225428D01*
X79727714Y-88987333D01*
X79775333Y-88796857D01*
X79822952Y-88701619D01*
X79870571Y-88654000D01*
X79965809Y-88606380D01*
X80489619Y-89701619D02*
X81251523Y-89701619D01*
X81394380Y-88606380D02*
X82013428Y-88606380D01*
X81680095Y-88987333D01*
X81822952Y-88987333D01*
X81918190Y-89034952D01*
X81965809Y-89082571D01*
X82013428Y-89177809D01*
X82013428Y-89415904D01*
X81965809Y-89511142D01*
X81918190Y-89558761D01*
X81822952Y-89606380D01*
X81537238Y-89606380D01*
X81442000Y-89558761D01*
X81394380Y-89511142D01*
%TO.C,SW_3_2*%
X95920571Y-146708761D02*
X96063428Y-146756380D01*
X96301523Y-146756380D01*
X96396761Y-146708761D01*
X96444380Y-146661142D01*
X96492000Y-146565904D01*
X96492000Y-146470666D01*
X96444380Y-146375428D01*
X96396761Y-146327809D01*
X96301523Y-146280190D01*
X96111047Y-146232571D01*
X96015809Y-146184952D01*
X95968190Y-146137333D01*
X95920571Y-146042095D01*
X95920571Y-145946857D01*
X95968190Y-145851619D01*
X96015809Y-145804000D01*
X96111047Y-145756380D01*
X96349142Y-145756380D01*
X96492000Y-145804000D01*
X96825333Y-145756380D02*
X97063428Y-146756380D01*
X97253904Y-146042095D01*
X97444380Y-146756380D01*
X97682476Y-145756380D01*
X97825333Y-146851619D02*
X98587238Y-146851619D01*
X98730095Y-145756380D02*
X99349142Y-145756380D01*
X99015809Y-146137333D01*
X99158666Y-146137333D01*
X99253904Y-146184952D01*
X99301523Y-146232571D01*
X99349142Y-146327809D01*
X99349142Y-146565904D01*
X99301523Y-146661142D01*
X99253904Y-146708761D01*
X99158666Y-146756380D01*
X98872952Y-146756380D01*
X98777714Y-146708761D01*
X98730095Y-146661142D01*
X99539619Y-146851619D02*
X100301523Y-146851619D01*
X100492000Y-145851619D02*
X100539619Y-145804000D01*
X100634857Y-145756380D01*
X100872952Y-145756380D01*
X100968190Y-145804000D01*
X101015809Y-145851619D01*
X101063428Y-145946857D01*
X101063428Y-146042095D01*
X101015809Y-146184952D01*
X100444380Y-146756380D01*
X101063428Y-146756380D01*
%TO.C,SW_0_1*%
X114970571Y-89558761D02*
X115113428Y-89606380D01*
X115351523Y-89606380D01*
X115446761Y-89558761D01*
X115494380Y-89511142D01*
X115542000Y-89415904D01*
X115542000Y-89320666D01*
X115494380Y-89225428D01*
X115446761Y-89177809D01*
X115351523Y-89130190D01*
X115161047Y-89082571D01*
X115065809Y-89034952D01*
X115018190Y-88987333D01*
X114970571Y-88892095D01*
X114970571Y-88796857D01*
X115018190Y-88701619D01*
X115065809Y-88654000D01*
X115161047Y-88606380D01*
X115399142Y-88606380D01*
X115542000Y-88654000D01*
X115875333Y-88606380D02*
X116113428Y-89606380D01*
X116303904Y-88892095D01*
X116494380Y-89606380D01*
X116732476Y-88606380D01*
X116875333Y-89701619D02*
X117637238Y-89701619D01*
X118065809Y-88606380D02*
X118161047Y-88606380D01*
X118256285Y-88654000D01*
X118303904Y-88701619D01*
X118351523Y-88796857D01*
X118399142Y-88987333D01*
X118399142Y-89225428D01*
X118351523Y-89415904D01*
X118303904Y-89511142D01*
X118256285Y-89558761D01*
X118161047Y-89606380D01*
X118065809Y-89606380D01*
X117970571Y-89558761D01*
X117922952Y-89511142D01*
X117875333Y-89415904D01*
X117827714Y-89225428D01*
X117827714Y-88987333D01*
X117875333Y-88796857D01*
X117922952Y-88701619D01*
X117970571Y-88654000D01*
X118065809Y-88606380D01*
X118589619Y-89701619D02*
X119351523Y-89701619D01*
X120113428Y-89606380D02*
X119542000Y-89606380D01*
X119827714Y-89606380D02*
X119827714Y-88606380D01*
X119732476Y-88749238D01*
X119637238Y-88844476D01*
X119542000Y-88892095D01*
%TO.C,SW_3_1*%
X114970571Y-146708761D02*
X115113428Y-146756380D01*
X115351523Y-146756380D01*
X115446761Y-146708761D01*
X115494380Y-146661142D01*
X115542000Y-146565904D01*
X115542000Y-146470666D01*
X115494380Y-146375428D01*
X115446761Y-146327809D01*
X115351523Y-146280190D01*
X115161047Y-146232571D01*
X115065809Y-146184952D01*
X115018190Y-146137333D01*
X114970571Y-146042095D01*
X114970571Y-145946857D01*
X115018190Y-145851619D01*
X115065809Y-145804000D01*
X115161047Y-145756380D01*
X115399142Y-145756380D01*
X115542000Y-145804000D01*
X115875333Y-145756380D02*
X116113428Y-146756380D01*
X116303904Y-146042095D01*
X116494380Y-146756380D01*
X116732476Y-145756380D01*
X116875333Y-146851619D02*
X117637238Y-146851619D01*
X117780095Y-145756380D02*
X118399142Y-145756380D01*
X118065809Y-146137333D01*
X118208666Y-146137333D01*
X118303904Y-146184952D01*
X118351523Y-146232571D01*
X118399142Y-146327809D01*
X118399142Y-146565904D01*
X118351523Y-146661142D01*
X118303904Y-146708761D01*
X118208666Y-146756380D01*
X117922952Y-146756380D01*
X117827714Y-146708761D01*
X117780095Y-146661142D01*
X118589619Y-146851619D02*
X119351523Y-146851619D01*
X120113428Y-146756380D02*
X119542000Y-146756380D01*
X119827714Y-146756380D02*
X119827714Y-145756380D01*
X119732476Y-145899238D01*
X119637238Y-145994476D01*
X119542000Y-146042095D01*
%TO.C,SW_1_1*%
X114970571Y-108608761D02*
X115113428Y-108656380D01*
X115351523Y-108656380D01*
X115446761Y-108608761D01*
X115494380Y-108561142D01*
X115542000Y-108465904D01*
X115542000Y-108370666D01*
X115494380Y-108275428D01*
X115446761Y-108227809D01*
X115351523Y-108180190D01*
X115161047Y-108132571D01*
X115065809Y-108084952D01*
X115018190Y-108037333D01*
X114970571Y-107942095D01*
X114970571Y-107846857D01*
X115018190Y-107751619D01*
X115065809Y-107704000D01*
X115161047Y-107656380D01*
X115399142Y-107656380D01*
X115542000Y-107704000D01*
X115875333Y-107656380D02*
X116113428Y-108656380D01*
X116303904Y-107942095D01*
X116494380Y-108656380D01*
X116732476Y-107656380D01*
X116875333Y-108751619D02*
X117637238Y-108751619D01*
X118399142Y-108656380D02*
X117827714Y-108656380D01*
X118113428Y-108656380D02*
X118113428Y-107656380D01*
X118018190Y-107799238D01*
X117922952Y-107894476D01*
X117827714Y-107942095D01*
X118589619Y-108751619D02*
X119351523Y-108751619D01*
X120113428Y-108656380D02*
X119542000Y-108656380D01*
X119827714Y-108656380D02*
X119827714Y-107656380D01*
X119732476Y-107799238D01*
X119637238Y-107894476D01*
X119542000Y-107942095D01*
%TO.C,SW_2_2*%
X95920571Y-127658761D02*
X96063428Y-127706380D01*
X96301523Y-127706380D01*
X96396761Y-127658761D01*
X96444380Y-127611142D01*
X96492000Y-127515904D01*
X96492000Y-127420666D01*
X96444380Y-127325428D01*
X96396761Y-127277809D01*
X96301523Y-127230190D01*
X96111047Y-127182571D01*
X96015809Y-127134952D01*
X95968190Y-127087333D01*
X95920571Y-126992095D01*
X95920571Y-126896857D01*
X95968190Y-126801619D01*
X96015809Y-126754000D01*
X96111047Y-126706380D01*
X96349142Y-126706380D01*
X96492000Y-126754000D01*
X96825333Y-126706380D02*
X97063428Y-127706380D01*
X97253904Y-126992095D01*
X97444380Y-127706380D01*
X97682476Y-126706380D01*
X97825333Y-127801619D02*
X98587238Y-127801619D01*
X98777714Y-126801619D02*
X98825333Y-126754000D01*
X98920571Y-126706380D01*
X99158666Y-126706380D01*
X99253904Y-126754000D01*
X99301523Y-126801619D01*
X99349142Y-126896857D01*
X99349142Y-126992095D01*
X99301523Y-127134952D01*
X98730095Y-127706380D01*
X99349142Y-127706380D01*
X99539619Y-127801619D02*
X100301523Y-127801619D01*
X100492000Y-126801619D02*
X100539619Y-126754000D01*
X100634857Y-126706380D01*
X100872952Y-126706380D01*
X100968190Y-126754000D01*
X101015809Y-126801619D01*
X101063428Y-126896857D01*
X101063428Y-126992095D01*
X101015809Y-127134952D01*
X100444380Y-127706380D01*
X101063428Y-127706380D01*
%TO.C,SW_2_3*%
X76870571Y-127658761D02*
X77013428Y-127706380D01*
X77251523Y-127706380D01*
X77346761Y-127658761D01*
X77394380Y-127611142D01*
X77442000Y-127515904D01*
X77442000Y-127420666D01*
X77394380Y-127325428D01*
X77346761Y-127277809D01*
X77251523Y-127230190D01*
X77061047Y-127182571D01*
X76965809Y-127134952D01*
X76918190Y-127087333D01*
X76870571Y-126992095D01*
X76870571Y-126896857D01*
X76918190Y-126801619D01*
X76965809Y-126754000D01*
X77061047Y-126706380D01*
X77299142Y-126706380D01*
X77442000Y-126754000D01*
X77775333Y-126706380D02*
X78013428Y-127706380D01*
X78203904Y-126992095D01*
X78394380Y-127706380D01*
X78632476Y-126706380D01*
X78775333Y-127801619D02*
X79537238Y-127801619D01*
X79727714Y-126801619D02*
X79775333Y-126754000D01*
X79870571Y-126706380D01*
X80108666Y-126706380D01*
X80203904Y-126754000D01*
X80251523Y-126801619D01*
X80299142Y-126896857D01*
X80299142Y-126992095D01*
X80251523Y-127134952D01*
X79680095Y-127706380D01*
X80299142Y-127706380D01*
X80489619Y-127801619D02*
X81251523Y-127801619D01*
X81394380Y-126706380D02*
X82013428Y-126706380D01*
X81680095Y-127087333D01*
X81822952Y-127087333D01*
X81918190Y-127134952D01*
X81965809Y-127182571D01*
X82013428Y-127277809D01*
X82013428Y-127515904D01*
X81965809Y-127611142D01*
X81918190Y-127658761D01*
X81822952Y-127706380D01*
X81537238Y-127706380D01*
X81442000Y-127658761D01*
X81394380Y-127611142D01*
%TO.C,SW_0_2*%
X95920571Y-89558761D02*
X96063428Y-89606380D01*
X96301523Y-89606380D01*
X96396761Y-89558761D01*
X96444380Y-89511142D01*
X96492000Y-89415904D01*
X96492000Y-89320666D01*
X96444380Y-89225428D01*
X96396761Y-89177809D01*
X96301523Y-89130190D01*
X96111047Y-89082571D01*
X96015809Y-89034952D01*
X95968190Y-88987333D01*
X95920571Y-88892095D01*
X95920571Y-88796857D01*
X95968190Y-88701619D01*
X96015809Y-88654000D01*
X96111047Y-88606380D01*
X96349142Y-88606380D01*
X96492000Y-88654000D01*
X96825333Y-88606380D02*
X97063428Y-89606380D01*
X97253904Y-88892095D01*
X97444380Y-89606380D01*
X97682476Y-88606380D01*
X97825333Y-89701619D02*
X98587238Y-89701619D01*
X99015809Y-88606380D02*
X99111047Y-88606380D01*
X99206285Y-88654000D01*
X99253904Y-88701619D01*
X99301523Y-88796857D01*
X99349142Y-88987333D01*
X99349142Y-89225428D01*
X99301523Y-89415904D01*
X99253904Y-89511142D01*
X99206285Y-89558761D01*
X99111047Y-89606380D01*
X99015809Y-89606380D01*
X98920571Y-89558761D01*
X98872952Y-89511142D01*
X98825333Y-89415904D01*
X98777714Y-89225428D01*
X98777714Y-88987333D01*
X98825333Y-88796857D01*
X98872952Y-88701619D01*
X98920571Y-88654000D01*
X99015809Y-88606380D01*
X99539619Y-89701619D02*
X100301523Y-89701619D01*
X100492000Y-88701619D02*
X100539619Y-88654000D01*
X100634857Y-88606380D01*
X100872952Y-88606380D01*
X100968190Y-88654000D01*
X101015809Y-88701619D01*
X101063428Y-88796857D01*
X101063428Y-88892095D01*
X101015809Y-89034952D01*
X100444380Y-89606380D01*
X101063428Y-89606380D01*
%TO.C,SW_3_3*%
X76870571Y-146708761D02*
X77013428Y-146756380D01*
X77251523Y-146756380D01*
X77346761Y-146708761D01*
X77394380Y-146661142D01*
X77442000Y-146565904D01*
X77442000Y-146470666D01*
X77394380Y-146375428D01*
X77346761Y-146327809D01*
X77251523Y-146280190D01*
X77061047Y-146232571D01*
X76965809Y-146184952D01*
X76918190Y-146137333D01*
X76870571Y-146042095D01*
X76870571Y-145946857D01*
X76918190Y-145851619D01*
X76965809Y-145804000D01*
X77061047Y-145756380D01*
X77299142Y-145756380D01*
X77442000Y-145804000D01*
X77775333Y-145756380D02*
X78013428Y-146756380D01*
X78203904Y-146042095D01*
X78394380Y-146756380D01*
X78632476Y-145756380D01*
X78775333Y-146851619D02*
X79537238Y-146851619D01*
X79680095Y-145756380D02*
X80299142Y-145756380D01*
X79965809Y-146137333D01*
X80108666Y-146137333D01*
X80203904Y-146184952D01*
X80251523Y-146232571D01*
X80299142Y-146327809D01*
X80299142Y-146565904D01*
X80251523Y-146661142D01*
X80203904Y-146708761D01*
X80108666Y-146756380D01*
X79822952Y-146756380D01*
X79727714Y-146708761D01*
X79680095Y-146661142D01*
X80489619Y-146851619D02*
X81251523Y-146851619D01*
X81394380Y-145756380D02*
X82013428Y-145756380D01*
X81680095Y-146137333D01*
X81822952Y-146137333D01*
X81918190Y-146184952D01*
X81965809Y-146232571D01*
X82013428Y-146327809D01*
X82013428Y-146565904D01*
X81965809Y-146661142D01*
X81918190Y-146708761D01*
X81822952Y-146756380D01*
X81537238Y-146756380D01*
X81442000Y-146708761D01*
X81394380Y-146661142D01*
%TO.C,SW_2_0*%
X134020571Y-127658761D02*
X134163428Y-127706380D01*
X134401523Y-127706380D01*
X134496761Y-127658761D01*
X134544380Y-127611142D01*
X134592000Y-127515904D01*
X134592000Y-127420666D01*
X134544380Y-127325428D01*
X134496761Y-127277809D01*
X134401523Y-127230190D01*
X134211047Y-127182571D01*
X134115809Y-127134952D01*
X134068190Y-127087333D01*
X134020571Y-126992095D01*
X134020571Y-126896857D01*
X134068190Y-126801619D01*
X134115809Y-126754000D01*
X134211047Y-126706380D01*
X134449142Y-126706380D01*
X134592000Y-126754000D01*
X134925333Y-126706380D02*
X135163428Y-127706380D01*
X135353904Y-126992095D01*
X135544380Y-127706380D01*
X135782476Y-126706380D01*
X135925333Y-127801619D02*
X136687238Y-127801619D01*
X136877714Y-126801619D02*
X136925333Y-126754000D01*
X137020571Y-126706380D01*
X137258666Y-126706380D01*
X137353904Y-126754000D01*
X137401523Y-126801619D01*
X137449142Y-126896857D01*
X137449142Y-126992095D01*
X137401523Y-127134952D01*
X136830095Y-127706380D01*
X137449142Y-127706380D01*
X137639619Y-127801619D02*
X138401523Y-127801619D01*
X138830095Y-126706380D02*
X138925333Y-126706380D01*
X139020571Y-126754000D01*
X139068190Y-126801619D01*
X139115809Y-126896857D01*
X139163428Y-127087333D01*
X139163428Y-127325428D01*
X139115809Y-127515904D01*
X139068190Y-127611142D01*
X139020571Y-127658761D01*
X138925333Y-127706380D01*
X138830095Y-127706380D01*
X138734857Y-127658761D01*
X138687238Y-127611142D01*
X138639619Y-127515904D01*
X138592000Y-127325428D01*
X138592000Y-127087333D01*
X138639619Y-126896857D01*
X138687238Y-126801619D01*
X138734857Y-126754000D01*
X138830095Y-126706380D01*
%TO.C,SW_0_0*%
X131512000Y-87884000D02*
X131512000Y-87503000D01*
X131512000Y-84455000D02*
X131512000Y-83439000D01*
X142942000Y-85344000D02*
X142942000Y-84963000D01*
X140402000Y-87884000D02*
X131512000Y-87884000D01*
X131512000Y-83439000D02*
X136592000Y-83439000D01*
X139056162Y-81534000D02*
X140783000Y-81534000D01*
X142942000Y-81915000D02*
X142942000Y-81534000D01*
X142561000Y-81534000D02*
X142942000Y-81534000D01*
X140402000Y-87884000D02*
G75*
G03*
X142942000Y-85344000I-1J2540001D01*
G01*
X136592000Y-83439001D02*
G75*
G03*
X139056162Y-81515040I0J2540000D01*
G01*
%TO.C,SW_2_1*%
X112462000Y-122555000D02*
X112462000Y-121539000D01*
X120006162Y-119634000D02*
X121733000Y-119634000D01*
X123511000Y-119634000D02*
X123892000Y-119634000D01*
X112462000Y-125984000D02*
X112462000Y-125603000D01*
X112462000Y-121539000D02*
X117542000Y-121539000D01*
X123892000Y-120015000D02*
X123892000Y-119634000D01*
X123892000Y-123444000D02*
X123892000Y-123063000D01*
X121352000Y-125984000D02*
X112462000Y-125984000D01*
X121352000Y-125984000D02*
G75*
G03*
X123892000Y-123444000I-1J2540001D01*
G01*
X117542000Y-121539001D02*
G75*
G03*
X120006162Y-119615040I0J2540000D01*
G01*
%TO.C,SW_1_0*%
X131512000Y-102489000D02*
X136592000Y-102489000D01*
X131512000Y-103505000D02*
X131512000Y-102489000D01*
X142942000Y-100965000D02*
X142942000Y-100584000D01*
X131512000Y-106934000D02*
X131512000Y-106553000D01*
X142561000Y-100584000D02*
X142942000Y-100584000D01*
X140402000Y-106934000D02*
X131512000Y-106934000D01*
X142942000Y-104394000D02*
X142942000Y-104013000D01*
X139056162Y-100584000D02*
X140783000Y-100584000D01*
X136592000Y-102489001D02*
G75*
G03*
X139056162Y-100565040I0J2540000D01*
G01*
X140402000Y-106934000D02*
G75*
G03*
X142942000Y-104394000I-1J2540001D01*
G01*
%TO.C,SW_3_0*%
X131512000Y-140589000D02*
X136592000Y-140589000D01*
X140402000Y-145034000D02*
X131512000Y-145034000D01*
X131512000Y-145034000D02*
X131512000Y-144653000D01*
X142942000Y-139065000D02*
X142942000Y-138684000D01*
X139056162Y-138684000D02*
X140783000Y-138684000D01*
X142942000Y-142494000D02*
X142942000Y-142113000D01*
X142561000Y-138684000D02*
X142942000Y-138684000D01*
X131512000Y-141605000D02*
X131512000Y-140589000D01*
X140402000Y-145034000D02*
G75*
G03*
X142942000Y-142494000I-1J2540001D01*
G01*
X136592000Y-140589001D02*
G75*
G03*
X139056162Y-138665040I0J2540000D01*
G01*
%TO.C,SW_1_3*%
X85792000Y-104394000D02*
X85792000Y-104013000D01*
X74362000Y-103505000D02*
X74362000Y-102489000D01*
X81906162Y-100584000D02*
X83633000Y-100584000D01*
X74362000Y-102489000D02*
X79442000Y-102489000D01*
X83252000Y-106934000D02*
X74362000Y-106934000D01*
X85411000Y-100584000D02*
X85792000Y-100584000D01*
X74362000Y-106934000D02*
X74362000Y-106553000D01*
X85792000Y-100965000D02*
X85792000Y-100584000D01*
X79442000Y-102489001D02*
G75*
G03*
X81906162Y-100565040I0J2540000D01*
G01*
X83252000Y-106934000D02*
G75*
G03*
X85792000Y-104394000I-1J2540001D01*
G01*
%TO.C,SW_1_2*%
X104842000Y-100965000D02*
X104842000Y-100584000D01*
X102302000Y-106934000D02*
X93412000Y-106934000D01*
X93412000Y-102489000D02*
X98492000Y-102489000D01*
X93412000Y-106934000D02*
X93412000Y-106553000D01*
X93412000Y-103505000D02*
X93412000Y-102489000D01*
X104842000Y-104394000D02*
X104842000Y-104013000D01*
X104461000Y-100584000D02*
X104842000Y-100584000D01*
X100956162Y-100584000D02*
X102683000Y-100584000D01*
X102302000Y-106934000D02*
G75*
G03*
X104842000Y-104394000I-1J2540001D01*
G01*
X98492000Y-102489001D02*
G75*
G03*
X100956162Y-100565040I0J2540000D01*
G01*
%TO.C,SW_0_3*%
X81906162Y-81534000D02*
X83633000Y-81534000D01*
X85792000Y-81915000D02*
X85792000Y-81534000D01*
X85411000Y-81534000D02*
X85792000Y-81534000D01*
X85792000Y-85344000D02*
X85792000Y-84963000D01*
X83252000Y-87884000D02*
X74362000Y-87884000D01*
X74362000Y-83439000D02*
X79442000Y-83439000D01*
X74362000Y-87884000D02*
X74362000Y-87503000D01*
X74362000Y-84455000D02*
X74362000Y-83439000D01*
X83252000Y-87884000D02*
G75*
G03*
X85792000Y-85344000I-1J2540001D01*
G01*
X79442000Y-83439001D02*
G75*
G03*
X81906162Y-81515040I0J2540000D01*
G01*
%TO.C,SW_3_2*%
X100956162Y-138684000D02*
X102683000Y-138684000D01*
X104461000Y-138684000D02*
X104842000Y-138684000D01*
X104842000Y-139065000D02*
X104842000Y-138684000D01*
X104842000Y-142494000D02*
X104842000Y-142113000D01*
X93412000Y-140589000D02*
X98492000Y-140589000D01*
X93412000Y-141605000D02*
X93412000Y-140589000D01*
X102302000Y-145034000D02*
X93412000Y-145034000D01*
X93412000Y-145034000D02*
X93412000Y-144653000D01*
X98492000Y-140589001D02*
G75*
G03*
X100956162Y-138665040I0J2540000D01*
G01*
X102302000Y-145034000D02*
G75*
G03*
X104842000Y-142494000I-1J2540001D01*
G01*
%TO.C,SW_0_1*%
X123511000Y-81534000D02*
X123892000Y-81534000D01*
X123892000Y-85344000D02*
X123892000Y-84963000D01*
X120006162Y-81534000D02*
X121733000Y-81534000D01*
X123892000Y-81915000D02*
X123892000Y-81534000D01*
X112462000Y-83439000D02*
X117542000Y-83439000D01*
X121352000Y-87884000D02*
X112462000Y-87884000D01*
X112462000Y-84455000D02*
X112462000Y-83439000D01*
X112462000Y-87884000D02*
X112462000Y-87503000D01*
X121352000Y-87884000D02*
G75*
G03*
X123892000Y-85344000I-1J2540001D01*
G01*
X117542000Y-83439001D02*
G75*
G03*
X120006162Y-81515040I0J2540000D01*
G01*
%TO.C,SW_3_1*%
X123511000Y-138684000D02*
X123892000Y-138684000D01*
X112462000Y-141605000D02*
X112462000Y-140589000D01*
X112462000Y-145034000D02*
X112462000Y-144653000D01*
X123892000Y-142494000D02*
X123892000Y-142113000D01*
X112462000Y-140589000D02*
X117542000Y-140589000D01*
X120006162Y-138684000D02*
X121733000Y-138684000D01*
X123892000Y-139065000D02*
X123892000Y-138684000D01*
X121352000Y-145034000D02*
X112462000Y-145034000D01*
X117542000Y-140589001D02*
G75*
G03*
X120006162Y-138665040I0J2540000D01*
G01*
X121352000Y-145034000D02*
G75*
G03*
X123892000Y-142494000I-1J2540001D01*
G01*
%TO.C,SW_1_1*%
X112462000Y-103505000D02*
X112462000Y-102489000D01*
X120006162Y-100584000D02*
X121733000Y-100584000D01*
X123511000Y-100584000D02*
X123892000Y-100584000D01*
X112462000Y-102489000D02*
X117542000Y-102489000D01*
X112462000Y-106934000D02*
X112462000Y-106553000D01*
X123892000Y-104394000D02*
X123892000Y-104013000D01*
X121352000Y-106934000D02*
X112462000Y-106934000D01*
X123892000Y-100965000D02*
X123892000Y-100584000D01*
X121352000Y-106934000D02*
G75*
G03*
X123892000Y-104394000I-1J2540001D01*
G01*
X117542000Y-102489001D02*
G75*
G03*
X120006162Y-100565040I0J2540000D01*
G01*
%TO.C,SW_2_2*%
X93412000Y-125984000D02*
X93412000Y-125603000D01*
X102302000Y-125984000D02*
X93412000Y-125984000D01*
X93412000Y-122555000D02*
X93412000Y-121539000D01*
X104842000Y-123444000D02*
X104842000Y-123063000D01*
X100956162Y-119634000D02*
X102683000Y-119634000D01*
X104461000Y-119634000D02*
X104842000Y-119634000D01*
X104842000Y-120015000D02*
X104842000Y-119634000D01*
X93412000Y-121539000D02*
X98492000Y-121539000D01*
X98492000Y-121539001D02*
G75*
G03*
X100956162Y-119615040I0J2540000D01*
G01*
X102302000Y-125984000D02*
G75*
G03*
X104842000Y-123444000I-1J2540001D01*
G01*
%TO.C,SW_2_3*%
X85792000Y-120015000D02*
X85792000Y-119634000D01*
X74362000Y-125984000D02*
X74362000Y-125603000D01*
X74362000Y-121539000D02*
X79442000Y-121539000D01*
X83252000Y-125984000D02*
X74362000Y-125984000D01*
X81906162Y-119634000D02*
X83633000Y-119634000D01*
X85411000Y-119634000D02*
X85792000Y-119634000D01*
X74362000Y-122555000D02*
X74362000Y-121539000D01*
X85792000Y-123444000D02*
X85792000Y-123063000D01*
X79442000Y-121539001D02*
G75*
G03*
X81906162Y-119615040I0J2540000D01*
G01*
X83252000Y-125984000D02*
G75*
G03*
X85792000Y-123444000I-1J2540001D01*
G01*
%TO.C,SW_0_2*%
X104842000Y-81915000D02*
X104842000Y-81534000D01*
X100956162Y-81534000D02*
X102683000Y-81534000D01*
X104842000Y-85344000D02*
X104842000Y-84963000D01*
X93412000Y-83439000D02*
X98492000Y-83439000D01*
X104461000Y-81534000D02*
X104842000Y-81534000D01*
X93412000Y-84455000D02*
X93412000Y-83439000D01*
X102302000Y-87884000D02*
X93412000Y-87884000D01*
X93412000Y-87884000D02*
X93412000Y-87503000D01*
X102302000Y-87884000D02*
G75*
G03*
X104842000Y-85344000I-1J2540001D01*
G01*
X98492000Y-83439001D02*
G75*
G03*
X100956162Y-81515040I0J2540000D01*
G01*
%TO.C,SW_3_3*%
X74362000Y-141605000D02*
X74362000Y-140589000D01*
X83252000Y-145034000D02*
X74362000Y-145034000D01*
X85792000Y-142494000D02*
X85792000Y-142113000D01*
X74362000Y-140589000D02*
X79442000Y-140589000D01*
X81906162Y-138684000D02*
X83633000Y-138684000D01*
X85411000Y-138684000D02*
X85792000Y-138684000D01*
X74362000Y-145034000D02*
X74362000Y-144653000D01*
X85792000Y-139065000D02*
X85792000Y-138684000D01*
X79442000Y-140589001D02*
G75*
G03*
X81906162Y-138665040I0J2540000D01*
G01*
X83252000Y-145034000D02*
G75*
G03*
X85792000Y-142494000I-1J2540001D01*
G01*
%TO.C,SW_2_0*%
X142942000Y-123444000D02*
X142942000Y-123063000D01*
X142942000Y-120015000D02*
X142942000Y-119634000D01*
X131512000Y-122555000D02*
X131512000Y-121539000D01*
X140402000Y-125984000D02*
X131512000Y-125984000D01*
X131512000Y-121539000D02*
X136592000Y-121539000D01*
X142561000Y-119634000D02*
X142942000Y-119634000D01*
X139056162Y-119634000D02*
X140783000Y-119634000D01*
X131512000Y-125984000D02*
X131512000Y-125603000D01*
X136592000Y-121539001D02*
G75*
G03*
X139056162Y-119615040I0J2540000D01*
G01*
X140402000Y-125984000D02*
G75*
G03*
X142942000Y-123444000I-1J2540001D01*
G01*
%TD*%
M02*
