<?xml version="1.0" standalone="no"?>
 <!DOCTYPE svg PUBLIC "-//W3C//DTD SVG 1.1//EN" 
 "http://www.w3.org/Graphics/SVG/1.1/DTD/svg11.dtd"> 
<svg
  xmlns:svg="http://www.w3.org/2000/svg"
  xmlns="http://www.w3.org/2000/svg"
  xmlns:xlink="http://www.w3.org/1999/xlink"
  version="1.1"
  width="15.491460cm" height="9.733280cm" viewBox="0 0 154914600 97332800">
<title>SVG Picture created as Scroller1-F_Paste.svg date 2022/11/03 23:35:43 </title>
  <desc>Picture generated by PCBNEW </desc>
<g style="fill:#000000; fill-opacity:1.000000;stroke:#000000; stroke-opacity:1.000000;
stroke-linecap:round; stroke-linejoin:round;"
 transform="translate(0 0) scale(1 1)">
</g>
<g style="fill:#000000; fill-opacity:0.0; 
stroke:#000000; stroke-width:0.000000; stroke-opacity:1; 
stroke-linecap:round; stroke-linejoin:round;">
<g >
</g>
<g >
</g>
<g >
</g>
<g >
</g>
<g >
</g>
<g style="fill:#000000; fill-opacity:0.0; 
stroke:#000000; stroke-width:0.000000; stroke-opacity:1; 
stroke-linecap:round; stroke-linejoin:round;">
</g>
<g style="fill:#000000; fill-opacity:0.0; 
stroke:#000000; stroke-width:1.000000; stroke-opacity:1; 
stroke-linecap:round; stroke-linejoin:round;">
</g>
<g style="fill:#000000; fill-opacity:1.0; 
stroke:#000000; stroke-width:1.000000; stroke-opacity:1; 
stroke-linecap:round; stroke-linejoin:round;">
<path style="fill:#000000; fill-opacity:1.0; 
stroke:#000000; stroke-width:1.000000; stroke-opacity:1; 
stroke-linecap:round; stroke-linejoin:round;fill-rule:evenodd;"
d="M 54801399.000000,40319001.000000
54801399.000000,41518999.000000
53901401.000000,41518999.000000
53901401.000000,40319001.000000
Z" /> 
<path style="fill:#000000; fill-opacity:1.0; 
stroke:#000000; stroke-width:1.000000; stroke-opacity:1; 
stroke-linecap:round; stroke-linejoin:round;fill-rule:evenodd;"
d="M 51501399.000000,40319001.000000
51501399.000000,41518999.000000
50601401.000000,41518999.000000
50601401.000000,40319001.000000
Z" /> 
</g>
<g >
</g>
<g style="fill:#000000; fill-opacity:1.0; 
stroke:#000000; stroke-width:1.000000; stroke-opacity:1; 
stroke-linecap:round; stroke-linejoin:round;">
<path style="fill:#000000; fill-opacity:1.0; 
stroke:#000000; stroke-width:1.000000; stroke-opacity:1; 
stroke-linecap:round; stroke-linejoin:round;fill-rule:evenodd;"
d="M 118652975.000000,27864500.000000
118562088.000000,27846421.000000
118485037.000000,27794938.000000
118433554.000000,27717887.000000
118415475.000000,27627000.000000
118415475.000000,27127000.000000
118433554.000000,27036113.000000
118485037.000000,26959062.000000
118562088.000000,26907579.000000
118652975.000000,26889500.000000
119127975.000000,26889500.000000
119218862.000000,26907579.000000
119295913.000000,26959062.000000
119347396.000000,27036113.000000
119365475.000000,27127000.000000
119365475.000000,27627000.000000
119347396.000000,27717887.000000
119295913.000000,27794938.000000
119218862.000000,27846421.000000
119127975.000000,27864500.000000
Z" /> 
<path style="fill:#000000; fill-opacity:1.0; 
stroke:#000000; stroke-width:1.000000; stroke-opacity:1; 
stroke-linecap:round; stroke-linejoin:round;fill-rule:evenodd;"
d="M 118652975.000000,26039500.000000
118562088.000000,26021421.000000
118485037.000000,25969938.000000
118433554.000000,25892887.000000
118415475.000000,25802000.000000
118415475.000000,25302000.000000
118433554.000000,25211113.000000
118485037.000000,25134062.000000
118562088.000000,25082579.000000
118652975.000000,25064500.000000
119127975.000000,25064500.000000
119218862.000000,25082579.000000
119295913.000000,25134062.000000
119347396.000000,25211113.000000
119365475.000000,25302000.000000
119365475.000000,25802000.000000
119347396.000000,25892887.000000
119295913.000000,25969938.000000
119218862.000000,26021421.000000
119127975.000000,26039500.000000
Z" /> 
</g>
<g >
</g>
<g >
</g>
<g style="fill:#000000; fill-opacity:1.0; 
stroke:#000000; stroke-width:1.000000; stroke-opacity:1; 
stroke-linecap:round; stroke-linejoin:round;">
<path style="fill:#000000; fill-opacity:1.0; 
stroke:#000000; stroke-width:1.000000; stroke-opacity:1; 
stroke-linecap:round; stroke-linejoin:round;fill-rule:evenodd;"
d="M 113996900.000000,74349500.000000
113906013.000000,74331421.000000
113828962.000000,74279938.000000
113777479.000000,74202887.000000
113759400.000000,74112000.000000
113759400.000000,73512000.000000
113777479.000000,73421113.000000
113828962.000000,73344062.000000
113906013.000000,73292579.000000
113996900.000000,73274500.000000
114471900.000000,73274500.000000
114562787.000000,73292579.000000
114639838.000000,73344062.000000
114691321.000000,73421113.000000
114709400.000000,73512000.000000
114709400.000000,74112000.000000
114691321.000000,74202887.000000
114639838.000000,74279938.000000
114562787.000000,74331421.000000
114471900.000000,74349500.000000
Z" /> 
<path style="fill:#000000; fill-opacity:1.0; 
stroke:#000000; stroke-width:1.000000; stroke-opacity:1; 
stroke-linecap:round; stroke-linejoin:round;fill-rule:evenodd;"
d="M 113996900.000000,72624500.000000
113906013.000000,72606421.000000
113828962.000000,72554938.000000
113777479.000000,72477887.000000
113759400.000000,72387000.000000
113759400.000000,71787000.000000
113777479.000000,71696113.000000
113828962.000000,71619062.000000
113906013.000000,71567579.000000
113996900.000000,71549500.000000
114471900.000000,71549500.000000
114562787.000000,71567579.000000
114639838.000000,71619062.000000
114691321.000000,71696113.000000
114709400.000000,71787000.000000
114709400.000000,72387000.000000
114691321.000000,72477887.000000
114639838.000000,72554938.000000
114562787.000000,72606421.000000
114471900.000000,72624500.000000
Z" /> 
</g>
<g >
</g>
<g style="fill:#000000; fill-opacity:1.0; 
stroke:#000000; stroke-width:1.000000; stroke-opacity:1; 
stroke-linecap:round; stroke-linejoin:round;">
<path style="fill:#000000; fill-opacity:1.0; 
stroke:#000000; stroke-width:1.000000; stroke-opacity:1; 
stroke-linecap:round; stroke-linejoin:round;fill-rule:evenodd;"
d="M 74103399.000000,59369001.000000
74103399.000000,60568999.000000
73203401.000000,60568999.000000
73203401.000000,59369001.000000
Z" /> 
<path style="fill:#000000; fill-opacity:1.0; 
stroke:#000000; stroke-width:1.000000; stroke-opacity:1; 
stroke-linecap:round; stroke-linejoin:round;fill-rule:evenodd;"
d="M 70803399.000000,59369001.000000
70803399.000000,60568999.000000
69903401.000000,60568999.000000
69903401.000000,59369001.000000
Z" /> 
</g>
<g >
</g>
<g >
</g>
<g >
</g>
<g style="fill:#000000; fill-opacity:1.0; 
stroke:#000000; stroke-width:1.000000; stroke-opacity:1; 
stroke-linecap:round; stroke-linejoin:round;">
<path style="fill:#000000; fill-opacity:1.0; 
stroke:#000000; stroke-width:1.000000; stroke-opacity:1; 
stroke-linecap:round; stroke-linejoin:round;fill-rule:evenodd;"
d="M 130981900.000000,44669500.000000
131072787.000000,44687579.000000
131149838.000000,44739062.000000
131201321.000000,44816113.000000
131219400.000000,44907000.000000
131219400.000000,45407000.000000
131201321.000000,45497887.000000
131149838.000000,45574938.000000
131072787.000000,45626421.000000
130981900.000000,45644500.000000
130506900.000000,45644500.000000
130416013.000000,45626421.000000
130338962.000000,45574938.000000
130287479.000000,45497887.000000
130269400.000000,45407000.000000
130269400.000000,44907000.000000
130287479.000000,44816113.000000
130338962.000000,44739062.000000
130416013.000000,44687579.000000
130506900.000000,44669500.000000
Z" /> 
<path style="fill:#000000; fill-opacity:1.0; 
stroke:#000000; stroke-width:1.000000; stroke-opacity:1; 
stroke-linecap:round; stroke-linejoin:round;fill-rule:evenodd;"
d="M 130981900.000000,42844500.000000
131072787.000000,42862579.000000
131149838.000000,42914062.000000
131201321.000000,42991113.000000
131219400.000000,43082000.000000
131219400.000000,43582000.000000
131201321.000000,43672887.000000
131149838.000000,43749938.000000
131072787.000000,43801421.000000
130981900.000000,43819500.000000
130506900.000000,43819500.000000
130416013.000000,43801421.000000
130338962.000000,43749938.000000
130287479.000000,43672887.000000
130269400.000000,43582000.000000
130269400.000000,43082000.000000
130287479.000000,42991113.000000
130338962.000000,42914062.000000
130416013.000000,42862579.000000
130506900.000000,42844500.000000
Z" /> 
</g>
<g >
</g>
<g style="fill:#000000; fill-opacity:1.0; 
stroke:#000000; stroke-width:1.000000; stroke-opacity:1; 
stroke-linecap:round; stroke-linejoin:round;">
<path style="fill:#000000; fill-opacity:1.0; 
stroke:#000000; stroke-width:1.000000; stroke-opacity:1; 
stroke-linecap:round; stroke-linejoin:round;fill-rule:evenodd;"
d="M 51479799.000000,21015001.000000
51479799.000000,22214999.000000
50579801.000000,22214999.000000
50579801.000000,21015001.000000
Z" /> 
<path style="fill:#000000; fill-opacity:1.0; 
stroke:#000000; stroke-width:1.000000; stroke-opacity:1; 
stroke-linecap:round; stroke-linejoin:round;fill-rule:evenodd;"
d="M 54779799.000000,21015001.000000
54779799.000000,22214999.000000
53879801.000000,22214999.000000
53879801.000000,21015001.000000
Z" /> 
</g>
<g >
</g>
<g >
</g>
<g style="fill:#000000; fill-opacity:1.0; 
stroke:#000000; stroke-width:1.000000; stroke-opacity:1; 
stroke-linecap:round; stroke-linejoin:round;">
<path style="fill:#000000; fill-opacity:1.0; 
stroke:#000000; stroke-width:1.000000; stroke-opacity:1; 
stroke-linecap:round; stroke-linejoin:round;fill-rule:evenodd;"
d="M 114644400.000000,45033250.000000
114628510.000000,45113135.000000
114583259.000000,45180859.000000
114515535.000000,45226110.000000
114435650.000000,45242000.000000
114018150.000000,45242000.000000
113938265.000000,45226110.000000
113870541.000000,45180859.000000
113825290.000000,45113135.000000
113809400.000000,45033250.000000
113809400.000000,44170750.000000
113825290.000000,44090865.000000
113870541.000000,44023141.000000
113938265.000000,43977890.000000
114018150.000000,43962000.000000
114435650.000000,43962000.000000
114515535.000000,43977890.000000
114583259.000000,44023141.000000
114628510.000000,44090865.000000
114644400.000000,44170750.000000
Z" /> 
<path style="fill:#000000; fill-opacity:1.0; 
stroke:#000000; stroke-width:1.000000; stroke-opacity:1; 
stroke-linecap:round; stroke-linejoin:round;fill-rule:evenodd;"
d="M 113389400.000000,45033250.000000
113373510.000000,45113135.000000
113328259.000000,45180859.000000
113260535.000000,45226110.000000
113180650.000000,45242000.000000
112763150.000000,45242000.000000
112683265.000000,45226110.000000
112615541.000000,45180859.000000
112570290.000000,45113135.000000
112554400.000000,45033250.000000
112554400.000000,44170750.000000
112570290.000000,44090865.000000
112615541.000000,44023141.000000
112683265.000000,43977890.000000
112763150.000000,43962000.000000
113180650.000000,43962000.000000
113260535.000000,43977890.000000
113328259.000000,44023141.000000
113373510.000000,44090865.000000
113389400.000000,44170750.000000
Z" /> 
</g>
<g >
</g>
<g style="fill:#000000; fill-opacity:1.0; 
stroke:#000000; stroke-width:1.000000; stroke-opacity:1; 
stroke-linecap:round; stroke-linejoin:round;">
<path style="fill:#000000; fill-opacity:1.0; 
stroke:#000000; stroke-width:1.000000; stroke-opacity:1; 
stroke-linecap:round; stroke-linejoin:round;fill-rule:evenodd;"
d="M 74105399.000000,40319001.000000
74105399.000000,41518999.000000
73205401.000000,41518999.000000
73205401.000000,40319001.000000
Z" /> 
<path style="fill:#000000; fill-opacity:1.0; 
stroke:#000000; stroke-width:1.000000; stroke-opacity:1; 
stroke-linecap:round; stroke-linejoin:round;fill-rule:evenodd;"
d="M 70805399.000000,40319001.000000
70805399.000000,41518999.000000
69905401.000000,41518999.000000
69905401.000000,40319001.000000
Z" /> 
</g>
<g >
</g>
<g >
</g>
<g >
</g>
<g >
</g>
<g style="fill:#000000; fill-opacity:1.0; 
stroke:#000000; stroke-width:1.000000; stroke-opacity:1; 
stroke-linecap:round; stroke-linejoin:round;">
<path style="fill:#000000; fill-opacity:1.0; 
stroke:#000000; stroke-width:1.000000; stroke-opacity:1; 
stroke-linecap:round; stroke-linejoin:round;fill-rule:evenodd;"
d="M 117744436.000000,69890459.000000
117744436.000000,67690461.000000
118344434.000000,67690461.000000
118344434.000000,69890459.000000
Z" /> 
<path style="fill:#000000; fill-opacity:1.0; 
stroke:#000000; stroke-width:1.000000; stroke-opacity:1; 
stroke-linecap:round; stroke-linejoin:round;fill-rule:evenodd;"
d="M 119014436.000000,69890459.000000
119014436.000000,67690461.000000
119614434.000000,67690461.000000
119614434.000000,69890459.000000
Z" /> 
<path style="fill:#000000; fill-opacity:1.0; 
stroke:#000000; stroke-width:1.000000; stroke-opacity:1; 
stroke-linecap:round; stroke-linejoin:round;fill-rule:evenodd;"
d="M 120284436.000000,69890459.000000
120284436.000000,67690461.000000
120884434.000000,67690461.000000
120884434.000000,69890459.000000
Z" /> 
<path style="fill:#000000; fill-opacity:1.0; 
stroke:#000000; stroke-width:1.000000; stroke-opacity:1; 
stroke-linecap:round; stroke-linejoin:round;fill-rule:evenodd;"
d="M 121554436.000000,69890459.000000
121554436.000000,67690461.000000
122154434.000000,67690461.000000
122154434.000000,69890459.000000
Z" /> 
<path style="fill:#000000; fill-opacity:1.0; 
stroke:#000000; stroke-width:1.000000; stroke-opacity:1; 
stroke-linecap:round; stroke-linejoin:round;fill-rule:evenodd;"
d="M 121554436.000000,64690459.000000
121554436.000000,62490461.000000
122154434.000000,62490461.000000
122154434.000000,64690459.000000
Z" /> 
<path style="fill:#000000; fill-opacity:1.0; 
stroke:#000000; stroke-width:1.000000; stroke-opacity:1; 
stroke-linecap:round; stroke-linejoin:round;fill-rule:evenodd;"
d="M 120284436.000000,64690459.000000
120284436.000000,62490461.000000
120884434.000000,62490461.000000
120884434.000000,64690459.000000
Z" /> 
<path style="fill:#000000; fill-opacity:1.0; 
stroke:#000000; stroke-width:1.000000; stroke-opacity:1; 
stroke-linecap:round; stroke-linejoin:round;fill-rule:evenodd;"
d="M 119014436.000000,64690459.000000
119014436.000000,62490461.000000
119614434.000000,62490461.000000
119614434.000000,64690459.000000
Z" /> 
<path style="fill:#000000; fill-opacity:1.0; 
stroke:#000000; stroke-width:1.000000; stroke-opacity:1; 
stroke-linecap:round; stroke-linejoin:round;fill-rule:evenodd;"
d="M 117744436.000000,64690459.000000
117744436.000000,62490461.000000
118344434.000000,62490461.000000
118344434.000000,64690459.000000
Z" /> 
</g>
<g >
</g>
<g >
</g>
<g style="fill:#000000; fill-opacity:1.0; 
stroke:#000000; stroke-width:1.000000; stroke-opacity:1; 
stroke-linecap:round; stroke-linejoin:round;">
<path style="fill:#000000; fill-opacity:1.0; 
stroke:#000000; stroke-width:1.000000; stroke-opacity:1; 
stroke-linecap:round; stroke-linejoin:round;fill-rule:evenodd;"
d="M 35623399.000000,40319001.000000
35623399.000000,41518999.000000
34723401.000000,41518999.000000
34723401.000000,40319001.000000
Z" /> 
<path style="fill:#000000; fill-opacity:1.0; 
stroke:#000000; stroke-width:1.000000; stroke-opacity:1; 
stroke-linecap:round; stroke-linejoin:round;fill-rule:evenodd;"
d="M 32323399.000000,40319001.000000
32323399.000000,41518999.000000
31423401.000000,41518999.000000
31423401.000000,40319001.000000
Z" /> 
</g>
<g >
</g>
<g style="fill:#000000; fill-opacity:1.0; 
stroke:#000000; stroke-width:1.000000; stroke-opacity:1; 
stroke-linecap:round; stroke-linejoin:round;">
<path style="fill:#000000; fill-opacity:1.0; 
stroke:#000000; stroke-width:1.000000; stroke-opacity:1; 
stroke-linecap:round; stroke-linejoin:round;fill-rule:evenodd;"
d="M 16699399.000000,59369001.000000
16699399.000000,60568999.000000
15799401.000000,60568999.000000
15799401.000000,59369001.000000
Z" /> 
<path style="fill:#000000; fill-opacity:1.0; 
stroke:#000000; stroke-width:1.000000; stroke-opacity:1; 
stroke-linecap:round; stroke-linejoin:round;fill-rule:evenodd;"
d="M 13399399.000000,59369001.000000
13399399.000000,60568999.000000
12499401.000000,60568999.000000
12499401.000000,59369001.000000
Z" /> 
</g>
<g >
</g>
<g >
</g>
<g >
</g>
<g >
</g>
<g >
</g>
<g style="fill:#000000; fill-opacity:1.0; 
stroke:#000000; stroke-width:1.000000; stroke-opacity:1; 
stroke-linecap:round; stroke-linejoin:round;">
<path style="fill:#000000; fill-opacity:1.0; 
stroke:#000000; stroke-width:1.000000; stroke-opacity:1; 
stroke-linecap:round; stroke-linejoin:round;fill-rule:evenodd;"
d="M 127171900.000000,42924500.000000
127262787.000000,42942579.000000
127339838.000000,42994062.000000
127391321.000000,43071113.000000
127409400.000000,43162000.000000
127409400.000000,43662000.000000
127391321.000000,43752887.000000
127339838.000000,43829938.000000
127262787.000000,43881421.000000
127171900.000000,43899500.000000
126696900.000000,43899500.000000
126606013.000000,43881421.000000
126528962.000000,43829938.000000
126477479.000000,43752887.000000
126459400.000000,43662000.000000
126459400.000000,43162000.000000
126477479.000000,43071113.000000
126528962.000000,42994062.000000
126606013.000000,42942579.000000
126696900.000000,42924500.000000
Z" /> 
<path style="fill:#000000; fill-opacity:1.0; 
stroke:#000000; stroke-width:1.000000; stroke-opacity:1; 
stroke-linecap:round; stroke-linejoin:round;fill-rule:evenodd;"
d="M 127171900.000000,44749500.000000
127262787.000000,44767579.000000
127339838.000000,44819062.000000
127391321.000000,44896113.000000
127409400.000000,44987000.000000
127409400.000000,45487000.000000
127391321.000000,45577887.000000
127339838.000000,45654938.000000
127262787.000000,45706421.000000
127171900.000000,45724500.000000
126696900.000000,45724500.000000
126606013.000000,45706421.000000
126528962.000000,45654938.000000
126477479.000000,45577887.000000
126459400.000000,45487000.000000
126459400.000000,44987000.000000
126477479.000000,44896113.000000
126528962.000000,44819062.000000
126606013.000000,44767579.000000
126696900.000000,44749500.000000
Z" /> 
</g>
<g >
</g>
<g >
</g>
<g >
</g>
<g style="fill:#000000; fill-opacity:1.0; 
stroke:#000000; stroke-width:1.000000; stroke-opacity:1; 
stroke-linecap:round; stroke-linejoin:round;">
<path style="fill:#000000; fill-opacity:1.0; 
stroke:#000000; stroke-width:1.000000; stroke-opacity:1; 
stroke-linecap:round; stroke-linejoin:round;fill-rule:evenodd;"
d="M 115844399.000000,48197001.000000
115844399.000000,49896999.000000
114544401.000000,49896999.000000
114544401.000000,48197001.000000
Z" /> 
<path style="fill:#000000; fill-opacity:1.0; 
stroke:#000000; stroke-width:1.000000; stroke-opacity:1; 
stroke-linecap:round; stroke-linejoin:round;fill-rule:evenodd;"
d="M 112344399.000000,48197001.000000
112344399.000000,49896999.000000
111044401.000000,49896999.000000
111044401.000000,48197001.000000
Z" /> 
</g>
<g >
</g>
<g style="fill:#000000; fill-opacity:1.0; 
stroke:#000000; stroke-width:1.000000; stroke-opacity:1; 
stroke-linecap:round; stroke-linejoin:round;">
<path style="fill:#000000; fill-opacity:1.0; 
stroke:#000000; stroke-width:1.000000; stroke-opacity:1; 
stroke-linecap:round; stroke-linejoin:round;fill-rule:evenodd;"
d="M 118652975.000000,21872000.000000
118562088.000000,21853921.000000
118485037.000000,21802438.000000
118433554.000000,21725387.000000
118415475.000000,21634500.000000
118415475.000000,21134500.000000
118433554.000000,21043613.000000
118485037.000000,20966562.000000
118562088.000000,20915079.000000
118652975.000000,20897000.000000
119127975.000000,20897000.000000
119218862.000000,20915079.000000
119295913.000000,20966562.000000
119347396.000000,21043613.000000
119365475.000000,21134500.000000
119365475.000000,21634500.000000
119347396.000000,21725387.000000
119295913.000000,21802438.000000
119218862.000000,21853921.000000
119127975.000000,21872000.000000
Z" /> 
<path style="fill:#000000; fill-opacity:1.0; 
stroke:#000000; stroke-width:1.000000; stroke-opacity:1; 
stroke-linecap:round; stroke-linejoin:round;fill-rule:evenodd;"
d="M 118652975.000000,20047000.000000
118562088.000000,20028921.000000
118485037.000000,19977438.000000
118433554.000000,19900387.000000
118415475.000000,19809500.000000
118415475.000000,19309500.000000
118433554.000000,19218613.000000
118485037.000000,19141562.000000
118562088.000000,19090079.000000
118652975.000000,19072000.000000
119127975.000000,19072000.000000
119218862.000000,19090079.000000
119295913.000000,19141562.000000
119347396.000000,19218613.000000
119365475.000000,19309500.000000
119365475.000000,19809500.000000
119347396.000000,19900387.000000
119295913.000000,19977438.000000
119218862.000000,20028921.000000
119127975.000000,20047000.000000
Z" /> 
</g>
<g >
</g>
<g >
</g>
<g >
</g>
<g >
</g>
<g >
</g>
<g style="fill:#000000; fill-opacity:1.0; 
stroke:#000000; stroke-width:1.000000; stroke-opacity:1; 
stroke-linecap:round; stroke-linejoin:round;">
<path style="fill:#000000; fill-opacity:1.0; 
stroke:#000000; stroke-width:1.000000; stroke-opacity:1; 
stroke-linecap:round; stroke-linejoin:round;fill-rule:evenodd;"
d="M 122726900.000000,42924500.000000
122817787.000000,42942579.000000
122894838.000000,42994062.000000
122946321.000000,43071113.000000
122964400.000000,43162000.000000
122964400.000000,43662000.000000
122946321.000000,43752887.000000
122894838.000000,43829938.000000
122817787.000000,43881421.000000
122726900.000000,43899500.000000
122251900.000000,43899500.000000
122161013.000000,43881421.000000
122083962.000000,43829938.000000
122032479.000000,43752887.000000
122014400.000000,43662000.000000
122014400.000000,43162000.000000
122032479.000000,43071113.000000
122083962.000000,42994062.000000
122161013.000000,42942579.000000
122251900.000000,42924500.000000
Z" /> 
<path style="fill:#000000; fill-opacity:1.0; 
stroke:#000000; stroke-width:1.000000; stroke-opacity:1; 
stroke-linecap:round; stroke-linejoin:round;fill-rule:evenodd;"
d="M 122726900.000000,44749500.000000
122817787.000000,44767579.000000
122894838.000000,44819062.000000
122946321.000000,44896113.000000
122964400.000000,44987000.000000
122964400.000000,45487000.000000
122946321.000000,45577887.000000
122894838.000000,45654938.000000
122817787.000000,45706421.000000
122726900.000000,45724500.000000
122251900.000000,45724500.000000
122161013.000000,45706421.000000
122083962.000000,45654938.000000
122032479.000000,45577887.000000
122014400.000000,45487000.000000
122014400.000000,44987000.000000
122032479.000000,44896113.000000
122083962.000000,44819062.000000
122161013.000000,44767579.000000
122251900.000000,44749500.000000
Z" /> 
</g>
<g >
</g>
<g style="fill:#000000; fill-opacity:1.0; 
stroke:#000000; stroke-width:1.000000; stroke-opacity:1; 
stroke-linecap:round; stroke-linejoin:round;">
<path style="fill:#000000; fill-opacity:1.0; 
stroke:#000000; stroke-width:1.000000; stroke-opacity:1; 
stroke-linecap:round; stroke-linejoin:round;fill-rule:evenodd;"
d="M 112199400.000000,54524500.000000
112217479.000000,54433613.000000
112268962.000000,54356562.000000
112346013.000000,54305079.000000
112436900.000000,54287000.000000
112936900.000000,54287000.000000
113027787.000000,54305079.000000
113104838.000000,54356562.000000
113156321.000000,54433613.000000
113174400.000000,54524500.000000
113174400.000000,54999500.000000
113156321.000000,55090387.000000
113104838.000000,55167438.000000
113027787.000000,55218921.000000
112936900.000000,55237000.000000
112436900.000000,55237000.000000
112346013.000000,55218921.000000
112268962.000000,55167438.000000
112217479.000000,55090387.000000
112199400.000000,54999500.000000
Z" /> 
<path style="fill:#000000; fill-opacity:1.0; 
stroke:#000000; stroke-width:1.000000; stroke-opacity:1; 
stroke-linecap:round; stroke-linejoin:round;fill-rule:evenodd;"
d="M 114024400.000000,54524500.000000
114042479.000000,54433613.000000
114093962.000000,54356562.000000
114171013.000000,54305079.000000
114261900.000000,54287000.000000
114761900.000000,54287000.000000
114852787.000000,54305079.000000
114929838.000000,54356562.000000
114981321.000000,54433613.000000
114999400.000000,54524500.000000
114999400.000000,54999500.000000
114981321.000000,55090387.000000
114929838.000000,55167438.000000
114852787.000000,55218921.000000
114761900.000000,55237000.000000
114261900.000000,55237000.000000
114171013.000000,55218921.000000
114093962.000000,55167438.000000
114042479.000000,55090387.000000
114024400.000000,54999500.000000
Z" /> 
</g>
<g >
</g>
<g style="fill:#000000; fill-opacity:1.0; 
stroke:#000000; stroke-width:1.000000; stroke-opacity:1; 
stroke-linecap:round; stroke-linejoin:round;">
<path style="fill:#000000; fill-opacity:1.0; 
stroke:#000000; stroke-width:1.000000; stroke-opacity:1; 
stroke-linecap:round; stroke-linejoin:round;fill-rule:evenodd;"
d="M 16699399.000000,21015001.000000
16699399.000000,22214999.000000
15799401.000000,22214999.000000
15799401.000000,21015001.000000
Z" /> 
<path style="fill:#000000; fill-opacity:1.0; 
stroke:#000000; stroke-width:1.000000; stroke-opacity:1; 
stroke-linecap:round; stroke-linejoin:round;fill-rule:evenodd;"
d="M 13399399.000000,21015001.000000
13399399.000000,22214999.000000
12499401.000000,22214999.000000
12499401.000000,21015001.000000
Z" /> 
</g>
<g >
</g>
<g style="fill:#000000; fill-opacity:1.0; 
stroke:#000000; stroke-width:1.000000; stroke-opacity:1; 
stroke-linecap:round; stroke-linejoin:round;">
<path style="fill:#000000; fill-opacity:1.0; 
stroke:#000000; stroke-width:1.000000; stroke-opacity:1; 
stroke-linecap:round; stroke-linejoin:round;fill-rule:evenodd;"
d="M 118652975.000000,34294500.000000
118562088.000000,34276421.000000
118485037.000000,34224938.000000
118433554.000000,34147887.000000
118415475.000000,34057000.000000
118415475.000000,33557000.000000
118433554.000000,33466113.000000
118485037.000000,33389062.000000
118562088.000000,33337579.000000
118652975.000000,33319500.000000
119127975.000000,33319500.000000
119218862.000000,33337579.000000
119295913.000000,33389062.000000
119347396.000000,33466113.000000
119365475.000000,33557000.000000
119365475.000000,34057000.000000
119347396.000000,34147887.000000
119295913.000000,34224938.000000
119218862.000000,34276421.000000
119127975.000000,34294500.000000
Z" /> 
<path style="fill:#000000; fill-opacity:1.0; 
stroke:#000000; stroke-width:1.000000; stroke-opacity:1; 
stroke-linecap:round; stroke-linejoin:round;fill-rule:evenodd;"
d="M 118652975.000000,32469500.000000
118562088.000000,32451421.000000
118485037.000000,32399938.000000
118433554.000000,32322887.000000
118415475.000000,32232000.000000
118415475.000000,31732000.000000
118433554.000000,31641113.000000
118485037.000000,31564062.000000
118562088.000000,31512579.000000
118652975.000000,31494500.000000
119127975.000000,31494500.000000
119218862.000000,31512579.000000
119295913.000000,31564062.000000
119347396.000000,31641113.000000
119365475.000000,31732000.000000
119365475.000000,32232000.000000
119347396.000000,32322887.000000
119295913.000000,32399938.000000
119218862.000000,32451421.000000
119127975.000000,32469500.000000
Z" /> 
</g>
<g >
</g>
<g >
</g>
<g style="fill:#000000; fill-opacity:1.0; 
stroke:#000000; stroke-width:1.000000; stroke-opacity:1; 
stroke-linecap:round; stroke-linejoin:round;">
<path style="fill:#000000; fill-opacity:1.0; 
stroke:#000000; stroke-width:1.000000; stroke-opacity:1; 
stroke-linecap:round; stroke-linejoin:round;fill-rule:evenodd;"
d="M 54291399.000000,78419001.000000
54291399.000000,79618999.000000
53391401.000000,79618999.000000
53391401.000000,78419001.000000
Z" /> 
<path style="fill:#000000; fill-opacity:1.0; 
stroke:#000000; stroke-width:1.000000; stroke-opacity:1; 
stroke-linecap:round; stroke-linejoin:round;fill-rule:evenodd;"
d="M 50991399.000000,78419001.000000
50991399.000000,79618999.000000
50091401.000000,79618999.000000
50091401.000000,78419001.000000
Z" /> 
</g>
<g >
</g>
<g >
</g>
<g >
</g>
<g >
</g>
<g >
</g>
<g >
</g>
<g style="fill:#000000; fill-opacity:1.0; 
stroke:#000000; stroke-width:1.000000; stroke-opacity:1; 
stroke-linecap:round; stroke-linejoin:round;">
<path style="fill:#000000; fill-opacity:1.0; 
stroke:#000000; stroke-width:1.000000; stroke-opacity:1; 
stroke-linecap:round; stroke-linejoin:round;fill-rule:evenodd;"
d="M 54545399.000000,59369001.000000
54545399.000000,60568999.000000
53645401.000000,60568999.000000
53645401.000000,59369001.000000
Z" /> 
<path style="fill:#000000; fill-opacity:1.0; 
stroke:#000000; stroke-width:1.000000; stroke-opacity:1; 
stroke-linecap:round; stroke-linejoin:round;fill-rule:evenodd;"
d="M 51245399.000000,59369001.000000
51245399.000000,60568999.000000
50345401.000000,60568999.000000
50345401.000000,59369001.000000
Z" /> 
</g>
<g >
</g>
<g style="fill:#000000; fill-opacity:1.0; 
stroke:#000000; stroke-width:1.000000; stroke-opacity:1; 
stroke-linecap:round; stroke-linejoin:round;">
<path style="fill:#000000; fill-opacity:1.0; 
stroke:#000000; stroke-width:1.000000; stroke-opacity:1; 
stroke-linecap:round; stroke-linejoin:round;fill-rule:evenodd;"
d="M 140369399.000000,88957999.000000
139369401.000000,88957999.000000
139369401.000000,88558001.000000
140369399.000000,88558001.000000
Z" /> 
<path style="fill:#000000; fill-opacity:1.0; 
stroke:#000000; stroke-width:1.000000; stroke-opacity:1; 
stroke-linecap:round; stroke-linejoin:round;fill-rule:evenodd;"
d="M 140369399.000000,87957999.000000
139369401.000000,87957999.000000
139369401.000000,87558001.000000
140369399.000000,87558001.000000
Z" /> 
<path style="fill:#000000; fill-opacity:1.0; 
stroke:#000000; stroke-width:1.000000; stroke-opacity:1; 
stroke-linecap:round; stroke-linejoin:round;fill-rule:evenodd;"
d="M 140369399.000000,86957999.000000
139369401.000000,86957999.000000
139369401.000000,86558001.000000
140369399.000000,86558001.000000
Z" /> 
<path style="fill:#000000; fill-opacity:1.0; 
stroke:#000000; stroke-width:1.000000; stroke-opacity:1; 
stroke-linecap:round; stroke-linejoin:round;fill-rule:evenodd;"
d="M 140369399.000000,85957999.000000
139369401.000000,85957999.000000
139369401.000000,85558001.000000
140369399.000000,85558001.000000
Z" /> 
<path style="fill:#000000; fill-opacity:1.0; 
stroke:#000000; stroke-width:1.000000; stroke-opacity:1; 
stroke-linecap:round; stroke-linejoin:round;fill-rule:evenodd;"
d="M 140369399.000000,84957999.000000
139369401.000000,84957999.000000
139369401.000000,84558001.000000
140369399.000000,84558001.000000
Z" /> 
<path style="fill:#000000; fill-opacity:1.0; 
stroke:#000000; stroke-width:1.000000; stroke-opacity:1; 
stroke-linecap:round; stroke-linejoin:round;fill-rule:evenodd;"
d="M 140369399.000000,83957999.000000
139369401.000000,83957999.000000
139369401.000000,83558001.000000
140369399.000000,83558001.000000
Z" /> 
<path style="fill:#000000; fill-opacity:1.0; 
stroke:#000000; stroke-width:1.000000; stroke-opacity:1; 
stroke-linecap:round; stroke-linejoin:round;fill-rule:evenodd;"
d="M 143219399.000000,81957999.000000
141919401.000000,81957999.000000
141919401.000000,79958001.000000
143219399.000000,79958001.000000
Z" /> 
<path style="fill:#000000; fill-opacity:1.0; 
stroke:#000000; stroke-width:1.000000; stroke-opacity:1; 
stroke-linecap:round; stroke-linejoin:round;fill-rule:evenodd;"
d="M 143219399.000000,92557999.000000
141919401.000000,92557999.000000
141919401.000000,90558001.000000
143219399.000000,90558001.000000
Z" /> 
</g>
<g >
</g>
<g style="fill:#000000; fill-opacity:1.0; 
stroke:#000000; stroke-width:1.000000; stroke-opacity:1; 
stroke-linecap:round; stroke-linejoin:round;">
<path style="fill:#000000; fill-opacity:1.0; 
stroke:#000000; stroke-width:1.000000; stroke-opacity:1; 
stroke-linecap:round; stroke-linejoin:round;fill-rule:evenodd;"
d="M 35621399.000000,59369001.000000
35621399.000000,60568999.000000
34721401.000000,60568999.000000
34721401.000000,59369001.000000
Z" /> 
<path style="fill:#000000; fill-opacity:1.0; 
stroke:#000000; stroke-width:1.000000; stroke-opacity:1; 
stroke-linecap:round; stroke-linejoin:round;fill-rule:evenodd;"
d="M 32321399.000000,59369001.000000
32321399.000000,60568999.000000
31421401.000000,60568999.000000
31421401.000000,59369001.000000
Z" /> 
</g>
<g >
</g>
<g >
</g>
<g >
</g>
<g >
</g>
<g >
</g>
<g >
</g>
<g style="fill:#000000; fill-opacity:1.0; 
stroke:#000000; stroke-width:1.000000; stroke-opacity:1; 
stroke-linecap:round; stroke-linejoin:round;">
<path style="fill:#000000; fill-opacity:1.0; 
stroke:#000000; stroke-width:1.000000; stroke-opacity:1; 
stroke-linecap:round; stroke-linejoin:round;fill-rule:evenodd;"
d="M 16699399.000000,78419001.000000
16699399.000000,79618999.000000
15799401.000000,79618999.000000
15799401.000000,78419001.000000
Z" /> 
<path style="fill:#000000; fill-opacity:1.0; 
stroke:#000000; stroke-width:1.000000; stroke-opacity:1; 
stroke-linecap:round; stroke-linejoin:round;fill-rule:evenodd;"
d="M 13399399.000000,78419001.000000
13399399.000000,79618999.000000
12499401.000000,79618999.000000
12499401.000000,78419001.000000
Z" /> 
</g>
<g >
</g>
<g style="fill:#000000; fill-opacity:1.0; 
stroke:#000000; stroke-width:1.000000; stroke-opacity:1; 
stroke-linecap:round; stroke-linejoin:round;">
<path style="fill:#000000; fill-opacity:1.0; 
stroke:#000000; stroke-width:1.000000; stroke-opacity:1; 
stroke-linecap:round; stroke-linejoin:round;fill-rule:evenodd;"
d="M 73849399.000000,78419001.000000
73849399.000000,79618999.000000
72949401.000000,79618999.000000
72949401.000000,78419001.000000
Z" /> 
<path style="fill:#000000; fill-opacity:1.0; 
stroke:#000000; stroke-width:1.000000; stroke-opacity:1; 
stroke-linecap:round; stroke-linejoin:round;fill-rule:evenodd;"
d="M 70549399.000000,78419001.000000
70549399.000000,79618999.000000
69649401.000000,79618999.000000
69649401.000000,78419001.000000
Z" /> 
</g>
<g >
</g>
<g >
</g>
<g style="fill:#000000; fill-opacity:1.0; 
stroke:#000000; stroke-width:1.000000; stroke-opacity:1; 
stroke-linecap:round; stroke-linejoin:round;">
<path style="fill:#000000; fill-opacity:1.0; 
stroke:#000000; stroke-width:1.000000; stroke-opacity:1; 
stroke-linecap:round; stroke-linejoin:round;fill-rule:evenodd;"
d="M 35749399.000000,21015001.000000
35749399.000000,22214999.000000
34849401.000000,22214999.000000
34849401.000000,21015001.000000
Z" /> 
<path style="fill:#000000; fill-opacity:1.0; 
stroke:#000000; stroke-width:1.000000; stroke-opacity:1; 
stroke-linecap:round; stroke-linejoin:round;fill-rule:evenodd;"
d="M 32449399.000000,21015001.000000
32449399.000000,22214999.000000
31549401.000000,22214999.000000
31549401.000000,21015001.000000
Z" /> 
</g>
<g >
</g>
<g style="fill:#000000; fill-opacity:1.0; 
stroke:#000000; stroke-width:1.000000; stroke-opacity:1; 
stroke-linecap:round; stroke-linejoin:round;">
<path style="fill:#000000; fill-opacity:1.0; 
stroke:#000000; stroke-width:1.000000; stroke-opacity:1; 
stroke-linecap:round; stroke-linejoin:round;fill-rule:evenodd;"
d="M 16573399.000000,40319001.000000
16573399.000000,41518999.000000
15673401.000000,41518999.000000
15673401.000000,40319001.000000
Z" /> 
<path style="fill:#000000; fill-opacity:1.0; 
stroke:#000000; stroke-width:1.000000; stroke-opacity:1; 
stroke-linecap:round; stroke-linejoin:round;fill-rule:evenodd;"
d="M 13273399.000000,40319001.000000
13273399.000000,41518999.000000
12373401.000000,41518999.000000
12373401.000000,40319001.000000
Z" /> 
</g>
<g >
</g>
<g style="fill:#000000; fill-opacity:1.0; 
stroke:#000000; stroke-width:1.000000; stroke-opacity:1; 
stroke-linecap:round; stroke-linejoin:round;">
<path style="fill:#000000; fill-opacity:1.0; 
stroke:#000000; stroke-width:1.000000; stroke-opacity:1; 
stroke-linecap:round; stroke-linejoin:round;fill-rule:evenodd;"
d="M 118652975.000000,16792000.000000
118562088.000000,16773921.000000
118485037.000000,16722438.000000
118433554.000000,16645387.000000
118415475.000000,16554500.000000
118415475.000000,16054500.000000
118433554.000000,15963613.000000
118485037.000000,15886562.000000
118562088.000000,15835079.000000
118652975.000000,15817000.000000
119127975.000000,15817000.000000
119218862.000000,15835079.000000
119295913.000000,15886562.000000
119347396.000000,15963613.000000
119365475.000000,16054500.000000
119365475.000000,16554500.000000
119347396.000000,16645387.000000
119295913.000000,16722438.000000
119218862.000000,16773921.000000
119127975.000000,16792000.000000
Z" /> 
<path style="fill:#000000; fill-opacity:1.0; 
stroke:#000000; stroke-width:1.000000; stroke-opacity:1; 
stroke-linecap:round; stroke-linejoin:round;fill-rule:evenodd;"
d="M 118652975.000000,14967000.000000
118562088.000000,14948921.000000
118485037.000000,14897438.000000
118433554.000000,14820387.000000
118415475.000000,14729500.000000
118415475.000000,14229500.000000
118433554.000000,14138613.000000
118485037.000000,14061562.000000
118562088.000000,14010079.000000
118652975.000000,13992000.000000
119127975.000000,13992000.000000
119218862.000000,14010079.000000
119295913.000000,14061562.000000
119347396.000000,14138613.000000
119365475.000000,14229500.000000
119365475.000000,14729500.000000
119347396.000000,14820387.000000
119295913.000000,14897438.000000
119218862.000000,14948921.000000
119127975.000000,14967000.000000
Z" /> 
</g>
<g >
</g>
<g >
</g>
<g style="fill:#000000; fill-opacity:1.0; 
stroke:#000000; stroke-width:1.000000; stroke-opacity:1; 
stroke-linecap:round; stroke-linejoin:round;">
<path style="fill:#000000; fill-opacity:1.0; 
stroke:#000000; stroke-width:1.000000; stroke-opacity:1; 
stroke-linecap:round; stroke-linejoin:round;fill-rule:evenodd;"
d="M 35367399.000000,78419001.000000
35367399.000000,79618999.000000
34467401.000000,79618999.000000
34467401.000000,78419001.000000
Z" /> 
<path style="fill:#000000; fill-opacity:1.0; 
stroke:#000000; stroke-width:1.000000; stroke-opacity:1; 
stroke-linecap:round; stroke-linejoin:round;fill-rule:evenodd;"
d="M 32067399.000000,78419001.000000
32067399.000000,79618999.000000
31167401.000000,79618999.000000
31167401.000000,78419001.000000
Z" /> 
</g>
<g >
</g>
<g style="fill:#000000; fill-opacity:1.0; 
stroke:#000000; stroke-width:1.000000; stroke-opacity:1; 
stroke-linecap:round; stroke-linejoin:round;">
<path style="fill:#000000; fill-opacity:1.0; 
stroke:#000000; stroke-width:1.000000; stroke-opacity:1; 
stroke-linecap:round; stroke-linejoin:round;fill-rule:evenodd;"
d="M 73849399.000000,21015001.000000
73849399.000000,22214999.000000
72949401.000000,22214999.000000
72949401.000000,21015001.000000
Z" /> 
<path style="fill:#000000; fill-opacity:1.0; 
stroke:#000000; stroke-width:1.000000; stroke-opacity:1; 
stroke-linecap:round; stroke-linejoin:round;fill-rule:evenodd;"
d="M 70549399.000000,21015001.000000
70549399.000000,22214999.000000
69649401.000000,22214999.000000
69649401.000000,21015001.000000
Z" /> 
</g>
<g >
</g>
<g >
</g>
<g >
</g>
<g >
</g>
<g >
</g>
</g>
<g style="fill:#000000; fill-opacity:1.0; 
stroke:#000000; stroke-width:1.000000; stroke-opacity:1; 
stroke-linecap:round; stroke-linejoin:round;">
</g>
<g style="fill:#D0D2CD; fill-opacity:1.0; 
stroke:#D0D2CD; stroke-width:1.000000; stroke-opacity:1; 
stroke-linecap:round; stroke-linejoin:round;">
</g>
<g style="fill:#D0D2CD; fill-opacity:1.0; 
stroke:#D0D2CD; stroke-width:100000.000000; stroke-opacity:1; 
stroke-linecap:round; stroke-linejoin:round;">
</g>
<g style="fill:#D0D2CD; fill-opacity:0.0; 
stroke:#D0D2CD; stroke-width:100000.000000; stroke-opacity:1; 
stroke-linecap:round; stroke-linejoin:round;">
<path d="M50000 2692000
L154874400 2692000
" />
<path d="M154874400 2692000
L154874400 97307000
" />
<path d="M154874400 97307000
L50000 97307000
" />
<path d="M50000 97307000
L50000 2692000
" />
<circle cx="119949435.000000" cy="66190460.000000" r="1666666.000000" /> 
<path d="M117449435 66190460
L122449435 66190460
" />
<path d="M119949435 63690460
L119949435 68690460
" />
<g >
</g>
<g >
</g>
<g >
</g>
<g >
</g>
<g >
</g>
<g >
</g>
<g >
</g>
<g >
</g>
<g >
</g>
<g >
</g>
<g >
</g>
<g >
</g>
<g >
</g>
<g >
</g>
<g >
</g>
<g >
</g>
<g >
</g>
<g >
</g>
<g >
</g>
<g >
</g>
<g >
</g>
<g >
</g>
<g >
</g>
<g >
</g>
<g >
</g>
<g >
</g>
<g >
</g>
<g >
</g>
<g >
</g>
<g >
</g>
<g >
</g>
<g >
</g>
<g >
</g>
<g >
</g>
<g >
</g>
<g >
</g>
<g >
</g>
<g >
</g>
<g >
</g>
<g >
</g>
<g >
</g>
<g >
</g>
<g >
</g>
<g >
</g>
<g >
</g>
<g >
</g>
<g >
</g>
<g >
</g>
<g >
</g>
<g >
</g>
<g >
</g>
<g >
</g>
<g >
</g>
<g >
</g>
<g >
</g>
<g >
</g>
<g >
</g>
<g >
</g>
<g >
</g>
<g >
</g>
<g >
</g>
<g >
</g>
<g >
</g>
<g >
</g>
<g >
</g>
<g >
</g>
<g >
</g>
<g >
</g>
<g >
</g>
</g> 
</svg>
