%TF.GenerationSoftware,KiCad,Pcbnew,(6.0.1)*%
%TF.CreationDate,2022-11-17T23:20:32+08:00*%
%TF.ProjectId,ESP32_Adapter,45535033-325f-4416-9461-707465722e6b,rev?*%
%TF.SameCoordinates,Original*%
%TF.FileFunction,Copper,L2,Bot*%
%TF.FilePolarity,Positive*%
%FSLAX46Y46*%
G04 Gerber Fmt 4.6, Leading zero omitted, Abs format (unit mm)*
G04 Created by KiCad (PCBNEW (6.0.1)) date 2022-11-17 23:20:32*
%MOMM*%
%LPD*%
G01*
G04 APERTURE LIST*
G04 Aperture macros list*
%AMFreePoly0*
4,1,19,-0.850000,0.510000,-0.510000,0.850000,0.255000,0.850000,0.408997,0.829726,0.552500,0.770285,0.675729,0.675729,0.770285,0.552500,0.829726,0.408997,0.850000,0.255000,0.850000,-0.510000,0.510000,-0.850000,-0.255000,-0.850000,-0.408997,-0.829726,-0.552500,-0.770285,-0.675729,-0.675729,-0.770285,-0.552500,-0.829726,-0.408997,-0.850000,-0.255000,-0.850000,0.510000,-0.850000,0.510000,
$1*%
G04 Aperture macros list end*
%TA.AperFunction,ComponentPad*%
%ADD10FreePoly0,180.000000*%
%TD*%
%TA.AperFunction,ComponentPad*%
%ADD11C,1.700000*%
%TD*%
%TA.AperFunction,ViaPad*%
%ADD12C,1.500000*%
%TD*%
%TA.AperFunction,Conductor*%
%ADD13C,0.300000*%
%TD*%
%TA.AperFunction,Conductor*%
%ADD14C,0.500000*%
%TD*%
G04 APERTURE END LIST*
D10*
%TO.P,S2m1,1,EN*%
%TO.N,unconnected-(S2m1-Pad1)*%
X115824000Y-90002000D03*
D11*
%TO.P,S2m1,2,GPIO3*%
%TO.N,unconnected-(S2m1-Pad2)*%
X115824000Y-87462000D03*
%TO.P,S2m1,3,GPIO5*%
%TO.N,unconnected-(S2m1-Pad3)*%
X115824000Y-84922000D03*
%TO.P,S2m1,4,GPIO7*%
%TO.N,unconnected-(S2m1-Pad4)*%
X115824000Y-82382000D03*
%TO.P,S2m1,5,GPIO9*%
%TO.N,unconnected-(S2m1-Pad5)*%
X115824000Y-79842000D03*
%TO.P,S2m1,6,GPIO11*%
%TO.N,BTN_NEXT*%
X115824000Y-77302000D03*
%TO.P,S2m1,7,GPIO12*%
%TO.N,MT_SDA*%
X115824000Y-74762000D03*
%TO.P,S2m1,8,3V3*%
%TO.N,+3V3*%
X115824000Y-72222000D03*
%TO.P,S2m1,9,VBUS*%
%TO.N,+5V*%
X92964000Y-72222000D03*
%TO.P,S2m1,10,GND*%
%TO.N,GND*%
X92964000Y-74762000D03*
%TO.P,S2m1,11,XTAL_32K_N*%
%TO.N,unconnected-(S2m1-Pad11)*%
X92964000Y-77302000D03*
%TO.P,S2m1,12,DAC_2*%
%TO.N,unconnected-(S2m1-Pad12)*%
X92964000Y-79842000D03*
%TO.P,S2m1,13,GPIO33*%
%TO.N,WL*%
X92964000Y-82382000D03*
%TO.P,S2m1,14,GPIO35*%
%TO.N,VL*%
X92964000Y-84922000D03*
%TO.P,S2m1,15,GPIO37*%
%TO.N,UL*%
X92964000Y-87462000D03*
%TO.P,S2m1,16,MTCK*%
%TO.N,SERIAL_TX*%
X92964000Y-90002000D03*
%TO.P,S2m1,17,GPIO1*%
%TO.N,SERIAL_RX*%
X113284000Y-90002000D03*
%TO.P,S2m1,18,GPIO2*%
%TO.N,unconnected-(S2m1-Pad18)*%
X113284000Y-87462000D03*
%TO.P,S2m1,19,GPIO4*%
%TO.N,MT_CSN*%
X113284000Y-84922000D03*
%TO.P,S2m1,20,GPIO6*%
%TO.N,unconnected-(S2m1-Pad20)*%
X113284000Y-82382000D03*
%TO.P,S2m1,21,GPIO8*%
%TO.N,unconnected-(S2m1-Pad21)*%
X113284000Y-79842000D03*
%TO.P,S2m1,22,GPIO10*%
%TO.N,unconnected-(S2m1-Pad22)*%
X113284000Y-77302000D03*
%TO.P,S2m1,23,GPIO13*%
%TO.N,MT_SCL*%
X113284000Y-74762000D03*
%TO.P,S2m1,24,GPIO14*%
%TO.N,unconnected-(S2m1-Pad24)*%
X113284000Y-72222000D03*
%TO.P,S2m1,25,XTAL_32K_P*%
%TO.N,unconnected-(S2m1-Pad25)*%
X95504000Y-72222000D03*
%TO.P,S2m1,26,GND*%
%TO.N,GND*%
X95504000Y-74762000D03*
%TO.P,S2m1,27,DAC_1*%
%TO.N,unconnected-(S2m1-Pad27)*%
X95504000Y-77302000D03*
%TO.P,S2m1,28,GPIO21*%
%TO.N,unconnected-(S2m1-Pad28)*%
X95504000Y-79842000D03*
%TO.P,S2m1,29,GPIO34*%
%TO.N,WH*%
X95504000Y-82382000D03*
%TO.P,S2m1,30,GPIO36*%
%TO.N,VH*%
X95504000Y-84922000D03*
%TO.P,S2m1,31,GPIO38*%
%TO.N,UH*%
X95504000Y-87462000D03*
%TO.P,S2m1,32,MTDO*%
%TO.N,unconnected-(S2m1-Pad32)*%
X95504000Y-90002000D03*
%TD*%
D12*
%TO.N,MT_CSN*%
X93218000Y-111506000D03*
%TO.N,MT_SCL*%
X107188000Y-85090000D03*
X98298000Y-103124000D03*
%TO.N,SERIAL_RX*%
X112776000Y-100584000D03*
X108712000Y-106426000D03*
%TO.N,MT_SDA*%
X106172000Y-107950000D03*
%TO.N,BTN_NEXT*%
X110236000Y-108204000D03*
%TO.N,GND*%
X108966000Y-97536000D03*
%TO.N,WH*%
X93726000Y-92964000D03*
%TO.N,VH*%
X97282000Y-91694000D03*
%TO.N,UH*%
X99314000Y-90678000D03*
%TO.N,GND*%
X106426000Y-74422000D03*
%TD*%
D13*
%TO.N,MT_CSN*%
X116332000Y-93472000D02*
X114483511Y-91623511D01*
X114300000Y-113792000D02*
X116332000Y-111760000D01*
X116332000Y-111760000D02*
X116332000Y-93472000D01*
X114483511Y-91623511D02*
X114483511Y-86121511D01*
X93980000Y-113792000D02*
X114300000Y-113792000D01*
X93218000Y-113030000D02*
X93980000Y-113792000D01*
X114483511Y-86121511D02*
X113284000Y-84922000D01*
X93218000Y-111506000D02*
X93218000Y-113030000D01*
%TO.N,BTN_NEXT*%
X110236000Y-105918000D02*
X110236000Y-108204000D01*
X114554000Y-101600000D02*
X110236000Y-105918000D01*
X114554000Y-99060000D02*
X114554000Y-101600000D01*
X111506000Y-96012000D02*
X114554000Y-99060000D01*
X111506000Y-79248000D02*
X111506000Y-96012000D01*
X112182000Y-78572000D02*
X111506000Y-79248000D01*
X114554000Y-78572000D02*
X112182000Y-78572000D01*
X115824000Y-77302000D02*
X114554000Y-78572000D01*
%TO.N,MT_SDA*%
X106172000Y-106934000D02*
X106172000Y-107950000D01*
X110490000Y-78399634D02*
X110490000Y-102616000D01*
X114483511Y-76102489D02*
X112787145Y-76102489D01*
X110490000Y-102616000D02*
X106172000Y-106934000D01*
X115824000Y-74762000D02*
X114483511Y-76102489D01*
X112787145Y-76102489D02*
X110490000Y-78399634D01*
%TO.N,MT_SCL*%
X107188000Y-99568000D02*
X107188000Y-85090000D01*
X104648000Y-102108000D02*
X107188000Y-99568000D01*
X99314000Y-102108000D02*
X104648000Y-102108000D01*
X98298000Y-103124000D02*
X99314000Y-102108000D01*
%TO.N,SERIAL_RX*%
X112776000Y-101854000D02*
X112776000Y-100584000D01*
X112776000Y-102108000D02*
X112776000Y-101854000D01*
X109982000Y-104902000D02*
X112776000Y-102108000D01*
X108712000Y-106426000D02*
X108712000Y-106172000D01*
X108712000Y-106172000D02*
X109982000Y-104902000D01*
D14*
%TO.N,GND*%
X106426000Y-81026000D02*
X106426000Y-74422000D01*
X108966000Y-83566000D02*
X106426000Y-81026000D01*
X108966000Y-97536000D02*
X108966000Y-83566000D01*
D13*
%TO.N,WH*%
X97114000Y-82382000D02*
X95504000Y-82382000D01*
X100838000Y-86106000D02*
X97114000Y-82382000D01*
X100838000Y-92456000D02*
X100838000Y-86106000D01*
X99568000Y-93726000D02*
X100838000Y-92456000D01*
X95250000Y-93726000D02*
X99568000Y-93726000D01*
X94488000Y-92964000D02*
X95250000Y-93726000D01*
X93726000Y-92964000D02*
X94488000Y-92964000D01*
%TO.N,VH*%
X94304489Y-86121511D02*
X95504000Y-84922000D01*
X94304489Y-90498855D02*
X94304489Y-86121511D01*
X95499634Y-91694000D02*
X94304489Y-90498855D01*
X97282000Y-91694000D02*
X95499634Y-91694000D01*
%TO.N,UH*%
X98638000Y-87462000D02*
X95504000Y-87462000D01*
X99314000Y-90678000D02*
X99314000Y-88138000D01*
X99314000Y-88138000D02*
X98638000Y-87462000D01*
D14*
%TO.N,GND*%
X106086000Y-74762000D02*
X106426000Y-74422000D01*
X95504000Y-74762000D02*
X106086000Y-74762000D01*
%TD*%
M02*
