M48
; DRILL file {KiCad (6.0.1)} date Sat Dec 10 14:50:22 2022
; FORMAT={-:-/ absolute / inch / decimal}
; #@! TF.CreationDate,2022-12-10T14:50:22+08:00
; #@! TF.GenerationSoftware,Kicad,Pcbnew,(6.0.1)
; #@! TF.FileFunction,Plated,1,2,PTH
FMAT,2
INCH
; #@! TA.AperFunction,Plated,PTH,ViaDrill
T1C0.0197
; #@! TA.AperFunction,Plated,PTH,ComponentDrill
T2C0.0315
; #@! TA.AperFunction,Plated,PTH,ComponentDrill
T3C0.0394
%
G90
G05
T1
X2.7753Y-3.16
X2.7753Y-3.66
X2.7753Y-4.41
X2.7753Y-5.16
X3.5253Y-3.16
X3.5253Y-3.66
X3.5253Y-4.41
X3.5253Y-5.16
X4.2753Y-3.16
X4.2753Y-3.66
X4.2753Y-4.41
X4.2753Y-5.16
X5.0253Y-3.16
X5.0253Y-3.66
X5.0253Y-4.41
X5.0253Y-5.16
X5.97Y-4.79
X6.26Y-4.9
X6.29Y-4.12
X6.32Y-4.68
X6.44Y-3.17
X6.51Y-3.24
X6.5344Y-5.085
X6.5594Y-5.385
X6.88Y-4.02
X7.08Y-4.28
X7.13Y-3.43
X7.1344Y-3.735
X7.16Y-2.47
X7.2575Y-2.9475
X7.3Y-2.61
X7.3344Y-3.635
X7.3844Y-4.61
X7.58Y-3.98
X7.6538Y-3.6406
T2
X7.6844Y-2.36
X7.6844Y-2.46
X7.6844Y-2.56
X7.6844Y-2.66
X7.6844Y-2.76
X7.6844Y-2.86
X7.6844Y-2.96
X7.6844Y-3.06
X7.6844Y-3.16
X7.6844Y-3.26
X7.6844Y-3.36
X7.6844Y-3.46
X8.2844Y-2.36
X8.2844Y-2.46
X8.2844Y-2.56
X8.2844Y-2.66
X8.2844Y-2.76
X8.2844Y-2.86
X8.2844Y-2.96
X8.2844Y-3.06
X8.2844Y-3.16
X8.2844Y-3.26
X8.2844Y-3.36
X8.2844Y-3.46
T3
X5.9241Y-4.9985
X5.9241Y-5.0985
X5.9241Y-5.1985
X5.9241Y-5.2985
X5.9241Y-5.3985
X5.9241Y-5.4985
X5.9241Y-5.5985
X5.9241Y-5.6985
X6.0532Y-2.7092
X6.0532Y-2.8092
X6.0532Y-2.9092
X6.0532Y-3.0092
X6.0532Y-3.1092
X6.0532Y-3.2092
X6.0532Y-3.3092
X6.8217Y-4.9985
X6.8217Y-5.0985
X6.8217Y-5.1985
X6.8217Y-5.2985
X6.8217Y-5.3985
X6.8217Y-5.4985
X6.8217Y-5.5985
X6.8217Y-5.6985
X7.05Y-2.71
X7.05Y-2.81
X7.05Y-2.91
X7.05Y-3.01
X7.05Y-3.11
X7.05Y-3.21
X7.05Y-3.31
X8.2078Y-4.0206
X8.2078Y-4.1206
X8.2078Y-4.2206
T0
M30
