%TF.GenerationSoftware,KiCad,Pcbnew,(6.0.1)*%
%TF.CreationDate,2022-12-10T14:50:15+08:00*%
%TF.ProjectId,Scroller1 two,5363726f-6c6c-4657-9231-2074776f2e6b,rev?*%
%TF.SameCoordinates,Original*%
%TF.FileFunction,Legend,Top*%
%TF.FilePolarity,Positive*%
%FSLAX46Y46*%
G04 Gerber Fmt 4.6, Leading zero omitted, Abs format (unit mm)*
G04 Created by KiCad (PCBNEW (6.0.1)) date 2022-12-10 14:50:15*
%MOMM*%
%LPD*%
G01*
G04 APERTURE LIST*
%ADD10C,0.150000*%
%ADD11C,0.100000*%
%ADD12C,0.120000*%
G04 APERTURE END LIST*
D10*
X208755040Y-117092383D02*
G75*
G03*
X208755040Y-117092383I-25000000J0D01*
G01*
%TO.C,D1_1*%
X115948761Y-94273380D02*
X115948761Y-93273380D01*
X116186857Y-93273380D01*
X116329714Y-93321000D01*
X116424952Y-93416238D01*
X116472571Y-93511476D01*
X116520190Y-93701952D01*
X116520190Y-93844809D01*
X116472571Y-94035285D01*
X116424952Y-94130523D01*
X116329714Y-94225761D01*
X116186857Y-94273380D01*
X115948761Y-94273380D01*
X117472571Y-94273380D02*
X116901142Y-94273380D01*
X117186857Y-94273380D02*
X117186857Y-93273380D01*
X117091619Y-93416238D01*
X116996380Y-93511476D01*
X116901142Y-93559095D01*
X117663047Y-94368619D02*
X118424952Y-94368619D01*
X119186857Y-94273380D02*
X118615428Y-94273380D01*
X118901142Y-94273380D02*
X118901142Y-93273380D01*
X118805904Y-93416238D01*
X118710666Y-93511476D01*
X118615428Y-93559095D01*
%TO.C,RS_2*%
X182410380Y-67675309D02*
X181934190Y-68008642D01*
X182410380Y-68246738D02*
X181410380Y-68246738D01*
X181410380Y-67865785D01*
X181458000Y-67770547D01*
X181505619Y-67722928D01*
X181600857Y-67675309D01*
X181743714Y-67675309D01*
X181838952Y-67722928D01*
X181886571Y-67770547D01*
X181934190Y-67865785D01*
X181934190Y-68246738D01*
X182362761Y-67294357D02*
X182410380Y-67151500D01*
X182410380Y-66913404D01*
X182362761Y-66818166D01*
X182315142Y-66770547D01*
X182219904Y-66722928D01*
X182124666Y-66722928D01*
X182029428Y-66770547D01*
X181981809Y-66818166D01*
X181934190Y-66913404D01*
X181886571Y-67103880D01*
X181838952Y-67199119D01*
X181791333Y-67246738D01*
X181696095Y-67294357D01*
X181600857Y-67294357D01*
X181505619Y-67246738D01*
X181458000Y-67199119D01*
X181410380Y-67103880D01*
X181410380Y-66865785D01*
X181458000Y-66722928D01*
X182505619Y-66532452D02*
X182505619Y-65770547D01*
X181505619Y-65580071D02*
X181458000Y-65532452D01*
X181410380Y-65437214D01*
X181410380Y-65199119D01*
X181458000Y-65103880D01*
X181505619Y-65056261D01*
X181600857Y-65008642D01*
X181696095Y-65008642D01*
X181838952Y-65056261D01*
X182410380Y-65627690D01*
X182410380Y-65008642D01*
%TO.C,C1*%
X176967142Y-124018166D02*
X177014761Y-124065785D01*
X177062380Y-124208642D01*
X177062380Y-124303880D01*
X177014761Y-124446738D01*
X176919523Y-124541976D01*
X176824285Y-124589595D01*
X176633809Y-124637214D01*
X176490952Y-124637214D01*
X176300476Y-124589595D01*
X176205238Y-124541976D01*
X176110000Y-124446738D01*
X176062380Y-124303880D01*
X176062380Y-124208642D01*
X176110000Y-124065785D01*
X176157619Y-124018166D01*
X177062380Y-123065785D02*
X177062380Y-123637214D01*
X177062380Y-123351500D02*
X176062380Y-123351500D01*
X176205238Y-123446738D01*
X176300476Y-123541976D01*
X176348095Y-123637214D01*
%TO.C,D2_0*%
X135250761Y-113323380D02*
X135250761Y-112323380D01*
X135488857Y-112323380D01*
X135631714Y-112371000D01*
X135726952Y-112466238D01*
X135774571Y-112561476D01*
X135822190Y-112751952D01*
X135822190Y-112894809D01*
X135774571Y-113085285D01*
X135726952Y-113180523D01*
X135631714Y-113275761D01*
X135488857Y-113323380D01*
X135250761Y-113323380D01*
X136203142Y-112418619D02*
X136250761Y-112371000D01*
X136346000Y-112323380D01*
X136584095Y-112323380D01*
X136679333Y-112371000D01*
X136726952Y-112418619D01*
X136774571Y-112513857D01*
X136774571Y-112609095D01*
X136726952Y-112751952D01*
X136155523Y-113323380D01*
X136774571Y-113323380D01*
X136965047Y-113418619D02*
X137726952Y-113418619D01*
X138155523Y-112323380D02*
X138250761Y-112323380D01*
X138346000Y-112371000D01*
X138393619Y-112418619D01*
X138441238Y-112513857D01*
X138488857Y-112704333D01*
X138488857Y-112942428D01*
X138441238Y-113132904D01*
X138393619Y-113228142D01*
X138346000Y-113275761D01*
X138250761Y-113323380D01*
X138155523Y-113323380D01*
X138060285Y-113275761D01*
X138012666Y-113228142D01*
X137965047Y-113132904D01*
X137917428Y-112942428D01*
X137917428Y-112704333D01*
X137965047Y-112513857D01*
X138012666Y-112418619D01*
X138060285Y-112371000D01*
X138155523Y-112323380D01*
%TO.C,RT_4*%
X196432380Y-96075071D02*
X195956190Y-96408404D01*
X196432380Y-96646500D02*
X195432380Y-96646500D01*
X195432380Y-96265547D01*
X195480000Y-96170309D01*
X195527619Y-96122690D01*
X195622857Y-96075071D01*
X195765714Y-96075071D01*
X195860952Y-96122690D01*
X195908571Y-96170309D01*
X195956190Y-96265547D01*
X195956190Y-96646500D01*
X195432380Y-95789357D02*
X195432380Y-95217928D01*
X196432380Y-95503642D02*
X195432380Y-95503642D01*
X196527619Y-95122690D02*
X196527619Y-94360785D01*
X195765714Y-93694119D02*
X196432380Y-93694119D01*
X195384761Y-93932214D02*
X196099047Y-94170309D01*
X196099047Y-93551261D01*
%TO.C,D0_1*%
X114890161Y-74969380D02*
X114890161Y-73969380D01*
X115128257Y-73969380D01*
X115271114Y-74017000D01*
X115366352Y-74112238D01*
X115413971Y-74207476D01*
X115461590Y-74397952D01*
X115461590Y-74540809D01*
X115413971Y-74731285D01*
X115366352Y-74826523D01*
X115271114Y-74921761D01*
X115128257Y-74969380D01*
X114890161Y-74969380D01*
X116080638Y-73969380D02*
X116175876Y-73969380D01*
X116271114Y-74017000D01*
X116318733Y-74064619D01*
X116366352Y-74159857D01*
X116413971Y-74350333D01*
X116413971Y-74588428D01*
X116366352Y-74778904D01*
X116318733Y-74874142D01*
X116271114Y-74921761D01*
X116175876Y-74969380D01*
X116080638Y-74969380D01*
X115985400Y-74921761D01*
X115937780Y-74874142D01*
X115890161Y-74778904D01*
X115842542Y-74588428D01*
X115842542Y-74350333D01*
X115890161Y-74159857D01*
X115937780Y-74064619D01*
X115985400Y-74017000D01*
X116080638Y-73969380D01*
X116604447Y-75064619D02*
X117366352Y-75064619D01*
X118128257Y-74969380D02*
X117556828Y-74969380D01*
X117842542Y-74969380D02*
X117842542Y-73969380D01*
X117747304Y-74112238D01*
X117652066Y-74207476D01*
X117556828Y-74255095D01*
%TO.C,C3*%
X160791142Y-121425166D02*
X160838761Y-121472785D01*
X160886380Y-121615642D01*
X160886380Y-121710880D01*
X160838761Y-121853738D01*
X160743523Y-121948976D01*
X160648285Y-121996595D01*
X160457809Y-122044214D01*
X160314952Y-122044214D01*
X160124476Y-121996595D01*
X160029238Y-121948976D01*
X159934000Y-121853738D01*
X159886380Y-121710880D01*
X159886380Y-121615642D01*
X159934000Y-121472785D01*
X159981619Y-121425166D01*
X159886380Y-121091833D02*
X159886380Y-120472785D01*
X160267333Y-120806119D01*
X160267333Y-120663261D01*
X160314952Y-120568023D01*
X160362571Y-120520404D01*
X160457809Y-120472785D01*
X160695904Y-120472785D01*
X160791142Y-120520404D01*
X160838761Y-120568023D01*
X160886380Y-120663261D01*
X160886380Y-120948976D01*
X160838761Y-121044214D01*
X160791142Y-121091833D01*
%TO.C,C2*%
X177238333Y-97351142D02*
X177190714Y-97398761D01*
X177047857Y-97446380D01*
X176952619Y-97446380D01*
X176809761Y-97398761D01*
X176714523Y-97303523D01*
X176666904Y-97208285D01*
X176619285Y-97017809D01*
X176619285Y-96874952D01*
X176666904Y-96684476D01*
X176714523Y-96589238D01*
X176809761Y-96494000D01*
X176952619Y-96446380D01*
X177047857Y-96446380D01*
X177190714Y-96494000D01*
X177238333Y-96541619D01*
X177619285Y-96541619D02*
X177666904Y-96494000D01*
X177762142Y-96446380D01*
X178000238Y-96446380D01*
X178095476Y-96494000D01*
X178143095Y-96541619D01*
X178190714Y-96636857D01*
X178190714Y-96732095D01*
X178143095Y-96874952D01*
X177571666Y-97446380D01*
X178190714Y-97446380D01*
%TO.C,D1_0*%
X135252761Y-94273380D02*
X135252761Y-93273380D01*
X135490857Y-93273380D01*
X135633714Y-93321000D01*
X135728952Y-93416238D01*
X135776571Y-93511476D01*
X135824190Y-93701952D01*
X135824190Y-93844809D01*
X135776571Y-94035285D01*
X135728952Y-94130523D01*
X135633714Y-94225761D01*
X135490857Y-94273380D01*
X135252761Y-94273380D01*
X136776571Y-94273380D02*
X136205142Y-94273380D01*
X136490857Y-94273380D02*
X136490857Y-93273380D01*
X136395619Y-93416238D01*
X136300380Y-93511476D01*
X136205142Y-93559095D01*
X136967047Y-94368619D02*
X137728952Y-94368619D01*
X138157523Y-93273380D02*
X138252761Y-93273380D01*
X138348000Y-93321000D01*
X138395619Y-93368619D01*
X138443238Y-93463857D01*
X138490857Y-93654333D01*
X138490857Y-93892428D01*
X138443238Y-94082904D01*
X138395619Y-94178142D01*
X138348000Y-94225761D01*
X138252761Y-94273380D01*
X138157523Y-94273380D01*
X138062285Y-94225761D01*
X138014666Y-94178142D01*
X137967047Y-94082904D01*
X137919428Y-93892428D01*
X137919428Y-93654333D01*
X137967047Y-93463857D01*
X138014666Y-93368619D01*
X138062285Y-93321000D01*
X138157523Y-93273380D01*
%TO.C,UM1*%
X179502415Y-118425793D02*
X180311939Y-118425793D01*
X180407177Y-118378174D01*
X180454796Y-118330555D01*
X180502415Y-118235317D01*
X180502415Y-118044840D01*
X180454796Y-117949602D01*
X180407177Y-117901983D01*
X180311939Y-117854364D01*
X179502415Y-117854364D01*
X180502415Y-117378174D02*
X179502415Y-117378174D01*
X180216701Y-117044840D01*
X179502415Y-116711507D01*
X180502415Y-116711507D01*
X180502415Y-115711507D02*
X180502415Y-116282936D01*
X180502415Y-115997221D02*
X179502415Y-115997221D01*
X179645273Y-116092460D01*
X179740511Y-116187698D01*
X179788130Y-116282936D01*
%TO.C,AMS1*%
X152384666Y-113673904D02*
X152384666Y-113197714D01*
X152670380Y-113769142D02*
X151670380Y-113435809D01*
X152670380Y-113102476D01*
X152670380Y-112769142D02*
X151670380Y-112769142D01*
X152384666Y-112435809D01*
X151670380Y-112102476D01*
X152670380Y-112102476D01*
X152622761Y-111673904D02*
X152670380Y-111531047D01*
X152670380Y-111292952D01*
X152622761Y-111197714D01*
X152575142Y-111150095D01*
X152479904Y-111102476D01*
X152384666Y-111102476D01*
X152289428Y-111150095D01*
X152241809Y-111197714D01*
X152194190Y-111292952D01*
X152146571Y-111483428D01*
X152098952Y-111578666D01*
X152051333Y-111626285D01*
X151956095Y-111673904D01*
X151860857Y-111673904D01*
X151765619Y-111626285D01*
X151718000Y-111578666D01*
X151670380Y-111483428D01*
X151670380Y-111245333D01*
X151718000Y-111102476D01*
X152670380Y-110150095D02*
X152670380Y-110721523D01*
X152670380Y-110435809D02*
X151670380Y-110435809D01*
X151813238Y-110531047D01*
X151908476Y-110626285D01*
X151956095Y-110721523D01*
%TO.C,C4*%
X154672833Y-123199142D02*
X154625214Y-123246761D01*
X154482357Y-123294380D01*
X154387119Y-123294380D01*
X154244261Y-123246761D01*
X154149023Y-123151523D01*
X154101404Y-123056285D01*
X154053785Y-122865809D01*
X154053785Y-122722952D01*
X154101404Y-122532476D01*
X154149023Y-122437238D01*
X154244261Y-122342000D01*
X154387119Y-122294380D01*
X154482357Y-122294380D01*
X154625214Y-122342000D01*
X154672833Y-122389619D01*
X155529976Y-122627714D02*
X155529976Y-123294380D01*
X155291880Y-122246761D02*
X155053785Y-122961047D01*
X155672833Y-122961047D01*
%TO.C,D1_2*%
X96770761Y-94273380D02*
X96770761Y-93273380D01*
X97008857Y-93273380D01*
X97151714Y-93321000D01*
X97246952Y-93416238D01*
X97294571Y-93511476D01*
X97342190Y-93701952D01*
X97342190Y-93844809D01*
X97294571Y-94035285D01*
X97246952Y-94130523D01*
X97151714Y-94225761D01*
X97008857Y-94273380D01*
X96770761Y-94273380D01*
X98294571Y-94273380D02*
X97723142Y-94273380D01*
X98008857Y-94273380D02*
X98008857Y-93273380D01*
X97913619Y-93416238D01*
X97818380Y-93511476D01*
X97723142Y-93559095D01*
X98485047Y-94368619D02*
X99246952Y-94368619D01*
X99437428Y-93368619D02*
X99485047Y-93321000D01*
X99580285Y-93273380D01*
X99818380Y-93273380D01*
X99913619Y-93321000D01*
X99961238Y-93368619D01*
X100008857Y-93463857D01*
X100008857Y-93559095D01*
X99961238Y-93701952D01*
X99389809Y-94273380D01*
X100008857Y-94273380D01*
%TO.C,D2_3*%
X77846761Y-113323380D02*
X77846761Y-112323380D01*
X78084857Y-112323380D01*
X78227714Y-112371000D01*
X78322952Y-112466238D01*
X78370571Y-112561476D01*
X78418190Y-112751952D01*
X78418190Y-112894809D01*
X78370571Y-113085285D01*
X78322952Y-113180523D01*
X78227714Y-113275761D01*
X78084857Y-113323380D01*
X77846761Y-113323380D01*
X78799142Y-112418619D02*
X78846761Y-112371000D01*
X78942000Y-112323380D01*
X79180095Y-112323380D01*
X79275333Y-112371000D01*
X79322952Y-112418619D01*
X79370571Y-112513857D01*
X79370571Y-112609095D01*
X79322952Y-112751952D01*
X78751523Y-113323380D01*
X79370571Y-113323380D01*
X79561047Y-113418619D02*
X80322952Y-113418619D01*
X80465809Y-112323380D02*
X81084857Y-112323380D01*
X80751523Y-112704333D01*
X80894380Y-112704333D01*
X80989619Y-112751952D01*
X81037238Y-112799571D01*
X81084857Y-112894809D01*
X81084857Y-113132904D01*
X81037238Y-113228142D01*
X80989619Y-113275761D01*
X80894380Y-113323380D01*
X80608666Y-113323380D01*
X80513428Y-113275761D01*
X80465809Y-113228142D01*
%TO.C,Mnt1*%
X182207415Y-117044840D02*
X182207415Y-116044840D01*
X182540749Y-116759126D01*
X182874082Y-116044840D01*
X182874082Y-117044840D01*
X183350273Y-116378174D02*
X183350273Y-117044840D01*
X183350273Y-116473412D02*
X183397892Y-116425793D01*
X183493130Y-116378174D01*
X183635987Y-116378174D01*
X183731225Y-116425793D01*
X183778844Y-116521031D01*
X183778844Y-117044840D01*
X184112177Y-116378174D02*
X184493130Y-116378174D01*
X184255035Y-116044840D02*
X184255035Y-116901983D01*
X184302654Y-116997221D01*
X184397892Y-117044840D01*
X184493130Y-117044840D01*
X185350273Y-117044840D02*
X184778844Y-117044840D01*
X185064558Y-117044840D02*
X185064558Y-116044840D01*
X184969320Y-116187698D01*
X184874082Y-116282936D01*
X184778844Y-116330555D01*
%TO.C,D1*%
X176615904Y-101701380D02*
X176615904Y-100701380D01*
X176854000Y-100701380D01*
X176996857Y-100749000D01*
X177092095Y-100844238D01*
X177139714Y-100939476D01*
X177187333Y-101129952D01*
X177187333Y-101272809D01*
X177139714Y-101463285D01*
X177092095Y-101558523D01*
X176996857Y-101653761D01*
X176854000Y-101701380D01*
X176615904Y-101701380D01*
X178139714Y-101701380D02*
X177568285Y-101701380D01*
X177854000Y-101701380D02*
X177854000Y-100701380D01*
X177758761Y-100844238D01*
X177663523Y-100939476D01*
X177568285Y-100987095D01*
%TO.C,TMC1*%
X160331666Y-133056380D02*
X160903095Y-133056380D01*
X160617380Y-134056380D02*
X160617380Y-133056380D01*
X161236428Y-134056380D02*
X161236428Y-133056380D01*
X161569761Y-133770666D01*
X161903095Y-133056380D01*
X161903095Y-134056380D01*
X162950714Y-133961142D02*
X162903095Y-134008761D01*
X162760238Y-134056380D01*
X162665000Y-134056380D01*
X162522142Y-134008761D01*
X162426904Y-133913523D01*
X162379285Y-133818285D01*
X162331666Y-133627809D01*
X162331666Y-133484952D01*
X162379285Y-133294476D01*
X162426904Y-133199238D01*
X162522142Y-133104000D01*
X162665000Y-133056380D01*
X162760238Y-133056380D01*
X162903095Y-133104000D01*
X162950714Y-133151619D01*
X163903095Y-134056380D02*
X163331666Y-134056380D01*
X163617380Y-134056380D02*
X163617380Y-133056380D01*
X163522142Y-133199238D01*
X163426904Y-133294476D01*
X163331666Y-133342095D01*
D11*
X152277142Y-126671428D02*
X152477142Y-127271428D01*
X152677142Y-126671428D01*
X152877142Y-127271428D02*
X152877142Y-126671428D01*
X153277142Y-126671428D02*
X153391428Y-126671428D01*
X153448571Y-126700000D01*
X153505714Y-126757142D01*
X153534285Y-126871428D01*
X153534285Y-127071428D01*
X153505714Y-127185714D01*
X153448571Y-127242857D01*
X153391428Y-127271428D01*
X153277142Y-127271428D01*
X153220000Y-127242857D01*
X153162857Y-127185714D01*
X153134285Y-127071428D01*
X153134285Y-126871428D01*
X153162857Y-126757142D01*
X153220000Y-126700000D01*
X153277142Y-126671428D01*
X154220000Y-126642857D02*
X153705714Y-127414285D01*
X154277142Y-126502000D02*
X154848571Y-126502000D01*
X154391428Y-127242857D02*
X154477142Y-127271428D01*
X154620000Y-127271428D01*
X154677142Y-127242857D01*
X154705714Y-127214285D01*
X154734285Y-127157142D01*
X154734285Y-127100000D01*
X154705714Y-127042857D01*
X154677142Y-127014285D01*
X154620000Y-126985714D01*
X154505714Y-126957142D01*
X154448571Y-126928571D01*
X154420000Y-126900000D01*
X154391428Y-126842857D01*
X154391428Y-126785714D01*
X154420000Y-126728571D01*
X154448571Y-126700000D01*
X154505714Y-126671428D01*
X154648571Y-126671428D01*
X154734285Y-126700000D01*
X154848571Y-126502000D02*
X155305714Y-126502000D01*
X154905714Y-126671428D02*
X155248571Y-126671428D01*
X155077142Y-127271428D02*
X155077142Y-126671428D01*
X155305714Y-126502000D02*
X155905714Y-126502000D01*
X155448571Y-127271428D02*
X155448571Y-126671428D01*
X155591428Y-126671428D01*
X155677142Y-126700000D01*
X155734285Y-126757142D01*
X155762857Y-126814285D01*
X155791428Y-126928571D01*
X155791428Y-127014285D01*
X155762857Y-127128571D01*
X155734285Y-127185714D01*
X155677142Y-127242857D01*
X155591428Y-127271428D01*
X155448571Y-127271428D01*
X155905714Y-126502000D02*
X156505714Y-126502000D01*
X156248571Y-126957142D02*
X156334285Y-126985714D01*
X156362857Y-127014285D01*
X156391428Y-127071428D01*
X156391428Y-127157142D01*
X156362857Y-127214285D01*
X156334285Y-127242857D01*
X156277142Y-127271428D01*
X156048571Y-127271428D01*
X156048571Y-126671428D01*
X156248571Y-126671428D01*
X156305714Y-126700000D01*
X156334285Y-126728571D01*
X156362857Y-126785714D01*
X156362857Y-126842857D01*
X156334285Y-126900000D01*
X156305714Y-126928571D01*
X156248571Y-126957142D01*
X156048571Y-126957142D01*
X156505714Y-126502000D02*
X157020000Y-126502000D01*
X156762857Y-126985714D02*
X156762857Y-127271428D01*
X156562857Y-126671428D02*
X156762857Y-126985714D01*
X156962857Y-126671428D01*
X152728571Y-129203964D02*
X152671428Y-129175392D01*
X152585714Y-129175392D01*
X152500000Y-129203964D01*
X152442857Y-129261106D01*
X152414285Y-129318249D01*
X152385714Y-129432535D01*
X152385714Y-129518249D01*
X152414285Y-129632535D01*
X152442857Y-129689678D01*
X152500000Y-129746821D01*
X152585714Y-129775392D01*
X152642857Y-129775392D01*
X152728571Y-129746821D01*
X152757142Y-129718249D01*
X152757142Y-129518249D01*
X152642857Y-129518249D01*
X153014285Y-129775392D02*
X153014285Y-129175392D01*
X153357142Y-129775392D01*
X153357142Y-129175392D01*
X153642857Y-129775392D02*
X153642857Y-129175392D01*
X153785714Y-129175392D01*
X153871428Y-129203964D01*
X153928571Y-129261106D01*
X153957142Y-129318249D01*
X153985714Y-129432535D01*
X153985714Y-129518249D01*
X153957142Y-129632535D01*
X153928571Y-129689678D01*
X153871428Y-129746821D01*
X153785714Y-129775392D01*
X153642857Y-129775392D01*
X171355142Y-139332535D02*
X171355142Y-139818249D01*
X171326571Y-139875392D01*
X171298000Y-139903964D01*
X171240857Y-139932535D01*
X171126571Y-139932535D01*
X171069428Y-139903964D01*
X171040857Y-139875392D01*
X171012285Y-139818249D01*
X171012285Y-139332535D01*
X168976857Y-126953964D02*
X169434000Y-126953964D01*
X169205428Y-127182535D02*
X169205428Y-126725392D01*
X169634000Y-126582535D02*
X169834000Y-127182535D01*
X170034000Y-126582535D01*
X170234000Y-127182535D02*
X170234000Y-126582535D01*
X170234000Y-126811107D02*
X170291142Y-126782535D01*
X170405428Y-126782535D01*
X170462571Y-126811107D01*
X170491142Y-126839678D01*
X170519714Y-126896821D01*
X170519714Y-127068249D01*
X170491142Y-127125392D01*
X170462571Y-127153964D01*
X170405428Y-127182535D01*
X170291142Y-127182535D01*
X170234000Y-127153964D01*
X171034000Y-127182535D02*
X171034000Y-126868249D01*
X171005428Y-126811107D01*
X170948285Y-126782535D01*
X170834000Y-126782535D01*
X170776857Y-126811107D01*
X171034000Y-127153964D02*
X170976857Y-127182535D01*
X170834000Y-127182535D01*
X170776857Y-127153964D01*
X170748285Y-127096821D01*
X170748285Y-127039678D01*
X170776857Y-126982535D01*
X170834000Y-126953964D01*
X170976857Y-126953964D01*
X171034000Y-126925392D01*
X171234000Y-126782535D02*
X171462571Y-126782535D01*
X171319714Y-126582535D02*
X171319714Y-127096821D01*
X171348285Y-127153964D01*
X171405428Y-127182535D01*
X171462571Y-127182535D01*
X152378285Y-144432535D02*
X152521142Y-145032535D01*
X152635428Y-144603964D01*
X152749714Y-145032535D01*
X152892571Y-144432535D01*
X153406857Y-145032535D02*
X153121142Y-145032535D01*
X153121142Y-144432535D01*
X169738857Y-145051428D02*
X169738857Y-144451428D01*
X169881714Y-144451428D01*
X169967428Y-144480000D01*
X170024571Y-144537142D01*
X170053142Y-144594285D01*
X170081714Y-144708571D01*
X170081714Y-144794285D01*
X170053142Y-144908571D01*
X170024571Y-144965714D01*
X169967428Y-145022857D01*
X169881714Y-145051428D01*
X169738857Y-145051428D01*
X170338857Y-145051428D02*
X170338857Y-144451428D01*
X170596000Y-144880000D02*
X170881714Y-144880000D01*
X170538857Y-145051428D02*
X170738857Y-144451428D01*
X170938857Y-145051428D01*
X171453142Y-144480000D02*
X171396000Y-144451428D01*
X171310285Y-144451428D01*
X171224571Y-144480000D01*
X171167428Y-144537142D01*
X171138857Y-144594285D01*
X171110285Y-144708571D01*
X171110285Y-144794285D01*
X171138857Y-144908571D01*
X171167428Y-144965714D01*
X171224571Y-145022857D01*
X171310285Y-145051428D01*
X171367428Y-145051428D01*
X171453142Y-145022857D01*
X171481714Y-144994285D01*
X171481714Y-144794285D01*
X171367428Y-144794285D01*
X152378285Y-136803963D02*
X152578285Y-137403963D01*
X152778285Y-136803963D01*
X152978285Y-137403963D02*
X152978285Y-136803963D01*
X152978285Y-137089677D02*
X153321142Y-137089677D01*
X153321142Y-137403963D02*
X153321142Y-136803963D01*
X152492571Y-134261106D02*
X152492571Y-134746820D01*
X152521142Y-134803963D01*
X152549714Y-134832535D01*
X152606857Y-134861106D01*
X152721142Y-134861106D01*
X152778285Y-134832535D01*
X152806857Y-134803963D01*
X152835428Y-134746820D01*
X152835428Y-134261106D01*
X153406857Y-134861106D02*
X153121142Y-134861106D01*
X153121142Y-134261106D01*
X171440857Y-136782535D02*
X171240857Y-137382535D01*
X171040857Y-136782535D01*
X154564964Y-126413487D02*
X155136392Y-126413487D01*
X154850678Y-127413487D02*
X154850678Y-126413487D01*
X155469726Y-127413487D02*
X155469726Y-126413487D01*
X155803059Y-127127773D01*
X156136392Y-126413487D01*
X156136392Y-127413487D01*
X157184011Y-127318249D02*
X157136392Y-127365868D01*
X156993535Y-127413487D01*
X156898297Y-127413487D01*
X156755440Y-127365868D01*
X156660202Y-127270630D01*
X156612583Y-127175392D01*
X156564964Y-126984916D01*
X156564964Y-126842059D01*
X156612583Y-126651583D01*
X156660202Y-126556345D01*
X156755440Y-126461107D01*
X156898297Y-126413487D01*
X156993535Y-126413487D01*
X157136392Y-126461107D01*
X157184011Y-126508726D01*
X158041154Y-126413487D02*
X157850678Y-126413487D01*
X157755440Y-126461107D01*
X157707821Y-126508726D01*
X157612583Y-126651583D01*
X157564964Y-126842059D01*
X157564964Y-127223011D01*
X157612583Y-127318249D01*
X157660202Y-127365868D01*
X157755440Y-127413487D01*
X157945916Y-127413487D01*
X158041154Y-127365868D01*
X158088773Y-127318249D01*
X158136392Y-127223011D01*
X158136392Y-126984916D01*
X158088773Y-126889678D01*
X158041154Y-126842059D01*
X157945916Y-126794440D01*
X157755440Y-126794440D01*
X157660202Y-126842059D01*
X157612583Y-126889678D01*
X157564964Y-126984916D01*
X158469726Y-126413487D02*
X159088773Y-126413487D01*
X158755440Y-126794440D01*
X158898297Y-126794440D01*
X158993535Y-126842059D01*
X159041154Y-126889678D01*
X159088773Y-126984916D01*
X159088773Y-127223011D01*
X159041154Y-127318249D01*
X158993535Y-127365868D01*
X158898297Y-127413487D01*
X158612583Y-127413487D01*
X158517345Y-127365868D01*
X158469726Y-127318249D01*
X159707821Y-126413487D02*
X159803059Y-126413487D01*
X159898297Y-126461107D01*
X159945916Y-126508726D01*
X159993535Y-126603964D01*
X160041154Y-126794440D01*
X160041154Y-127032535D01*
X159993535Y-127223011D01*
X159945916Y-127318249D01*
X159898297Y-127365868D01*
X159803059Y-127413487D01*
X159707821Y-127413487D01*
X159612583Y-127365868D01*
X159564964Y-127318249D01*
X159517345Y-127223011D01*
X159469726Y-127032535D01*
X159469726Y-126794440D01*
X159517345Y-126603964D01*
X159564964Y-126508726D01*
X159612583Y-126461107D01*
X159707821Y-126413487D01*
X160660202Y-126413487D02*
X160755440Y-126413487D01*
X160850678Y-126461107D01*
X160898297Y-126508726D01*
X160945916Y-126603964D01*
X160993535Y-126794440D01*
X160993535Y-127032535D01*
X160945916Y-127223011D01*
X160898297Y-127318249D01*
X160850678Y-127365868D01*
X160755440Y-127413487D01*
X160660202Y-127413487D01*
X160564964Y-127365868D01*
X160517345Y-127318249D01*
X160469726Y-127223011D01*
X160422107Y-127032535D01*
X160422107Y-126794440D01*
X160469726Y-126603964D01*
X160517345Y-126508726D01*
X160564964Y-126461107D01*
X160660202Y-126413487D01*
X161422107Y-127032535D02*
X162184011Y-127032535D01*
X162993535Y-126889678D02*
X163136392Y-126937297D01*
X163184011Y-126984916D01*
X163231630Y-127080154D01*
X163231630Y-127223011D01*
X163184011Y-127318249D01*
X163136392Y-127365868D01*
X163041154Y-127413487D01*
X162660202Y-127413487D01*
X162660202Y-126413487D01*
X162993535Y-126413487D01*
X163088773Y-126461107D01*
X163136392Y-126508726D01*
X163184011Y-126603964D01*
X163184011Y-126699202D01*
X163136392Y-126794440D01*
X163088773Y-126842059D01*
X162993535Y-126889678D01*
X162660202Y-126889678D01*
X163850678Y-126413487D02*
X164041154Y-126413487D01*
X164136392Y-126461107D01*
X164231630Y-126556345D01*
X164279249Y-126746821D01*
X164279249Y-127080154D01*
X164231630Y-127270630D01*
X164136392Y-127365868D01*
X164041154Y-127413487D01*
X163850678Y-127413487D01*
X163755440Y-127365868D01*
X163660202Y-127270630D01*
X163612583Y-127080154D01*
X163612583Y-126746821D01*
X163660202Y-126556345D01*
X163755440Y-126461107D01*
X163850678Y-126413487D01*
X165041154Y-126889678D02*
X165184011Y-126937297D01*
X165231630Y-126984916D01*
X165279249Y-127080154D01*
X165279249Y-127223011D01*
X165231630Y-127318249D01*
X165184011Y-127365868D01*
X165088773Y-127413487D01*
X164707821Y-127413487D01*
X164707821Y-126413487D01*
X165041154Y-126413487D01*
X165136392Y-126461107D01*
X165184011Y-126508726D01*
X165231630Y-126603964D01*
X165231630Y-126699202D01*
X165184011Y-126794440D01*
X165136392Y-126842059D01*
X165041154Y-126889678D01*
X164707821Y-126889678D01*
X166374487Y-126746821D02*
X166612583Y-127413487D01*
X166850678Y-126746821D01*
X167755440Y-127413487D02*
X167184011Y-127413487D01*
X167469726Y-127413487D02*
X167469726Y-126413487D01*
X167374487Y-126556345D01*
X167279249Y-126651583D01*
X167184011Y-126699202D01*
X168184011Y-127318249D02*
X168231630Y-127365868D01*
X168184011Y-127413487D01*
X168136392Y-127365868D01*
X168184011Y-127318249D01*
X168184011Y-127413487D01*
X169184011Y-127413487D02*
X168612583Y-127413487D01*
X168898297Y-127413487D02*
X168898297Y-126413487D01*
X168803059Y-126556345D01*
X168707821Y-126651583D01*
X168612583Y-126699202D01*
X170087142Y-129244000D02*
X170030000Y-129215428D01*
X169944285Y-129215428D01*
X169858571Y-129244000D01*
X169801428Y-129301142D01*
X169772857Y-129358285D01*
X169744285Y-129472571D01*
X169744285Y-129558285D01*
X169772857Y-129672571D01*
X169801428Y-129729714D01*
X169858571Y-129786857D01*
X169944285Y-129815428D01*
X170001428Y-129815428D01*
X170087142Y-129786857D01*
X170115714Y-129758285D01*
X170115714Y-129558285D01*
X170001428Y-129558285D01*
X170372857Y-129815428D02*
X170372857Y-129215428D01*
X170715714Y-129815428D01*
X170715714Y-129215428D01*
X171001428Y-129815428D02*
X171001428Y-129215428D01*
X171144285Y-129215428D01*
X171230000Y-129244000D01*
X171287142Y-129301142D01*
X171315714Y-129358285D01*
X171344285Y-129472571D01*
X171344285Y-129558285D01*
X171315714Y-129672571D01*
X171287142Y-129729714D01*
X171230000Y-129786857D01*
X171144285Y-129815428D01*
X171001428Y-129815428D01*
X170087142Y-141944000D02*
X170030000Y-141915428D01*
X169944285Y-141915428D01*
X169858571Y-141944000D01*
X169801428Y-142001142D01*
X169772857Y-142058285D01*
X169744285Y-142172571D01*
X169744285Y-142258285D01*
X169772857Y-142372571D01*
X169801428Y-142429714D01*
X169858571Y-142486857D01*
X169944285Y-142515428D01*
X170001428Y-142515428D01*
X170087142Y-142486857D01*
X170115714Y-142458285D01*
X170115714Y-142258285D01*
X170001428Y-142258285D01*
X170372857Y-142515428D02*
X170372857Y-141915428D01*
X170715714Y-142515428D01*
X170715714Y-141915428D01*
X171001428Y-142515428D02*
X171001428Y-141915428D01*
X171144285Y-141915428D01*
X171230000Y-141944000D01*
X171287142Y-142001142D01*
X171315714Y-142058285D01*
X171344285Y-142172571D01*
X171344285Y-142258285D01*
X171315714Y-142372571D01*
X171287142Y-142429714D01*
X171230000Y-142486857D01*
X171144285Y-142515428D01*
X171001428Y-142515428D01*
X171412285Y-134232535D02*
X171269428Y-134832535D01*
X171155142Y-134403964D01*
X171040857Y-134832535D01*
X170898000Y-134232535D01*
X152489428Y-141889677D02*
X152632285Y-142489677D01*
X152746571Y-142061106D01*
X152860857Y-142489677D01*
X153003714Y-141889677D01*
X153232285Y-142489677D02*
X153232285Y-141889677D01*
X153232285Y-142175391D02*
X153575142Y-142175391D01*
X153575142Y-142489677D02*
X153575142Y-141889677D01*
X152349714Y-131751428D02*
X152349714Y-132237142D01*
X152378285Y-132294285D01*
X152406857Y-132322857D01*
X152464000Y-132351428D01*
X152578285Y-132351428D01*
X152635428Y-132322857D01*
X152664000Y-132294285D01*
X152692571Y-132237142D01*
X152692571Y-131751428D01*
X152978285Y-132351428D02*
X152978285Y-131751428D01*
X152978285Y-132037142D02*
X153321142Y-132037142D01*
X153321142Y-132351428D02*
X153321142Y-131751428D01*
X170087142Y-131744000D02*
X170030000Y-131715428D01*
X169944285Y-131715428D01*
X169858571Y-131744000D01*
X169801428Y-131801142D01*
X169772857Y-131858285D01*
X169744285Y-131972571D01*
X169744285Y-132058285D01*
X169772857Y-132172571D01*
X169801428Y-132229714D01*
X169858571Y-132286857D01*
X169944285Y-132315428D01*
X170001428Y-132315428D01*
X170087142Y-132286857D01*
X170115714Y-132258285D01*
X170115714Y-132058285D01*
X170001428Y-132058285D01*
X170372857Y-132315428D02*
X170372857Y-131715428D01*
X170715714Y-132315428D01*
X170715714Y-131715428D01*
X171001428Y-132315428D02*
X171001428Y-131715428D01*
X171144285Y-131715428D01*
X171230000Y-131744000D01*
X171287142Y-131801142D01*
X171315714Y-131858285D01*
X171344285Y-131972571D01*
X171344285Y-132058285D01*
X171315714Y-132172571D01*
X171287142Y-132229714D01*
X171230000Y-132286857D01*
X171144285Y-132315428D01*
X171001428Y-132315428D01*
X152521142Y-139371428D02*
X152721142Y-139971428D01*
X152921142Y-139371428D01*
X153406857Y-139971428D02*
X153121142Y-139971428D01*
X153121142Y-139371428D01*
D10*
%TO.C,RM_1*%
X182410380Y-84788547D02*
X181934190Y-85121880D01*
X182410380Y-85359976D02*
X181410380Y-85359976D01*
X181410380Y-84979023D01*
X181458000Y-84883785D01*
X181505619Y-84836166D01*
X181600857Y-84788547D01*
X181743714Y-84788547D01*
X181838952Y-84836166D01*
X181886571Y-84883785D01*
X181934190Y-84979023D01*
X181934190Y-85359976D01*
X182410380Y-84359976D02*
X181410380Y-84359976D01*
X182124666Y-84026642D01*
X181410380Y-83693309D01*
X182410380Y-83693309D01*
X182505619Y-83455214D02*
X182505619Y-82693309D01*
X182410380Y-81931404D02*
X182410380Y-82502833D01*
X182410380Y-82217119D02*
X181410380Y-82217119D01*
X181553238Y-82312357D01*
X181648476Y-82407595D01*
X181696095Y-82502833D01*
%TO.C,RT_3*%
X188177380Y-96155071D02*
X187701190Y-96488404D01*
X188177380Y-96726500D02*
X187177380Y-96726500D01*
X187177380Y-96345547D01*
X187225000Y-96250309D01*
X187272619Y-96202690D01*
X187367857Y-96155071D01*
X187510714Y-96155071D01*
X187605952Y-96202690D01*
X187653571Y-96250309D01*
X187701190Y-96345547D01*
X187701190Y-96726500D01*
X187177380Y-95869357D02*
X187177380Y-95297928D01*
X188177380Y-95583642D02*
X187177380Y-95583642D01*
X188272619Y-95202690D02*
X188272619Y-94440785D01*
X187177380Y-94297928D02*
X187177380Y-93678880D01*
X187558333Y-94012214D01*
X187558333Y-93869357D01*
X187605952Y-93774119D01*
X187653571Y-93726500D01*
X187748809Y-93678880D01*
X187986904Y-93678880D01*
X188082142Y-93726500D01*
X188129761Y-93774119D01*
X188177380Y-93869357D01*
X188177380Y-94155071D01*
X188129761Y-94250309D01*
X188082142Y-94297928D01*
%TO.C,QMK1*%
X201638333Y-93511619D02*
X201543095Y-93464000D01*
X201447857Y-93368761D01*
X201305000Y-93225904D01*
X201209761Y-93178285D01*
X201114523Y-93178285D01*
X201162142Y-93416380D02*
X201066904Y-93368761D01*
X200971666Y-93273523D01*
X200924047Y-93083047D01*
X200924047Y-92749714D01*
X200971666Y-92559238D01*
X201066904Y-92464000D01*
X201162142Y-92416380D01*
X201352619Y-92416380D01*
X201447857Y-92464000D01*
X201543095Y-92559238D01*
X201590714Y-92749714D01*
X201590714Y-93083047D01*
X201543095Y-93273523D01*
X201447857Y-93368761D01*
X201352619Y-93416380D01*
X201162142Y-93416380D01*
X202019285Y-93416380D02*
X202019285Y-92416380D01*
X202352619Y-93130666D01*
X202685952Y-92416380D01*
X202685952Y-93416380D01*
X203162142Y-93416380D02*
X203162142Y-92416380D01*
X203733571Y-93416380D02*
X203305000Y-92844952D01*
X203733571Y-92416380D02*
X203162142Y-92987809D01*
X204685952Y-93416380D02*
X204114523Y-93416380D01*
X204400238Y-93416380D02*
X204400238Y-92416380D01*
X204305000Y-92559238D01*
X204209761Y-92654476D01*
X204114523Y-92702095D01*
%TO.C,RT_1*%
X176476428Y-104686380D02*
X176143095Y-104210190D01*
X175905000Y-104686380D02*
X175905000Y-103686380D01*
X176285952Y-103686380D01*
X176381190Y-103734000D01*
X176428809Y-103781619D01*
X176476428Y-103876857D01*
X176476428Y-104019714D01*
X176428809Y-104114952D01*
X176381190Y-104162571D01*
X176285952Y-104210190D01*
X175905000Y-104210190D01*
X176762142Y-103686380D02*
X177333571Y-103686380D01*
X177047857Y-104686380D02*
X177047857Y-103686380D01*
X177428809Y-104781619D02*
X178190714Y-104781619D01*
X178952619Y-104686380D02*
X178381190Y-104686380D01*
X178666904Y-104686380D02*
X178666904Y-103686380D01*
X178571666Y-103829238D01*
X178476428Y-103924476D01*
X178381190Y-103972095D01*
%TO.C,D0_3*%
X77846761Y-74969380D02*
X77846761Y-73969380D01*
X78084857Y-73969380D01*
X78227714Y-74017000D01*
X78322952Y-74112238D01*
X78370571Y-74207476D01*
X78418190Y-74397952D01*
X78418190Y-74540809D01*
X78370571Y-74731285D01*
X78322952Y-74826523D01*
X78227714Y-74921761D01*
X78084857Y-74969380D01*
X77846761Y-74969380D01*
X79037238Y-73969380D02*
X79132476Y-73969380D01*
X79227714Y-74017000D01*
X79275333Y-74064619D01*
X79322952Y-74159857D01*
X79370571Y-74350333D01*
X79370571Y-74588428D01*
X79322952Y-74778904D01*
X79275333Y-74874142D01*
X79227714Y-74921761D01*
X79132476Y-74969380D01*
X79037238Y-74969380D01*
X78942000Y-74921761D01*
X78894380Y-74874142D01*
X78846761Y-74778904D01*
X78799142Y-74588428D01*
X78799142Y-74350333D01*
X78846761Y-74159857D01*
X78894380Y-74064619D01*
X78942000Y-74017000D01*
X79037238Y-73969380D01*
X79561047Y-75064619D02*
X80322952Y-75064619D01*
X80465809Y-73969380D02*
X81084857Y-73969380D01*
X80751523Y-74350333D01*
X80894380Y-74350333D01*
X80989619Y-74397952D01*
X81037238Y-74445571D01*
X81084857Y-74540809D01*
X81084857Y-74778904D01*
X81037238Y-74874142D01*
X80989619Y-74921761D01*
X80894380Y-74969380D01*
X80608666Y-74969380D01*
X80513428Y-74921761D01*
X80465809Y-74874142D01*
%TO.C,RS_1*%
X182410380Y-72397809D02*
X181934190Y-72731142D01*
X182410380Y-72969238D02*
X181410380Y-72969238D01*
X181410380Y-72588285D01*
X181458000Y-72493047D01*
X181505619Y-72445428D01*
X181600857Y-72397809D01*
X181743714Y-72397809D01*
X181838952Y-72445428D01*
X181886571Y-72493047D01*
X181934190Y-72588285D01*
X181934190Y-72969238D01*
X182362761Y-72016857D02*
X182410380Y-71874000D01*
X182410380Y-71635904D01*
X182362761Y-71540666D01*
X182315142Y-71493047D01*
X182219904Y-71445428D01*
X182124666Y-71445428D01*
X182029428Y-71493047D01*
X181981809Y-71540666D01*
X181934190Y-71635904D01*
X181886571Y-71826380D01*
X181838952Y-71921619D01*
X181791333Y-71969238D01*
X181696095Y-72016857D01*
X181600857Y-72016857D01*
X181505619Y-71969238D01*
X181458000Y-71921619D01*
X181410380Y-71826380D01*
X181410380Y-71588285D01*
X181458000Y-71445428D01*
X182505619Y-71254952D02*
X182505619Y-70493047D01*
X182410380Y-69731142D02*
X182410380Y-70302571D01*
X182410380Y-70016857D02*
X181410380Y-70016857D01*
X181553238Y-70112095D01*
X181648476Y-70207333D01*
X181696095Y-70302571D01*
%TO.C,D3_1*%
X115438761Y-132373380D02*
X115438761Y-131373380D01*
X115676857Y-131373380D01*
X115819714Y-131421000D01*
X115914952Y-131516238D01*
X115962571Y-131611476D01*
X116010190Y-131801952D01*
X116010190Y-131944809D01*
X115962571Y-132135285D01*
X115914952Y-132230523D01*
X115819714Y-132325761D01*
X115676857Y-132373380D01*
X115438761Y-132373380D01*
X116343523Y-131373380D02*
X116962571Y-131373380D01*
X116629238Y-131754333D01*
X116772095Y-131754333D01*
X116867333Y-131801952D01*
X116914952Y-131849571D01*
X116962571Y-131944809D01*
X116962571Y-132182904D01*
X116914952Y-132278142D01*
X116867333Y-132325761D01*
X116772095Y-132373380D01*
X116486380Y-132373380D01*
X116391142Y-132325761D01*
X116343523Y-132278142D01*
X117153047Y-132468619D02*
X117914952Y-132468619D01*
X118676857Y-132373380D02*
X118105428Y-132373380D01*
X118391142Y-132373380D02*
X118391142Y-131373380D01*
X118295904Y-131516238D01*
X118200666Y-131611476D01*
X118105428Y-131659095D01*
%TO.C,D2_1*%
X115692761Y-113323380D02*
X115692761Y-112323380D01*
X115930857Y-112323380D01*
X116073714Y-112371000D01*
X116168952Y-112466238D01*
X116216571Y-112561476D01*
X116264190Y-112751952D01*
X116264190Y-112894809D01*
X116216571Y-113085285D01*
X116168952Y-113180523D01*
X116073714Y-113275761D01*
X115930857Y-113323380D01*
X115692761Y-113323380D01*
X116645142Y-112418619D02*
X116692761Y-112371000D01*
X116788000Y-112323380D01*
X117026095Y-112323380D01*
X117121333Y-112371000D01*
X117168952Y-112418619D01*
X117216571Y-112513857D01*
X117216571Y-112609095D01*
X117168952Y-112751952D01*
X116597523Y-113323380D01*
X117216571Y-113323380D01*
X117407047Y-113418619D02*
X118168952Y-113418619D01*
X118930857Y-113323380D02*
X118359428Y-113323380D01*
X118645142Y-113323380D02*
X118645142Y-112323380D01*
X118549904Y-112466238D01*
X118454666Y-112561476D01*
X118359428Y-112609095D01*
%TO.C,UVW1*%
X201492380Y-127745904D02*
X202301904Y-127745904D01*
X202397142Y-127698285D01*
X202444761Y-127650666D01*
X202492380Y-127555428D01*
X202492380Y-127364952D01*
X202444761Y-127269714D01*
X202397142Y-127222095D01*
X202301904Y-127174476D01*
X201492380Y-127174476D01*
X201492380Y-126841142D02*
X202492380Y-126507809D01*
X201492380Y-126174476D01*
X201492380Y-125936380D02*
X202492380Y-125698285D01*
X201778095Y-125507809D01*
X202492380Y-125317333D01*
X201492380Y-125079238D01*
X202492380Y-124174476D02*
X202492380Y-124745904D01*
X202492380Y-124460190D02*
X201492380Y-124460190D01*
X201635238Y-124555428D01*
X201730476Y-124650666D01*
X201778095Y-124745904D01*
%TO.C,D2_2*%
X96768761Y-113323380D02*
X96768761Y-112323380D01*
X97006857Y-112323380D01*
X97149714Y-112371000D01*
X97244952Y-112466238D01*
X97292571Y-112561476D01*
X97340190Y-112751952D01*
X97340190Y-112894809D01*
X97292571Y-113085285D01*
X97244952Y-113180523D01*
X97149714Y-113275761D01*
X97006857Y-113323380D01*
X96768761Y-113323380D01*
X97721142Y-112418619D02*
X97768761Y-112371000D01*
X97864000Y-112323380D01*
X98102095Y-112323380D01*
X98197333Y-112371000D01*
X98244952Y-112418619D01*
X98292571Y-112513857D01*
X98292571Y-112609095D01*
X98244952Y-112751952D01*
X97673523Y-113323380D01*
X98292571Y-113323380D01*
X98483047Y-113418619D02*
X99244952Y-113418619D01*
X99435428Y-112418619D02*
X99483047Y-112371000D01*
X99578285Y-112323380D01*
X99816380Y-112323380D01*
X99911619Y-112371000D01*
X99959238Y-112418619D01*
X100006857Y-112513857D01*
X100006857Y-112609095D01*
X99959238Y-112751952D01*
X99387809Y-113323380D01*
X100006857Y-113323380D01*
%TO.C,J1*%
X212528666Y-99305380D02*
X212528666Y-100019666D01*
X212481047Y-100162523D01*
X212385809Y-100257761D01*
X212242952Y-100305380D01*
X212147714Y-100305380D01*
X213528666Y-100305380D02*
X212957238Y-100305380D01*
X213242952Y-100305380D02*
X213242952Y-99305380D01*
X213147714Y-99448238D01*
X213052476Y-99543476D01*
X212957238Y-99591095D01*
%TO.C,D3_3*%
X77846761Y-132373380D02*
X77846761Y-131373380D01*
X78084857Y-131373380D01*
X78227714Y-131421000D01*
X78322952Y-131516238D01*
X78370571Y-131611476D01*
X78418190Y-131801952D01*
X78418190Y-131944809D01*
X78370571Y-132135285D01*
X78322952Y-132230523D01*
X78227714Y-132325761D01*
X78084857Y-132373380D01*
X77846761Y-132373380D01*
X78751523Y-131373380D02*
X79370571Y-131373380D01*
X79037238Y-131754333D01*
X79180095Y-131754333D01*
X79275333Y-131801952D01*
X79322952Y-131849571D01*
X79370571Y-131944809D01*
X79370571Y-132182904D01*
X79322952Y-132278142D01*
X79275333Y-132325761D01*
X79180095Y-132373380D01*
X78894380Y-132373380D01*
X78799142Y-132325761D01*
X78751523Y-132278142D01*
X79561047Y-132468619D02*
X80322952Y-132468619D01*
X80465809Y-131373380D02*
X81084857Y-131373380D01*
X80751523Y-131754333D01*
X80894380Y-131754333D01*
X80989619Y-131801952D01*
X81037238Y-131849571D01*
X81084857Y-131944809D01*
X81084857Y-132182904D01*
X81037238Y-132278142D01*
X80989619Y-132325761D01*
X80894380Y-132373380D01*
X80608666Y-132373380D01*
X80513428Y-132325761D01*
X80465809Y-132278142D01*
%TO.C,D3_0*%
X134996761Y-132373380D02*
X134996761Y-131373380D01*
X135234857Y-131373380D01*
X135377714Y-131421000D01*
X135472952Y-131516238D01*
X135520571Y-131611476D01*
X135568190Y-131801952D01*
X135568190Y-131944809D01*
X135520571Y-132135285D01*
X135472952Y-132230523D01*
X135377714Y-132325761D01*
X135234857Y-132373380D01*
X134996761Y-132373380D01*
X135901523Y-131373380D02*
X136520571Y-131373380D01*
X136187238Y-131754333D01*
X136330095Y-131754333D01*
X136425333Y-131801952D01*
X136472952Y-131849571D01*
X136520571Y-131944809D01*
X136520571Y-132182904D01*
X136472952Y-132278142D01*
X136425333Y-132325761D01*
X136330095Y-132373380D01*
X136044380Y-132373380D01*
X135949142Y-132325761D01*
X135901523Y-132278142D01*
X136711047Y-132468619D02*
X137472952Y-132468619D01*
X137901523Y-131373380D02*
X137996761Y-131373380D01*
X138092000Y-131421000D01*
X138139619Y-131468619D01*
X138187238Y-131563857D01*
X138234857Y-131754333D01*
X138234857Y-131992428D01*
X138187238Y-132182904D01*
X138139619Y-132278142D01*
X138092000Y-132325761D01*
X137996761Y-132373380D01*
X137901523Y-132373380D01*
X137806285Y-132325761D01*
X137758666Y-132278142D01*
X137711047Y-132182904D01*
X137663428Y-131992428D01*
X137663428Y-131754333D01*
X137711047Y-131563857D01*
X137758666Y-131468619D01*
X137806285Y-131421000D01*
X137901523Y-131373380D01*
%TO.C,D0_2*%
X96896761Y-74969380D02*
X96896761Y-73969380D01*
X97134857Y-73969380D01*
X97277714Y-74017000D01*
X97372952Y-74112238D01*
X97420571Y-74207476D01*
X97468190Y-74397952D01*
X97468190Y-74540809D01*
X97420571Y-74731285D01*
X97372952Y-74826523D01*
X97277714Y-74921761D01*
X97134857Y-74969380D01*
X96896761Y-74969380D01*
X98087238Y-73969380D02*
X98182476Y-73969380D01*
X98277714Y-74017000D01*
X98325333Y-74064619D01*
X98372952Y-74159857D01*
X98420571Y-74350333D01*
X98420571Y-74588428D01*
X98372952Y-74778904D01*
X98325333Y-74874142D01*
X98277714Y-74921761D01*
X98182476Y-74969380D01*
X98087238Y-74969380D01*
X97992000Y-74921761D01*
X97944380Y-74874142D01*
X97896761Y-74778904D01*
X97849142Y-74588428D01*
X97849142Y-74350333D01*
X97896761Y-74159857D01*
X97944380Y-74064619D01*
X97992000Y-74017000D01*
X98087238Y-73969380D01*
X98611047Y-75064619D02*
X99372952Y-75064619D01*
X99563428Y-74064619D02*
X99611047Y-74017000D01*
X99706285Y-73969380D01*
X99944380Y-73969380D01*
X100039619Y-74017000D01*
X100087238Y-74064619D01*
X100134857Y-74159857D01*
X100134857Y-74255095D01*
X100087238Y-74397952D01*
X99515809Y-74969380D01*
X100134857Y-74969380D01*
%TO.C,D1_3*%
X77720761Y-94273380D02*
X77720761Y-93273380D01*
X77958857Y-93273380D01*
X78101714Y-93321000D01*
X78196952Y-93416238D01*
X78244571Y-93511476D01*
X78292190Y-93701952D01*
X78292190Y-93844809D01*
X78244571Y-94035285D01*
X78196952Y-94130523D01*
X78101714Y-94225761D01*
X77958857Y-94273380D01*
X77720761Y-94273380D01*
X79244571Y-94273380D02*
X78673142Y-94273380D01*
X78958857Y-94273380D02*
X78958857Y-93273380D01*
X78863619Y-93416238D01*
X78768380Y-93511476D01*
X78673142Y-93559095D01*
X79435047Y-94368619D02*
X80196952Y-94368619D01*
X80339809Y-93273380D02*
X80958857Y-93273380D01*
X80625523Y-93654333D01*
X80768380Y-93654333D01*
X80863619Y-93701952D01*
X80911238Y-93749571D01*
X80958857Y-93844809D01*
X80958857Y-94082904D01*
X80911238Y-94178142D01*
X80863619Y-94225761D01*
X80768380Y-94273380D01*
X80482666Y-94273380D01*
X80387428Y-94225761D01*
X80339809Y-94178142D01*
%TO.C,RM_2*%
X182410380Y-78692547D02*
X181934190Y-79025880D01*
X182410380Y-79263976D02*
X181410380Y-79263976D01*
X181410380Y-78883023D01*
X181458000Y-78787785D01*
X181505619Y-78740166D01*
X181600857Y-78692547D01*
X181743714Y-78692547D01*
X181838952Y-78740166D01*
X181886571Y-78787785D01*
X181934190Y-78883023D01*
X181934190Y-79263976D01*
X182410380Y-78263976D02*
X181410380Y-78263976D01*
X182124666Y-77930642D01*
X181410380Y-77597309D01*
X182410380Y-77597309D01*
X182505619Y-77359214D02*
X182505619Y-76597309D01*
X181505619Y-76406833D02*
X181458000Y-76359214D01*
X181410380Y-76263976D01*
X181410380Y-76025880D01*
X181458000Y-75930642D01*
X181505619Y-75883023D01*
X181600857Y-75835404D01*
X181696095Y-75835404D01*
X181838952Y-75883023D01*
X182410380Y-76454452D01*
X182410380Y-75835404D01*
%TO.C,D3_2*%
X96514761Y-132373380D02*
X96514761Y-131373380D01*
X96752857Y-131373380D01*
X96895714Y-131421000D01*
X96990952Y-131516238D01*
X97038571Y-131611476D01*
X97086190Y-131801952D01*
X97086190Y-131944809D01*
X97038571Y-132135285D01*
X96990952Y-132230523D01*
X96895714Y-132325761D01*
X96752857Y-132373380D01*
X96514761Y-132373380D01*
X97419523Y-131373380D02*
X98038571Y-131373380D01*
X97705238Y-131754333D01*
X97848095Y-131754333D01*
X97943333Y-131801952D01*
X97990952Y-131849571D01*
X98038571Y-131944809D01*
X98038571Y-132182904D01*
X97990952Y-132278142D01*
X97943333Y-132325761D01*
X97848095Y-132373380D01*
X97562380Y-132373380D01*
X97467142Y-132325761D01*
X97419523Y-132278142D01*
X98229047Y-132468619D02*
X98990952Y-132468619D01*
X99181428Y-131468619D02*
X99229047Y-131421000D01*
X99324285Y-131373380D01*
X99562380Y-131373380D01*
X99657619Y-131421000D01*
X99705238Y-131468619D01*
X99752857Y-131563857D01*
X99752857Y-131659095D01*
X99705238Y-131801952D01*
X99133809Y-132373380D01*
X99752857Y-132373380D01*
%TO.C,D0_0*%
X134996761Y-74969380D02*
X134996761Y-73969380D01*
X135234857Y-73969380D01*
X135377714Y-74017000D01*
X135472952Y-74112238D01*
X135520571Y-74207476D01*
X135568190Y-74397952D01*
X135568190Y-74540809D01*
X135520571Y-74731285D01*
X135472952Y-74826523D01*
X135377714Y-74921761D01*
X135234857Y-74969380D01*
X134996761Y-74969380D01*
X136187238Y-73969380D02*
X136282476Y-73969380D01*
X136377714Y-74017000D01*
X136425333Y-74064619D01*
X136472952Y-74159857D01*
X136520571Y-74350333D01*
X136520571Y-74588428D01*
X136472952Y-74778904D01*
X136425333Y-74874142D01*
X136377714Y-74921761D01*
X136282476Y-74969380D01*
X136187238Y-74969380D01*
X136092000Y-74921761D01*
X136044380Y-74874142D01*
X135996761Y-74778904D01*
X135949142Y-74588428D01*
X135949142Y-74350333D01*
X135996761Y-74159857D01*
X136044380Y-74064619D01*
X136092000Y-74017000D01*
X136187238Y-73969380D01*
X136711047Y-75064619D02*
X137472952Y-75064619D01*
X137901523Y-73969380D02*
X137996761Y-73969380D01*
X138092000Y-74017000D01*
X138139619Y-74064619D01*
X138187238Y-74159857D01*
X138234857Y-74350333D01*
X138234857Y-74588428D01*
X138187238Y-74778904D01*
X138139619Y-74874142D01*
X138092000Y-74921761D01*
X137996761Y-74969380D01*
X137901523Y-74969380D01*
X137806285Y-74921761D01*
X137758666Y-74874142D01*
X137711047Y-74778904D01*
X137663428Y-74588428D01*
X137663428Y-74350333D01*
X137711047Y-74159857D01*
X137758666Y-74064619D01*
X137806285Y-74017000D01*
X137901523Y-73969380D01*
%TO.C,ESP32_A1*%
X162941428Y-75836571D02*
X163274761Y-75836571D01*
X163417619Y-76360380D02*
X162941428Y-76360380D01*
X162941428Y-75360380D01*
X163417619Y-75360380D01*
X163798571Y-76312761D02*
X163941428Y-76360380D01*
X164179523Y-76360380D01*
X164274761Y-76312761D01*
X164322380Y-76265142D01*
X164370000Y-76169904D01*
X164370000Y-76074666D01*
X164322380Y-75979428D01*
X164274761Y-75931809D01*
X164179523Y-75884190D01*
X163989047Y-75836571D01*
X163893809Y-75788952D01*
X163846190Y-75741333D01*
X163798571Y-75646095D01*
X163798571Y-75550857D01*
X163846190Y-75455619D01*
X163893809Y-75408000D01*
X163989047Y-75360380D01*
X164227142Y-75360380D01*
X164370000Y-75408000D01*
X164798571Y-76360380D02*
X164798571Y-75360380D01*
X165179523Y-75360380D01*
X165274761Y-75408000D01*
X165322380Y-75455619D01*
X165370000Y-75550857D01*
X165370000Y-75693714D01*
X165322380Y-75788952D01*
X165274761Y-75836571D01*
X165179523Y-75884190D01*
X164798571Y-75884190D01*
X165703333Y-75360380D02*
X166322380Y-75360380D01*
X165989047Y-75741333D01*
X166131904Y-75741333D01*
X166227142Y-75788952D01*
X166274761Y-75836571D01*
X166322380Y-75931809D01*
X166322380Y-76169904D01*
X166274761Y-76265142D01*
X166227142Y-76312761D01*
X166131904Y-76360380D01*
X165846190Y-76360380D01*
X165750952Y-76312761D01*
X165703333Y-76265142D01*
X166703333Y-75455619D02*
X166750952Y-75408000D01*
X166846190Y-75360380D01*
X167084285Y-75360380D01*
X167179523Y-75408000D01*
X167227142Y-75455619D01*
X167274761Y-75550857D01*
X167274761Y-75646095D01*
X167227142Y-75788952D01*
X166655714Y-76360380D01*
X167274761Y-76360380D01*
X167465238Y-76455619D02*
X168227142Y-76455619D01*
X168417619Y-76074666D02*
X168893809Y-76074666D01*
X168322380Y-76360380D02*
X168655714Y-75360380D01*
X168989047Y-76360380D01*
X169846190Y-76360380D02*
X169274761Y-76360380D01*
X169560476Y-76360380D02*
X169560476Y-75360380D01*
X169465238Y-75503238D01*
X169370000Y-75598476D01*
X169274761Y-75646095D01*
X175379523Y-77165142D02*
X175331904Y-77212761D01*
X175189047Y-77260380D01*
X175093809Y-77260380D01*
X174950952Y-77212761D01*
X174855714Y-77117523D01*
X174808095Y-77022285D01*
X174760476Y-76831809D01*
X174760476Y-76688952D01*
X174808095Y-76498476D01*
X174855714Y-76403238D01*
X174950952Y-76308000D01*
X175093809Y-76260380D01*
X175189047Y-76260380D01*
X175331904Y-76308000D01*
X175379523Y-76355619D01*
X175760476Y-77212761D02*
X175903333Y-77260380D01*
X176141428Y-77260380D01*
X176236666Y-77212761D01*
X176284285Y-77165142D01*
X176331904Y-77069904D01*
X176331904Y-76974666D01*
X176284285Y-76879428D01*
X176236666Y-76831809D01*
X176141428Y-76784190D01*
X175950952Y-76736571D01*
X175855714Y-76688952D01*
X175808095Y-76641333D01*
X175760476Y-76546095D01*
X175760476Y-76450857D01*
X175808095Y-76355619D01*
X175855714Y-76308000D01*
X175950952Y-76260380D01*
X176189047Y-76260380D01*
X176331904Y-76308000D01*
X176760476Y-77260380D02*
X176760476Y-76260380D01*
X177331904Y-77260380D01*
X177331904Y-76260380D01*
X175308095Y-68608000D02*
X175212857Y-68560380D01*
X175070000Y-68560380D01*
X174927142Y-68608000D01*
X174831904Y-68703238D01*
X174784285Y-68798476D01*
X174736666Y-68988952D01*
X174736666Y-69131809D01*
X174784285Y-69322285D01*
X174831904Y-69417523D01*
X174927142Y-69512761D01*
X175070000Y-69560380D01*
X175165238Y-69560380D01*
X175308095Y-69512761D01*
X175355714Y-69465142D01*
X175355714Y-69131809D01*
X175165238Y-69131809D01*
X175784285Y-69560380D02*
X175784285Y-68560380D01*
X176355714Y-69560380D01*
X176355714Y-68560380D01*
X176831904Y-69560380D02*
X176831904Y-68560380D01*
X177070000Y-68560380D01*
X177212857Y-68608000D01*
X177308095Y-68703238D01*
X177355714Y-68798476D01*
X177403333Y-68988952D01*
X177403333Y-69131809D01*
X177355714Y-69322285D01*
X177308095Y-69417523D01*
X177212857Y-69512761D01*
X177070000Y-69560380D01*
X176831904Y-69560380D01*
X155312857Y-76160380D02*
X155646190Y-77160380D01*
X155979523Y-76160380D01*
X156312857Y-77160380D02*
X156312857Y-76160380D01*
X156312857Y-76636571D02*
X156884285Y-76636571D01*
X156884285Y-77160380D02*
X156884285Y-76160380D01*
X174855714Y-72112761D02*
X174998571Y-72160380D01*
X175236666Y-72160380D01*
X175331904Y-72112761D01*
X175379523Y-72065142D01*
X175427142Y-71969904D01*
X175427142Y-71874666D01*
X175379523Y-71779428D01*
X175331904Y-71731809D01*
X175236666Y-71684190D01*
X175046190Y-71636571D01*
X174950952Y-71588952D01*
X174903333Y-71541333D01*
X174855714Y-71446095D01*
X174855714Y-71350857D01*
X174903333Y-71255619D01*
X174950952Y-71208000D01*
X175046190Y-71160380D01*
X175284285Y-71160380D01*
X175427142Y-71208000D01*
X175855714Y-72160380D02*
X175855714Y-71160380D01*
X176093809Y-71160380D01*
X176236666Y-71208000D01*
X176331904Y-71303238D01*
X176379523Y-71398476D01*
X176427142Y-71588952D01*
X176427142Y-71731809D01*
X176379523Y-71922285D01*
X176331904Y-72017523D01*
X176236666Y-72112761D01*
X176093809Y-72160380D01*
X175855714Y-72160380D01*
X176808095Y-71874666D02*
X177284285Y-71874666D01*
X176712857Y-72160380D02*
X177046190Y-71160380D01*
X177379523Y-72160380D01*
X174027142Y-79712761D02*
X174170000Y-79760380D01*
X174408095Y-79760380D01*
X174503333Y-79712761D01*
X174550952Y-79665142D01*
X174598571Y-79569904D01*
X174598571Y-79474666D01*
X174550952Y-79379428D01*
X174503333Y-79331809D01*
X174408095Y-79284190D01*
X174217619Y-79236571D01*
X174122380Y-79188952D01*
X174074761Y-79141333D01*
X174027142Y-79046095D01*
X174027142Y-78950857D01*
X174074761Y-78855619D01*
X174122380Y-78808000D01*
X174217619Y-78760380D01*
X174455714Y-78760380D01*
X174598571Y-78808000D01*
X174789047Y-79855619D02*
X175550952Y-79855619D01*
X176360476Y-79760380D02*
X176027142Y-79284190D01*
X175789047Y-79760380D02*
X175789047Y-78760380D01*
X176170000Y-78760380D01*
X176265238Y-78808000D01*
X176312857Y-78855619D01*
X176360476Y-78950857D01*
X176360476Y-79093714D01*
X176312857Y-79188952D01*
X176265238Y-79236571D01*
X176170000Y-79284190D01*
X175789047Y-79284190D01*
X176693809Y-78760380D02*
X177360476Y-79760380D01*
X177360476Y-78760380D02*
X176693809Y-79760380D01*
X155331904Y-78660380D02*
X155665238Y-79660380D01*
X155998571Y-78660380D01*
X156808095Y-79660380D02*
X156331904Y-79660380D01*
X156331904Y-78660380D01*
X155436666Y-83760380D02*
X155674761Y-84760380D01*
X155865238Y-84046095D01*
X156055714Y-84760380D01*
X156293809Y-83760380D01*
X157150952Y-84760380D02*
X156674761Y-84760380D01*
X156674761Y-83760380D01*
X155331904Y-68560380D02*
X155950952Y-68560380D01*
X155617619Y-68941333D01*
X155760476Y-68941333D01*
X155855714Y-68988952D01*
X155903333Y-69036571D01*
X155950952Y-69131809D01*
X155950952Y-69369904D01*
X155903333Y-69465142D01*
X155855714Y-69512761D01*
X155760476Y-69560380D01*
X155474761Y-69560380D01*
X155379523Y-69512761D01*
X155331904Y-69465142D01*
X156236666Y-68560380D02*
X156570000Y-69560380D01*
X156903333Y-68560380D01*
X157141428Y-68560380D02*
X157760476Y-68560380D01*
X157427142Y-68941333D01*
X157570000Y-68941333D01*
X157665238Y-68988952D01*
X157712857Y-69036571D01*
X157760476Y-69131809D01*
X157760476Y-69369904D01*
X157712857Y-69465142D01*
X157665238Y-69512761D01*
X157570000Y-69560380D01*
X157284285Y-69560380D01*
X157189047Y-69512761D01*
X157141428Y-69465142D01*
X174246190Y-82112761D02*
X174389047Y-82160380D01*
X174627142Y-82160380D01*
X174722380Y-82112761D01*
X174770000Y-82065142D01*
X174817619Y-81969904D01*
X174817619Y-81874666D01*
X174770000Y-81779428D01*
X174722380Y-81731809D01*
X174627142Y-81684190D01*
X174436666Y-81636571D01*
X174341428Y-81588952D01*
X174293809Y-81541333D01*
X174246190Y-81446095D01*
X174246190Y-81350857D01*
X174293809Y-81255619D01*
X174341428Y-81208000D01*
X174436666Y-81160380D01*
X174674761Y-81160380D01*
X174817619Y-81208000D01*
X175008095Y-82255619D02*
X175770000Y-82255619D01*
X175865238Y-81160380D02*
X176436666Y-81160380D01*
X176150952Y-82160380D02*
X176150952Y-81160380D01*
X176674761Y-81160380D02*
X177341428Y-82160380D01*
X177341428Y-81160380D02*
X176674761Y-82160380D01*
X173479523Y-84336571D02*
X173622380Y-84384190D01*
X173670000Y-84431809D01*
X173717619Y-84527047D01*
X173717619Y-84669904D01*
X173670000Y-84765142D01*
X173622380Y-84812761D01*
X173527142Y-84860380D01*
X173146190Y-84860380D01*
X173146190Y-83860380D01*
X173479523Y-83860380D01*
X173574761Y-83908000D01*
X173622380Y-83955619D01*
X173670000Y-84050857D01*
X173670000Y-84146095D01*
X173622380Y-84241333D01*
X173574761Y-84288952D01*
X173479523Y-84336571D01*
X173146190Y-84336571D01*
X173908095Y-84955619D02*
X174670000Y-84955619D01*
X174908095Y-84860380D02*
X174908095Y-83860380D01*
X175479523Y-84860380D01*
X175479523Y-83860380D01*
X175860476Y-83860380D02*
X176527142Y-84860380D01*
X176527142Y-83860380D02*
X175860476Y-84860380D01*
X176765238Y-83860380D02*
X177336666Y-83860380D01*
X177050952Y-84860380D02*
X177050952Y-83860380D01*
X155317619Y-81260380D02*
X155555714Y-82260380D01*
X155746190Y-81546095D01*
X155936666Y-82260380D01*
X156174761Y-81260380D01*
X156555714Y-82260380D02*
X156555714Y-81260380D01*
X156555714Y-81736571D02*
X157127142Y-81736571D01*
X157127142Y-82260380D02*
X157127142Y-81260380D01*
X174879523Y-74612761D02*
X175022380Y-74660380D01*
X175260476Y-74660380D01*
X175355714Y-74612761D01*
X175403333Y-74565142D01*
X175450952Y-74469904D01*
X175450952Y-74374666D01*
X175403333Y-74279428D01*
X175355714Y-74231809D01*
X175260476Y-74184190D01*
X175070000Y-74136571D01*
X174974761Y-74088952D01*
X174927142Y-74041333D01*
X174879523Y-73946095D01*
X174879523Y-73850857D01*
X174927142Y-73755619D01*
X174974761Y-73708000D01*
X175070000Y-73660380D01*
X175308095Y-73660380D01*
X175450952Y-73708000D01*
X176450952Y-74565142D02*
X176403333Y-74612761D01*
X176260476Y-74660380D01*
X176165238Y-74660380D01*
X176022380Y-74612761D01*
X175927142Y-74517523D01*
X175879523Y-74422285D01*
X175831904Y-74231809D01*
X175831904Y-74088952D01*
X175879523Y-73898476D01*
X175927142Y-73803238D01*
X176022380Y-73708000D01*
X176165238Y-73660380D01*
X176260476Y-73660380D01*
X176403333Y-73708000D01*
X176450952Y-73755619D01*
X177355714Y-74660380D02*
X176879523Y-74660380D01*
X176879523Y-73660380D01*
X155379523Y-73660380D02*
X155379523Y-74469904D01*
X155427142Y-74565142D01*
X155474761Y-74612761D01*
X155570000Y-74660380D01*
X155760476Y-74660380D01*
X155855714Y-74612761D01*
X155903333Y-74565142D01*
X155950952Y-74469904D01*
X155950952Y-73660380D01*
X156903333Y-74660380D02*
X156427142Y-74660380D01*
X156427142Y-73660380D01*
X155360476Y-71160380D02*
X155360476Y-71969904D01*
X155408095Y-72065142D01*
X155455714Y-72112761D01*
X155550952Y-72160380D01*
X155741428Y-72160380D01*
X155836666Y-72112761D01*
X155884285Y-72065142D01*
X155931904Y-71969904D01*
X155931904Y-71160380D01*
X156408095Y-72160380D02*
X156408095Y-71160380D01*
X156408095Y-71636571D02*
X156979523Y-71636571D01*
X156979523Y-72160380D02*
X156979523Y-71160380D01*
D12*
%TO.C,D1_1*%
X119794000Y-92821000D02*
X119794000Y-90821000D01*
X119794000Y-92821000D02*
X115894000Y-92821000D01*
X119794000Y-90821000D02*
X115894000Y-90821000D01*
%TO.C,RS_2*%
X182865500Y-66906224D02*
X182865500Y-66396776D01*
X183910500Y-66906224D02*
X183910500Y-66396776D01*
%TO.C,C1*%
X178550000Y-123997767D02*
X178550000Y-123705233D01*
X177530000Y-123997767D02*
X177530000Y-123705233D01*
%TO.C,D2_0*%
X139096000Y-111871000D02*
X139096000Y-109871000D01*
X139096000Y-111871000D02*
X135196000Y-111871000D01*
X139096000Y-109871000D02*
X135196000Y-109871000D01*
%TO.C,RT_4*%
X195072500Y-94891776D02*
X195072500Y-95401224D01*
X194027500Y-94891776D02*
X194027500Y-95401224D01*
%TO.C,D0_1*%
X118735400Y-73517000D02*
X114835400Y-73517000D01*
X118735400Y-71517000D02*
X114835400Y-71517000D01*
X118735400Y-73517000D02*
X118735400Y-71517000D01*
%TO.C,C3*%
X159514000Y-121112233D02*
X159514000Y-121404767D01*
X158494000Y-121112233D02*
X158494000Y-121404767D01*
D10*
%TO.C,SW_0_0*%
X143592000Y-73899000D02*
X143592000Y-74899000D01*
X142592000Y-87899000D02*
X143592000Y-87899000D01*
X129592000Y-87899000D02*
X129592000Y-86899000D01*
X143592000Y-86899000D02*
X143592000Y-87899000D01*
X143592000Y-73899000D02*
X142592000Y-73899000D01*
X129592000Y-74899000D02*
X129592000Y-73899000D01*
X129592000Y-87899000D02*
X130592000Y-87899000D01*
X130592000Y-73899000D02*
X129592000Y-73899000D01*
D12*
%TO.C,C2*%
X177506969Y-94884000D02*
X177303031Y-94884000D01*
X177506969Y-96124000D02*
X177303031Y-96124000D01*
%TO.C,D1_0*%
X139098000Y-90821000D02*
X135198000Y-90821000D01*
X139098000Y-92821000D02*
X135198000Y-92821000D01*
X139098000Y-92821000D02*
X139098000Y-90821000D01*
D10*
%TO.C,SW_2_1*%
X124542000Y-124999000D02*
X124542000Y-125999000D01*
X124542000Y-111999000D02*
X124542000Y-112999000D01*
X124542000Y-111999000D02*
X123542000Y-111999000D01*
X111542000Y-111999000D02*
X110542000Y-111999000D01*
X110542000Y-112999000D02*
X110542000Y-111999000D01*
X123542000Y-125999000D02*
X124542000Y-125999000D01*
X110542000Y-125999000D02*
X110542000Y-124999000D01*
X110542000Y-125999000D02*
X111542000Y-125999000D01*
D12*
%TO.C,UM1*%
X186460035Y-112892460D02*
X186460035Y-121292460D01*
X181850035Y-121292460D02*
X181050035Y-120492460D01*
X181050035Y-120492460D02*
X181050035Y-112892460D01*
X186460035Y-121292460D02*
X181850035Y-121292460D01*
X181050035Y-112892460D02*
X186460035Y-112892460D01*
D10*
%TO.C,SW_1_0*%
X130592000Y-92949000D02*
X129592000Y-92949000D01*
X129592000Y-106949000D02*
X130592000Y-106949000D01*
X143592000Y-105949000D02*
X143592000Y-106949000D01*
X129592000Y-93949000D02*
X129592000Y-92949000D01*
X129592000Y-106949000D02*
X129592000Y-105949000D01*
X143592000Y-92949000D02*
X142592000Y-92949000D01*
X143592000Y-92949000D02*
X143592000Y-93949000D01*
X142592000Y-106949000D02*
X143592000Y-106949000D01*
D12*
%TO.C,AMS1*%
X153308000Y-116012000D02*
X153308000Y-110002000D01*
X153308000Y-110002000D02*
X154568000Y-110002000D01*
X160128000Y-113762000D02*
X160128000Y-110002000D01*
X160128000Y-110002000D02*
X158868000Y-110002000D01*
%TO.C,C4*%
X154985767Y-120902000D02*
X154693233Y-120902000D01*
X154985767Y-121922000D02*
X154693233Y-121922000D01*
%TO.C,D1_2*%
X100616000Y-90821000D02*
X96716000Y-90821000D01*
X100616000Y-92821000D02*
X100616000Y-90821000D01*
X100616000Y-92821000D02*
X96716000Y-92821000D01*
%TO.C,D2_3*%
X81692000Y-111871000D02*
X81692000Y-109871000D01*
X81692000Y-109871000D02*
X77792000Y-109871000D01*
X81692000Y-111871000D02*
X77792000Y-111871000D01*
D10*
%TO.C,SW_3_0*%
X143592000Y-131049000D02*
X142592000Y-131049000D01*
X143592000Y-144049000D02*
X143592000Y-145049000D01*
X129592000Y-145049000D02*
X130592000Y-145049000D01*
X142592000Y-145049000D02*
X143592000Y-145049000D01*
X130592000Y-131049000D02*
X129592000Y-131049000D01*
X129592000Y-132049000D02*
X129592000Y-131049000D01*
X129592000Y-145049000D02*
X129592000Y-144049000D01*
X143592000Y-131049000D02*
X143592000Y-132049000D01*
%TO.C,SW_1_3*%
X86442000Y-92949000D02*
X85442000Y-92949000D01*
X86442000Y-105949000D02*
X86442000Y-106949000D01*
X72442000Y-93949000D02*
X72442000Y-92949000D01*
X72442000Y-106949000D02*
X72442000Y-105949000D01*
X73442000Y-92949000D02*
X72442000Y-92949000D01*
X85442000Y-106949000D02*
X86442000Y-106949000D01*
X86442000Y-92949000D02*
X86442000Y-93949000D01*
X72442000Y-106949000D02*
X73442000Y-106949000D01*
%TO.C,SW_1_2*%
X91492000Y-106949000D02*
X92492000Y-106949000D01*
X91492000Y-106949000D02*
X91492000Y-105949000D01*
X105492000Y-92949000D02*
X105492000Y-93949000D01*
X91492000Y-93949000D02*
X91492000Y-92949000D01*
X105492000Y-92949000D02*
X104492000Y-92949000D01*
X92492000Y-92949000D02*
X91492000Y-92949000D01*
X105492000Y-105949000D02*
X105492000Y-106949000D01*
X104492000Y-106949000D02*
X105492000Y-106949000D01*
D12*
%TO.C,D1*%
X178504000Y-100549000D02*
X178504000Y-99349000D01*
X176654000Y-100549000D02*
X178504000Y-100549000D01*
X176654000Y-99349000D02*
X178504000Y-99349000D01*
%TO.C,TMC1*%
X174611000Y-126746000D02*
X174611000Y-145034000D01*
X173595000Y-146050000D02*
X150227000Y-146050000D01*
X150227000Y-125730000D02*
X173595000Y-125730000D01*
X149211000Y-145034000D02*
X149211000Y-126746000D01*
X149211000Y-145034000D02*
G75*
G03*
X150227000Y-146050000I1016002J2D01*
G01*
X150227000Y-125730000D02*
G75*
G03*
X149211000Y-126746000I2J-1016002D01*
G01*
X173595000Y-146050000D02*
G75*
G03*
X174611000Y-145034000I-2J1016002D01*
G01*
X174611000Y-126746000D02*
G75*
G03*
X173595000Y-125730000I-1016002J-2D01*
G01*
%TO.C,RM_1*%
X182865500Y-83924224D02*
X182865500Y-83414776D01*
X183910500Y-83924224D02*
X183910500Y-83414776D01*
D10*
%TO.C,SW_0_3*%
X72442000Y-74899000D02*
X72442000Y-73899000D01*
X85442000Y-87899000D02*
X86442000Y-87899000D01*
X72442000Y-87899000D02*
X72442000Y-86899000D01*
X86442000Y-86899000D02*
X86442000Y-87899000D01*
X86442000Y-73899000D02*
X85442000Y-73899000D01*
X73442000Y-73899000D02*
X72442000Y-73899000D01*
X86442000Y-73899000D02*
X86442000Y-74899000D01*
X72442000Y-87899000D02*
X73442000Y-87899000D01*
%TO.C,SW_3_2*%
X105492000Y-144049000D02*
X105492000Y-145049000D01*
X104492000Y-145049000D02*
X105492000Y-145049000D01*
X105492000Y-131049000D02*
X104492000Y-131049000D01*
X105492000Y-131049000D02*
X105492000Y-132049000D01*
X91492000Y-145049000D02*
X92492000Y-145049000D01*
X91492000Y-145049000D02*
X91492000Y-144049000D01*
X92492000Y-131049000D02*
X91492000Y-131049000D01*
X91492000Y-132049000D02*
X91492000Y-131049000D01*
%TO.C,SW_0_1*%
X123542000Y-87899000D02*
X124542000Y-87899000D01*
X110542000Y-74899000D02*
X110542000Y-73899000D01*
X124542000Y-73899000D02*
X123542000Y-73899000D01*
X124542000Y-73899000D02*
X124542000Y-74899000D01*
X110542000Y-87899000D02*
X111542000Y-87899000D01*
X110542000Y-87899000D02*
X110542000Y-86899000D01*
X111542000Y-73899000D02*
X110542000Y-73899000D01*
X124542000Y-86899000D02*
X124542000Y-87899000D01*
D12*
%TO.C,RT_3*%
X185772500Y-94971776D02*
X185772500Y-95481224D01*
X186817500Y-94971776D02*
X186817500Y-95481224D01*
%TO.C,QMK1*%
X198868000Y-56134000D02*
X193788000Y-56134000D01*
X209155000Y-86614000D02*
X209155000Y-89154000D01*
X196455000Y-89154000D02*
X193785000Y-89154000D01*
X198868000Y-53594000D02*
X198868000Y-56134000D01*
X209155000Y-89154000D02*
X211822000Y-89154000D01*
X209155000Y-58674000D02*
X211825000Y-58674000D01*
X196455000Y-89154000D02*
X196455000Y-58674000D01*
X206742000Y-53594000D02*
X206742000Y-56134000D01*
X209155000Y-86614000D02*
X209155000Y-58674000D01*
X193788000Y-89154000D02*
X209155000Y-89154000D01*
X206742000Y-53594000D02*
X198868000Y-53594000D01*
X196455000Y-58674000D02*
X193785000Y-58674000D01*
X211822000Y-56134000D02*
X206742000Y-56134000D01*
X196455000Y-61214000D02*
X193785000Y-61214000D01*
X211822000Y-89154000D02*
X211822000Y-56134000D01*
X193788000Y-56134000D02*
X193785000Y-89154000D01*
%TO.C,RT_1*%
X177150276Y-106186500D02*
X177659724Y-106186500D01*
X177150276Y-105141500D02*
X177659724Y-105141500D01*
%TO.C,D0_3*%
X81692000Y-73517000D02*
X77792000Y-73517000D01*
X81692000Y-73517000D02*
X81692000Y-71517000D01*
X81692000Y-71517000D02*
X77792000Y-71517000D01*
%TO.C,RS_1*%
X183910500Y-71628724D02*
X183910500Y-71119276D01*
X182865500Y-71628724D02*
X182865500Y-71119276D01*
%TO.C,D3_1*%
X119284000Y-128921000D02*
X115384000Y-128921000D01*
X119284000Y-130921000D02*
X115384000Y-130921000D01*
X119284000Y-130921000D02*
X119284000Y-128921000D01*
D10*
%TO.C,SW_3_1*%
X123542000Y-145049000D02*
X124542000Y-145049000D01*
X110542000Y-132049000D02*
X110542000Y-131049000D01*
X124542000Y-144049000D02*
X124542000Y-145049000D01*
X111542000Y-131049000D02*
X110542000Y-131049000D01*
X124542000Y-131049000D02*
X123542000Y-131049000D01*
X110542000Y-145049000D02*
X110542000Y-144049000D01*
X110542000Y-145049000D02*
X111542000Y-145049000D01*
X124542000Y-131049000D02*
X124542000Y-132049000D01*
%TO.C,SW_1_1*%
X124542000Y-105949000D02*
X124542000Y-106949000D01*
X124542000Y-92949000D02*
X124542000Y-93949000D01*
X110542000Y-93949000D02*
X110542000Y-92949000D01*
X124542000Y-92949000D02*
X123542000Y-92949000D01*
X110542000Y-106949000D02*
X110542000Y-105949000D01*
X111542000Y-92949000D02*
X110542000Y-92949000D01*
X110542000Y-106949000D02*
X111542000Y-106949000D01*
X123542000Y-106949000D02*
X124542000Y-106949000D01*
D12*
%TO.C,D2_1*%
X119538000Y-111871000D02*
X115638000Y-111871000D01*
X119538000Y-109871000D02*
X115638000Y-109871000D01*
X119538000Y-111871000D02*
X119538000Y-109871000D01*
%TO.C,UVW1*%
X204440000Y-122834000D02*
X205780000Y-122834000D01*
X204440000Y-127644000D02*
X204440000Y-129134000D01*
X210240000Y-122834000D02*
X208500000Y-122834000D01*
X210240000Y-129134000D02*
X210240000Y-122834000D01*
X208500000Y-129134000D02*
X210240000Y-129134000D01*
X204440000Y-124324000D02*
X204440000Y-122834000D01*
X204440000Y-127644000D02*
X203240000Y-127644000D01*
X204440000Y-129134000D02*
X205780000Y-129134000D01*
%TO.C,D2_2*%
X100614000Y-111871000D02*
X96714000Y-111871000D01*
X100614000Y-111871000D02*
X100614000Y-109871000D01*
X100614000Y-109871000D02*
X96714000Y-109871000D01*
D10*
%TO.C,SW_2_2*%
X105492000Y-111999000D02*
X105492000Y-112999000D01*
X91492000Y-125999000D02*
X91492000Y-124999000D01*
X91492000Y-125999000D02*
X92492000Y-125999000D01*
X105492000Y-111999000D02*
X104492000Y-111999000D01*
X104492000Y-125999000D02*
X105492000Y-125999000D01*
X91492000Y-112999000D02*
X91492000Y-111999000D01*
X105492000Y-124999000D02*
X105492000Y-125999000D01*
X92492000Y-111999000D02*
X91492000Y-111999000D01*
%TO.C,SW_2_3*%
X73442000Y-111999000D02*
X72442000Y-111999000D01*
X86442000Y-111999000D02*
X85442000Y-111999000D01*
X72442000Y-125999000D02*
X72442000Y-124999000D01*
X86442000Y-124999000D02*
X86442000Y-125999000D01*
X72442000Y-125999000D02*
X73442000Y-125999000D01*
X86442000Y-111999000D02*
X86442000Y-112999000D01*
X85442000Y-125999000D02*
X86442000Y-125999000D01*
X72442000Y-112999000D02*
X72442000Y-111999000D01*
D12*
%TO.C,J1*%
X209587000Y-101743000D02*
X209917000Y-101743000D01*
X209519929Y-106823000D02*
X209917000Y-106823000D01*
X212577000Y-101803000D02*
X218577000Y-101803000D01*
X209519929Y-105043000D02*
X209917000Y-105043000D01*
X209587000Y-102503000D02*
X209917000Y-102503000D01*
X209917000Y-105933000D02*
X212577000Y-105933000D01*
X212577000Y-108533000D02*
X212577000Y-100793000D01*
X207207000Y-100853000D02*
X208477000Y-100853000D01*
X218577000Y-102503000D02*
X212577000Y-102503000D01*
X212577000Y-101743000D02*
X218577000Y-101743000D01*
X209917000Y-103393000D02*
X212577000Y-103393000D01*
X212577000Y-100793000D02*
X209917000Y-100793000D01*
X209519929Y-107583000D02*
X209917000Y-107583000D01*
X209917000Y-100793000D02*
X209917000Y-108533000D01*
X209519929Y-104283000D02*
X209917000Y-104283000D01*
X212577000Y-106823000D02*
X218577000Y-106823000D01*
X212577000Y-104283000D02*
X218577000Y-104283000D01*
X212577000Y-102043000D02*
X218577000Y-102043000D01*
X212577000Y-101923000D02*
X218577000Y-101923000D01*
X212577000Y-102283000D02*
X218577000Y-102283000D01*
X218577000Y-107583000D02*
X212577000Y-107583000D01*
X218577000Y-105043000D02*
X212577000Y-105043000D01*
X212577000Y-102403000D02*
X218577000Y-102403000D01*
X207207000Y-102123000D02*
X207207000Y-100853000D01*
X212577000Y-102163000D02*
X218577000Y-102163000D01*
X218577000Y-104283000D02*
X218577000Y-105043000D01*
X218577000Y-101743000D02*
X218577000Y-102503000D01*
X218577000Y-106823000D02*
X218577000Y-107583000D01*
X209917000Y-108533000D02*
X212577000Y-108533000D01*
%TO.C,D3_3*%
X81692000Y-130921000D02*
X77792000Y-130921000D01*
X81692000Y-130921000D02*
X81692000Y-128921000D01*
X81692000Y-128921000D02*
X77792000Y-128921000D01*
%TO.C,D3_0*%
X138842000Y-128921000D02*
X134942000Y-128921000D01*
X138842000Y-130921000D02*
X134942000Y-130921000D01*
X138842000Y-130921000D02*
X138842000Y-128921000D01*
D10*
%TO.C,SW_0_2*%
X91492000Y-87899000D02*
X92492000Y-87899000D01*
X104492000Y-87899000D02*
X105492000Y-87899000D01*
X105492000Y-86899000D02*
X105492000Y-87899000D01*
X92492000Y-73899000D02*
X91492000Y-73899000D01*
X91492000Y-74899000D02*
X91492000Y-73899000D01*
X91492000Y-87899000D02*
X91492000Y-86899000D01*
X105492000Y-73899000D02*
X104492000Y-73899000D01*
X105492000Y-73899000D02*
X105492000Y-74899000D01*
D12*
%TO.C,D0_2*%
X100742000Y-73517000D02*
X100742000Y-71517000D01*
X100742000Y-71517000D02*
X96842000Y-71517000D01*
X100742000Y-73517000D02*
X96842000Y-73517000D01*
%TO.C,D1_3*%
X81566000Y-92821000D02*
X81566000Y-90821000D01*
X81566000Y-92821000D02*
X77666000Y-92821000D01*
X81566000Y-90821000D02*
X77666000Y-90821000D01*
%TO.C,RM_2*%
X182865500Y-77828224D02*
X182865500Y-77318776D01*
X183910500Y-77828224D02*
X183910500Y-77318776D01*
%TO.C,D3_2*%
X100360000Y-130921000D02*
X96460000Y-130921000D01*
X100360000Y-128921000D02*
X96460000Y-128921000D01*
X100360000Y-130921000D02*
X100360000Y-128921000D01*
%TO.C,D0_0*%
X138842000Y-73517000D02*
X134942000Y-73517000D01*
X138842000Y-71517000D02*
X134942000Y-71517000D01*
X138842000Y-73517000D02*
X138842000Y-71517000D01*
D10*
%TO.C,SW_3_3*%
X85442000Y-145049000D02*
X86442000Y-145049000D01*
X72442000Y-132049000D02*
X72442000Y-131049000D01*
X86442000Y-144049000D02*
X86442000Y-145049000D01*
X72442000Y-145049000D02*
X72442000Y-144049000D01*
X72442000Y-145049000D02*
X73442000Y-145049000D01*
X86442000Y-131049000D02*
X86442000Y-132049000D01*
X73442000Y-131049000D02*
X72442000Y-131049000D01*
X86442000Y-131049000D02*
X85442000Y-131049000D01*
%TO.C,SW_2_0*%
X130592000Y-111999000D02*
X129592000Y-111999000D01*
X143592000Y-111999000D02*
X143592000Y-112999000D01*
X129592000Y-125999000D02*
X129592000Y-124999000D01*
X143592000Y-124999000D02*
X143592000Y-125999000D01*
X129592000Y-112999000D02*
X129592000Y-111999000D01*
X129592000Y-125999000D02*
X130592000Y-125999000D01*
X142592000Y-125999000D02*
X143592000Y-125999000D01*
X143592000Y-111999000D02*
X142592000Y-111999000D01*
D11*
%TO.C,ESP32_A1*%
X153670000Y-99038500D02*
X179070000Y-99038500D01*
X181610000Y-96498500D02*
X181610000Y-61954500D01*
X179070000Y-59414500D02*
X153670000Y-59414500D01*
X151130000Y-61954500D02*
X151130000Y-96498500D01*
X181610000Y-61954500D02*
G75*
G03*
X179070000Y-59414500I-2540001J-1D01*
G01*
X151130000Y-96498500D02*
G75*
G03*
X153670000Y-99038500I2540001J1D01*
G01*
X153670000Y-59414500D02*
G75*
G03*
X151130000Y-61954500I1J-2540001D01*
G01*
X179070000Y-99038500D02*
G75*
G03*
X181610000Y-96498500I-1J2540001D01*
G01*
%TD*%
M02*
