%TF.GenerationSoftware,KiCad,Pcbnew,(6.0.1)*%
%TF.CreationDate,2022-12-10T14:50:15+08:00*%
%TF.ProjectId,Scroller1 two,5363726f-6c6c-4657-9231-2074776f2e6b,rev?*%
%TF.SameCoordinates,Original*%
%TF.FileFunction,Copper,L2,Bot*%
%TF.FilePolarity,Positive*%
%FSLAX46Y46*%
G04 Gerber Fmt 4.6, Leading zero omitted, Abs format (unit mm)*
G04 Created by KiCad (PCBNEW (6.0.1)) date 2022-12-10 14:50:15*
%MOMM*%
%LPD*%
G01*
G04 APERTURE LIST*
G04 Aperture macros list*
%AMRoundRect*
0 Rectangle with rounded corners*
0 $1 Rounding radius*
0 $2 $3 $4 $5 $6 $7 $8 $9 X,Y pos of 4 corners*
0 Add a 4 corners polygon primitive as box body*
4,1,4,$2,$3,$4,$5,$6,$7,$8,$9,$2,$3,0*
0 Add four circle primitives for the rounded corners*
1,1,$1+$1,$2,$3*
1,1,$1+$1,$4,$5*
1,1,$1+$1,$6,$7*
1,1,$1+$1,$8,$9*
0 Add four rect primitives between the rounded corners*
20,1,$1+$1,$2,$3,$4,$5,0*
20,1,$1+$1,$4,$5,$6,$7,0*
20,1,$1+$1,$6,$7,$8,$9,0*
20,1,$1+$1,$8,$9,$2,$3,0*%
G04 Aperture macros list end*
%TA.AperFunction,SMDPad,CuDef*%
%ADD10R,2.550000X2.500000*%
%TD*%
%TA.AperFunction,ComponentPad*%
%ADD11RoundRect,0.399500X0.450500X0.450500X-0.450500X0.450500X-0.450500X-0.450500X0.450500X-0.450500X0*%
%TD*%
%TA.AperFunction,ComponentPad*%
%ADD12O,1.700000X1.700000*%
%TD*%
%TA.AperFunction,ComponentPad*%
%ADD13R,1.600000X1.600000*%
%TD*%
%TA.AperFunction,ComponentPad*%
%ADD14O,1.600000X1.600000*%
%TD*%
%TA.AperFunction,ComponentPad*%
%ADD15R,1.700000X1.700000*%
%TD*%
%TA.AperFunction,ComponentPad*%
%ADD16C,1.700000*%
%TD*%
%TA.AperFunction,ViaPad*%
%ADD17C,1.500000*%
%TD*%
%TA.AperFunction,Conductor*%
%ADD18C,0.500000*%
%TD*%
%TA.AperFunction,Conductor*%
%ADD19C,0.250000*%
%TD*%
%TA.AperFunction,Conductor*%
%ADD20C,0.300000*%
%TD*%
G04 APERTURE END LIST*
D10*
%TO.P,SW_0_0,1,A*%
%TO.N,Net-(D0_0-Pad2)*%
X130302000Y-85979000D03*
%TO.P,SW_0_0,2,B*%
%TO.N,/Col 1*%
X144152000Y-83439000D03*
%TD*%
%TO.P,SW_2_1,1,A*%
%TO.N,Net-(D2_1-Pad2)*%
X111252000Y-124079000D03*
%TO.P,SW_2_1,2,B*%
%TO.N,/Col 2*%
X125102000Y-121539000D03*
%TD*%
%TO.P,SW_1_0,1,A*%
%TO.N,Net-(D1_0-Pad2)*%
X130302000Y-105029000D03*
%TO.P,SW_1_0,2,B*%
%TO.N,/Col 1*%
X144152000Y-102489000D03*
%TD*%
%TO.P,SW_3_0,1,A*%
%TO.N,Net-(D3_0-Pad2)*%
X130302000Y-143129000D03*
%TO.P,SW_3_0,2,B*%
%TO.N,/Col 1*%
X144152000Y-140589000D03*
%TD*%
%TO.P,SW_1_3,1,A*%
%TO.N,Net-(D1_3-Pad2)*%
X73152000Y-105029000D03*
%TO.P,SW_1_3,2,B*%
%TO.N,/Col 4*%
X87002000Y-102489000D03*
%TD*%
%TO.P,SW_1_2,1,A*%
%TO.N,Net-(D1_2-Pad2)*%
X92202000Y-105029000D03*
%TO.P,SW_1_2,2,B*%
%TO.N,/Col 3*%
X106052000Y-102489000D03*
%TD*%
D11*
%TO.P,TMC1,1,+VCC_IO*%
%TO.N,CSn*%
X150472107Y-126961107D03*
D12*
%TO.P,TMC1,2,GND*%
%TO.N,GND*%
X150472107Y-129501107D03*
%TO.P,TMC1,3,UH_in*%
%TO.N,UH_in*%
X150472107Y-132041107D03*
%TO.P,TMC1,4,UL_in*%
%TO.N,UL_in*%
X150472107Y-134581107D03*
%TO.P,TMC1,5,VH_in*%
%TO.N,VH_in*%
X150472107Y-137121107D03*
%TO.P,TMC1,6,VL_in*%
%TO.N,VL_in*%
X150472107Y-139661107D03*
%TO.P,TMC1,7,WH_in*%
%TO.N,WH_in*%
X150472107Y-142201107D03*
%TO.P,TMC1,8,WL_in*%
%TO.N,WL_in*%
X150472107Y-144741107D03*
D11*
%TO.P,TMC1,9,+VBAT*%
%TO.N,+5V*%
X173272107Y-126961107D03*
D12*
%TO.P,TMC1,10,GND*%
%TO.N,GND*%
X173272107Y-129501107D03*
%TO.P,TMC1,11,GND*%
X173272107Y-132041107D03*
%TO.P,TMC1,12,W*%
%TO.N,/W_Out*%
X173272107Y-134581107D03*
%TO.P,TMC1,13,V*%
%TO.N,/V_Out*%
X173272107Y-137121107D03*
%TO.P,TMC1,14,W*%
%TO.N,/U_Out*%
X173272107Y-139661107D03*
%TO.P,TMC1,15,GND*%
%TO.N,GND*%
X173272107Y-142201107D03*
%TO.P,TMC1,16,DIAG*%
%TO.N,unconnected-(TMC1-Pad16)*%
X173272107Y-144741107D03*
%TD*%
D10*
%TO.P,SW_0_3,1,A*%
%TO.N,Net-(D0_3-Pad2)*%
X73152000Y-85979000D03*
%TO.P,SW_0_3,2,B*%
%TO.N,/Col 4*%
X87002000Y-83439000D03*
%TD*%
%TO.P,SW_3_2,1,A*%
%TO.N,Net-(D3_2-Pad2)*%
X92202000Y-143129000D03*
%TO.P,SW_3_2,2,B*%
%TO.N,/Col 3*%
X106052000Y-140589000D03*
%TD*%
%TO.P,SW_0_1,1,A*%
%TO.N,Net-(D0_1-Pad2)*%
X111252000Y-85979000D03*
%TO.P,SW_0_1,2,B*%
%TO.N,/Col 2*%
X125102000Y-83439000D03*
%TD*%
D13*
%TO.P,QMK1,1,D1/TX*%
%TO.N,Net-(QMK1-Pad1)*%
X195185000Y-59944000D03*
D14*
%TO.P,QMK1,2,D0/RX*%
%TO.N,SERIAL_TX*%
X195185000Y-62484000D03*
%TO.P,QMK1,3,GND*%
%TO.N,GND*%
X195185000Y-65024000D03*
%TO.P,QMK1,4,GND*%
X195185000Y-67564000D03*
%TO.P,QMK1,5,D2*%
%TO.N,unconnected-(QMK1-Pad5)*%
X195185000Y-70104000D03*
%TO.P,QMK1,6,~D3*%
%TO.N,unconnected-(QMK1-Pad6)*%
X195185000Y-72644000D03*
%TO.P,QMK1,7,D4/A6*%
%TO.N,unconnected-(QMK1-Pad7)*%
X195185000Y-75184000D03*
%TO.P,QMK1,8,~D5*%
%TO.N,unconnected-(QMK1-Pad8)*%
X195185000Y-77724000D03*
%TO.P,QMK1,9,~D6/A7*%
%TO.N,unconnected-(QMK1-Pad9)*%
X195185000Y-80264000D03*
%TO.P,QMK1,10,D7*%
%TO.N,unconnected-(QMK1-Pad10)*%
X195185000Y-82804000D03*
%TO.P,QMK1,11,D8/A8*%
%TO.N,Net-(QMK1-Pad11)*%
X195185000Y-85344000D03*
%TO.P,QMK1,12,~D9/A9*%
%TO.N,unconnected-(QMK1-Pad12)*%
X195185000Y-87884000D03*
%TO.P,QMK1,13,~D10/A10*%
%TO.N,/Col 4*%
X210425000Y-87884000D03*
%TO.P,QMK1,14,D16*%
%TO.N,/Col 3*%
X210425000Y-85344000D03*
%TO.P,QMK1,15,D14*%
%TO.N,/Col 2*%
X210425000Y-82804000D03*
%TO.P,QMK1,16,D15*%
%TO.N,/Col 1*%
X210425000Y-80264000D03*
%TO.P,QMK1,17,D18/A0*%
%TO.N,/Row 4*%
X210425000Y-77724000D03*
%TO.P,QMK1,18,D19/A1*%
%TO.N,/Row 3*%
X210425000Y-75184000D03*
%TO.P,QMK1,19,D20/A2*%
%TO.N,/Row 2*%
X210425000Y-72644000D03*
%TO.P,QMK1,20,D21/A3*%
%TO.N,/Row 1*%
X210425000Y-70104000D03*
%TO.P,QMK1,21,VCC*%
%TO.N,+5V*%
X210425000Y-67564000D03*
%TO.P,QMK1,22,RST*%
%TO.N,unconnected-(QMK1-Pad22)*%
X210425000Y-65024000D03*
%TO.P,QMK1,23,GND*%
%TO.N,GND*%
X210425000Y-62484000D03*
%TO.P,QMK1,24,RAW*%
%TO.N,unconnected-(QMK1-Pad24)*%
X210425000Y-59944000D03*
%TD*%
D10*
%TO.P,SW_3_1,1,A*%
%TO.N,Net-(D3_1-Pad2)*%
X111252000Y-143129000D03*
%TO.P,SW_3_1,2,B*%
%TO.N,/Col 2*%
X125102000Y-140589000D03*
%TD*%
%TO.P,SW_1_1,1,A*%
%TO.N,Net-(D1_1-Pad2)*%
X111252000Y-105029000D03*
%TO.P,SW_1_1,2,B*%
%TO.N,/Col 2*%
X125102000Y-102489000D03*
%TD*%
%TO.P,SW_2_2,1,A*%
%TO.N,Net-(D2_2-Pad2)*%
X92202000Y-124079000D03*
%TO.P,SW_2_2,2,B*%
%TO.N,/Col 3*%
X106052000Y-121539000D03*
%TD*%
%TO.P,SW_2_3,1,A*%
%TO.N,Net-(D2_3-Pad2)*%
X73152000Y-124079000D03*
%TO.P,SW_2_3,2,B*%
%TO.N,/Col 4*%
X87002000Y-121539000D03*
%TD*%
D15*
%TO.P,J1,1,Pin_1*%
%TO.N,SDA*%
X208477000Y-102123000D03*
D12*
%TO.P,J1,2,Pin_2*%
%TO.N,SCL*%
X208477000Y-104663000D03*
%TO.P,J1,3,Pin_3*%
%TO.N,CSn*%
X208477000Y-107203000D03*
%TD*%
D10*
%TO.P,SW_0_2,1,A*%
%TO.N,Net-(D0_2-Pad2)*%
X92202000Y-85979000D03*
%TO.P,SW_0_2,2,B*%
%TO.N,/Col 3*%
X106052000Y-83439000D03*
%TD*%
%TO.P,SW_3_3,1,A*%
%TO.N,Net-(D3_3-Pad2)*%
X73152000Y-143129000D03*
%TO.P,SW_3_3,2,B*%
%TO.N,/Col 4*%
X87002000Y-140589000D03*
%TD*%
%TO.P,SW_2_0,1,A*%
%TO.N,Net-(D2_0-Pad2)*%
X130302000Y-124079000D03*
%TO.P,SW_2_0,2,B*%
%TO.N,/Col 1*%
X144152000Y-121539000D03*
%TD*%
D12*
%TO.P,ESP32_A1,1,3V3*%
%TO.N,CSn*%
X153750500Y-68814000D03*
%TO.P,ESP32_A1,2,UH*%
%TO.N,UH_in*%
X153750500Y-71354000D03*
%TO.P,ESP32_A1,3,UL*%
%TO.N,UL_in*%
X153750500Y-73894000D03*
%TO.P,ESP32_A1,4,VH*%
%TO.N,VH_in*%
X153750500Y-76434000D03*
%TO.P,ESP32_A1,5,VL*%
%TO.N,VL_in*%
X153750500Y-78974000D03*
%TO.P,ESP32_A1,6,WH*%
%TO.N,WH_in*%
X153750500Y-81514000D03*
D16*
%TO.P,ESP32_A1,7,WL*%
%TO.N,WL_in*%
X153750500Y-84054000D03*
%TO.P,ESP32_A1,8*%
%TO.N,N/C*%
X179070000Y-68834000D03*
D12*
%TO.P,ESP32_A1,9*%
X179070000Y-71374000D03*
%TO.P,ESP32_A1,10*%
X179070000Y-73914000D03*
%TO.P,ESP32_A1,11*%
X179070000Y-76454000D03*
%TO.P,ESP32_A1,12*%
X179070000Y-78994000D03*
%TO.P,ESP32_A1,13*%
X179070000Y-81534000D03*
%TO.P,ESP32_A1,14*%
X179070000Y-84074000D03*
%TD*%
D17*
%TO.N,GND*%
X174752000Y-102108000D03*
X166610000Y-136779000D03*
X184340500Y-74866500D03*
X159004000Y-124460000D03*
X151638000Y-121666000D03*
X187565000Y-117094000D03*
X185420000Y-66294000D03*
%TO.N,Net-(D0_0-Pad2)*%
X127642000Y-80264000D03*
%TO.N,Net-(D0_1-Pad2)*%
X108592000Y-80264000D03*
%TO.N,Net-(D0_2-Pad2)*%
X89542000Y-80264000D03*
%TO.N,Net-(D0_3-Pad2)*%
X70492000Y-80264000D03*
%TO.N,Net-(D1_0-Pad2)*%
X127642000Y-92964000D03*
%TO.N,Net-(D1_1-Pad2)*%
X108592000Y-92964000D03*
%TO.N,Net-(D1_2-Pad2)*%
X89542000Y-92964000D03*
%TO.N,Net-(D1_3-Pad2)*%
X70492000Y-92964000D03*
%TO.N,Net-(D2_0-Pad2)*%
X127642000Y-112014000D03*
%TO.N,Net-(D2_1-Pad2)*%
X108592000Y-112014000D03*
%TO.N,Net-(D2_2-Pad2)*%
X89542000Y-112014000D03*
%TO.N,Net-(D2_3-Pad2)*%
X70492000Y-112014000D03*
%TO.N,Net-(D3_0-Pad2)*%
X127642000Y-131064000D03*
%TO.N,Net-(D3_1-Pad2)*%
X108592000Y-131064000D03*
%TO.N,Net-(D3_2-Pad2)*%
X89542000Y-131064000D03*
%TO.N,Net-(D3_3-Pad2)*%
X70492000Y-131064000D03*
%TO.N,SDA*%
X181102000Y-87122000D03*
%TO.N,+5V*%
X159766000Y-104648000D03*
X160528000Y-118872000D03*
%TO.N,CSn*%
X179832000Y-108712000D03*
X194407536Y-92471464D03*
X165975000Y-129159000D03*
X186295000Y-92329000D03*
X181215000Y-94869000D03*
%TO.N,SCL*%
X192532000Y-101092000D03*
%TO.N,UL_in*%
X163576000Y-80518000D03*
%TO.N,VH_in*%
X165354000Y-82296000D03*
%TO.N,SERIAL_TX*%
X181864000Y-62738000D03*
%TD*%
D18*
%TO.N,GND*%
X164846000Y-124460000D02*
X169887107Y-129501107D01*
X151638000Y-121666000D02*
X151638000Y-122936000D01*
X195185000Y-65024000D02*
X195185000Y-67564000D01*
X166610000Y-133364000D02*
X166610000Y-136779000D01*
X187565000Y-117094000D02*
X188835000Y-117094000D01*
X210425000Y-62484000D02*
X204216000Y-62484000D01*
X214870000Y-62484000D02*
X210425000Y-62484000D01*
X177546000Y-114060000D02*
X180580000Y-117094000D01*
X217410000Y-111774000D02*
X217410000Y-65024000D01*
X177546000Y-104902000D02*
X177546000Y-114060000D01*
X190366000Y-121412000D02*
X207772000Y-121412000D01*
X169887107Y-130086893D02*
X166610000Y-133364000D01*
X201676000Y-65024000D02*
X195185000Y-65024000D01*
X151638000Y-122936000D02*
X153162000Y-124460000D01*
X217410000Y-65024000D02*
X214870000Y-62484000D01*
X188835000Y-119881000D02*
X190366000Y-121412000D01*
X165340000Y-136779000D02*
X166610000Y-136779000D01*
X184340500Y-74866500D02*
X185420000Y-73787000D01*
X188835000Y-117094000D02*
X188835000Y-119881000D01*
X159004000Y-124460000D02*
X164846000Y-124460000D01*
X158062107Y-129501107D02*
X165340000Y-136779000D01*
X185420000Y-73787000D02*
X185420000Y-66357500D01*
X169887107Y-129501107D02*
X169887107Y-130086893D01*
X169887107Y-129501107D02*
X173272107Y-129501107D01*
X174752000Y-102108000D02*
X177546000Y-104902000D01*
X180580000Y-117094000D02*
X187565000Y-117094000D01*
X207772000Y-121412000D02*
X217410000Y-111774000D01*
X153162000Y-124460000D02*
X159004000Y-124460000D01*
X204216000Y-62484000D02*
X201676000Y-65024000D01*
X150472107Y-129501107D02*
X158062107Y-129501107D01*
D19*
%TO.N,Net-(D0_0-Pad2)*%
X130302000Y-85979000D02*
X128277000Y-85979000D01*
X127642000Y-85344000D02*
X127642000Y-80264000D01*
X128277000Y-85979000D02*
X127642000Y-85344000D01*
%TO.N,Net-(D0_1-Pad2)*%
X111252000Y-85979000D02*
X109227000Y-85979000D01*
X109227000Y-85979000D02*
X108592000Y-85344000D01*
X108592000Y-85344000D02*
X108592000Y-80264000D01*
%TO.N,Net-(D0_2-Pad2)*%
X89542000Y-85344000D02*
X89542000Y-80264000D01*
X90177000Y-85979000D02*
X89542000Y-85344000D01*
X92202000Y-85979000D02*
X90177000Y-85979000D01*
%TO.N,Net-(D0_3-Pad2)*%
X73152000Y-85979000D02*
X71127000Y-85979000D01*
X71127000Y-85979000D02*
X70492000Y-85344000D01*
X70492000Y-85344000D02*
X70492000Y-80264000D01*
%TO.N,Net-(D1_0-Pad2)*%
X130302000Y-105029000D02*
X127642000Y-102369000D01*
X127642000Y-102369000D02*
X127642000Y-92964000D01*
%TO.N,Net-(D1_1-Pad2)*%
X108592000Y-102369000D02*
X108592000Y-92964000D01*
X111252000Y-105029000D02*
X108592000Y-102369000D01*
%TO.N,Net-(D1_2-Pad2)*%
X92202000Y-105029000D02*
X89542000Y-102369000D01*
X89542000Y-102369000D02*
X89542000Y-92964000D01*
%TO.N,Net-(D1_3-Pad2)*%
X73152000Y-105029000D02*
X70492000Y-102369000D01*
X70492000Y-102369000D02*
X70492000Y-92964000D01*
%TO.N,Net-(D2_0-Pad2)*%
X127642000Y-121419000D02*
X127642000Y-112014000D01*
X130302000Y-124079000D02*
X127642000Y-121419000D01*
%TO.N,Net-(D2_1-Pad2)*%
X111252000Y-124079000D02*
X108592000Y-121419000D01*
X108592000Y-121419000D02*
X108592000Y-112014000D01*
%TO.N,Net-(D2_2-Pad2)*%
X89542000Y-121419000D02*
X89542000Y-112014000D01*
X92202000Y-124079000D02*
X89542000Y-121419000D01*
%TO.N,Net-(D2_3-Pad2)*%
X73152000Y-124079000D02*
X70492000Y-121419000D01*
X70492000Y-121419000D02*
X70492000Y-112014000D01*
%TO.N,Net-(D3_0-Pad2)*%
X130302000Y-143129000D02*
X127642000Y-140469000D01*
X127642000Y-140469000D02*
X127642000Y-131064000D01*
%TO.N,Net-(D3_1-Pad2)*%
X108592000Y-140469000D02*
X108592000Y-139954000D01*
X108592000Y-139954000D02*
X108592000Y-131064000D01*
X111252000Y-143129000D02*
X108592000Y-140469000D01*
%TO.N,Net-(D3_2-Pad2)*%
X92202000Y-143129000D02*
X89542000Y-140469000D01*
X89542000Y-140469000D02*
X89542000Y-131064000D01*
%TO.N,Net-(D3_3-Pad2)*%
X70492000Y-140469000D02*
X70492000Y-131064000D01*
X73152000Y-143129000D02*
X70492000Y-140469000D01*
D20*
%TO.N,SDA*%
X178054000Y-71628000D02*
X179324000Y-71628000D01*
X175768000Y-73914000D02*
X178054000Y-71628000D01*
X175768000Y-84582000D02*
X175768000Y-73914000D01*
X178308000Y-87122000D02*
X175768000Y-84582000D01*
X181102000Y-87122000D02*
X178308000Y-87122000D01*
D18*
%TO.N,+5V*%
X159766000Y-99808000D02*
X159766000Y-104648000D01*
X214376000Y-67564000D02*
X210425000Y-67564000D01*
X216140000Y-69328000D02*
X216140000Y-94234000D01*
X171919107Y-126961107D02*
X173272107Y-126961107D01*
X161530000Y-98044000D02*
X159766000Y-99808000D01*
X214376000Y-67564000D02*
X216140000Y-69328000D01*
X212330000Y-98044000D02*
X161530000Y-98044000D01*
X161544000Y-119888000D02*
X164846000Y-119888000D01*
X160528000Y-118872000D02*
X161544000Y-119888000D01*
X164846000Y-119888000D02*
X171919107Y-126961107D01*
X216140000Y-94234000D02*
X212330000Y-98044000D01*
D20*
%TO.N,CSn*%
X179832000Y-110236000D02*
X181864000Y-112268000D01*
X187198000Y-112268000D02*
X192263000Y-107203000D01*
D18*
X194407536Y-92471464D02*
X194265072Y-92329000D01*
D20*
X192263000Y-107203000D02*
X208477000Y-107203000D01*
D18*
X150472107Y-126961107D02*
X163777107Y-126961107D01*
X183755000Y-92329000D02*
X181215000Y-94869000D01*
X186295000Y-92329000D02*
X190740000Y-92329000D01*
D20*
X179832000Y-108712000D02*
X179832000Y-110236000D01*
D18*
X194265072Y-92329000D02*
X190740000Y-92329000D01*
D20*
X181864000Y-112268000D02*
X187198000Y-112268000D01*
D18*
X186295000Y-92329000D02*
X183755000Y-92329000D01*
X163777107Y-126961107D02*
X165975000Y-129159000D01*
D20*
%TO.N,SCL*%
X192532000Y-101092000D02*
X196103000Y-104663000D01*
X196103000Y-104663000D02*
X208477000Y-104663000D01*
D19*
%TO.N,/Col 4*%
X201168000Y-87884000D02*
X210425000Y-87884000D01*
X85965000Y-83439000D02*
X85965000Y-56769000D01*
X193040000Y-62244000D02*
X193040000Y-82249300D01*
X193040000Y-82249300D02*
X195010189Y-84219489D01*
X186930000Y-56134000D02*
X193040000Y-62244000D01*
X195010189Y-84219489D02*
X197503489Y-84219489D01*
X86600000Y-56134000D02*
X186930000Y-56134000D01*
X87002000Y-102489000D02*
X87002000Y-83439000D01*
X197503489Y-84219489D02*
X201168000Y-87884000D01*
X87002000Y-121539000D02*
X87002000Y-102489000D01*
X85965000Y-56769000D02*
X86600000Y-56134000D01*
X87002000Y-140589000D02*
X87002000Y-121539000D01*
%TO.N,/Col 3*%
X106052000Y-121539000D02*
X106052000Y-102489000D01*
X212852000Y-85344000D02*
X210425000Y-85344000D01*
X191375000Y-85664300D02*
X195118700Y-89408000D01*
X106052000Y-102489000D02*
X106052000Y-83439000D01*
X112635000Y-57404000D02*
X186295000Y-57404000D01*
X212344000Y-89408000D02*
X212852000Y-88900000D01*
X105015000Y-83439000D02*
X105015000Y-65024000D01*
X186295000Y-57404000D02*
X191375000Y-62484000D01*
X106052000Y-140589000D02*
X106052000Y-121539000D01*
X191375000Y-62484000D02*
X191375000Y-85664300D01*
X195118700Y-89408000D02*
X212344000Y-89408000D01*
X105015000Y-65024000D02*
X112635000Y-57404000D01*
X212852000Y-88900000D02*
X212852000Y-85344000D01*
%TO.N,/Col 2*%
X213868000Y-89916000D02*
X211836000Y-91948000D01*
X213868000Y-83312000D02*
X213868000Y-89916000D01*
X130415000Y-58674000D02*
X124065000Y-65024000D01*
X203009859Y-91948000D02*
X201485859Y-90424000D01*
X124065000Y-65024000D02*
X124065000Y-83439000D01*
X201485859Y-90424000D02*
X194564000Y-90424000D01*
X210425000Y-82804000D02*
X213360000Y-82804000D01*
X125102000Y-102489000D02*
X125102000Y-83439000D01*
X211836000Y-91948000D02*
X203009859Y-91948000D01*
X194564000Y-90424000D02*
X189470000Y-85330000D01*
X189470000Y-85330000D02*
X189470000Y-63119000D01*
X185025000Y-58674000D02*
X130415000Y-58674000D01*
X189470000Y-63119000D02*
X185025000Y-58674000D01*
X125102000Y-121539000D02*
X125102000Y-102489000D01*
X125102000Y-140589000D02*
X125102000Y-121539000D01*
X213360000Y-82804000D02*
X213868000Y-83312000D01*
%TO.N,/Col 1*%
X214884000Y-90424000D02*
X214884000Y-82296000D01*
X143115000Y-83439000D02*
X143115000Y-65024000D01*
X212852000Y-80264000D02*
X210425000Y-80264000D01*
X148195000Y-59944000D02*
X184390000Y-59944000D01*
X200474489Y-91254489D02*
X202692000Y-93472000D01*
X187565000Y-63119000D02*
X187565000Y-85457000D01*
X187565000Y-85457000D02*
X193362489Y-91254489D01*
X214884000Y-82296000D02*
X212852000Y-80264000D01*
X144152000Y-121539000D02*
X144152000Y-102489000D01*
X144152000Y-140589000D02*
X144152000Y-121539000D01*
X144152000Y-102489000D02*
X144152000Y-83439000D01*
X193362489Y-91254489D02*
X200474489Y-91254489D01*
X143115000Y-65024000D02*
X148195000Y-59944000D01*
X184390000Y-59944000D02*
X187565000Y-63119000D01*
X211836000Y-93472000D02*
X214884000Y-90424000D01*
X202692000Y-93472000D02*
X211836000Y-93472000D01*
D18*
%TO.N,UL_in*%
X156972000Y-74168000D02*
X153416000Y-74168000D01*
X163322000Y-80518000D02*
X156972000Y-74168000D01*
X163576000Y-80518000D02*
X163322000Y-80518000D01*
%TO.N,VH_in*%
X161798000Y-82296000D02*
X156210000Y-76708000D01*
X156210000Y-76708000D02*
X153416000Y-76708000D01*
X165354000Y-82296000D02*
X161798000Y-82296000D01*
%TO.N,VL_in*%
X148336000Y-137525000D02*
X148336000Y-90424000D01*
X151892000Y-86868000D02*
X156210000Y-86868000D01*
X157480000Y-85598000D02*
X157480000Y-80264000D01*
X150472107Y-139661107D02*
X148336000Y-137525000D01*
X157480000Y-80264000D02*
X156190000Y-78974000D01*
X156190000Y-78974000D02*
X153750500Y-78974000D01*
X148336000Y-90424000D02*
X151892000Y-86868000D01*
X156210000Y-86868000D02*
X157480000Y-85598000D01*
%TO.N,WL_in*%
X146304000Y-140573000D02*
X146304000Y-88392000D01*
X146304000Y-88392000D02*
X150368000Y-84328000D01*
X150368000Y-84328000D02*
X153416000Y-84328000D01*
X150472107Y-144741107D02*
X146304000Y-140573000D01*
D20*
%TO.N,SERIAL_TX*%
X181864000Y-62738000D02*
X181864000Y-79248000D01*
X181864000Y-79248000D02*
X179324000Y-81788000D01*
%TD*%
M02*
