%TF.GenerationSoftware,KiCad,Pcbnew,(6.0.1)*%
%TF.CreationDate,2022-12-10T14:50:15+08:00*%
%TF.ProjectId,Scroller1 two,5363726f-6c6c-4657-9231-2074776f2e6b,rev?*%
%TF.SameCoordinates,Original*%
%TF.FileFunction,Soldermask,Bot*%
%TF.FilePolarity,Negative*%
%FSLAX46Y46*%
G04 Gerber Fmt 4.6, Leading zero omitted, Abs format (unit mm)*
G04 Created by KiCad (PCBNEW (6.0.1)) date 2022-12-10 14:50:15*
%MOMM*%
%LPD*%
G01*
G04 APERTURE LIST*
G04 Aperture macros list*
%AMRoundRect*
0 Rectangle with rounded corners*
0 $1 Rounding radius*
0 $2 $3 $4 $5 $6 $7 $8 $9 X,Y pos of 4 corners*
0 Add a 4 corners polygon primitive as box body*
4,1,4,$2,$3,$4,$5,$6,$7,$8,$9,$2,$3,0*
0 Add four circle primitives for the rounded corners*
1,1,$1+$1,$2,$3*
1,1,$1+$1,$4,$5*
1,1,$1+$1,$6,$7*
1,1,$1+$1,$8,$9*
0 Add four rect primitives between the rounded corners*
20,1,$1+$1,$2,$3,$4,$5,0*
20,1,$1+$1,$4,$5,$6,$7,0*
20,1,$1+$1,$6,$7,$8,$9,0*
20,1,$1+$1,$8,$9,$2,$3,0*%
G04 Aperture macros list end*
%ADD10C,3.300000*%
%ADD11C,4.087800*%
%ADD12C,3.100000*%
%ADD13C,1.801800*%
%ADD14RoundRect,0.050000X1.275000X1.250000X-1.275000X1.250000X-1.275000X-1.250000X1.275000X-1.250000X0*%
%ADD15RoundRect,0.449500X0.450500X0.450500X-0.450500X0.450500X-0.450500X-0.450500X0.450500X-0.450500X0*%
%ADD16O,1.800000X1.800000*%
%ADD17RoundRect,0.050000X0.800000X0.800000X-0.800000X0.800000X-0.800000X-0.800000X0.800000X-0.800000X0*%
%ADD18O,1.700000X1.700000*%
%ADD19RoundRect,0.050000X-0.850000X-0.850000X0.850000X-0.850000X0.850000X0.850000X-0.850000X0.850000X0*%
%ADD20C,1.800000*%
G04 APERTURE END LIST*
D10*
%TO.C,MHole_3*%
X215546000Y-57196000D03*
%TD*%
D11*
%TO.C,SW_0_0*%
X136592000Y-80899000D03*
D12*
X140402000Y-83439000D03*
D13*
X141672000Y-80899000D03*
D12*
X134052000Y-85979000D03*
D13*
X131512000Y-80899000D03*
D14*
X130302000Y-85979000D03*
X144152000Y-83439000D03*
%TD*%
D12*
%TO.C,SW_2_1*%
X115002000Y-124079000D03*
D13*
X122622000Y-118999000D03*
X112462000Y-118999000D03*
D12*
X121352000Y-121539000D03*
D11*
X117542000Y-118999000D03*
D14*
X111252000Y-124079000D03*
X125102000Y-121539000D03*
%TD*%
D10*
%TO.C,MHole_1*%
X67946000Y-57196000D03*
%TD*%
%TO.C,MHole_6*%
X215546000Y-144596000D03*
%TD*%
D13*
%TO.C,SW_1_0*%
X131512000Y-99949000D03*
D12*
X134052000Y-105029000D03*
D11*
X136592000Y-99949000D03*
D13*
X141672000Y-99949000D03*
D12*
X140402000Y-102489000D03*
D14*
X130302000Y-105029000D03*
X144152000Y-102489000D03*
%TD*%
D12*
%TO.C,SW_3_0*%
X140402000Y-140589000D03*
D13*
X141672000Y-138049000D03*
D11*
X136592000Y-138049000D03*
D13*
X131512000Y-138049000D03*
D12*
X134052000Y-143129000D03*
D14*
X130302000Y-143129000D03*
X144152000Y-140589000D03*
%TD*%
D13*
%TO.C,SW_1_3*%
X84522000Y-99949000D03*
X74362000Y-99949000D03*
D12*
X83252000Y-102489000D03*
X76902000Y-105029000D03*
D11*
X79442000Y-99949000D03*
D14*
X73152000Y-105029000D03*
X87002000Y-102489000D03*
%TD*%
D12*
%TO.C,SW_1_2*%
X102302000Y-102489000D03*
D11*
X98492000Y-99949000D03*
D13*
X103572000Y-99949000D03*
D12*
X95952000Y-105029000D03*
D13*
X93412000Y-99949000D03*
D14*
X92202000Y-105029000D03*
X106052000Y-102489000D03*
%TD*%
D15*
%TO.C,TMC1*%
X150472107Y-126961107D03*
D16*
X150472107Y-129501107D03*
X150472107Y-132041107D03*
X150472107Y-134581107D03*
X150472107Y-137121107D03*
X150472107Y-139661107D03*
X150472107Y-142201107D03*
X150472107Y-144741107D03*
D15*
X173272107Y-126961107D03*
D16*
X173272107Y-129501107D03*
X173272107Y-132041107D03*
X173272107Y-134581107D03*
X173272107Y-137121107D03*
X173272107Y-139661107D03*
X173272107Y-142201107D03*
X173272107Y-144741107D03*
%TD*%
D12*
%TO.C,SW_0_3*%
X76902000Y-85979000D03*
D11*
X79442000Y-80899000D03*
D13*
X74362000Y-80899000D03*
D12*
X83252000Y-83439000D03*
D13*
X84522000Y-80899000D03*
D14*
X73152000Y-85979000D03*
X87002000Y-83439000D03*
%TD*%
D13*
%TO.C,SW_3_2*%
X103572000Y-138049000D03*
X93412000Y-138049000D03*
D12*
X95952000Y-143129000D03*
X102302000Y-140589000D03*
D11*
X98492000Y-138049000D03*
D14*
X92202000Y-143129000D03*
X106052000Y-140589000D03*
%TD*%
D12*
%TO.C,SW_0_1*%
X115002000Y-85979000D03*
D13*
X112462000Y-80899000D03*
D11*
X117542000Y-80899000D03*
D13*
X122622000Y-80899000D03*
D12*
X121352000Y-83439000D03*
D14*
X111252000Y-85979000D03*
X125102000Y-83439000D03*
%TD*%
D17*
%TO.C,QMK1*%
X195185000Y-59944000D03*
D18*
X195185000Y-62484000D03*
X195185000Y-65024000D03*
X195185000Y-67564000D03*
X195185000Y-70104000D03*
X195185000Y-72644000D03*
X195185000Y-75184000D03*
X195185000Y-77724000D03*
X195185000Y-80264000D03*
X195185000Y-82804000D03*
X195185000Y-85344000D03*
X195185000Y-87884000D03*
X210425000Y-87884000D03*
X210425000Y-85344000D03*
X210425000Y-82804000D03*
X210425000Y-80264000D03*
X210425000Y-77724000D03*
X210425000Y-75184000D03*
X210425000Y-72644000D03*
X210425000Y-70104000D03*
X210425000Y-67564000D03*
X210425000Y-65024000D03*
X210425000Y-62484000D03*
X210425000Y-59944000D03*
%TD*%
D13*
%TO.C,SW_3_1*%
X112462000Y-138049000D03*
X122622000Y-138049000D03*
D11*
X117542000Y-138049000D03*
D12*
X121352000Y-140589000D03*
X115002000Y-143129000D03*
D14*
X111252000Y-143129000D03*
X125102000Y-140589000D03*
%TD*%
D12*
%TO.C,SW_1_1*%
X121352000Y-102489000D03*
D11*
X117542000Y-99949000D03*
D13*
X122622000Y-99949000D03*
X112462000Y-99949000D03*
D12*
X115002000Y-105029000D03*
D14*
X111252000Y-105029000D03*
X125102000Y-102489000D03*
%TD*%
D11*
%TO.C,SW_2_2*%
X98492000Y-118999000D03*
D12*
X95952000Y-124079000D03*
D13*
X103572000Y-118999000D03*
D12*
X102302000Y-121539000D03*
D13*
X93412000Y-118999000D03*
D14*
X92202000Y-124079000D03*
X106052000Y-121539000D03*
%TD*%
D12*
%TO.C,SW_2_3*%
X76902000Y-124079000D03*
X83252000Y-121539000D03*
D13*
X84522000Y-118999000D03*
X74362000Y-118999000D03*
D11*
X79442000Y-118999000D03*
D14*
X73152000Y-124079000D03*
X87002000Y-121539000D03*
%TD*%
D19*
%TO.C,J1*%
X208477000Y-102123000D03*
D16*
X208477000Y-104663000D03*
X208477000Y-107203000D03*
%TD*%
D13*
%TO.C,SW_0_2*%
X103572000Y-80899000D03*
D12*
X102302000Y-83439000D03*
X95952000Y-85979000D03*
D11*
X98492000Y-80899000D03*
D13*
X93412000Y-80899000D03*
D14*
X92202000Y-85979000D03*
X106052000Y-83439000D03*
%TD*%
D10*
%TO.C,MHole_4*%
X67946000Y-144596000D03*
%TD*%
D13*
%TO.C,SW_3_3*%
X84522000Y-138049000D03*
D12*
X76902000Y-143129000D03*
D13*
X74362000Y-138049000D03*
D12*
X83252000Y-140589000D03*
D11*
X79442000Y-138049000D03*
D14*
X73152000Y-143129000D03*
X87002000Y-140589000D03*
%TD*%
D11*
%TO.C,SW_2_0*%
X136592000Y-118999000D03*
D13*
X131512000Y-118999000D03*
D12*
X134052000Y-124079000D03*
X140402000Y-121539000D03*
D13*
X141672000Y-118999000D03*
D14*
X130302000Y-124079000D03*
X144152000Y-121539000D03*
%TD*%
D16*
%TO.C,ESP32_A1*%
X153750500Y-68814000D03*
X153750500Y-71354000D03*
X153750500Y-73894000D03*
X153750500Y-76434000D03*
X153750500Y-78974000D03*
X153750500Y-81514000D03*
D20*
X153750500Y-84054000D03*
X179070000Y-68834000D03*
D16*
X179070000Y-71374000D03*
X179070000Y-73914000D03*
X179070000Y-76454000D03*
X179070000Y-78994000D03*
X179070000Y-81534000D03*
X179070000Y-84074000D03*
%TD*%
M02*
