<?xml version="1.0" standalone="no"?>
 <!DOCTYPE svg PUBLIC "-//W3C//DTD SVG 1.1//EN" 
 "http://www.w3.org/Graphics/SVG/1.1/DTD/svg11.dtd"> 
<svg
  xmlns:svg="http://www.w3.org/2000/svg"
  xmlns="http://www.w3.org/2000/svg"
  xmlns:xlink="http://www.w3.org/1999/xlink"
  version="1.1"
  width="0.025400cm" height="0.025400cm" viewBox="0 0 254000 254000">
<title>SVG Picture created as ESP32_Adapter-F_Paste.svg date 2022/11/25 19:17:34 </title>
  <desc>Picture generated by PCBNEW </desc>
<g style="fill:#000000; fill-opacity:1.000000;stroke:#000000; stroke-opacity:1.000000;
stroke-linecap:round; stroke-linejoin:round;"
 transform="translate(0 0) scale(1 1)">
</g>
<g style="fill:#000000; fill-opacity:0.0; 
stroke:#000000; stroke-width:0.000000; stroke-opacity:1; 
stroke-linecap:round; stroke-linejoin:round;">
<g >
</g>
<g style="fill:#000000; fill-opacity:0.0; 
stroke:#000000; stroke-width:1.000000; stroke-opacity:1; 
stroke-linecap:round; stroke-linejoin:round;">
</g>
<g style="fill:#000000; fill-opacity:1.0; 
stroke:#000000; stroke-width:1.000000; stroke-opacity:1; 
stroke-linecap:round; stroke-linejoin:round;">
<path style="fill:#000000; fill-opacity:1.0; 
stroke:#000000; stroke-width:1.000000; stroke-opacity:1; 
stroke-linecap:round; stroke-linejoin:round;fill-rule:evenodd;"
d="M 100346500.000000,76430500.000000
100255613.000000,76412421.000000
100178562.000000,76360938.000000
100127079.000000,76283887.000000
100109000.000000,76193000.000000
100109000.000000,75593000.000000
100127079.000000,75502113.000000
100178562.000000,75425062.000000
100255613.000000,75373579.000000
100346500.000000,75355500.000000
100821500.000000,75355500.000000
100912387.000000,75373579.000000
100989438.000000,75425062.000000
101040921.000000,75502113.000000
101059000.000000,75593000.000000
101059000.000000,76193000.000000
101040921.000000,76283887.000000
100989438.000000,76360938.000000
100912387.000000,76412421.000000
100821500.000000,76430500.000000
Z" /> 
<path style="fill:#000000; fill-opacity:1.0; 
stroke:#000000; stroke-width:1.000000; stroke-opacity:1; 
stroke-linecap:round; stroke-linejoin:round;fill-rule:evenodd;"
d="M 100346500.000000,74705500.000000
100255613.000000,74687421.000000
100178562.000000,74635938.000000
100127079.000000,74558887.000000
100109000.000000,74468000.000000
100109000.000000,73868000.000000
100127079.000000,73777113.000000
100178562.000000,73700062.000000
100255613.000000,73648579.000000
100346500.000000,73630500.000000
100821500.000000,73630500.000000
100912387.000000,73648579.000000
100989438.000000,73700062.000000
101040921.000000,73777113.000000
101059000.000000,73868000.000000
101059000.000000,74468000.000000
101040921.000000,74558887.000000
100989438.000000,74635938.000000
100912387.000000,74687421.000000
100821500.000000,74705500.000000
Z" /> 
</g>
<g >
</g>
<g style="fill:#000000; fill-opacity:1.0; 
stroke:#000000; stroke-width:1.000000; stroke-opacity:1; 
stroke-linecap:round; stroke-linejoin:round;">
<path style="fill:#000000; fill-opacity:1.0; 
stroke:#000000; stroke-width:1.000000; stroke-opacity:1; 
stroke-linecap:round; stroke-linejoin:round;fill-rule:evenodd;"
d="M 102428001.000000,74903999.000000
102428001.000000,73404001.000000
104427999.000000,73404001.000000
104427999.000000,74903999.000000
Z" /> 
<path style="fill:#000000; fill-opacity:1.0; 
stroke:#000000; stroke-width:1.000000; stroke-opacity:1; 
stroke-linecap:round; stroke-linejoin:round;fill-rule:evenodd;"
d="M 102428001.000000,77203999.000000
102428001.000000,75704001.000000
104427999.000000,75704001.000000
104427999.000000,77203999.000000
Z" /> 
<path style="fill:#000000; fill-opacity:1.0; 
stroke:#000000; stroke-width:1.000000; stroke-opacity:1; 
stroke-linecap:round; stroke-linejoin:round;fill-rule:evenodd;"
d="M 108728001.000000,78353999.000000
108728001.000000,74554001.000000
110727999.000000,74554001.000000
110727999.000000,78353999.000000
Z" /> 
<path style="fill:#000000; fill-opacity:1.0; 
stroke:#000000; stroke-width:1.000000; stroke-opacity:1; 
stroke-linecap:round; stroke-linejoin:round;fill-rule:evenodd;"
d="M 102428001.000000,79503999.000000
102428001.000000,78004001.000000
104427999.000000,78004001.000000
104427999.000000,79503999.000000
Z" /> 
</g>
<g >
</g>
<g style="fill:#000000; fill-opacity:1.0; 
stroke:#000000; stroke-width:1.000000; stroke-opacity:1; 
stroke-linecap:round; stroke-linejoin:round;">
<path style="fill:#000000; fill-opacity:1.0; 
stroke:#000000; stroke-width:1.000000; stroke-opacity:1; 
stroke-linecap:round; stroke-linejoin:round;fill-rule:evenodd;"
d="M 112326001.000000,93742001.000000
113225999.000000,93742001.000000
113225999.000000,95741999.000000
112326001.000000,95741999.000000
Z" /> 
<path style="fill:#000000; fill-opacity:1.0; 
stroke:#000000; stroke-width:1.000000; stroke-opacity:1; 
stroke-linecap:round; stroke-linejoin:round;fill-rule:evenodd;"
d="M 111056001.000000,93742001.000000
111955999.000000,93742001.000000
111955999.000000,95741999.000000
111056001.000000,95741999.000000
Z" /> 
<path style="fill:#000000; fill-opacity:1.0; 
stroke:#000000; stroke-width:1.000000; stroke-opacity:1; 
stroke-linecap:round; stroke-linejoin:round;fill-rule:evenodd;"
d="M 109786001.000000,93742001.000000
110685999.000000,93742001.000000
110685999.000000,95741999.000000
109786001.000000,95741999.000000
Z" /> 
<path style="fill:#000000; fill-opacity:1.0; 
stroke:#000000; stroke-width:1.000000; stroke-opacity:1; 
stroke-linecap:round; stroke-linejoin:round;fill-rule:evenodd;"
d="M 108516001.000000,93742001.000000
109415999.000000,93742001.000000
109415999.000000,95741999.000000
108516001.000000,95741999.000000
Z" /> 
<path style="fill:#000000; fill-opacity:1.0; 
stroke:#000000; stroke-width:1.000000; stroke-opacity:1; 
stroke-linecap:round; stroke-linejoin:round;fill-rule:evenodd;"
d="M 107246001.000000,93742001.000000
108145999.000000,93742001.000000
108145999.000000,95741999.000000
107246001.000000,95741999.000000
Z" /> 
<path style="fill:#000000; fill-opacity:1.0; 
stroke:#000000; stroke-width:1.000000; stroke-opacity:1; 
stroke-linecap:round; stroke-linejoin:round;fill-rule:evenodd;"
d="M 105976001.000000,93742001.000000
106875999.000000,93742001.000000
106875999.000000,95741999.000000
105976001.000000,95741999.000000
Z" /> 
<path style="fill:#000000; fill-opacity:1.0; 
stroke:#000000; stroke-width:1.000000; stroke-opacity:1; 
stroke-linecap:round; stroke-linejoin:round;fill-rule:evenodd;"
d="M 104706001.000000,93742001.000000
105605999.000000,93742001.000000
105605999.000000,95741999.000000
104706001.000000,95741999.000000
Z" /> 
<path style="fill:#000000; fill-opacity:1.0; 
stroke:#000000; stroke-width:1.000000; stroke-opacity:1; 
stroke-linecap:round; stroke-linejoin:round;fill-rule:evenodd;"
d="M 103436001.000000,93742001.000000
104335999.000000,93742001.000000
104335999.000000,95741999.000000
103436001.000000,95741999.000000
Z" /> 
<path style="fill:#000000; fill-opacity:1.0; 
stroke:#000000; stroke-width:1.000000; stroke-opacity:1; 
stroke-linecap:round; stroke-linejoin:round;fill-rule:evenodd;"
d="M 102166001.000000,93742001.000000
103065999.000000,93742001.000000
103065999.000000,95741999.000000
102166001.000000,95741999.000000
Z" /> 
<path style="fill:#000000; fill-opacity:1.0; 
stroke:#000000; stroke-width:1.000000; stroke-opacity:1; 
stroke-linecap:round; stroke-linejoin:round;fill-rule:evenodd;"
d="M 100896001.000000,93742001.000000
101795999.000000,93742001.000000
101795999.000000,95741999.000000
100896001.000000,95741999.000000
Z" /> 
<path style="fill:#000000; fill-opacity:1.0; 
stroke:#000000; stroke-width:1.000000; stroke-opacity:1; 
stroke-linecap:round; stroke-linejoin:round;fill-rule:evenodd;"
d="M 99626001.000000,93742001.000000
100525999.000000,93742001.000000
100525999.000000,95741999.000000
99626001.000000,95741999.000000
Z" /> 
<path style="fill:#000000; fill-opacity:1.0; 
stroke:#000000; stroke-width:1.000000; stroke-opacity:1; 
stroke-linecap:round; stroke-linejoin:round;fill-rule:evenodd;"
d="M 98356001.000000,93742001.000000
99255999.000000,93742001.000000
99255999.000000,95741999.000000
98356001.000000,95741999.000000
Z" /> 
<path style="fill:#000000; fill-opacity:1.0; 
stroke:#000000; stroke-width:1.000000; stroke-opacity:1; 
stroke-linecap:round; stroke-linejoin:round;fill-rule:evenodd;"
d="M 97086001.000000,93742001.000000
97985999.000000,93742001.000000
97985999.000000,95741999.000000
97086001.000000,95741999.000000
Z" /> 
<path style="fill:#000000; fill-opacity:1.0; 
stroke:#000000; stroke-width:1.000000; stroke-opacity:1; 
stroke-linecap:round; stroke-linejoin:round;fill-rule:evenodd;"
d="M 95816001.000000,93742001.000000
96715999.000000,93742001.000000
96715999.000000,95741999.000000
95816001.000000,95741999.000000
Z" /> 
<path style="fill:#000000; fill-opacity:1.0; 
stroke:#000000; stroke-width:1.000000; stroke-opacity:1; 
stroke-linecap:round; stroke-linejoin:round;fill-rule:evenodd;"
d="M 94266001.000000,97976999.000000
94266001.000000,97077001.000000
96265999.000000,97077001.000000
96265999.000000,97976999.000000
Z" /> 
<path style="fill:#000000; fill-opacity:1.0; 
stroke:#000000; stroke-width:1.000000; stroke-opacity:1; 
stroke-linecap:round; stroke-linejoin:round;fill-rule:evenodd;"
d="M 94266001.000000,99246999.000000
94266001.000000,98347001.000000
96265999.000000,98347001.000000
96265999.000000,99246999.000000
Z" /> 
<path style="fill:#000000; fill-opacity:1.0; 
stroke:#000000; stroke-width:1.000000; stroke-opacity:1; 
stroke-linecap:round; stroke-linejoin:round;fill-rule:evenodd;"
d="M 94266001.000000,100516999.000000
94266001.000000,99617001.000000
96265999.000000,99617001.000000
96265999.000000,100516999.000000
Z" /> 
<path style="fill:#000000; fill-opacity:1.0; 
stroke:#000000; stroke-width:1.000000; stroke-opacity:1; 
stroke-linecap:round; stroke-linejoin:round;fill-rule:evenodd;"
d="M 94266001.000000,101786999.000000
94266001.000000,100887001.000000
96265999.000000,100887001.000000
96265999.000000,101786999.000000
Z" /> 
<path style="fill:#000000; fill-opacity:1.0; 
stroke:#000000; stroke-width:1.000000; stroke-opacity:1; 
stroke-linecap:round; stroke-linejoin:round;fill-rule:evenodd;"
d="M 94266001.000000,103056999.000000
94266001.000000,102157001.000000
96265999.000000,102157001.000000
96265999.000000,103056999.000000
Z" /> 
<path style="fill:#000000; fill-opacity:1.0; 
stroke:#000000; stroke-width:1.000000; stroke-opacity:1; 
stroke-linecap:round; stroke-linejoin:round;fill-rule:evenodd;"
d="M 94266001.000000,104326999.000000
94266001.000000,103427001.000000
96265999.000000,103427001.000000
96265999.000000,104326999.000000
Z" /> 
<path style="fill:#000000; fill-opacity:1.0; 
stroke:#000000; stroke-width:1.000000; stroke-opacity:1; 
stroke-linecap:round; stroke-linejoin:round;fill-rule:evenodd;"
d="M 94266001.000000,105596999.000000
94266001.000000,104697001.000000
96265999.000000,104697001.000000
96265999.000000,105596999.000000
Z" /> 
<path style="fill:#000000; fill-opacity:1.0; 
stroke:#000000; stroke-width:1.000000; stroke-opacity:1; 
stroke-linecap:round; stroke-linejoin:round;fill-rule:evenodd;"
d="M 94266001.000000,106866999.000000
94266001.000000,105967001.000000
96265999.000000,105967001.000000
96265999.000000,106866999.000000
Z" /> 
<path style="fill:#000000; fill-opacity:1.0; 
stroke:#000000; stroke-width:1.000000; stroke-opacity:1; 
stroke-linecap:round; stroke-linejoin:round;fill-rule:evenodd;"
d="M 94266001.000000,108136999.000000
94266001.000000,107237001.000000
96265999.000000,107237001.000000
96265999.000000,108136999.000000
Z" /> 
<path style="fill:#000000; fill-opacity:1.0; 
stroke:#000000; stroke-width:1.000000; stroke-opacity:1; 
stroke-linecap:round; stroke-linejoin:round;fill-rule:evenodd;"
d="M 94266001.000000,109406999.000000
94266001.000000,108507001.000000
96265999.000000,108507001.000000
96265999.000000,109406999.000000
Z" /> 
<path style="fill:#000000; fill-opacity:1.0; 
stroke:#000000; stroke-width:1.000000; stroke-opacity:1; 
stroke-linecap:round; stroke-linejoin:round;fill-rule:evenodd;"
d="M 95816001.000000,110742001.000000
96715999.000000,110742001.000000
96715999.000000,112741999.000000
95816001.000000,112741999.000000
Z" /> 
<path style="fill:#000000; fill-opacity:1.0; 
stroke:#000000; stroke-width:1.000000; stroke-opacity:1; 
stroke-linecap:round; stroke-linejoin:round;fill-rule:evenodd;"
d="M 97086001.000000,110742001.000000
97985999.000000,110742001.000000
97985999.000000,112741999.000000
97086001.000000,112741999.000000
Z" /> 
<path style="fill:#000000; fill-opacity:1.0; 
stroke:#000000; stroke-width:1.000000; stroke-opacity:1; 
stroke-linecap:round; stroke-linejoin:round;fill-rule:evenodd;"
d="M 98356001.000000,110742001.000000
99255999.000000,110742001.000000
99255999.000000,112741999.000000
98356001.000000,112741999.000000
Z" /> 
<path style="fill:#000000; fill-opacity:1.0; 
stroke:#000000; stroke-width:1.000000; stroke-opacity:1; 
stroke-linecap:round; stroke-linejoin:round;fill-rule:evenodd;"
d="M 99626001.000000,110742001.000000
100525999.000000,110742001.000000
100525999.000000,112741999.000000
99626001.000000,112741999.000000
Z" /> 
<path style="fill:#000000; fill-opacity:1.0; 
stroke:#000000; stroke-width:1.000000; stroke-opacity:1; 
stroke-linecap:round; stroke-linejoin:round;fill-rule:evenodd;"
d="M 100896001.000000,110742001.000000
101795999.000000,110742001.000000
101795999.000000,112741999.000000
100896001.000000,112741999.000000
Z" /> 
<path style="fill:#000000; fill-opacity:1.0; 
stroke:#000000; stroke-width:1.000000; stroke-opacity:1; 
stroke-linecap:round; stroke-linejoin:round;fill-rule:evenodd;"
d="M 102166001.000000,110742001.000000
103065999.000000,110742001.000000
103065999.000000,112741999.000000
102166001.000000,112741999.000000
Z" /> 
<path style="fill:#000000; fill-opacity:1.0; 
stroke:#000000; stroke-width:1.000000; stroke-opacity:1; 
stroke-linecap:round; stroke-linejoin:round;fill-rule:evenodd;"
d="M 103436001.000000,110742001.000000
104335999.000000,110742001.000000
104335999.000000,112741999.000000
103436001.000000,112741999.000000
Z" /> 
<path style="fill:#000000; fill-opacity:1.0; 
stroke:#000000; stroke-width:1.000000; stroke-opacity:1; 
stroke-linecap:round; stroke-linejoin:round;fill-rule:evenodd;"
d="M 104706001.000000,110742001.000000
105605999.000000,110742001.000000
105605999.000000,112741999.000000
104706001.000000,112741999.000000
Z" /> 
<path style="fill:#000000; fill-opacity:1.0; 
stroke:#000000; stroke-width:1.000000; stroke-opacity:1; 
stroke-linecap:round; stroke-linejoin:round;fill-rule:evenodd;"
d="M 105976001.000000,110742001.000000
106875999.000000,110742001.000000
106875999.000000,112741999.000000
105976001.000000,112741999.000000
Z" /> 
<path style="fill:#000000; fill-opacity:1.0; 
stroke:#000000; stroke-width:1.000000; stroke-opacity:1; 
stroke-linecap:round; stroke-linejoin:round;fill-rule:evenodd;"
d="M 107246001.000000,110742001.000000
108145999.000000,110742001.000000
108145999.000000,112741999.000000
107246001.000000,112741999.000000
Z" /> 
<path style="fill:#000000; fill-opacity:1.0; 
stroke:#000000; stroke-width:1.000000; stroke-opacity:1; 
stroke-linecap:round; stroke-linejoin:round;fill-rule:evenodd;"
d="M 108516001.000000,110742001.000000
109415999.000000,110742001.000000
109415999.000000,112741999.000000
108516001.000000,112741999.000000
Z" /> 
<path style="fill:#000000; fill-opacity:1.0; 
stroke:#000000; stroke-width:1.000000; stroke-opacity:1; 
stroke-linecap:round; stroke-linejoin:round;fill-rule:evenodd;"
d="M 109786001.000000,110742001.000000
110685999.000000,110742001.000000
110685999.000000,112741999.000000
109786001.000000,112741999.000000
Z" /> 
<path style="fill:#000000; fill-opacity:1.0; 
stroke:#000000; stroke-width:1.000000; stroke-opacity:1; 
stroke-linecap:round; stroke-linejoin:round;fill-rule:evenodd;"
d="M 111056001.000000,110742001.000000
111955999.000000,110742001.000000
111955999.000000,112741999.000000
111056001.000000,112741999.000000
Z" /> 
<path style="fill:#000000; fill-opacity:1.0; 
stroke:#000000; stroke-width:1.000000; stroke-opacity:1; 
stroke-linecap:round; stroke-linejoin:round;fill-rule:evenodd;"
d="M 112326001.000000,110742001.000000
113225999.000000,110742001.000000
113225999.000000,112741999.000000
112326001.000000,112741999.000000
Z" /> 
<path style="fill:#000000; fill-opacity:1.0; 
stroke:#000000; stroke-width:1.000000; stroke-opacity:1; 
stroke-linecap:round; stroke-linejoin:round;fill-rule:evenodd;"
d="M 102776001.000000,99742001.000000
107775999.000000,99742001.000000
107775999.000000,104741999.000000
102776001.000000,104741999.000000
Z" /> 
</g>
<g >
</g>
<g >
</g>
<g style="fill:#000000; fill-opacity:1.0; 
stroke:#000000; stroke-width:1.000000; stroke-opacity:1; 
stroke-linecap:round; stroke-linejoin:round;">
<path style="fill:#000000; fill-opacity:1.0; 
stroke:#000000; stroke-width:1.000000; stroke-opacity:1; 
stroke-linecap:round; stroke-linejoin:round;fill-rule:evenodd;"
d="M 98168000.000000,71898500.000000
98186079.000000,71807613.000000
98237562.000000,71730562.000000
98314613.000000,71679079.000000
98405500.000000,71661000.000000
99005500.000000,71661000.000000
99096387.000000,71679079.000000
99173438.000000,71730562.000000
99224921.000000,71807613.000000
99243000.000000,71898500.000000
99243000.000000,72373500.000000
99224921.000000,72464387.000000
99173438.000000,72541438.000000
99096387.000000,72592921.000000
99005500.000000,72611000.000000
98405500.000000,72611000.000000
98314613.000000,72592921.000000
98237562.000000,72541438.000000
98186079.000000,72464387.000000
98168000.000000,72373500.000000
Z" /> 
<path style="fill:#000000; fill-opacity:1.0; 
stroke:#000000; stroke-width:1.000000; stroke-opacity:1; 
stroke-linecap:round; stroke-linejoin:round;fill-rule:evenodd;"
d="M 99893000.000000,71898500.000000
99911079.000000,71807613.000000
99962562.000000,71730562.000000
100039613.000000,71679079.000000
100130500.000000,71661000.000000
100730500.000000,71661000.000000
100821387.000000,71679079.000000
100898438.000000,71730562.000000
100949921.000000,71807613.000000
100968000.000000,71898500.000000
100968000.000000,72373500.000000
100949921.000000,72464387.000000
100898438.000000,72541438.000000
100821387.000000,72592921.000000
100730500.000000,72611000.000000
100130500.000000,72611000.000000
100039613.000000,72592921.000000
99962562.000000,72541438.000000
99911079.000000,72464387.000000
99893000.000000,72373500.000000
Z" /> 
</g>
<g >
</g>
<g >
</g>
<g >
</g>
</g>
<g style="fill:#000000; fill-opacity:1.0; 
stroke:#000000; stroke-width:1.000000; stroke-opacity:1; 
stroke-linecap:round; stroke-linejoin:round;">
</g>
<g style="fill:#000000; fill-opacity:0.0; 
stroke:#000000; stroke-width:100000.000000; stroke-opacity:1; 
stroke-linecap:round; stroke-linejoin:round;">
<path d="M116332000.000000 115062000.000000 A1523999.000000 1523999.000000 0.0 0 0 117856000.000000 113538000.000000" />
<path d="M92202000.000000 68580000.000000 A1523999.000000 1523999.000000 0.0 0 0 90678000.000000 70104000.000000" />
<path d="M90678000 70104000
L90678000 113538000
" />
<path d="M117856000.000000 70104000.000000 A1523999.000000 1523999.000000 0.0 0 0 116332000.000000 68580000.000000" />
<path d="M92202000 115062000
L116332000 115062000
" />
<path d="M117856000 113538000
L117856000 70104000
" />
<path d="M116332000 68580000
L92202000 68580000
" />
<path d="M90678000.000000 113538000.000000 A1523999.000000 1523999.000000 0.0 0 0 92202000.000000 115062000.000000" />
<g >
</g>
<g >
</g>
<g >
</g>
<g >
</g>
<g >
</g>
<g >
</g>
<g >
</g>
<g >
</g>
</g> 
</svg>
