<?xml version="1.0" standalone="no"?>
 <!DOCTYPE svg PUBLIC "-//W3C//DTD SVG 1.1//EN" 
 "http://www.w3.org/Graphics/SVG/1.1/DTD/svg11.dtd"> 
<svg
  xmlns:svg="http://www.w3.org/2000/svg"
  xmlns="http://www.w3.org/2000/svg"
  xmlns:xlink="http://www.w3.org/1999/xlink"
  version="1.1"
  width="3.055620cm" height="3.970020cm" viewBox="0 0 30556200 39700200">
<title>SVG Picture created as ESP32_Adapter 2-F_Paste.svg date 2023/01/24 11:33:48 </title>
  <desc>Picture generated by PCBNEW </desc>
<g style="fill:#000000; fill-opacity:1.000000;stroke:#000000; stroke-opacity:1.000000;
stroke-linecap:round; stroke-linejoin:round;"
 transform="translate(0 0) scale(1 1)">
</g>
<g style="fill:#000000; fill-opacity:0.0; 
stroke:#000000; stroke-width:0.000000; stroke-opacity:1; 
stroke-linecap:round; stroke-linejoin:round;">
</g>
<g style="fill:#000000; fill-opacity:0.0; 
stroke:#000000; stroke-width:150000.000000; stroke-opacity:1; 
stroke-linecap:round; stroke-linejoin:round;">
<g transform="rotate(-359.923129 15561474.000000 31174496.000000)">
<text x="15561474.000000" y="31674496.000000"
textLength="8666668.000000" font-size="1333333.000000" lengthAdjust="spacingAndGlyphs"
text-anchor="middle" opacity="0">7.4535 mm</text>
</g>
<g class="stroked-text"><desc>7.4535 mm</desc>
<path d="M11371736 30621255
L12038402 30622149
L11608489 31621573
" />
<path d="M12418140 31527421
L12465695 31575104
L12418012 31622659
L12370457 31574977
L12418140 31527421
L12418012 31622659
" />
<path d="M13323668 30957207
L13322773 31623873
" />
<path d="M13086084 30575936
L12847031 31289901
L13466078 31290732
" />
<path d="M14324114 30625216
L13847924 30624577
L13799666 31100703
L13847349 31053148
L13942651 31005657
L14180746 31005976
L14275920 31053723
L14323475 31101406
L14370966 31196708
L14370647 31434803
L14322900 31529977
L14275217 31577532
L14179915 31625023
L13941820 31624704
L13846646 31576957
L13799091 31529274
" />
<path d="M14705066 30625727
L15324113 30626558
L14990269 31007062
L15133126 31007254
L15228300 31055001
L15275855 31102684
L15323347 31197986
L15323027 31436081
L15275280 31531255
L15227597 31578810
L15132296 31626301
L14846581 31625918
L14751407 31578171
L14703852 31530488
" />
<path d="M16228874 30627771
L15752684 30627132
L15704426 31103259
L15752109 31055704
L15847411 31008212
L16085506 31008532
L16180680 31056279
L16228235 31103961
L16275727 31199263
L16275407 31437358
L16227660 31532532
L16179978 31580088
L16084676 31627579
L15846581 31627259
L15751406 31579513
L15703851 31531830
" />
<path d="M17465627 31629432
L17466521 30962766
" />
<path d="M17466393 31058004
L17514076 31010448
L17609378 30962957
L17752235 30963149
L17847409 31010896
L17894901 31106198
L17894198 31630007
" />
<path d="M17894901 31106198
L17942647 31011023
L18037949 30963532
L18180806 30963724
L18275980 31011471
L18323472 31106773
L18322769 31630582
" />
<path d="M18798959 31631220
L18799853 30964554
" />
<path d="M18799726 31059792
L18847408 31012237
L18942710 30964746
L19085567 30964938
L19180741 31012684
L19228233 31107986
L19227530 31631795
" />
<path d="M19228233 31107986
L19275979 31012812
L19371281 30965321
L19514138 30965513
L19609313 31013259
L19656804 31108561
L19656101 31632370
" />
</g><path d="M11835829 30346000
L11832394 32905915
" />
<path d="M19289329 30356000
L19285894 32915915
" />
<path d="M11833181 32319495
L19286681 32329495
" />
<path d="M11833181 32319495
L19286681 32329495
" />
<path d="M11833181 32319495
L12958897 32907427
" />
<path d="M11833181 32319495
L12960471 31734586
" />
<path d="M19286681 32329495
L18160965 31741563
" />
<path d="M19286681 32329495
L18159391 32914404
" />
<g >
</g>
<g style="fill:#000000; fill-opacity:0.0; 
stroke:#000000; stroke-width:1.000000; stroke-opacity:1; 
stroke-linecap:round; stroke-linejoin:round;">
</g>
<g style="fill:#000000; fill-opacity:1.0; 
stroke:#000000; stroke-width:1.000000; stroke-opacity:1; 
stroke-linecap:round; stroke-linejoin:round;">
<path style="fill:#000000; fill-opacity:1.0; 
stroke:#000000; stroke-width:1.000000; stroke-opacity:1; 
stroke-linecap:round; stroke-linejoin:round;fill-rule:evenodd;"
d="M 3152000.000000,28514500.000000
3170079.000000,28423613.000000
3221562.000000,28346562.000000
3298613.000000,28295079.000000
3389500.000000,28277000.000000
3889500.000000,28277000.000000
3980387.000000,28295079.000000
4057438.000000,28346562.000000
4108921.000000,28423613.000000
4127000.000000,28514500.000000
4127000.000000,28989500.000000
4108921.000000,29080387.000000
4057438.000000,29157438.000000
3980387.000000,29208921.000000
3889500.000000,29227000.000000
3389500.000000,29227000.000000
3298613.000000,29208921.000000
3221562.000000,29157438.000000
3170079.000000,29080387.000000
3152000.000000,28989500.000000
Z" /> 
<path style="fill:#000000; fill-opacity:1.0; 
stroke:#000000; stroke-width:1.000000; stroke-opacity:1; 
stroke-linecap:round; stroke-linejoin:round;fill-rule:evenodd;"
d="M 4977000.000000,28514500.000000
4995079.000000,28423613.000000
5046562.000000,28346562.000000
5123613.000000,28295079.000000
5214500.000000,28277000.000000
5714500.000000,28277000.000000
5805387.000000,28295079.000000
5882438.000000,28346562.000000
5933921.000000,28423613.000000
5952000.000000,28514500.000000
5952000.000000,28989500.000000
5933921.000000,29080387.000000
5882438.000000,29157438.000000
5805387.000000,29208921.000000
5714500.000000,29227000.000000
5214500.000000,29227000.000000
5123613.000000,29208921.000000
5046562.000000,29157438.000000
4995079.000000,29080387.000000
4977000.000000,28989500.000000
Z" /> 
</g>
<g >
</g>
<g style="fill:#000000; fill-opacity:1.0; 
stroke:#000000; stroke-width:1.000000; stroke-opacity:1; 
stroke-linecap:round; stroke-linejoin:round;">
<path style="fill:#000000; fill-opacity:1.0; 
stroke:#000000; stroke-width:1.000000; stroke-opacity:1; 
stroke-linecap:round; stroke-linejoin:round;fill-rule:evenodd;"
d="M 6124501.000000,8416999.000000
6124501.000000,7517001.000000
8124499.000000,7517001.000000
8124499.000000,8416999.000000
Z" /> 
<path style="fill:#000000; fill-opacity:1.0; 
stroke:#000000; stroke-width:1.000000; stroke-opacity:1; 
stroke-linecap:round; stroke-linejoin:round;fill-rule:evenodd;"
d="M 6124501.000000,9686999.000000
6124501.000000,8787001.000000
8124499.000000,8787001.000000
8124499.000000,9686999.000000
Z" /> 
<path style="fill:#000000; fill-opacity:1.0; 
stroke:#000000; stroke-width:1.000000; stroke-opacity:1; 
stroke-linecap:round; stroke-linejoin:round;fill-rule:evenodd;"
d="M 6124501.000000,10956999.000000
6124501.000000,10057001.000000
8124499.000000,10057001.000000
8124499.000000,10956999.000000
Z" /> 
<path style="fill:#000000; fill-opacity:1.0; 
stroke:#000000; stroke-width:1.000000; stroke-opacity:1; 
stroke-linecap:round; stroke-linejoin:round;fill-rule:evenodd;"
d="M 6124501.000000,12226999.000000
6124501.000000,11327001.000000
8124499.000000,11327001.000000
8124499.000000,12226999.000000
Z" /> 
<path style="fill:#000000; fill-opacity:1.0; 
stroke:#000000; stroke-width:1.000000; stroke-opacity:1; 
stroke-linecap:round; stroke-linejoin:round;fill-rule:evenodd;"
d="M 6124501.000000,13496999.000000
6124501.000000,12597001.000000
8124499.000000,12597001.000000
8124499.000000,13496999.000000
Z" /> 
<path style="fill:#000000; fill-opacity:1.0; 
stroke:#000000; stroke-width:1.000000; stroke-opacity:1; 
stroke-linecap:round; stroke-linejoin:round;fill-rule:evenodd;"
d="M 6124501.000000,14766999.000000
6124501.000000,13867001.000000
8124499.000000,13867001.000000
8124499.000000,14766999.000000
Z" /> 
<path style="fill:#000000; fill-opacity:1.0; 
stroke:#000000; stroke-width:1.000000; stroke-opacity:1; 
stroke-linecap:round; stroke-linejoin:round;fill-rule:evenodd;"
d="M 6124501.000000,16036999.000000
6124501.000000,15137001.000000
8124499.000000,15137001.000000
8124499.000000,16036999.000000
Z" /> 
<path style="fill:#000000; fill-opacity:1.0; 
stroke:#000000; stroke-width:1.000000; stroke-opacity:1; 
stroke-linecap:round; stroke-linejoin:round;fill-rule:evenodd;"
d="M 6124501.000000,17306999.000000
6124501.000000,16407001.000000
8124499.000000,16407001.000000
8124499.000000,17306999.000000
Z" /> 
<path style="fill:#000000; fill-opacity:1.0; 
stroke:#000000; stroke-width:1.000000; stroke-opacity:1; 
stroke-linecap:round; stroke-linejoin:round;fill-rule:evenodd;"
d="M 6124501.000000,18576999.000000
6124501.000000,17677001.000000
8124499.000000,17677001.000000
8124499.000000,18576999.000000
Z" /> 
<path style="fill:#000000; fill-opacity:1.0; 
stroke:#000000; stroke-width:1.000000; stroke-opacity:1; 
stroke-linecap:round; stroke-linejoin:round;fill-rule:evenodd;"
d="M 6124501.000000,19846999.000000
6124501.000000,18947001.000000
8124499.000000,18947001.000000
8124499.000000,19846999.000000
Z" /> 
<path style="fill:#000000; fill-opacity:1.0; 
stroke:#000000; stroke-width:1.000000; stroke-opacity:1; 
stroke-linecap:round; stroke-linejoin:round;fill-rule:evenodd;"
d="M 6124501.000000,21116999.000000
6124501.000000,20217001.000000
8124499.000000,20217001.000000
8124499.000000,21116999.000000
Z" /> 
<path style="fill:#000000; fill-opacity:1.0; 
stroke:#000000; stroke-width:1.000000; stroke-opacity:1; 
stroke-linecap:round; stroke-linejoin:round;fill-rule:evenodd;"
d="M 6124501.000000,22386999.000000
6124501.000000,21487001.000000
8124499.000000,21487001.000000
8124499.000000,22386999.000000
Z" /> 
<path style="fill:#000000; fill-opacity:1.0; 
stroke:#000000; stroke-width:1.000000; stroke-opacity:1; 
stroke-linecap:round; stroke-linejoin:round;fill-rule:evenodd;"
d="M 6124501.000000,23656999.000000
6124501.000000,22757001.000000
8124499.000000,22757001.000000
8124499.000000,23656999.000000
Z" /> 
<path style="fill:#000000; fill-opacity:1.0; 
stroke:#000000; stroke-width:1.000000; stroke-opacity:1; 
stroke-linecap:round; stroke-linejoin:round;fill-rule:evenodd;"
d="M 6124501.000000,24926999.000000
6124501.000000,24027001.000000
8124499.000000,24027001.000000
8124499.000000,24926999.000000
Z" /> 
<path style="fill:#000000; fill-opacity:1.0; 
stroke:#000000; stroke-width:1.000000; stroke-opacity:1; 
stroke-linecap:round; stroke-linejoin:round;fill-rule:evenodd;"
d="M 10359499.000000,26476999.000000
9459501.000000,26476999.000000
9459501.000000,24477001.000000
10359499.000000,24477001.000000
Z" /> 
<path style="fill:#000000; fill-opacity:1.0; 
stroke:#000000; stroke-width:1.000000; stroke-opacity:1; 
stroke-linecap:round; stroke-linejoin:round;fill-rule:evenodd;"
d="M 11629499.000000,26476999.000000
10729501.000000,26476999.000000
10729501.000000,24477001.000000
11629499.000000,24477001.000000
Z" /> 
<path style="fill:#000000; fill-opacity:1.0; 
stroke:#000000; stroke-width:1.000000; stroke-opacity:1; 
stroke-linecap:round; stroke-linejoin:round;fill-rule:evenodd;"
d="M 12899499.000000,26476999.000000
11999501.000000,26476999.000000
11999501.000000,24477001.000000
12899499.000000,24477001.000000
Z" /> 
<path style="fill:#000000; fill-opacity:1.0; 
stroke:#000000; stroke-width:1.000000; stroke-opacity:1; 
stroke-linecap:round; stroke-linejoin:round;fill-rule:evenodd;"
d="M 14169499.000000,26476999.000000
13269501.000000,26476999.000000
13269501.000000,24477001.000000
14169499.000000,24477001.000000
Z" /> 
<path style="fill:#000000; fill-opacity:1.0; 
stroke:#000000; stroke-width:1.000000; stroke-opacity:1; 
stroke-linecap:round; stroke-linejoin:round;fill-rule:evenodd;"
d="M 15439499.000000,26476999.000000
14539501.000000,26476999.000000
14539501.000000,24477001.000000
15439499.000000,24477001.000000
Z" /> 
<path style="fill:#000000; fill-opacity:1.0; 
stroke:#000000; stroke-width:1.000000; stroke-opacity:1; 
stroke-linecap:round; stroke-linejoin:round;fill-rule:evenodd;"
d="M 16709499.000000,26476999.000000
15809501.000000,26476999.000000
15809501.000000,24477001.000000
16709499.000000,24477001.000000
Z" /> 
<path style="fill:#000000; fill-opacity:1.0; 
stroke:#000000; stroke-width:1.000000; stroke-opacity:1; 
stroke-linecap:round; stroke-linejoin:round;fill-rule:evenodd;"
d="M 17979499.000000,26476999.000000
17079501.000000,26476999.000000
17079501.000000,24477001.000000
17979499.000000,24477001.000000
Z" /> 
<path style="fill:#000000; fill-opacity:1.0; 
stroke:#000000; stroke-width:1.000000; stroke-opacity:1; 
stroke-linecap:round; stroke-linejoin:round;fill-rule:evenodd;"
d="M 19249499.000000,26476999.000000
18349501.000000,26476999.000000
18349501.000000,24477001.000000
19249499.000000,24477001.000000
Z" /> 
<path style="fill:#000000; fill-opacity:1.0; 
stroke:#000000; stroke-width:1.000000; stroke-opacity:1; 
stroke-linecap:round; stroke-linejoin:round;fill-rule:evenodd;"
d="M 20519499.000000,26476999.000000
19619501.000000,26476999.000000
19619501.000000,24477001.000000
20519499.000000,24477001.000000
Z" /> 
<path style="fill:#000000; fill-opacity:1.0; 
stroke:#000000; stroke-width:1.000000; stroke-opacity:1; 
stroke-linecap:round; stroke-linejoin:round;fill-rule:evenodd;"
d="M 21789499.000000,26476999.000000
20889501.000000,26476999.000000
20889501.000000,24477001.000000
21789499.000000,24477001.000000
Z" /> 
<path style="fill:#000000; fill-opacity:1.0; 
stroke:#000000; stroke-width:1.000000; stroke-opacity:1; 
stroke-linecap:round; stroke-linejoin:round;fill-rule:evenodd;"
d="M 23124501.000000,24926999.000000
23124501.000000,24027001.000000
25124499.000000,24027001.000000
25124499.000000,24926999.000000
Z" /> 
<path style="fill:#000000; fill-opacity:1.0; 
stroke:#000000; stroke-width:1.000000; stroke-opacity:1; 
stroke-linecap:round; stroke-linejoin:round;fill-rule:evenodd;"
d="M 23124501.000000,23656999.000000
23124501.000000,22757001.000000
25124499.000000,22757001.000000
25124499.000000,23656999.000000
Z" /> 
<path style="fill:#000000; fill-opacity:1.0; 
stroke:#000000; stroke-width:1.000000; stroke-opacity:1; 
stroke-linecap:round; stroke-linejoin:round;fill-rule:evenodd;"
d="M 23124501.000000,22386999.000000
23124501.000000,21487001.000000
25124499.000000,21487001.000000
25124499.000000,22386999.000000
Z" /> 
<path style="fill:#000000; fill-opacity:1.0; 
stroke:#000000; stroke-width:1.000000; stroke-opacity:1; 
stroke-linecap:round; stroke-linejoin:round;fill-rule:evenodd;"
d="M 23124501.000000,21116999.000000
23124501.000000,20217001.000000
25124499.000000,20217001.000000
25124499.000000,21116999.000000
Z" /> 
<path style="fill:#000000; fill-opacity:1.0; 
stroke:#000000; stroke-width:1.000000; stroke-opacity:1; 
stroke-linecap:round; stroke-linejoin:round;fill-rule:evenodd;"
d="M 23124501.000000,19846999.000000
23124501.000000,18947001.000000
25124499.000000,18947001.000000
25124499.000000,19846999.000000
Z" /> 
<path style="fill:#000000; fill-opacity:1.0; 
stroke:#000000; stroke-width:1.000000; stroke-opacity:1; 
stroke-linecap:round; stroke-linejoin:round;fill-rule:evenodd;"
d="M 23124501.000000,18576999.000000
23124501.000000,17677001.000000
25124499.000000,17677001.000000
25124499.000000,18576999.000000
Z" /> 
<path style="fill:#000000; fill-opacity:1.0; 
stroke:#000000; stroke-width:1.000000; stroke-opacity:1; 
stroke-linecap:round; stroke-linejoin:round;fill-rule:evenodd;"
d="M 23124501.000000,17306999.000000
23124501.000000,16407001.000000
25124499.000000,16407001.000000
25124499.000000,17306999.000000
Z" /> 
<path style="fill:#000000; fill-opacity:1.0; 
stroke:#000000; stroke-width:1.000000; stroke-opacity:1; 
stroke-linecap:round; stroke-linejoin:round;fill-rule:evenodd;"
d="M 23124501.000000,16036999.000000
23124501.000000,15137001.000000
25124499.000000,15137001.000000
25124499.000000,16036999.000000
Z" /> 
<path style="fill:#000000; fill-opacity:1.0; 
stroke:#000000; stroke-width:1.000000; stroke-opacity:1; 
stroke-linecap:round; stroke-linejoin:round;fill-rule:evenodd;"
d="M 23124501.000000,14766999.000000
23124501.000000,13867001.000000
25124499.000000,13867001.000000
25124499.000000,14766999.000000
Z" /> 
<path style="fill:#000000; fill-opacity:1.0; 
stroke:#000000; stroke-width:1.000000; stroke-opacity:1; 
stroke-linecap:round; stroke-linejoin:round;fill-rule:evenodd;"
d="M 23124501.000000,13496999.000000
23124501.000000,12597001.000000
25124499.000000,12597001.000000
25124499.000000,13496999.000000
Z" /> 
<path style="fill:#000000; fill-opacity:1.0; 
stroke:#000000; stroke-width:1.000000; stroke-opacity:1; 
stroke-linecap:round; stroke-linejoin:round;fill-rule:evenodd;"
d="M 23124501.000000,12226999.000000
23124501.000000,11327001.000000
25124499.000000,11327001.000000
25124499.000000,12226999.000000
Z" /> 
<path style="fill:#000000; fill-opacity:1.0; 
stroke:#000000; stroke-width:1.000000; stroke-opacity:1; 
stroke-linecap:round; stroke-linejoin:round;fill-rule:evenodd;"
d="M 23124501.000000,10956999.000000
23124501.000000,10057001.000000
25124499.000000,10057001.000000
25124499.000000,10956999.000000
Z" /> 
<path style="fill:#000000; fill-opacity:1.0; 
stroke:#000000; stroke-width:1.000000; stroke-opacity:1; 
stroke-linecap:round; stroke-linejoin:round;fill-rule:evenodd;"
d="M 23124501.000000,9686999.000000
23124501.000000,8787001.000000
25124499.000000,8787001.000000
25124499.000000,9686999.000000
Z" /> 
<path style="fill:#000000; fill-opacity:1.0; 
stroke:#000000; stroke-width:1.000000; stroke-opacity:1; 
stroke-linecap:round; stroke-linejoin:round;fill-rule:evenodd;"
d="M 23124501.000000,8416999.000000
23124501.000000,7517001.000000
25124499.000000,7517001.000000
25124499.000000,8416999.000000
Z" /> 
<path style="fill:#000000; fill-opacity:1.0; 
stroke:#000000; stroke-width:1.000000; stroke-opacity:1; 
stroke-linecap:round; stroke-linejoin:round;fill-rule:evenodd;"
d="M 12124501.000000,17966999.000000
12124501.000000,12967001.000000
17124499.000000,12967001.000000
17124499.000000,17966999.000000
Z" /> 
</g>
<g >
</g>
<g style="fill:#000000; fill-opacity:1.0; 
stroke:#000000; stroke-width:1.000000; stroke-opacity:1; 
stroke-linecap:round; stroke-linejoin:round;">
<path style="fill:#000000; fill-opacity:1.0; 
stroke:#000000; stroke-width:1.000000; stroke-opacity:1; 
stroke-linecap:round; stroke-linejoin:round;fill-rule:evenodd;"
d="M 24234000.000000,28260500.000000
24252079.000000,28169613.000000
24303562.000000,28092562.000000
24380613.000000,28041079.000000
24471500.000000,28023000.000000
24971500.000000,28023000.000000
25062387.000000,28041079.000000
25139438.000000,28092562.000000
25190921.000000,28169613.000000
25209000.000000,28260500.000000
25209000.000000,28735500.000000
25190921.000000,28826387.000000
25139438.000000,28903438.000000
25062387.000000,28954921.000000
24971500.000000,28973000.000000
24471500.000000,28973000.000000
24380613.000000,28954921.000000
24303562.000000,28903438.000000
24252079.000000,28826387.000000
24234000.000000,28735500.000000
Z" /> 
<path style="fill:#000000; fill-opacity:1.0; 
stroke:#000000; stroke-width:1.000000; stroke-opacity:1; 
stroke-linecap:round; stroke-linejoin:round;fill-rule:evenodd;"
d="M 26059000.000000,28260500.000000
26077079.000000,28169613.000000
26128562.000000,28092562.000000
26205613.000000,28041079.000000
26296500.000000,28023000.000000
26796500.000000,28023000.000000
26887387.000000,28041079.000000
26964438.000000,28092562.000000
27015921.000000,28169613.000000
27034000.000000,28260500.000000
27034000.000000,28735500.000000
27015921.000000,28826387.000000
26964438.000000,28903438.000000
26887387.000000,28954921.000000
26796500.000000,28973000.000000
26296500.000000,28973000.000000
26205613.000000,28954921.000000
26128562.000000,28903438.000000
26077079.000000,28826387.000000
26059000.000000,28735500.000000
Z" /> 
</g>
<g >
</g>
<g style="fill:#000000; fill-opacity:1.0; 
stroke:#000000; stroke-width:1.000000; stroke-opacity:1; 
stroke-linecap:round; stroke-linejoin:round;">
<path style="fill:#000000; fill-opacity:1.0; 
stroke:#000000; stroke-width:1.000000; stroke-opacity:1; 
stroke-linecap:round; stroke-linejoin:round;fill-rule:evenodd;"
d="M 4436499.000000,32045999.000000
2836501.000000,32045999.000000
2836501.000000,31046001.000000
4436499.000000,31046001.000000
Z" /> 
<path style="fill:#000000; fill-opacity:1.0; 
stroke:#000000; stroke-width:1.000000; stroke-opacity:1; 
stroke-linecap:round; stroke-linejoin:round;fill-rule:evenodd;"
d="M 10836499.000000,32045999.000000
9236501.000000,32045999.000000
9236501.000000,31046001.000000
10836499.000000,31046001.000000
Z" /> 
<path style="fill:#000000; fill-opacity:1.0; 
stroke:#000000; stroke-width:1.000000; stroke-opacity:1; 
stroke-linecap:round; stroke-linejoin:round;fill-rule:evenodd;"
d="M 4436499.000000,35845999.000000
2836501.000000,35845999.000000
2836501.000000,34846001.000000
4436499.000000,34846001.000000
Z" /> 
<path style="fill:#000000; fill-opacity:1.0; 
stroke:#000000; stroke-width:1.000000; stroke-opacity:1; 
stroke-linecap:round; stroke-linejoin:round;fill-rule:evenodd;"
d="M 10836499.000000,35845999.000000
9236501.000000,35845999.000000
9236501.000000,34846001.000000
10836499.000000,34846001.000000
Z" /> 
</g>
<g >
</g>
<g >
</g>
<g style="fill:#000000; fill-opacity:1.0; 
stroke:#000000; stroke-width:1.000000; stroke-opacity:1; 
stroke-linecap:round; stroke-linejoin:round;">
<path style="fill:#000000; fill-opacity:1.0; 
stroke:#000000; stroke-width:1.000000; stroke-opacity:1; 
stroke-linecap:round; stroke-linejoin:round;fill-rule:evenodd;"
d="M 22389999.000000,32055999.000000
20790001.000000,32055999.000000
20790001.000000,31056001.000000
22389999.000000,31056001.000000
Z" /> 
<path style="fill:#000000; fill-opacity:1.0; 
stroke:#000000; stroke-width:1.000000; stroke-opacity:1; 
stroke-linecap:round; stroke-linejoin:round;fill-rule:evenodd;"
d="M 28789999.000000,32055999.000000
27190001.000000,32055999.000000
27190001.000000,31056001.000000
28789999.000000,31056001.000000
Z" /> 
<path style="fill:#000000; fill-opacity:1.0; 
stroke:#000000; stroke-width:1.000000; stroke-opacity:1; 
stroke-linecap:round; stroke-linejoin:round;fill-rule:evenodd;"
d="M 22389999.000000,35855999.000000
20790001.000000,35855999.000000
20790001.000000,34856001.000000
22389999.000000,34856001.000000
Z" /> 
<path style="fill:#000000; fill-opacity:1.0; 
stroke:#000000; stroke-width:1.000000; stroke-opacity:1; 
stroke-linecap:round; stroke-linejoin:round;fill-rule:evenodd;"
d="M 28789999.000000,35855999.000000
27190001.000000,35855999.000000
27190001.000000,34856001.000000
28789999.000000,34856001.000000
Z" /> 
</g>
<g >
</g>
<g >
</g>
<g style="fill:#000000; fill-opacity:1.0; 
stroke:#000000; stroke-width:1.000000; stroke-opacity:1; 
stroke-linecap:round; stroke-linejoin:round;">
<path style="fill:#000000; fill-opacity:1.0; 
stroke:#000000; stroke-width:1.000000; stroke-opacity:1; 
stroke-linecap:round; stroke-linejoin:round;fill-rule:evenodd;"
d="M 9478000.000000,28408000.000000
9484851.000000,28373558.000000
9504360.000000,28344360.000000
9533558.000000,28324851.000000
9568000.000000,28318000.000000
9846000.000000,28318000.000000
9880442.000000,28324851.000000
9909640.000000,28344360.000000
9929149.000000,28373558.000000
9936000.000000,28408000.000000
9936000.000000,28588000.000000
9929149.000000,28622442.000000
9909640.000000,28651640.000000
9880442.000000,28671149.000000
9846000.000000,28678000.000000
9568000.000000,28678000.000000
9533558.000000,28671149.000000
9504360.000000,28651640.000000
9484851.000000,28622442.000000
9478000.000000,28588000.000000
Z" /> 
<path style="fill:#000000; fill-opacity:1.0; 
stroke:#000000; stroke-width:1.000000; stroke-opacity:1; 
stroke-linecap:round; stroke-linejoin:round;fill-rule:evenodd;"
d="M 8613000.000000,28408000.000000
8619851.000000,28373558.000000
8639360.000000,28344360.000000
8668558.000000,28324851.000000
8703000.000000,28318000.000000
8981000.000000,28318000.000000
9015442.000000,28324851.000000
9044640.000000,28344360.000000
9064149.000000,28373558.000000
9071000.000000,28408000.000000
9071000.000000,28588000.000000
9064149.000000,28622442.000000
9044640.000000,28651640.000000
9015442.000000,28671149.000000
8981000.000000,28678000.000000
8703000.000000,28678000.000000
8668558.000000,28671149.000000
8639360.000000,28651640.000000
8619851.000000,28622442.000000
8613000.000000,28588000.000000
Z" /> 
</g>
<g >
</g>
<g >
</g>
<g >
</g>
<g >
</g>
</g>
<g style="fill:#000000; fill-opacity:1.0; 
stroke:#000000; stroke-width:1.000000; stroke-opacity:1; 
stroke-linecap:round; stroke-linejoin:round;">
</g>
<g style="fill:#000000; fill-opacity:0.0; 
stroke:#000000; stroke-width:100000.000000; stroke-opacity:1; 
stroke-linecap:round; stroke-linejoin:round;">
<path d="M30530000.000000 2590000.000000 A2540001.000000 2540001.000000 0.0 0 0 27990000.000000 50000.000000" />
<path d="M27990000 50000
L2590000 50000
" />
<path d="M30530000 37134000
L30530000 2590000
" />
<path d="M27990000.000000 39674000.000000 A2540001.000000 2540001.000000 0.0 0 0 30530000.000000 37134000.000000" />
<path d="M2590000.000000 50000.000000 A2540001.000000 2540001.000000 0.0 0 0 50000.000000 2590000.000000" />
<path d="M50000 2590000
L50000 37134000
" />
<path d="M2590000 39674000
L27990000 39674000
" />
<path d="M50000.000000 37134000.000000 A2540001.000000 2540001.000000 0.0 0 0 2590000.000000 39674000.000000" />
<g >
</g>
<g >
</g>
<g >
</g>
<g >
</g>
<g >
</g>
<g >
</g>
<g >
</g>
<g >
</g>
<g >
</g>
<g >
</g>
<g >
</g>
<g >
</g>
</g> 
</svg>
