%TF.GenerationSoftware,KiCad,Pcbnew,(6.0.1)*%
%TF.CreationDate,2023-04-08T22:05:36+08:00*%
%TF.ProjectId,Scroller Motor 1,5363726f-6c6c-4657-9220-4d6f746f7220,rev?*%
%TF.SameCoordinates,Original*%
%TF.FileFunction,Copper,L2,Bot*%
%TF.FilePolarity,Positive*%
%FSLAX46Y46*%
G04 Gerber Fmt 4.6, Leading zero omitted, Abs format (unit mm)*
G04 Created by KiCad (PCBNEW (6.0.1)) date 2023-04-08 22:05:36*
%MOMM*%
%LPD*%
G01*
G04 APERTURE LIST*
G04 Aperture macros list*
%AMRoundRect*
0 Rectangle with rounded corners*
0 $1 Rounding radius*
0 $2 $3 $4 $5 $6 $7 $8 $9 X,Y pos of 4 corners*
0 Add a 4 corners polygon primitive as box body*
4,1,4,$2,$3,$4,$5,$6,$7,$8,$9,$2,$3,0*
0 Add four circle primitives for the rounded corners*
1,1,$1+$1,$2,$3*
1,1,$1+$1,$4,$5*
1,1,$1+$1,$6,$7*
1,1,$1+$1,$8,$9*
0 Add four rect primitives between the rounded corners*
20,1,$1+$1,$2,$3,$4,$5,0*
20,1,$1+$1,$4,$5,$6,$7,0*
20,1,$1+$1,$6,$7,$8,$9,0*
20,1,$1+$1,$8,$9,$2,$3,0*%
G04 Aperture macros list end*
%TA.AperFunction,ComponentPad*%
%ADD10RoundRect,0.399500X0.450500X-0.450500X0.450500X0.450500X-0.450500X0.450500X-0.450500X-0.450500X0*%
%TD*%
%TA.AperFunction,ComponentPad*%
%ADD11O,1.700000X1.700000*%
%TD*%
%TA.AperFunction,ComponentPad*%
%ADD12R,1.700000X1.700000*%
%TD*%
%TA.AperFunction,ComponentPad*%
%ADD13R,1.600000X1.600000*%
%TD*%
%TA.AperFunction,ComponentPad*%
%ADD14O,1.600000X1.600000*%
%TD*%
%TA.AperFunction,ComponentPad*%
%ADD15C,1.700000*%
%TD*%
%TA.AperFunction,ComponentPad*%
%ADD16RoundRect,0.250000X-0.725000X0.600000X-0.725000X-0.600000X0.725000X-0.600000X0.725000X0.600000X0*%
%TD*%
%TA.AperFunction,ComponentPad*%
%ADD17O,1.950000X1.700000*%
%TD*%
%TA.AperFunction,ViaPad*%
%ADD18C,1.500000*%
%TD*%
%TA.AperFunction,Conductor*%
%ADD19C,1.000000*%
%TD*%
%TA.AperFunction,Conductor*%
%ADD20C,0.300000*%
%TD*%
G04 APERTURE END LIST*
D10*
%TO.P,TMC1,1,+VCC_IO*%
%TO.N,+3V3*%
X100622893Y-130547107D03*
D11*
%TO.P,TMC1,2,GND*%
%TO.N,GND*%
X98082893Y-130547107D03*
%TO.P,TMC1,3,UH_in*%
%TO.N,UH_in*%
X95542893Y-130547107D03*
%TO.P,TMC1,4,UL_in*%
%TO.N,UL_in*%
X93002893Y-130547107D03*
%TO.P,TMC1,5,VH_in*%
%TO.N,VH_in*%
X90462893Y-130547107D03*
%TO.P,TMC1,6,VL_in*%
%TO.N,VL_in*%
X87922893Y-130547107D03*
%TO.P,TMC1,7,WH_in*%
%TO.N,WH_in*%
X85382893Y-130547107D03*
%TO.P,TMC1,8,WL_in*%
%TO.N,WL_in*%
X82842893Y-130547107D03*
D10*
%TO.P,TMC1,9,+VBAT*%
%TO.N,+5V*%
X100622893Y-153347107D03*
D11*
%TO.P,TMC1,10,GND*%
%TO.N,GND*%
X98082893Y-153347107D03*
%TO.P,TMC1,11,GND*%
X95542893Y-153347107D03*
%TO.P,TMC1,12,W*%
%TO.N,/W_Out*%
X93002893Y-153347107D03*
%TO.P,TMC1,13,V*%
%TO.N,/V_Out*%
X90462893Y-153347107D03*
%TO.P,TMC1,14,W*%
%TO.N,/U_Out*%
X87922893Y-153347107D03*
%TO.P,TMC1,15,GND*%
%TO.N,GND*%
X85382893Y-153347107D03*
%TO.P,TMC1,16,DIAG*%
%TO.N,unconnected-(TMC1-Pad16)*%
X82842893Y-153347107D03*
%TD*%
D12*
%TO.P,J2,1,Pin_1*%
%TO.N,SDA*%
X122400000Y-97600000D03*
D11*
%TO.P,J2,2,Pin_2*%
%TO.N,SCL*%
X119860000Y-97600000D03*
%TO.P,J2,3,Pin_3*%
%TO.N,CSn*%
X117320000Y-97600000D03*
%TD*%
D13*
%TO.P,QMK1,1,D1/TX*%
%TO.N,SERIAL_RX*%
X138430000Y-73025000D03*
D14*
%TO.P,QMK1,2,D0/RX*%
%TO.N,SERIAL_TX*%
X138430000Y-75565000D03*
%TO.P,QMK1,3,GND*%
%TO.N,GND*%
X138430000Y-78105000D03*
%TO.P,QMK1,4,GND*%
X138430000Y-80645000D03*
%TO.P,QMK1,5,D2*%
%TO.N,unconnected-(QMK1-Pad5)*%
X138430000Y-83185000D03*
%TO.P,QMK1,6,~D3*%
%TO.N,unconnected-(QMK1-Pad6)*%
X138430000Y-85725000D03*
%TO.P,QMK1,7,D4/A6*%
%TO.N,unconnected-(QMK1-Pad7)*%
X138430000Y-88265000D03*
%TO.P,QMK1,8,~D5*%
%TO.N,unconnected-(QMK1-Pad8)*%
X138430000Y-90805000D03*
%TO.P,QMK1,9,~D6/A7*%
%TO.N,unconnected-(QMK1-Pad9)*%
X138430000Y-93345000D03*
%TO.P,QMK1,10,D7*%
%TO.N,unconnected-(QMK1-Pad10)*%
X138430000Y-95885000D03*
%TO.P,QMK1,11,D8/A8*%
%TO.N,BTN_NEXT_O*%
X138430000Y-98425000D03*
%TO.P,QMK1,12,~D9/A9*%
%TO.N,unconnected-(QMK1-Pad12)*%
X138430000Y-100965000D03*
%TO.P,QMK1,13,~D10/A10*%
%TO.N,Col 4*%
X153670000Y-100965000D03*
%TO.P,QMK1,14,D16*%
%TO.N,Col 3*%
X153670000Y-98425000D03*
%TO.P,QMK1,15,D14*%
%TO.N,Col 2*%
X153670000Y-95885000D03*
%TO.P,QMK1,16,D15*%
%TO.N,Col 1*%
X153670000Y-93345000D03*
%TO.P,QMK1,17,D18/A0*%
%TO.N,Row 4*%
X153670000Y-90805000D03*
%TO.P,QMK1,18,D19/A1*%
%TO.N,Row 3*%
X153670000Y-88265000D03*
%TO.P,QMK1,19,D20/A2*%
%TO.N,Row 2*%
X153670000Y-85725000D03*
%TO.P,QMK1,20,D21/A3*%
%TO.N,Row 1*%
X153670000Y-83185000D03*
%TO.P,QMK1,21,VCC*%
%TO.N,+5V*%
X153670000Y-80645000D03*
%TO.P,QMK1,22,RST*%
%TO.N,unconnected-(QMK1-Pad22)*%
X153670000Y-78105000D03*
%TO.P,QMK1,23,GND*%
%TO.N,GND*%
X153670000Y-75565000D03*
%TO.P,QMK1,24,RAW*%
%TO.N,unconnected-(QMK1-Pad24)*%
X153670000Y-73025000D03*
%TD*%
D12*
%TO.P,J3,1,Pin_1*%
%TO.N,BTN_NEXT_O*%
X130800000Y-89800000D03*
D11*
%TO.P,J3,2,Pin_2*%
%TO.N,SERIAL_TX*%
X130800000Y-87260000D03*
%TO.P,J3,3,Pin_3*%
%TO.N,SERIAL_RX*%
X130800000Y-84720000D03*
%TD*%
%TO.P,ESP32,1,3V3*%
%TO.N,+3V3*%
X85170500Y-76106000D03*
%TO.P,ESP32,2,UH*%
%TO.N,UH_in*%
X85170500Y-78646000D03*
%TO.P,ESP32,3,UL*%
%TO.N,UL_in*%
X85170500Y-81186000D03*
%TO.P,ESP32,4,VH*%
%TO.N,VH_in*%
X85170500Y-83726000D03*
%TO.P,ESP32,5,VL*%
%TO.N,VL_in*%
X85170500Y-86266000D03*
%TO.P,ESP32,6,WH*%
%TO.N,WH_in*%
X85170500Y-88806000D03*
D15*
%TO.P,ESP32,7,WL*%
%TO.N,WL_in*%
X85170500Y-91346000D03*
%TO.P,ESP32,8,GND*%
%TO.N,GND*%
X110490000Y-76126000D03*
D11*
%TO.P,ESP32,9,SDA*%
%TO.N,SDA*%
X110490000Y-78666000D03*
%TO.P,ESP32,10,SCL*%
%TO.N,SCL*%
X110490000Y-81206000D03*
%TO.P,ESP32,11,CSN*%
%TO.N,CSn*%
X110490000Y-83746000D03*
%TO.P,ESP32,12,S_RX*%
%TO.N,Net-(ESP32-Pad12)*%
X110490000Y-86286000D03*
%TO.P,ESP32,13,S_TX*%
%TO.N,SERIAL_TX*%
X110490000Y-88826000D03*
%TO.P,ESP32,14,B_NXT*%
%TO.N,BTN_NXT*%
X110490000Y-91366000D03*
%TD*%
D16*
%TO.P,J1,1,Pin_1*%
%TO.N,/U_Out*%
X106000000Y-147700000D03*
D17*
%TO.P,J1,2,Pin_2*%
%TO.N,/V_Out*%
X106000000Y-150200000D03*
%TO.P,J1,3,Pin_3*%
%TO.N,/W_Out*%
X106000000Y-152700000D03*
%TD*%
D18*
%TO.N,GND*%
X121700000Y-131400500D03*
X119945000Y-92460000D03*
X120000000Y-77200000D03*
X130900000Y-132400000D03*
%TO.N,Net-(ESP32-Pad12)*%
X118500000Y-82100000D03*
%TO.N,SERIAL_TX*%
X118400000Y-86800000D03*
%TO.N,BTN_NXT*%
X118145000Y-90460000D03*
%TD*%
D19*
%TO.N,GND*%
X104900000Y-77345000D02*
X104900000Y-109705000D01*
D20*
X119945000Y-92460000D02*
X120000000Y-92405000D01*
D19*
X106299000Y-75946000D02*
X104900000Y-77345000D01*
X142845000Y-80645000D02*
X138430000Y-80645000D01*
D20*
X120000000Y-92405000D02*
X120000000Y-77200000D01*
D19*
X146800000Y-84600000D02*
X146800000Y-77990000D01*
X146800000Y-109600000D02*
X146800000Y-84600000D01*
X110490000Y-75946000D02*
X106299000Y-75946000D01*
X149225000Y-75565000D02*
X153670000Y-75565000D01*
X146800000Y-77990000D02*
X149225000Y-75565000D01*
X146800000Y-84600000D02*
X142845000Y-80645000D01*
X138430000Y-78740000D02*
X138430000Y-80645000D01*
D20*
%TO.N,Net-(ESP32-Pad12)*%
X113284000Y-86106000D02*
X110490000Y-86106000D01*
X117290000Y-82100000D02*
X113284000Y-86106000D01*
X118500000Y-82100000D02*
X117290000Y-82100000D01*
%TO.N,SERIAL_TX*%
X118400000Y-86800000D02*
X117670000Y-86800000D01*
X115824000Y-88646000D02*
X110490000Y-88646000D01*
X117670000Y-86800000D02*
X115824000Y-88646000D01*
%TO.N,BTN_NXT*%
X118145000Y-90460000D02*
X117419000Y-91186000D01*
X117419000Y-91186000D02*
X110490000Y-91186000D01*
%TD*%
%TA.AperFunction,Conductor*%
%TO.N,GND*%
G36*
X154342121Y-108220002D02*
G01*
X154388614Y-108273658D01*
X154400000Y-108326000D01*
X154400000Y-156474000D01*
X154379998Y-156542121D01*
X154326342Y-156588614D01*
X154274000Y-156600000D01*
X82926000Y-156600000D01*
X82857879Y-156579998D01*
X82811386Y-156526342D01*
X82800000Y-156474000D01*
X82800000Y-154833165D01*
X82820002Y-154765044D01*
X82873658Y-154718551D01*
X82909989Y-154708186D01*
X83051871Y-154690011D01*
X83121181Y-154681132D01*
X83121182Y-154681132D01*
X83126309Y-154680475D01*
X83131259Y-154678990D01*
X83335322Y-154617768D01*
X83335327Y-154617766D01*
X83340277Y-154616281D01*
X83540887Y-154518003D01*
X83722753Y-154388280D01*
X83880989Y-154230596D01*
X83940487Y-154147796D01*
X84008328Y-154053384D01*
X84011346Y-154049184D01*
X84014610Y-154042581D01*
X84108029Y-153853560D01*
X84108030Y-153853558D01*
X84110323Y-153848918D01*
X84175263Y-153635176D01*
X84204422Y-153413697D01*
X84206049Y-153347107D01*
X84203311Y-153313802D01*
X86560144Y-153313802D01*
X86560441Y-153318955D01*
X86560441Y-153318958D01*
X86572705Y-153531654D01*
X86573003Y-153536822D01*
X86574140Y-153541868D01*
X86574141Y-153541874D01*
X86588842Y-153607103D01*
X86622115Y-153754746D01*
X86666323Y-153863617D01*
X86699779Y-153946010D01*
X86706159Y-153961723D01*
X86755709Y-154042581D01*
X86820184Y-154147795D01*
X86822880Y-154152195D01*
X86969143Y-154321045D01*
X87141019Y-154463739D01*
X87333893Y-154576445D01*
X87542585Y-154656137D01*
X87547653Y-154657168D01*
X87547656Y-154657169D01*
X87654910Y-154678990D01*
X87761490Y-154700674D01*
X87766665Y-154700864D01*
X87766667Y-154700864D01*
X87979566Y-154708671D01*
X87979570Y-154708671D01*
X87984730Y-154708860D01*
X87989850Y-154708204D01*
X87989852Y-154708204D01*
X88201181Y-154681132D01*
X88201182Y-154681132D01*
X88206309Y-154680475D01*
X88211259Y-154678990D01*
X88415322Y-154617768D01*
X88415327Y-154617766D01*
X88420277Y-154616281D01*
X88620887Y-154518003D01*
X88802753Y-154388280D01*
X88960989Y-154230596D01*
X89020487Y-154147796D01*
X89091346Y-154049184D01*
X89092669Y-154050135D01*
X89139538Y-154006964D01*
X89209473Y-153994732D01*
X89274919Y-154022251D01*
X89302768Y-154054101D01*
X89304766Y-154057361D01*
X89362880Y-154152195D01*
X89509143Y-154321045D01*
X89681019Y-154463739D01*
X89873893Y-154576445D01*
X90082585Y-154656137D01*
X90087653Y-154657168D01*
X90087656Y-154657169D01*
X90194910Y-154678990D01*
X90301490Y-154700674D01*
X90306665Y-154700864D01*
X90306667Y-154700864D01*
X90519566Y-154708671D01*
X90519570Y-154708671D01*
X90524730Y-154708860D01*
X90529850Y-154708204D01*
X90529852Y-154708204D01*
X90741181Y-154681132D01*
X90741182Y-154681132D01*
X90746309Y-154680475D01*
X90751259Y-154678990D01*
X90955322Y-154617768D01*
X90955327Y-154617766D01*
X90960277Y-154616281D01*
X91160887Y-154518003D01*
X91342753Y-154388280D01*
X91500989Y-154230596D01*
X91560487Y-154147796D01*
X91631346Y-154049184D01*
X91632669Y-154050135D01*
X91679538Y-154006964D01*
X91749473Y-153994732D01*
X91814919Y-154022251D01*
X91842768Y-154054101D01*
X91844766Y-154057361D01*
X91902880Y-154152195D01*
X92049143Y-154321045D01*
X92221019Y-154463739D01*
X92413893Y-154576445D01*
X92622585Y-154656137D01*
X92627653Y-154657168D01*
X92627656Y-154657169D01*
X92734910Y-154678990D01*
X92841490Y-154700674D01*
X92846665Y-154700864D01*
X92846667Y-154700864D01*
X93059566Y-154708671D01*
X93059570Y-154708671D01*
X93064730Y-154708860D01*
X93069850Y-154708204D01*
X93069852Y-154708204D01*
X93281181Y-154681132D01*
X93281182Y-154681132D01*
X93286309Y-154680475D01*
X93291259Y-154678990D01*
X93495322Y-154617768D01*
X93495327Y-154617766D01*
X93500277Y-154616281D01*
X93700887Y-154518003D01*
X93882753Y-154388280D01*
X94040989Y-154230596D01*
X94100487Y-154147796D01*
X94168328Y-154053384D01*
X94171346Y-154049184D01*
X94174610Y-154042581D01*
X94264272Y-153861161D01*
X99264393Y-153861161D01*
X99270632Y-153940432D01*
X99272125Y-153946004D01*
X99272126Y-153946010D01*
X99318324Y-154118424D01*
X99320032Y-154124798D01*
X99406685Y-154294864D01*
X99410838Y-154299993D01*
X99410841Y-154299997D01*
X99479381Y-154384636D01*
X99526803Y-154443197D01*
X99531934Y-154447352D01*
X99670003Y-154559159D01*
X99670007Y-154559162D01*
X99675136Y-154563315D01*
X99845202Y-154649968D01*
X99851575Y-154651676D01*
X99851576Y-154651676D01*
X100023990Y-154697874D01*
X100023996Y-154697875D01*
X100029568Y-154699368D01*
X100035324Y-154699821D01*
X100106383Y-154705414D01*
X100106391Y-154705414D01*
X100108839Y-154705607D01*
X101136947Y-154705607D01*
X101139395Y-154705414D01*
X101139403Y-154705414D01*
X101210462Y-154699821D01*
X101216218Y-154699368D01*
X101221790Y-154697875D01*
X101221796Y-154697874D01*
X101394210Y-154651676D01*
X101394211Y-154651676D01*
X101400584Y-154649968D01*
X101570650Y-154563315D01*
X101575779Y-154559162D01*
X101575783Y-154559159D01*
X101713852Y-154447352D01*
X101718983Y-154443197D01*
X101766405Y-154384636D01*
X101834945Y-154299997D01*
X101834948Y-154299993D01*
X101839101Y-154294864D01*
X101925754Y-154124798D01*
X101927462Y-154118424D01*
X101973660Y-153946010D01*
X101973661Y-153946004D01*
X101975154Y-153940432D01*
X101981393Y-153861161D01*
X101981393Y-152833053D01*
X101975154Y-152753782D01*
X101973661Y-152748210D01*
X101973660Y-152748204D01*
X101927462Y-152575790D01*
X101927462Y-152575789D01*
X101925754Y-152569416D01*
X101839101Y-152399350D01*
X101834948Y-152394221D01*
X101834945Y-152394217D01*
X101723138Y-152256148D01*
X101718983Y-152251017D01*
X101670437Y-152211705D01*
X101575783Y-152135055D01*
X101575779Y-152135052D01*
X101570650Y-152130899D01*
X101400584Y-152044246D01*
X101394210Y-152042538D01*
X101221796Y-151996340D01*
X101221790Y-151996339D01*
X101216218Y-151994846D01*
X101205130Y-151993973D01*
X101139403Y-151988800D01*
X101139395Y-151988800D01*
X101136947Y-151988607D01*
X100108839Y-151988607D01*
X100106391Y-151988800D01*
X100106383Y-151988800D01*
X100040656Y-151993973D01*
X100029568Y-151994846D01*
X100023996Y-151996339D01*
X100023990Y-151996340D01*
X99851576Y-152042538D01*
X99845202Y-152044246D01*
X99675136Y-152130899D01*
X99670007Y-152135052D01*
X99670003Y-152135055D01*
X99575349Y-152211705D01*
X99526803Y-152251017D01*
X99522648Y-152256148D01*
X99410841Y-152394217D01*
X99410838Y-152394221D01*
X99406685Y-152399350D01*
X99320032Y-152569416D01*
X99318324Y-152575789D01*
X99318324Y-152575790D01*
X99272126Y-152748204D01*
X99272125Y-152748210D01*
X99270632Y-152753782D01*
X99264393Y-152833053D01*
X99264393Y-153861161D01*
X94264272Y-153861161D01*
X94268029Y-153853560D01*
X94268030Y-153853558D01*
X94270323Y-153848918D01*
X94335263Y-153635176D01*
X94364422Y-153413697D01*
X94366049Y-153347107D01*
X94347745Y-153124468D01*
X94293324Y-152907809D01*
X94204247Y-152702947D01*
X94157372Y-152630489D01*
X94085715Y-152519724D01*
X94085713Y-152519721D01*
X94082907Y-152515384D01*
X93932563Y-152350158D01*
X93928512Y-152346959D01*
X93928508Y-152346955D01*
X93761307Y-152214907D01*
X93761303Y-152214905D01*
X93757252Y-152211705D01*
X93721825Y-152192148D01*
X93618400Y-152135055D01*
X93561682Y-152103745D01*
X93556813Y-152102021D01*
X93556809Y-152102019D01*
X93355980Y-152030902D01*
X93355976Y-152030901D01*
X93351105Y-152029176D01*
X93346012Y-152028269D01*
X93346009Y-152028268D01*
X93136266Y-151990907D01*
X93136260Y-151990906D01*
X93131177Y-151990001D01*
X93057345Y-151989099D01*
X92912974Y-151987335D01*
X92912972Y-151987335D01*
X92907804Y-151987272D01*
X92686984Y-152021062D01*
X92474649Y-152090464D01*
X92444336Y-152106244D01*
X92298242Y-152182296D01*
X92276500Y-152193614D01*
X92272367Y-152196717D01*
X92272364Y-152196719D01*
X92116922Y-152313428D01*
X92097858Y-152327742D01*
X91943522Y-152489245D01*
X91836094Y-152646728D01*
X91781186Y-152691728D01*
X91710661Y-152699899D01*
X91646914Y-152668645D01*
X91626217Y-152644161D01*
X91545715Y-152519724D01*
X91545713Y-152519721D01*
X91542907Y-152515384D01*
X91392563Y-152350158D01*
X91388512Y-152346959D01*
X91388508Y-152346955D01*
X91221307Y-152214907D01*
X91221303Y-152214905D01*
X91217252Y-152211705D01*
X91181825Y-152192148D01*
X91078400Y-152135055D01*
X91021682Y-152103745D01*
X91016813Y-152102021D01*
X91016809Y-152102019D01*
X90815980Y-152030902D01*
X90815976Y-152030901D01*
X90811105Y-152029176D01*
X90806012Y-152028269D01*
X90806009Y-152028268D01*
X90596266Y-151990907D01*
X90596260Y-151990906D01*
X90591177Y-151990001D01*
X90517345Y-151989099D01*
X90372974Y-151987335D01*
X90372972Y-151987335D01*
X90367804Y-151987272D01*
X90146984Y-152021062D01*
X89934649Y-152090464D01*
X89904336Y-152106244D01*
X89758242Y-152182296D01*
X89736500Y-152193614D01*
X89732367Y-152196717D01*
X89732364Y-152196719D01*
X89576922Y-152313428D01*
X89557858Y-152327742D01*
X89403522Y-152489245D01*
X89296094Y-152646728D01*
X89241186Y-152691728D01*
X89170661Y-152699899D01*
X89106914Y-152668645D01*
X89086217Y-152644161D01*
X89005715Y-152519724D01*
X89005713Y-152519721D01*
X89002907Y-152515384D01*
X88852563Y-152350158D01*
X88848512Y-152346959D01*
X88848508Y-152346955D01*
X88681307Y-152214907D01*
X88681303Y-152214905D01*
X88677252Y-152211705D01*
X88641825Y-152192148D01*
X88538400Y-152135055D01*
X88481682Y-152103745D01*
X88476813Y-152102021D01*
X88476809Y-152102019D01*
X88275980Y-152030902D01*
X88275976Y-152030901D01*
X88271105Y-152029176D01*
X88266012Y-152028269D01*
X88266009Y-152028268D01*
X88056266Y-151990907D01*
X88056260Y-151990906D01*
X88051177Y-151990001D01*
X87977345Y-151989099D01*
X87832974Y-151987335D01*
X87832972Y-151987335D01*
X87827804Y-151987272D01*
X87606984Y-152021062D01*
X87394649Y-152090464D01*
X87364336Y-152106244D01*
X87218242Y-152182296D01*
X87196500Y-152193614D01*
X87192367Y-152196717D01*
X87192364Y-152196719D01*
X87036922Y-152313428D01*
X87017858Y-152327742D01*
X86863522Y-152489245D01*
X86737636Y-152673787D01*
X86721896Y-152707697D01*
X86648341Y-152866158D01*
X86643581Y-152876412D01*
X86583882Y-153091677D01*
X86560144Y-153313802D01*
X84203311Y-153313802D01*
X84187745Y-153124468D01*
X84133324Y-152907809D01*
X84044247Y-152702947D01*
X83997372Y-152630489D01*
X83925715Y-152519724D01*
X83925713Y-152519721D01*
X83922907Y-152515384D01*
X83772563Y-152350158D01*
X83768512Y-152346959D01*
X83768508Y-152346955D01*
X83601307Y-152214907D01*
X83601303Y-152214905D01*
X83597252Y-152211705D01*
X83561825Y-152192148D01*
X83458400Y-152135055D01*
X83401682Y-152103745D01*
X83396813Y-152102021D01*
X83396809Y-152102019D01*
X83195980Y-152030902D01*
X83195976Y-152030901D01*
X83191105Y-152029176D01*
X83186012Y-152028269D01*
X83186009Y-152028268D01*
X82976266Y-151990907D01*
X82976260Y-151990906D01*
X82971177Y-151990001D01*
X82954952Y-151989803D01*
X82924460Y-151989430D01*
X82856589Y-151968596D01*
X82810755Y-151914377D01*
X82800000Y-151863439D01*
X82800000Y-146045604D01*
X102887787Y-146045604D01*
X102897567Y-146256899D01*
X102898971Y-146262724D01*
X102898971Y-146262725D01*
X102933955Y-146407885D01*
X102947125Y-146462534D01*
X103034674Y-146655087D01*
X103157054Y-146827611D01*
X103309850Y-146973881D01*
X103487548Y-147088620D01*
X103493114Y-147090863D01*
X103678168Y-147165442D01*
X103678171Y-147165443D01*
X103683737Y-147167686D01*
X103891337Y-147208228D01*
X103896899Y-147208500D01*
X104052846Y-147208500D01*
X104210566Y-147193452D01*
X104216322Y-147191763D01*
X104216324Y-147191763D01*
X104355031Y-147151071D01*
X104426027Y-147151088D01*
X104485744Y-147189486D01*
X104515222Y-147254074D01*
X104516500Y-147271976D01*
X104516500Y-148350400D01*
X104527474Y-148456166D01*
X104583450Y-148623946D01*
X104676522Y-148774348D01*
X104801697Y-148899305D01*
X104947340Y-148989081D01*
X104994832Y-149041852D01*
X105006256Y-149111924D01*
X104977982Y-149177048D01*
X104968195Y-149187510D01*
X104853865Y-149296576D01*
X104716246Y-149481542D01*
X104611760Y-149687051D01*
X104610178Y-149692145D01*
X104610177Y-149692148D01*
X104548115Y-149892020D01*
X104543393Y-149907227D01*
X104542692Y-149912516D01*
X104527304Y-150028623D01*
X104513102Y-150135774D01*
X104521751Y-150366158D01*
X104569093Y-150591791D01*
X104653776Y-150806221D01*
X104773377Y-151003317D01*
X104776874Y-151007347D01*
X104863438Y-151107103D01*
X104924477Y-151177445D01*
X104928608Y-151180832D01*
X105098627Y-151320240D01*
X105098633Y-151320244D01*
X105102755Y-151323624D01*
X105134250Y-151341552D01*
X105183555Y-151392632D01*
X105197417Y-151462262D01*
X105171434Y-151528333D01*
X105142284Y-151555573D01*
X105020681Y-151637441D01*
X104853865Y-151796576D01*
X104716246Y-151981542D01*
X104713830Y-151986293D01*
X104713828Y-151986297D01*
X104691150Y-152030902D01*
X104611760Y-152187051D01*
X104610178Y-152192145D01*
X104610177Y-152192148D01*
X104559928Y-152353977D01*
X104543393Y-152407227D01*
X104542692Y-152412516D01*
X104527304Y-152528623D01*
X104513102Y-152635774D01*
X104513302Y-152641103D01*
X104513302Y-152641105D01*
X104515509Y-152699899D01*
X104521751Y-152866158D01*
X104569093Y-153091791D01*
X104571051Y-153096750D01*
X104571052Y-153096752D01*
X104571077Y-153096814D01*
X104653776Y-153306221D01*
X104656543Y-153310780D01*
X104656544Y-153310783D01*
X104721883Y-153418458D01*
X104773377Y-153503317D01*
X104776874Y-153507347D01*
X104863438Y-153607103D01*
X104924477Y-153677445D01*
X104928608Y-153680832D01*
X105098627Y-153820240D01*
X105098633Y-153820244D01*
X105102755Y-153823624D01*
X105107391Y-153826263D01*
X105107394Y-153826265D01*
X105216422Y-153888327D01*
X105303114Y-153937675D01*
X105519825Y-154016337D01*
X105525074Y-154017286D01*
X105525077Y-154017287D01*
X105742608Y-154056623D01*
X105742615Y-154056624D01*
X105746692Y-154057361D01*
X105764414Y-154058197D01*
X105769356Y-154058430D01*
X105769363Y-154058430D01*
X105770844Y-154058500D01*
X106182890Y-154058500D01*
X106249809Y-154052822D01*
X106349409Y-154044371D01*
X106349413Y-154044370D01*
X106354720Y-154043920D01*
X106359875Y-154042582D01*
X106359881Y-154042581D01*
X106572703Y-153987343D01*
X106572707Y-153987342D01*
X106577872Y-153986001D01*
X106582738Y-153983809D01*
X106582741Y-153983808D01*
X106783202Y-153893507D01*
X106788075Y-153891312D01*
X106979319Y-153762559D01*
X107146135Y-153603424D01*
X107283754Y-153418458D01*
X107388240Y-153212949D01*
X107424321Y-153096752D01*
X107455024Y-152997871D01*
X107456607Y-152992773D01*
X107472029Y-152876412D01*
X107486198Y-152769511D01*
X107486198Y-152769506D01*
X107486898Y-152764226D01*
X107484598Y-152702947D01*
X107479824Y-152575790D01*
X107478249Y-152533842D01*
X107430907Y-152308209D01*
X107392796Y-152211705D01*
X107348185Y-152098744D01*
X107348184Y-152098742D01*
X107346224Y-152093779D01*
X107343238Y-152088857D01*
X107229390Y-151901243D01*
X107226623Y-151896683D01*
X107223126Y-151892653D01*
X107079023Y-151726588D01*
X107079021Y-151726586D01*
X107075523Y-151722555D01*
X107033970Y-151688484D01*
X106901373Y-151579760D01*
X106901367Y-151579756D01*
X106897245Y-151576376D01*
X106865750Y-151558448D01*
X106816445Y-151507368D01*
X106802583Y-151437738D01*
X106828566Y-151371667D01*
X106857716Y-151344427D01*
X106893642Y-151320240D01*
X106979319Y-151262559D01*
X107146135Y-151103424D01*
X107283754Y-150918458D01*
X107388240Y-150712949D01*
X107424321Y-150596752D01*
X107455024Y-150497871D01*
X107456607Y-150492773D01*
X107457308Y-150487484D01*
X107486198Y-150269511D01*
X107486198Y-150269506D01*
X107486898Y-150264226D01*
X107478249Y-150033842D01*
X107430907Y-149808209D01*
X107346224Y-149593779D01*
X107226623Y-149396683D01*
X107139755Y-149296576D01*
X107079023Y-149226588D01*
X107079021Y-149226586D01*
X107075523Y-149222555D01*
X107039880Y-149193330D01*
X106999886Y-149134671D01*
X106997954Y-149063701D01*
X107034698Y-149002952D01*
X107053468Y-148988752D01*
X107193120Y-148902332D01*
X107199348Y-148898478D01*
X107324305Y-148773303D01*
X107417115Y-148622738D01*
X107472797Y-148454861D01*
X107483500Y-148350400D01*
X107483500Y-147049600D01*
X107472526Y-146943834D01*
X107416550Y-146776054D01*
X107323478Y-146625652D01*
X107198303Y-146500695D01*
X107047738Y-146407885D01*
X106967995Y-146381436D01*
X106886389Y-146354368D01*
X106886387Y-146354368D01*
X106879861Y-146352203D01*
X106873025Y-146351503D01*
X106873022Y-146351502D01*
X106829969Y-146347091D01*
X106775400Y-146341500D01*
X105230671Y-146341500D01*
X105162550Y-146321498D01*
X105116057Y-146267842D01*
X105105975Y-146197420D01*
X105111352Y-146160337D01*
X105111352Y-146160333D01*
X105112213Y-146154396D01*
X105102433Y-145943101D01*
X105052875Y-145737466D01*
X105009525Y-145642122D01*
X104967806Y-145550368D01*
X104965326Y-145544913D01*
X104842946Y-145372389D01*
X104690150Y-145226119D01*
X104512452Y-145111380D01*
X104452354Y-145087160D01*
X104321832Y-145034558D01*
X104321829Y-145034557D01*
X104316263Y-145032314D01*
X104108663Y-144991772D01*
X104103101Y-144991500D01*
X103947154Y-144991500D01*
X103789434Y-145006548D01*
X103586466Y-145066092D01*
X103581139Y-145068836D01*
X103581138Y-145068836D01*
X103403751Y-145160196D01*
X103403748Y-145160198D01*
X103398420Y-145162942D01*
X103232080Y-145293604D01*
X103228148Y-145298135D01*
X103228145Y-145298138D01*
X103159474Y-145377275D01*
X103093448Y-145453363D01*
X103090448Y-145458549D01*
X103090445Y-145458553D01*
X103043312Y-145540026D01*
X102987527Y-145636454D01*
X102918139Y-145836271D01*
X102887787Y-146045604D01*
X82800000Y-146045604D01*
X82800000Y-137977241D01*
X125400168Y-137977241D01*
X125420026Y-138229565D01*
X125421180Y-138234372D01*
X125421181Y-138234378D01*
X125458683Y-138390586D01*
X125479112Y-138475677D01*
X125481005Y-138480248D01*
X125481006Y-138480250D01*
X125517868Y-138569241D01*
X125575971Y-138709515D01*
X125708218Y-138925322D01*
X125872597Y-139117784D01*
X126065059Y-139282163D01*
X126280866Y-139414410D01*
X126285436Y-139416303D01*
X126285440Y-139416305D01*
X126510131Y-139509375D01*
X126514704Y-139511269D01*
X126599795Y-139531698D01*
X126756003Y-139569200D01*
X126756009Y-139569201D01*
X126760816Y-139570355D01*
X127013140Y-139590213D01*
X127265464Y-139570355D01*
X127270271Y-139569201D01*
X127270277Y-139569200D01*
X127426485Y-139531698D01*
X127511576Y-139511269D01*
X127516149Y-139509375D01*
X127740840Y-139416305D01*
X127740844Y-139416303D01*
X127745414Y-139414410D01*
X127961221Y-139282163D01*
X128153683Y-139117784D01*
X128318062Y-138925322D01*
X128450309Y-138709515D01*
X128508413Y-138569241D01*
X128545274Y-138480250D01*
X128545275Y-138480248D01*
X128547168Y-138475677D01*
X128567597Y-138390586D01*
X128605099Y-138234378D01*
X128605100Y-138234372D01*
X128606254Y-138229565D01*
X128626112Y-137977241D01*
X128606254Y-137724917D01*
X128595769Y-137681241D01*
X128548323Y-137483617D01*
X128547168Y-137478805D01*
X128516768Y-137405413D01*
X128452204Y-137249541D01*
X128452202Y-137249537D01*
X128450309Y-137244967D01*
X128318062Y-137029160D01*
X128153683Y-136836698D01*
X127961221Y-136672319D01*
X127745414Y-136540072D01*
X127740844Y-136538179D01*
X127740840Y-136538177D01*
X127516149Y-136445107D01*
X127516147Y-136445106D01*
X127511576Y-136443213D01*
X127426485Y-136422784D01*
X127270277Y-136385282D01*
X127270271Y-136385281D01*
X127265464Y-136384127D01*
X127013140Y-136364269D01*
X126760816Y-136384127D01*
X126756009Y-136385281D01*
X126756003Y-136385282D01*
X126599795Y-136422784D01*
X126514704Y-136443213D01*
X126510133Y-136445106D01*
X126510131Y-136445107D01*
X126285440Y-136538177D01*
X126285436Y-136538179D01*
X126280866Y-136540072D01*
X126065059Y-136672319D01*
X125872597Y-136836698D01*
X125708218Y-137029160D01*
X125575971Y-137244967D01*
X125574078Y-137249537D01*
X125574076Y-137249541D01*
X125509512Y-137405413D01*
X125479112Y-137478805D01*
X125477957Y-137483617D01*
X125430512Y-137681241D01*
X125420026Y-137724917D01*
X125400168Y-137977241D01*
X82800000Y-137977241D01*
X82800000Y-132033165D01*
X82820002Y-131965044D01*
X82873658Y-131918551D01*
X82909989Y-131908186D01*
X83051871Y-131890011D01*
X83121181Y-131881132D01*
X83121182Y-131881132D01*
X83126309Y-131880475D01*
X83131259Y-131878990D01*
X83335322Y-131817768D01*
X83335327Y-131817766D01*
X83340277Y-131816281D01*
X83540887Y-131718003D01*
X83722753Y-131588280D01*
X83880989Y-131430596D01*
X84011346Y-131249184D01*
X84012669Y-131250135D01*
X84059538Y-131206964D01*
X84129473Y-131194732D01*
X84194919Y-131222251D01*
X84222768Y-131254101D01*
X84282880Y-131352195D01*
X84429143Y-131521045D01*
X84601019Y-131663739D01*
X84793893Y-131776445D01*
X85002585Y-131856137D01*
X85007653Y-131857168D01*
X85007656Y-131857169D01*
X85114910Y-131878990D01*
X85221490Y-131900674D01*
X85226665Y-131900864D01*
X85226667Y-131900864D01*
X85439566Y-131908671D01*
X85439570Y-131908671D01*
X85444730Y-131908860D01*
X85449850Y-131908204D01*
X85449852Y-131908204D01*
X85661181Y-131881132D01*
X85661182Y-131881132D01*
X85666309Y-131880475D01*
X85671259Y-131878990D01*
X85875322Y-131817768D01*
X85875327Y-131817766D01*
X85880277Y-131816281D01*
X86080887Y-131718003D01*
X86262753Y-131588280D01*
X86420989Y-131430596D01*
X86551346Y-131249184D01*
X86552669Y-131250135D01*
X86599538Y-131206964D01*
X86669473Y-131194732D01*
X86734919Y-131222251D01*
X86762768Y-131254101D01*
X86822880Y-131352195D01*
X86969143Y-131521045D01*
X87141019Y-131663739D01*
X87333893Y-131776445D01*
X87542585Y-131856137D01*
X87547653Y-131857168D01*
X87547656Y-131857169D01*
X87654910Y-131878990D01*
X87761490Y-131900674D01*
X87766665Y-131900864D01*
X87766667Y-131900864D01*
X87979566Y-131908671D01*
X87979570Y-131908671D01*
X87984730Y-131908860D01*
X87989850Y-131908204D01*
X87989852Y-131908204D01*
X88201181Y-131881132D01*
X88201182Y-131881132D01*
X88206309Y-131880475D01*
X88211259Y-131878990D01*
X88415322Y-131817768D01*
X88415327Y-131817766D01*
X88420277Y-131816281D01*
X88620887Y-131718003D01*
X88802753Y-131588280D01*
X88960989Y-131430596D01*
X89091346Y-131249184D01*
X89092669Y-131250135D01*
X89139538Y-131206964D01*
X89209473Y-131194732D01*
X89274919Y-131222251D01*
X89302768Y-131254101D01*
X89362880Y-131352195D01*
X89509143Y-131521045D01*
X89681019Y-131663739D01*
X89873893Y-131776445D01*
X90082585Y-131856137D01*
X90087653Y-131857168D01*
X90087656Y-131857169D01*
X90194910Y-131878990D01*
X90301490Y-131900674D01*
X90306665Y-131900864D01*
X90306667Y-131900864D01*
X90519566Y-131908671D01*
X90519570Y-131908671D01*
X90524730Y-131908860D01*
X90529850Y-131908204D01*
X90529852Y-131908204D01*
X90741181Y-131881132D01*
X90741182Y-131881132D01*
X90746309Y-131880475D01*
X90751259Y-131878990D01*
X90955322Y-131817768D01*
X90955327Y-131817766D01*
X90960277Y-131816281D01*
X91160887Y-131718003D01*
X91342753Y-131588280D01*
X91500989Y-131430596D01*
X91631346Y-131249184D01*
X91632669Y-131250135D01*
X91679538Y-131206964D01*
X91749473Y-131194732D01*
X91814919Y-131222251D01*
X91842768Y-131254101D01*
X91902880Y-131352195D01*
X92049143Y-131521045D01*
X92221019Y-131663739D01*
X92413893Y-131776445D01*
X92622585Y-131856137D01*
X92627653Y-131857168D01*
X92627656Y-131857169D01*
X92734910Y-131878990D01*
X92841490Y-131900674D01*
X92846665Y-131900864D01*
X92846667Y-131900864D01*
X93059566Y-131908671D01*
X93059570Y-131908671D01*
X93064730Y-131908860D01*
X93069850Y-131908204D01*
X93069852Y-131908204D01*
X93281181Y-131881132D01*
X93281182Y-131881132D01*
X93286309Y-131880475D01*
X93291259Y-131878990D01*
X93495322Y-131817768D01*
X93495327Y-131817766D01*
X93500277Y-131816281D01*
X93700887Y-131718003D01*
X93882753Y-131588280D01*
X94040989Y-131430596D01*
X94171346Y-131249184D01*
X94172669Y-131250135D01*
X94219538Y-131206964D01*
X94289473Y-131194732D01*
X94354919Y-131222251D01*
X94382768Y-131254101D01*
X94442880Y-131352195D01*
X94589143Y-131521045D01*
X94761019Y-131663739D01*
X94953893Y-131776445D01*
X95162585Y-131856137D01*
X95167653Y-131857168D01*
X95167656Y-131857169D01*
X95274910Y-131878990D01*
X95381490Y-131900674D01*
X95386665Y-131900864D01*
X95386667Y-131900864D01*
X95599566Y-131908671D01*
X95599570Y-131908671D01*
X95604730Y-131908860D01*
X95609850Y-131908204D01*
X95609852Y-131908204D01*
X95821181Y-131881132D01*
X95821182Y-131881132D01*
X95826309Y-131880475D01*
X95831259Y-131878990D01*
X96035322Y-131817768D01*
X96035327Y-131817766D01*
X96040277Y-131816281D01*
X96240887Y-131718003D01*
X96422753Y-131588280D01*
X96580989Y-131430596D01*
X96711346Y-131249184D01*
X96732213Y-131206964D01*
X96804272Y-131061161D01*
X99264393Y-131061161D01*
X99270632Y-131140432D01*
X99272125Y-131146004D01*
X99272126Y-131146010D01*
X99300026Y-131250135D01*
X99320032Y-131324798D01*
X99406685Y-131494864D01*
X99410838Y-131499993D01*
X99410841Y-131499997D01*
X99479381Y-131584636D01*
X99526803Y-131643197D01*
X99531934Y-131647352D01*
X99670003Y-131759159D01*
X99670007Y-131759162D01*
X99675136Y-131763315D01*
X99845202Y-131849968D01*
X99851575Y-131851676D01*
X99851576Y-131851676D01*
X100023990Y-131897874D01*
X100023996Y-131897875D01*
X100029568Y-131899368D01*
X100035324Y-131899821D01*
X100106383Y-131905414D01*
X100106391Y-131905414D01*
X100108839Y-131905607D01*
X101136947Y-131905607D01*
X101139395Y-131905414D01*
X101139403Y-131905414D01*
X101210462Y-131899821D01*
X101216218Y-131899368D01*
X101221790Y-131897875D01*
X101221796Y-131897874D01*
X101394210Y-131851676D01*
X101394211Y-131851676D01*
X101400584Y-131849968D01*
X101570650Y-131763315D01*
X101575779Y-131759162D01*
X101575783Y-131759159D01*
X101713852Y-131647352D01*
X101718983Y-131643197D01*
X101766405Y-131584636D01*
X101834945Y-131499997D01*
X101834948Y-131499993D01*
X101839101Y-131494864D01*
X101925754Y-131324798D01*
X101945760Y-131250135D01*
X101973660Y-131146010D01*
X101973661Y-131146004D01*
X101975154Y-131140432D01*
X101981393Y-131061161D01*
X101981393Y-130033053D01*
X101978060Y-129990697D01*
X101975607Y-129959538D01*
X101975154Y-129953782D01*
X101973661Y-129948210D01*
X101973660Y-129948204D01*
X101927462Y-129775790D01*
X101927462Y-129775789D01*
X101925754Y-129769416D01*
X101839101Y-129599350D01*
X101834948Y-129594221D01*
X101834945Y-129594217D01*
X101723138Y-129456148D01*
X101718983Y-129451017D01*
X101670437Y-129411705D01*
X101575783Y-129335055D01*
X101575779Y-129335052D01*
X101570650Y-129330899D01*
X101400584Y-129244246D01*
X101370332Y-129236140D01*
X101221796Y-129196340D01*
X101221790Y-129196339D01*
X101216218Y-129194846D01*
X101205130Y-129193973D01*
X101139403Y-129188800D01*
X101139395Y-129188800D01*
X101136947Y-129188607D01*
X100108839Y-129188607D01*
X100106391Y-129188800D01*
X100106383Y-129188800D01*
X100040656Y-129193973D01*
X100029568Y-129194846D01*
X100023996Y-129196339D01*
X100023990Y-129196340D01*
X99875454Y-129236140D01*
X99845202Y-129244246D01*
X99675136Y-129330899D01*
X99670007Y-129335052D01*
X99670003Y-129335055D01*
X99575349Y-129411705D01*
X99526803Y-129451017D01*
X99522648Y-129456148D01*
X99410841Y-129594217D01*
X99410838Y-129594221D01*
X99406685Y-129599350D01*
X99320032Y-129769416D01*
X99318324Y-129775789D01*
X99318324Y-129775790D01*
X99272126Y-129948204D01*
X99272125Y-129948210D01*
X99270632Y-129953782D01*
X99270179Y-129959538D01*
X99267727Y-129990697D01*
X99264393Y-130033053D01*
X99264393Y-131061161D01*
X96804272Y-131061161D01*
X96808029Y-131053560D01*
X96808030Y-131053558D01*
X96810323Y-131048918D01*
X96875263Y-130835176D01*
X96904422Y-130613697D01*
X96904877Y-130595080D01*
X96905967Y-130550472D01*
X96905967Y-130550468D01*
X96906049Y-130547107D01*
X96887745Y-130324468D01*
X96833324Y-130107809D01*
X96744247Y-129902947D01*
X96666378Y-129782580D01*
X96625715Y-129719724D01*
X96625713Y-129719721D01*
X96622907Y-129715384D01*
X96472563Y-129550158D01*
X96468512Y-129546959D01*
X96468508Y-129546955D01*
X96301307Y-129414907D01*
X96301303Y-129414905D01*
X96297252Y-129411705D01*
X96101682Y-129303745D01*
X96096813Y-129302021D01*
X96096809Y-129302019D01*
X95895980Y-129230902D01*
X95895976Y-129230901D01*
X95891105Y-129229176D01*
X95886012Y-129228269D01*
X95886009Y-129228268D01*
X95676266Y-129190907D01*
X95676260Y-129190906D01*
X95671177Y-129190001D01*
X95597345Y-129189099D01*
X95452974Y-129187335D01*
X95452972Y-129187335D01*
X95447804Y-129187272D01*
X95226984Y-129221062D01*
X95014649Y-129290464D01*
X94816500Y-129393614D01*
X94812367Y-129396717D01*
X94812364Y-129396719D01*
X94704213Y-129477921D01*
X94637858Y-129527742D01*
X94483522Y-129689245D01*
X94376094Y-129846728D01*
X94321186Y-129891728D01*
X94250661Y-129899899D01*
X94186914Y-129868645D01*
X94166217Y-129844161D01*
X94085715Y-129719724D01*
X94085713Y-129719721D01*
X94082907Y-129715384D01*
X93932563Y-129550158D01*
X93928512Y-129546959D01*
X93928508Y-129546955D01*
X93761307Y-129414907D01*
X93761303Y-129414905D01*
X93757252Y-129411705D01*
X93561682Y-129303745D01*
X93556813Y-129302021D01*
X93556809Y-129302019D01*
X93355980Y-129230902D01*
X93355976Y-129230901D01*
X93351105Y-129229176D01*
X93346012Y-129228269D01*
X93346009Y-129228268D01*
X93136266Y-129190907D01*
X93136260Y-129190906D01*
X93131177Y-129190001D01*
X93057345Y-129189099D01*
X92912974Y-129187335D01*
X92912972Y-129187335D01*
X92907804Y-129187272D01*
X92686984Y-129221062D01*
X92474649Y-129290464D01*
X92276500Y-129393614D01*
X92272367Y-129396717D01*
X92272364Y-129396719D01*
X92164213Y-129477921D01*
X92097858Y-129527742D01*
X91943522Y-129689245D01*
X91836094Y-129846728D01*
X91781186Y-129891728D01*
X91710661Y-129899899D01*
X91646914Y-129868645D01*
X91626217Y-129844161D01*
X91545715Y-129719724D01*
X91545713Y-129719721D01*
X91542907Y-129715384D01*
X91392563Y-129550158D01*
X91388512Y-129546959D01*
X91388508Y-129546955D01*
X91221307Y-129414907D01*
X91221303Y-129414905D01*
X91217252Y-129411705D01*
X91021682Y-129303745D01*
X91016813Y-129302021D01*
X91016809Y-129302019D01*
X90815980Y-129230902D01*
X90815976Y-129230901D01*
X90811105Y-129229176D01*
X90806012Y-129228269D01*
X90806009Y-129228268D01*
X90596266Y-129190907D01*
X90596260Y-129190906D01*
X90591177Y-129190001D01*
X90517345Y-129189099D01*
X90372974Y-129187335D01*
X90372972Y-129187335D01*
X90367804Y-129187272D01*
X90146984Y-129221062D01*
X89934649Y-129290464D01*
X89736500Y-129393614D01*
X89732367Y-129396717D01*
X89732364Y-129396719D01*
X89624213Y-129477921D01*
X89557858Y-129527742D01*
X89403522Y-129689245D01*
X89296094Y-129846728D01*
X89241186Y-129891728D01*
X89170661Y-129899899D01*
X89106914Y-129868645D01*
X89086217Y-129844161D01*
X89005715Y-129719724D01*
X89005713Y-129719721D01*
X89002907Y-129715384D01*
X88852563Y-129550158D01*
X88848512Y-129546959D01*
X88848508Y-129546955D01*
X88681307Y-129414907D01*
X88681303Y-129414905D01*
X88677252Y-129411705D01*
X88481682Y-129303745D01*
X88476813Y-129302021D01*
X88476809Y-129302019D01*
X88275980Y-129230902D01*
X88275976Y-129230901D01*
X88271105Y-129229176D01*
X88266012Y-129228269D01*
X88266009Y-129228268D01*
X88056266Y-129190907D01*
X88056260Y-129190906D01*
X88051177Y-129190001D01*
X87977345Y-129189099D01*
X87832974Y-129187335D01*
X87832972Y-129187335D01*
X87827804Y-129187272D01*
X87606984Y-129221062D01*
X87394649Y-129290464D01*
X87196500Y-129393614D01*
X87192367Y-129396717D01*
X87192364Y-129396719D01*
X87084213Y-129477921D01*
X87017858Y-129527742D01*
X86863522Y-129689245D01*
X86756094Y-129846728D01*
X86701186Y-129891728D01*
X86630661Y-129899899D01*
X86566914Y-129868645D01*
X86546217Y-129844161D01*
X86465715Y-129719724D01*
X86465713Y-129719721D01*
X86462907Y-129715384D01*
X86312563Y-129550158D01*
X86308512Y-129546959D01*
X86308508Y-129546955D01*
X86141307Y-129414907D01*
X86141303Y-129414905D01*
X86137252Y-129411705D01*
X85941682Y-129303745D01*
X85936813Y-129302021D01*
X85936809Y-129302019D01*
X85735980Y-129230902D01*
X85735976Y-129230901D01*
X85731105Y-129229176D01*
X85726012Y-129228269D01*
X85726009Y-129228268D01*
X85516266Y-129190907D01*
X85516260Y-129190906D01*
X85511177Y-129190001D01*
X85437345Y-129189099D01*
X85292974Y-129187335D01*
X85292972Y-129187335D01*
X85287804Y-129187272D01*
X85066984Y-129221062D01*
X84854649Y-129290464D01*
X84656500Y-129393614D01*
X84652367Y-129396717D01*
X84652364Y-129396719D01*
X84544213Y-129477921D01*
X84477858Y-129527742D01*
X84323522Y-129689245D01*
X84216094Y-129846728D01*
X84161186Y-129891728D01*
X84090661Y-129899899D01*
X84026914Y-129868645D01*
X84006217Y-129844161D01*
X83925715Y-129719724D01*
X83925713Y-129719721D01*
X83922907Y-129715384D01*
X83772563Y-129550158D01*
X83768512Y-129546959D01*
X83768508Y-129546955D01*
X83601307Y-129414907D01*
X83601303Y-129414905D01*
X83597252Y-129411705D01*
X83401682Y-129303745D01*
X83396813Y-129302021D01*
X83396809Y-129302019D01*
X83195980Y-129230902D01*
X83195976Y-129230901D01*
X83191105Y-129229176D01*
X83186012Y-129228269D01*
X83186009Y-129228268D01*
X82976266Y-129190907D01*
X82976260Y-129190906D01*
X82971177Y-129190001D01*
X82954952Y-129189803D01*
X82924460Y-129189430D01*
X82856589Y-129168596D01*
X82810755Y-129114377D01*
X82800000Y-129063439D01*
X82800000Y-126952539D01*
X115687551Y-126952539D01*
X115689300Y-126988942D01*
X115700444Y-127220958D01*
X115752871Y-127484522D01*
X115843678Y-127737442D01*
X115845895Y-127741568D01*
X115872900Y-127791826D01*
X115970872Y-127974162D01*
X115973667Y-127977905D01*
X115973669Y-127977908D01*
X116128867Y-128185743D01*
X116128872Y-128185749D01*
X116131659Y-128189481D01*
X116134968Y-128192761D01*
X116134973Y-128192767D01*
X116239311Y-128296198D01*
X116322505Y-128378669D01*
X116326267Y-128381427D01*
X116326270Y-128381430D01*
X116532932Y-128532961D01*
X116539219Y-128537571D01*
X116543350Y-128539745D01*
X116543351Y-128539745D01*
X116772905Y-128660519D01*
X116772911Y-128660521D01*
X116777040Y-128662694D01*
X116781447Y-128664233D01*
X116781454Y-128664236D01*
X117026327Y-128749749D01*
X117030743Y-128751291D01*
X117035336Y-128752163D01*
X117290166Y-128800544D01*
X117290169Y-128800544D01*
X117294755Y-128801415D01*
X117429015Y-128806691D01*
X117558607Y-128811783D01*
X117558613Y-128811783D01*
X117563275Y-128811966D01*
X117644970Y-128803019D01*
X117825753Y-128783220D01*
X117825758Y-128783219D01*
X117830406Y-128782710D01*
X117838816Y-128780496D01*
X118085758Y-128715481D01*
X118090278Y-128714291D01*
X118215437Y-128660519D01*
X118332880Y-128610062D01*
X118332883Y-128610060D01*
X118337183Y-128608213D01*
X118341163Y-128605750D01*
X118341167Y-128605748D01*
X118510894Y-128500717D01*
X119886776Y-128500717D01*
X119887467Y-128505536D01*
X119887505Y-128506119D01*
X119888386Y-128514550D01*
X119905603Y-128776453D01*
X119959565Y-129047464D01*
X120048439Y-129309113D01*
X120170705Y-129556924D01*
X120195634Y-129594217D01*
X120308818Y-129763537D01*
X120324271Y-129786655D01*
X120506509Y-129994377D01*
X120714301Y-130176535D01*
X120717725Y-130178822D01*
X120717729Y-130178825D01*
X120886696Y-130291677D01*
X120944092Y-130330012D01*
X121191949Y-130452182D01*
X121195857Y-130453508D01*
X121195860Y-130453509D01*
X121310263Y-130492318D01*
X121453633Y-130540955D01*
X121457666Y-130541756D01*
X121457672Y-130541758D01*
X121720627Y-130594010D01*
X121720633Y-130594011D01*
X121724665Y-130594812D01*
X122000408Y-130612832D01*
X122004515Y-130612562D01*
X122004519Y-130612562D01*
X122187616Y-130600526D01*
X122276144Y-130594706D01*
X122547155Y-130540744D01*
X122808804Y-130451870D01*
X123056615Y-130329604D01*
X123286346Y-130176038D01*
X123420306Y-130058513D01*
X123490969Y-129996519D01*
X123490971Y-129996517D01*
X123494068Y-129993800D01*
X123676226Y-129786008D01*
X123691235Y-129763537D01*
X123827418Y-129559638D01*
X123829703Y-129556217D01*
X123841896Y-129531480D01*
X123950049Y-129312061D01*
X123950050Y-129312058D01*
X123951873Y-129308360D01*
X124040646Y-129046676D01*
X124070790Y-128894982D01*
X124093701Y-128779682D01*
X124093702Y-128779676D01*
X124094503Y-128775644D01*
X124096038Y-128752163D01*
X124110416Y-128532144D01*
X124111890Y-128519484D01*
X124112267Y-128517242D01*
X124112268Y-128517230D01*
X124113073Y-128512440D01*
X124113224Y-128499901D01*
X129886776Y-128499901D01*
X129887464Y-128504710D01*
X129887501Y-128505282D01*
X129888383Y-128513756D01*
X129889939Y-128537571D01*
X129903963Y-128752163D01*
X129905497Y-128775644D01*
X129906298Y-128779676D01*
X129906299Y-128779682D01*
X129929211Y-128894982D01*
X129959354Y-129046676D01*
X130048127Y-129308360D01*
X130049950Y-129312058D01*
X130049951Y-129312061D01*
X130158104Y-129531480D01*
X130170297Y-129556217D01*
X130172582Y-129559638D01*
X130308766Y-129763537D01*
X130323774Y-129786008D01*
X130505932Y-129993800D01*
X130509029Y-129996517D01*
X130509031Y-129996519D01*
X130579694Y-130058513D01*
X130713654Y-130176038D01*
X130943385Y-130329604D01*
X131191196Y-130451870D01*
X131452845Y-130540744D01*
X131723856Y-130594706D01*
X131812384Y-130600526D01*
X131995481Y-130612562D01*
X131995485Y-130612562D01*
X131999592Y-130612832D01*
X132275335Y-130594812D01*
X132279367Y-130594011D01*
X132279373Y-130594010D01*
X132542328Y-130541758D01*
X132542334Y-130541756D01*
X132546367Y-130540955D01*
X132689737Y-130492318D01*
X132804140Y-130453509D01*
X132804143Y-130453508D01*
X132808051Y-130452182D01*
X133055908Y-130330012D01*
X133113304Y-130291677D01*
X133282271Y-130178825D01*
X133282275Y-130178822D01*
X133285699Y-130176535D01*
X133493491Y-129994377D01*
X133675729Y-129786655D01*
X133691183Y-129763537D01*
X133804366Y-129594217D01*
X133829295Y-129556924D01*
X133951561Y-129309113D01*
X134040435Y-129047464D01*
X134094397Y-128776453D01*
X134110101Y-128537571D01*
X134110404Y-128532961D01*
X134111882Y-128520306D01*
X134112259Y-128518068D01*
X134112259Y-128518063D01*
X134113069Y-128513256D01*
X134113224Y-128500717D01*
X134112529Y-128495852D01*
X134109269Y-128473062D01*
X134108000Y-128455224D01*
X134108000Y-126952539D01*
X134687551Y-126952539D01*
X134689300Y-126988942D01*
X134700444Y-127220958D01*
X134752871Y-127484522D01*
X134843678Y-127737442D01*
X134845895Y-127741568D01*
X134872900Y-127791826D01*
X134970872Y-127974162D01*
X134973667Y-127977905D01*
X134973669Y-127977908D01*
X135128867Y-128185743D01*
X135128872Y-128185749D01*
X135131659Y-128189481D01*
X135134968Y-128192761D01*
X135134973Y-128192767D01*
X135239311Y-128296198D01*
X135322505Y-128378669D01*
X135326267Y-128381427D01*
X135326270Y-128381430D01*
X135532932Y-128532961D01*
X135539219Y-128537571D01*
X135543350Y-128539745D01*
X135543351Y-128539745D01*
X135772905Y-128660519D01*
X135772911Y-128660521D01*
X135777040Y-128662694D01*
X135781447Y-128664233D01*
X135781454Y-128664236D01*
X136026327Y-128749749D01*
X136030743Y-128751291D01*
X136035336Y-128752163D01*
X136290166Y-128800544D01*
X136290169Y-128800544D01*
X136294755Y-128801415D01*
X136429015Y-128806691D01*
X136558607Y-128811783D01*
X136558613Y-128811783D01*
X136563275Y-128811966D01*
X136644970Y-128803019D01*
X136825753Y-128783220D01*
X136825758Y-128783219D01*
X136830406Y-128782710D01*
X136838816Y-128780496D01*
X137085758Y-128715481D01*
X137090278Y-128714291D01*
X137215437Y-128660519D01*
X137332880Y-128610062D01*
X137332883Y-128610060D01*
X137337183Y-128608213D01*
X137341163Y-128605750D01*
X137341167Y-128605748D01*
X137561713Y-128469269D01*
X137561715Y-128469267D01*
X137565696Y-128466804D01*
X137576110Y-128457988D01*
X137767225Y-128296198D01*
X137767227Y-128296196D01*
X137770798Y-128293173D01*
X137947982Y-128091133D01*
X138023221Y-127974162D01*
X138090832Y-127869048D01*
X138090834Y-127869045D01*
X138093357Y-127865122D01*
X138203728Y-127620106D01*
X138276672Y-127361468D01*
X138310585Y-127094889D01*
X138313070Y-127000000D01*
X138293155Y-126732011D01*
X138282555Y-126685164D01*
X138248901Y-126536439D01*
X138233847Y-126469910D01*
X138218031Y-126429239D01*
X138138143Y-126223806D01*
X138138142Y-126223804D01*
X138136450Y-126219453D01*
X138003103Y-125986144D01*
X137836735Y-125775108D01*
X137641002Y-125590980D01*
X137570695Y-125542206D01*
X137424045Y-125440471D01*
X137424042Y-125440469D01*
X137420203Y-125437806D01*
X137416013Y-125435740D01*
X137416010Y-125435738D01*
X137183376Y-125321016D01*
X137183373Y-125321015D01*
X137179188Y-125318951D01*
X136923253Y-125237025D01*
X136918646Y-125236275D01*
X136918643Y-125236274D01*
X136662630Y-125194580D01*
X136662631Y-125194580D01*
X136658019Y-125193829D01*
X136527717Y-125192124D01*
X136393992Y-125190373D01*
X136393989Y-125190373D01*
X136389315Y-125190312D01*
X136123042Y-125226550D01*
X136118552Y-125227859D01*
X136118546Y-125227860D01*
X136008778Y-125259855D01*
X135865050Y-125301748D01*
X135860803Y-125303706D01*
X135860800Y-125303707D01*
X135823254Y-125321016D01*
X135621006Y-125414253D01*
X135617097Y-125416816D01*
X135400186Y-125559029D01*
X135400181Y-125559033D01*
X135396273Y-125561595D01*
X135195787Y-125740536D01*
X135023952Y-125947145D01*
X135021529Y-125951138D01*
X135002513Y-125982476D01*
X134884543Y-126176883D01*
X134882736Y-126181191D01*
X134882736Y-126181192D01*
X134862720Y-126228926D01*
X134780623Y-126424704D01*
X134714475Y-126685164D01*
X134687551Y-126952539D01*
X134108000Y-126952539D01*
X134108000Y-125553825D01*
X134109746Y-125532921D01*
X134110279Y-125529755D01*
X134113071Y-125513157D01*
X134113224Y-125500618D01*
X134112534Y-125495801D01*
X134112495Y-125495203D01*
X134111614Y-125486754D01*
X134094720Y-125228993D01*
X134094719Y-125228989D01*
X134094450Y-125224878D01*
X134093646Y-125220835D01*
X134041346Y-124957902D01*
X134041344Y-124957896D01*
X134040541Y-124953857D01*
X134031002Y-124925754D01*
X133953043Y-124696096D01*
X133953042Y-124696095D01*
X133951717Y-124692190D01*
X133829499Y-124444357D01*
X133675977Y-124214595D01*
X133673263Y-124211501D01*
X133673259Y-124211495D01*
X133496488Y-124009928D01*
X133493779Y-124006839D01*
X133490690Y-124004130D01*
X133289123Y-123827359D01*
X133289117Y-123827355D01*
X133286023Y-123824641D01*
X133282597Y-123822352D01*
X133282592Y-123822348D01*
X133059695Y-123673413D01*
X133056262Y-123671119D01*
X133052563Y-123669295D01*
X133052558Y-123669292D01*
X132925693Y-123606729D01*
X132808428Y-123548901D01*
X132804522Y-123547575D01*
X132550668Y-123461403D01*
X132550665Y-123461402D01*
X132546761Y-123460077D01*
X132542722Y-123459274D01*
X132542716Y-123459272D01*
X132279783Y-123406972D01*
X132279780Y-123406972D01*
X132275740Y-123406168D01*
X132271629Y-123405899D01*
X132271625Y-123405898D01*
X132004119Y-123388365D01*
X132000000Y-123388095D01*
X131995881Y-123388365D01*
X131728375Y-123405898D01*
X131728371Y-123405899D01*
X131724260Y-123406168D01*
X131720220Y-123406972D01*
X131720217Y-123406972D01*
X131457284Y-123459272D01*
X131457278Y-123459274D01*
X131453239Y-123460077D01*
X131449335Y-123461402D01*
X131449332Y-123461403D01*
X131195478Y-123547575D01*
X131191572Y-123548901D01*
X131074440Y-123606664D01*
X130947443Y-123669292D01*
X130947438Y-123669295D01*
X130943739Y-123671119D01*
X130940306Y-123673413D01*
X130717408Y-123822348D01*
X130717403Y-123822352D01*
X130713977Y-123824641D01*
X130710883Y-123827355D01*
X130710877Y-123827359D01*
X130509310Y-124004130D01*
X130506221Y-124006839D01*
X130503512Y-124009928D01*
X130326741Y-124211495D01*
X130326737Y-124211501D01*
X130324023Y-124214595D01*
X130170501Y-124444357D01*
X130048283Y-124692190D01*
X130046958Y-124696095D01*
X130046957Y-124696096D01*
X129968999Y-124925754D01*
X129959459Y-124953857D01*
X129958656Y-124957896D01*
X129958654Y-124957902D01*
X129906354Y-125220835D01*
X129905550Y-125224878D01*
X129905281Y-125228989D01*
X129905280Y-125228993D01*
X129900512Y-125301748D01*
X129889104Y-125475807D01*
X129889036Y-125476838D01*
X129888242Y-125484030D01*
X129888372Y-125484346D01*
X129886814Y-125494348D01*
X129887529Y-125499819D01*
X129887477Y-125500618D01*
X129887634Y-125500618D01*
X129889274Y-125513157D01*
X129890936Y-125525868D01*
X129892000Y-125542206D01*
X129892000Y-128446730D01*
X129890250Y-128467656D01*
X129886931Y-128487362D01*
X129886776Y-128499901D01*
X124113224Y-128499901D01*
X124109276Y-128472371D01*
X124108000Y-128454485D01*
X124108000Y-125553825D01*
X124109746Y-125532921D01*
X124110279Y-125529755D01*
X124113071Y-125513157D01*
X124113224Y-125500618D01*
X124112534Y-125495801D01*
X124112495Y-125495203D01*
X124111614Y-125486754D01*
X124094720Y-125228993D01*
X124094719Y-125228989D01*
X124094450Y-125224878D01*
X124093646Y-125220835D01*
X124041346Y-124957902D01*
X124041344Y-124957896D01*
X124040541Y-124953857D01*
X124031002Y-124925754D01*
X123953043Y-124696096D01*
X123953042Y-124696095D01*
X123951717Y-124692190D01*
X123829499Y-124444357D01*
X123675977Y-124214595D01*
X123673263Y-124211501D01*
X123673259Y-124211495D01*
X123496488Y-124009928D01*
X123493779Y-124006839D01*
X123490690Y-124004130D01*
X123289123Y-123827359D01*
X123289117Y-123827355D01*
X123286023Y-123824641D01*
X123282597Y-123822352D01*
X123282592Y-123822348D01*
X123059695Y-123673413D01*
X123056262Y-123671119D01*
X123052563Y-123669295D01*
X123052558Y-123669292D01*
X122925693Y-123606729D01*
X122808428Y-123548901D01*
X122804522Y-123547575D01*
X122550668Y-123461403D01*
X122550665Y-123461402D01*
X122546761Y-123460077D01*
X122542722Y-123459274D01*
X122542716Y-123459272D01*
X122279783Y-123406972D01*
X122279780Y-123406972D01*
X122275740Y-123406168D01*
X122271629Y-123405899D01*
X122271625Y-123405898D01*
X122004119Y-123388365D01*
X122000000Y-123388095D01*
X121995881Y-123388365D01*
X121728375Y-123405898D01*
X121728371Y-123405899D01*
X121724260Y-123406168D01*
X121720220Y-123406972D01*
X121720217Y-123406972D01*
X121457284Y-123459272D01*
X121457278Y-123459274D01*
X121453239Y-123460077D01*
X121449335Y-123461402D01*
X121449332Y-123461403D01*
X121195478Y-123547575D01*
X121191572Y-123548901D01*
X121074440Y-123606664D01*
X120947443Y-123669292D01*
X120947438Y-123669295D01*
X120943739Y-123671119D01*
X120940306Y-123673413D01*
X120717408Y-123822348D01*
X120717403Y-123822352D01*
X120713977Y-123824641D01*
X120710883Y-123827355D01*
X120710877Y-123827359D01*
X120509310Y-124004130D01*
X120506221Y-124006839D01*
X120503512Y-124009928D01*
X120326741Y-124211495D01*
X120326737Y-124211501D01*
X120324023Y-124214595D01*
X120170501Y-124444357D01*
X120048283Y-124692190D01*
X120046958Y-124696095D01*
X120046957Y-124696096D01*
X119968999Y-124925754D01*
X119959459Y-124953857D01*
X119958656Y-124957896D01*
X119958654Y-124957902D01*
X119906354Y-125220835D01*
X119905550Y-125224878D01*
X119905281Y-125228989D01*
X119905280Y-125228993D01*
X119900512Y-125301748D01*
X119889104Y-125475807D01*
X119889036Y-125476838D01*
X119888242Y-125484030D01*
X119888372Y-125484346D01*
X119886814Y-125494348D01*
X119887529Y-125499819D01*
X119887477Y-125500618D01*
X119887634Y-125500618D01*
X119889274Y-125513157D01*
X119890936Y-125525868D01*
X119892000Y-125542206D01*
X119892000Y-128447475D01*
X119890258Y-128468355D01*
X119886927Y-128488178D01*
X119886776Y-128500717D01*
X118510894Y-128500717D01*
X118561713Y-128469269D01*
X118561715Y-128469267D01*
X118565696Y-128466804D01*
X118576110Y-128457988D01*
X118767225Y-128296198D01*
X118767227Y-128296196D01*
X118770798Y-128293173D01*
X118947982Y-128091133D01*
X119023221Y-127974162D01*
X119090832Y-127869048D01*
X119090834Y-127869045D01*
X119093357Y-127865122D01*
X119203728Y-127620106D01*
X119276672Y-127361468D01*
X119310585Y-127094889D01*
X119313070Y-127000000D01*
X119293155Y-126732011D01*
X119282555Y-126685164D01*
X119248901Y-126536439D01*
X119233847Y-126469910D01*
X119218031Y-126429239D01*
X119138143Y-126223806D01*
X119138142Y-126223804D01*
X119136450Y-126219453D01*
X119003103Y-125986144D01*
X118836735Y-125775108D01*
X118641002Y-125590980D01*
X118570695Y-125542206D01*
X118424045Y-125440471D01*
X118424042Y-125440469D01*
X118420203Y-125437806D01*
X118416013Y-125435740D01*
X118416010Y-125435738D01*
X118183376Y-125321016D01*
X118183373Y-125321015D01*
X118179188Y-125318951D01*
X117923253Y-125237025D01*
X117918646Y-125236275D01*
X117918643Y-125236274D01*
X117662630Y-125194580D01*
X117662631Y-125194580D01*
X117658019Y-125193829D01*
X117527717Y-125192124D01*
X117393992Y-125190373D01*
X117393989Y-125190373D01*
X117389315Y-125190312D01*
X117123042Y-125226550D01*
X117118552Y-125227859D01*
X117118546Y-125227860D01*
X117008778Y-125259855D01*
X116865050Y-125301748D01*
X116860803Y-125303706D01*
X116860800Y-125303707D01*
X116823254Y-125321016D01*
X116621006Y-125414253D01*
X116617097Y-125416816D01*
X116400186Y-125559029D01*
X116400181Y-125559033D01*
X116396273Y-125561595D01*
X116195787Y-125740536D01*
X116023952Y-125947145D01*
X116021529Y-125951138D01*
X116002513Y-125982476D01*
X115884543Y-126176883D01*
X115882736Y-126181191D01*
X115882736Y-126181192D01*
X115862720Y-126228926D01*
X115780623Y-126424704D01*
X115714475Y-126685164D01*
X115687551Y-126952539D01*
X82800000Y-126952539D01*
X82800000Y-121500000D01*
X115860749Y-121500000D01*
X115880607Y-121752324D01*
X115881761Y-121757131D01*
X115881762Y-121757137D01*
X115919264Y-121913345D01*
X115939693Y-121998436D01*
X115941586Y-122003007D01*
X115941587Y-122003009D01*
X115987876Y-122114759D01*
X116036552Y-122232274D01*
X116168799Y-122448081D01*
X116333178Y-122640543D01*
X116525640Y-122804922D01*
X116741447Y-122937169D01*
X116746017Y-122939062D01*
X116746021Y-122939064D01*
X116970712Y-123032134D01*
X116975285Y-123034028D01*
X117060376Y-123054457D01*
X117216584Y-123091959D01*
X117216590Y-123091960D01*
X117221397Y-123093114D01*
X117473721Y-123112972D01*
X117726045Y-123093114D01*
X117730852Y-123091960D01*
X117730858Y-123091959D01*
X117887066Y-123054457D01*
X117972157Y-123034028D01*
X117976730Y-123032134D01*
X118201421Y-122939064D01*
X118201425Y-122939062D01*
X118205995Y-122937169D01*
X118421802Y-122804922D01*
X118614264Y-122640543D01*
X118778643Y-122448081D01*
X118910890Y-122232274D01*
X118959567Y-122114759D01*
X119005855Y-122003009D01*
X119005856Y-122003007D01*
X119007749Y-121998436D01*
X119028178Y-121913345D01*
X119065680Y-121757137D01*
X119065681Y-121757131D01*
X119066835Y-121752324D01*
X119084902Y-121522759D01*
X134900168Y-121522759D01*
X134920026Y-121775083D01*
X134921180Y-121779890D01*
X134921181Y-121779896D01*
X134954483Y-121918607D01*
X134979112Y-122021195D01*
X134981005Y-122025766D01*
X134981006Y-122025768D01*
X135017868Y-122114759D01*
X135075971Y-122255033D01*
X135208218Y-122470840D01*
X135372597Y-122663302D01*
X135565059Y-122827681D01*
X135780866Y-122959928D01*
X135785436Y-122961821D01*
X135785440Y-122961823D01*
X135962547Y-123035183D01*
X136014704Y-123056787D01*
X136099795Y-123077216D01*
X136256003Y-123114718D01*
X136256009Y-123114719D01*
X136260816Y-123115873D01*
X136513140Y-123135731D01*
X136765464Y-123115873D01*
X136770271Y-123114719D01*
X136770277Y-123114718D01*
X136926485Y-123077216D01*
X137011576Y-123056787D01*
X137063733Y-123035183D01*
X137240840Y-122961823D01*
X137240844Y-122961821D01*
X137245414Y-122959928D01*
X137461221Y-122827681D01*
X137653683Y-122663302D01*
X137818062Y-122470840D01*
X137950309Y-122255033D01*
X138008413Y-122114759D01*
X138045274Y-122025768D01*
X138045275Y-122025766D01*
X138047168Y-122021195D01*
X138071797Y-121918607D01*
X138105099Y-121779896D01*
X138105100Y-121779890D01*
X138106254Y-121775083D01*
X138126112Y-121522759D01*
X138106254Y-121270435D01*
X138100791Y-121247676D01*
X138048323Y-121029135D01*
X138047168Y-121024323D01*
X138016768Y-120950931D01*
X137952204Y-120795059D01*
X137952202Y-120795055D01*
X137950309Y-120790485D01*
X137818062Y-120574678D01*
X137653683Y-120382216D01*
X137461221Y-120217837D01*
X137245414Y-120085590D01*
X137240844Y-120083697D01*
X137240840Y-120083695D01*
X137016149Y-119990625D01*
X137016147Y-119990624D01*
X137011576Y-119988731D01*
X136911967Y-119964817D01*
X136770277Y-119930800D01*
X136770271Y-119930799D01*
X136765464Y-119929645D01*
X136513140Y-119909787D01*
X136260816Y-119929645D01*
X136256009Y-119930799D01*
X136256003Y-119930800D01*
X136114313Y-119964817D01*
X136014704Y-119988731D01*
X136010133Y-119990624D01*
X136010131Y-119990625D01*
X135785440Y-120083695D01*
X135785436Y-120083697D01*
X135780866Y-120085590D01*
X135565059Y-120217837D01*
X135372597Y-120382216D01*
X135208218Y-120574678D01*
X135075971Y-120790485D01*
X135074078Y-120795055D01*
X135074076Y-120795059D01*
X135009512Y-120950931D01*
X134979112Y-121024323D01*
X134977957Y-121029135D01*
X134925490Y-121247676D01*
X134920026Y-121270435D01*
X134900168Y-121522759D01*
X119084902Y-121522759D01*
X119086693Y-121500000D01*
X119066835Y-121247676D01*
X119061814Y-121226759D01*
X119012115Y-121019750D01*
X119007749Y-121001564D01*
X118977349Y-120928172D01*
X118912785Y-120772300D01*
X118912783Y-120772296D01*
X118910890Y-120767726D01*
X118778643Y-120551919D01*
X118614264Y-120359457D01*
X118421802Y-120195078D01*
X118205995Y-120062831D01*
X118201425Y-120060938D01*
X118201421Y-120060936D01*
X117976730Y-119967866D01*
X117976728Y-119967865D01*
X117972157Y-119965972D01*
X117887066Y-119945543D01*
X117730858Y-119908041D01*
X117730852Y-119908040D01*
X117726045Y-119906886D01*
X117473721Y-119887028D01*
X117221397Y-119906886D01*
X117216590Y-119908040D01*
X117216584Y-119908041D01*
X117060376Y-119945543D01*
X116975285Y-119965972D01*
X116970714Y-119967865D01*
X116970712Y-119967866D01*
X116746021Y-120060936D01*
X116746017Y-120060938D01*
X116741447Y-120062831D01*
X116525640Y-120195078D01*
X116333178Y-120359457D01*
X116168799Y-120551919D01*
X116036552Y-120767726D01*
X116034659Y-120772296D01*
X116034657Y-120772300D01*
X115970093Y-120928172D01*
X115939693Y-121001564D01*
X115935327Y-121019750D01*
X115885629Y-121226759D01*
X115880607Y-121247676D01*
X115860749Y-121500000D01*
X82800000Y-121500000D01*
X82800000Y-117452539D01*
X125187551Y-117452539D01*
X125189300Y-117488942D01*
X125200444Y-117720958D01*
X125252871Y-117984522D01*
X125343678Y-118237442D01*
X125345895Y-118241568D01*
X125372900Y-118291826D01*
X125470872Y-118474162D01*
X125473667Y-118477905D01*
X125473669Y-118477908D01*
X125628867Y-118685743D01*
X125628872Y-118685749D01*
X125631659Y-118689481D01*
X125634968Y-118692761D01*
X125634973Y-118692767D01*
X125739311Y-118796198D01*
X125822505Y-118878669D01*
X125826267Y-118881427D01*
X125826270Y-118881430D01*
X125942705Y-118966804D01*
X126039219Y-119037571D01*
X126043350Y-119039745D01*
X126043351Y-119039745D01*
X126272905Y-119160519D01*
X126272911Y-119160521D01*
X126277040Y-119162694D01*
X126281447Y-119164233D01*
X126281454Y-119164236D01*
X126526327Y-119249749D01*
X126530743Y-119251291D01*
X126535336Y-119252163D01*
X126790166Y-119300544D01*
X126790169Y-119300544D01*
X126794755Y-119301415D01*
X126929015Y-119306690D01*
X127058607Y-119311783D01*
X127058613Y-119311783D01*
X127063275Y-119311966D01*
X127144970Y-119303019D01*
X127325753Y-119283220D01*
X127325758Y-119283219D01*
X127330406Y-119282710D01*
X127590278Y-119214291D01*
X127715437Y-119160519D01*
X127832880Y-119110062D01*
X127832883Y-119110060D01*
X127837183Y-119108213D01*
X127841163Y-119105750D01*
X127841167Y-119105748D01*
X128061713Y-118969269D01*
X128061715Y-118969267D01*
X128065696Y-118966804D01*
X128270798Y-118793173D01*
X128447982Y-118591133D01*
X128523221Y-118474162D01*
X128590832Y-118369048D01*
X128590834Y-118369045D01*
X128593357Y-118365122D01*
X128703728Y-118120106D01*
X128776672Y-117861468D01*
X128810585Y-117594889D01*
X128813070Y-117500000D01*
X128793155Y-117232011D01*
X128782555Y-117185164D01*
X128748901Y-117036439D01*
X128733847Y-116969910D01*
X128718031Y-116929239D01*
X128638143Y-116723806D01*
X128638142Y-116723804D01*
X128636450Y-116719453D01*
X128503103Y-116486144D01*
X128336735Y-116275108D01*
X128141002Y-116090980D01*
X127920203Y-115937806D01*
X127916013Y-115935740D01*
X127916010Y-115935738D01*
X127683376Y-115821016D01*
X127683373Y-115821015D01*
X127679188Y-115818951D01*
X127423253Y-115737025D01*
X127418646Y-115736275D01*
X127418643Y-115736274D01*
X127162630Y-115694580D01*
X127162631Y-115694580D01*
X127158019Y-115693829D01*
X127027717Y-115692124D01*
X126893992Y-115690373D01*
X126893989Y-115690373D01*
X126889315Y-115690312D01*
X126623042Y-115726550D01*
X126618552Y-115727859D01*
X126618546Y-115727860D01*
X126508778Y-115759855D01*
X126365050Y-115801748D01*
X126360803Y-115803706D01*
X126360800Y-115803707D01*
X126323254Y-115821016D01*
X126121006Y-115914253D01*
X126117097Y-115916816D01*
X125900186Y-116059029D01*
X125900181Y-116059033D01*
X125896273Y-116061595D01*
X125695787Y-116240536D01*
X125523952Y-116447145D01*
X125521529Y-116451138D01*
X125502513Y-116482476D01*
X125384543Y-116676883D01*
X125382736Y-116681191D01*
X125382736Y-116681192D01*
X125362720Y-116728926D01*
X125280623Y-116924704D01*
X125214475Y-117185164D01*
X125187551Y-117452539D01*
X82800000Y-117452539D01*
X82800000Y-108525585D01*
X82820002Y-108457464D01*
X82873658Y-108410971D01*
X82925584Y-108399586D01*
X143399697Y-108200001D01*
X143400113Y-108200000D01*
X154274000Y-108200000D01*
X154342121Y-108220002D01*
G37*
%TD.AperFunction*%
%TD*%
M02*
