%TF.GenerationSoftware,KiCad,Pcbnew,(6.0.1)*%
%TF.CreationDate,2022-12-10T14:53:13+08:00*%
%TF.ProjectId,ESP32_Adapter 2,45535033-325f-4416-9461-707465722032,rev?*%
%TF.SameCoordinates,Original*%
%TF.FileFunction,Paste,Top*%
%TF.FilePolarity,Positive*%
%FSLAX46Y46*%
G04 Gerber Fmt 4.6, Leading zero omitted, Abs format (unit mm)*
G04 Created by KiCad (PCBNEW (6.0.1)) date 2022-12-10 14:53:13*
%MOMM*%
%LPD*%
G01*
G04 APERTURE LIST*
G04 Aperture macros list*
%AMRoundRect*
0 Rectangle with rounded corners*
0 $1 Rounding radius*
0 $2 $3 $4 $5 $6 $7 $8 $9 X,Y pos of 4 corners*
0 Add a 4 corners polygon primitive as box body*
4,1,4,$2,$3,$4,$5,$6,$7,$8,$9,$2,$3,0*
0 Add four circle primitives for the rounded corners*
1,1,$1+$1,$2,$3*
1,1,$1+$1,$4,$5*
1,1,$1+$1,$6,$7*
1,1,$1+$1,$8,$9*
0 Add four rect primitives between the rounded corners*
20,1,$1+$1,$2,$3,$4,$5,0*
20,1,$1+$1,$4,$5,$6,$7,0*
20,1,$1+$1,$6,$7,$8,$9,0*
20,1,$1+$1,$8,$9,$2,$3,0*%
G04 Aperture macros list end*
%ADD10C,0.150000*%
%ADD11RoundRect,0.237500X-0.250000X-0.237500X0.250000X-0.237500X0.250000X0.237500X-0.250000X0.237500X0*%
%ADD12R,2.000000X0.900000*%
%ADD13R,0.900000X2.000000*%
%ADD14R,5.000000X5.000000*%
%ADD15R,1.600000X1.000000*%
%ADD16RoundRect,0.090000X-0.139000X-0.090000X0.139000X-0.090000X0.139000X0.090000X-0.139000X0.090000X0*%
G04 APERTURE END LIST*
D10*
X69741736Y-64331755D02*
X70408402Y-64332649D01*
X69978489Y-65332073D01*
X70788140Y-65237921D02*
X70835695Y-65285604D01*
X70788012Y-65333159D01*
X70740457Y-65285477D01*
X70788140Y-65237921D01*
X70788012Y-65333159D01*
X71693668Y-64667707D02*
X71692773Y-65334373D01*
X71456084Y-64286436D02*
X71217031Y-65000401D01*
X71836078Y-65001232D01*
X72694114Y-64335716D02*
X72217924Y-64335077D01*
X72169666Y-64811203D01*
X72217349Y-64763648D01*
X72312651Y-64716157D01*
X72550746Y-64716476D01*
X72645920Y-64764223D01*
X72693475Y-64811906D01*
X72740966Y-64907208D01*
X72740647Y-65145303D01*
X72692900Y-65240477D01*
X72645217Y-65288032D01*
X72549915Y-65335523D01*
X72311820Y-65335204D01*
X72216646Y-65287457D01*
X72169091Y-65239774D01*
X73075066Y-64336227D02*
X73694113Y-64337058D01*
X73360269Y-64717562D01*
X73503126Y-64717754D01*
X73598300Y-64765501D01*
X73645855Y-64813184D01*
X73693347Y-64908486D01*
X73693027Y-65146581D01*
X73645280Y-65241755D01*
X73597597Y-65289310D01*
X73502296Y-65336801D01*
X73216581Y-65336418D01*
X73121407Y-65288671D01*
X73073852Y-65240988D01*
X74598874Y-64338271D02*
X74122684Y-64337632D01*
X74074426Y-64813759D01*
X74122109Y-64766204D01*
X74217411Y-64718712D01*
X74455506Y-64719032D01*
X74550680Y-64766779D01*
X74598235Y-64814461D01*
X74645727Y-64909763D01*
X74645407Y-65147858D01*
X74597660Y-65243032D01*
X74549978Y-65290588D01*
X74454676Y-65338079D01*
X74216581Y-65337759D01*
X74121406Y-65290013D01*
X74073851Y-65242330D01*
X75835627Y-65339932D02*
X75836521Y-64673266D01*
X75836393Y-64768504D02*
X75884076Y-64720948D01*
X75979378Y-64673457D01*
X76122235Y-64673649D01*
X76217409Y-64721396D01*
X76264901Y-64816698D01*
X76264198Y-65340507D01*
X76264901Y-64816698D02*
X76312647Y-64721523D01*
X76407949Y-64674032D01*
X76550806Y-64674224D01*
X76645980Y-64721971D01*
X76693472Y-64817273D01*
X76692769Y-65341082D01*
X77168959Y-65341720D02*
X77169853Y-64675054D01*
X77169726Y-64770292D02*
X77217408Y-64722737D01*
X77312710Y-64675246D01*
X77455567Y-64675438D01*
X77550741Y-64723184D01*
X77598233Y-64818486D01*
X77597530Y-65342295D01*
X77598233Y-64818486D02*
X77645979Y-64723312D01*
X77741281Y-64675821D01*
X77884138Y-64676013D01*
X77979313Y-64723759D01*
X78026804Y-64819061D01*
X78026101Y-65342870D01*
X70205829Y-64056500D02*
X70202394Y-66616415D01*
X77659329Y-64066500D02*
X77655894Y-66626415D01*
X70203181Y-66029995D02*
X77656681Y-66039995D01*
X70203181Y-66029995D02*
X77656681Y-66039995D01*
X70203181Y-66029995D02*
X71328897Y-66617927D01*
X70203181Y-66029995D02*
X71330471Y-65445086D01*
X77656681Y-66039995D02*
X76530965Y-65452063D01*
X77656681Y-66039995D02*
X76529391Y-66624904D01*
D11*
%TO.C,R2*%
X62009500Y-62462500D03*
X63834500Y-62462500D03*
%TD*%
D12*
%TO.C,ESP32*%
X65494500Y-41677500D03*
X65494500Y-42947500D03*
X65494500Y-44217500D03*
X65494500Y-45487500D03*
X65494500Y-46757500D03*
X65494500Y-48027500D03*
X65494500Y-49297500D03*
X65494500Y-50567500D03*
X65494500Y-51837500D03*
X65494500Y-53107500D03*
X65494500Y-54377500D03*
X65494500Y-55647500D03*
X65494500Y-56917500D03*
X65494500Y-58187500D03*
D13*
X68279500Y-59187500D03*
X69549500Y-59187500D03*
X70819500Y-59187500D03*
X72089500Y-59187500D03*
X73359500Y-59187500D03*
X74629500Y-59187500D03*
X75899500Y-59187500D03*
X77169500Y-59187500D03*
X78439500Y-59187500D03*
X79709500Y-59187500D03*
D12*
X82494500Y-58187500D03*
X82494500Y-56917500D03*
X82494500Y-55647500D03*
X82494500Y-54377500D03*
X82494500Y-53107500D03*
X82494500Y-51837500D03*
X82494500Y-50567500D03*
X82494500Y-49297500D03*
X82494500Y-48027500D03*
X82494500Y-46757500D03*
X82494500Y-45487500D03*
X82494500Y-44217500D03*
X82494500Y-42947500D03*
X82494500Y-41677500D03*
D14*
X72994500Y-49177500D03*
%TD*%
D11*
%TO.C,R1*%
X83091500Y-62208500D03*
X84916500Y-62208500D03*
%TD*%
D15*
%TO.C,SW2*%
X62006500Y-65256500D03*
X68406500Y-65256500D03*
X62006500Y-69056500D03*
X68406500Y-69056500D03*
%TD*%
%TO.C,SW1*%
X79960000Y-65266500D03*
X86360000Y-65266500D03*
X79960000Y-69066500D03*
X86360000Y-69066500D03*
%TD*%
D16*
%TO.C,C1*%
X68077000Y-62208500D03*
X67212000Y-62208500D03*
%TD*%
M02*
