%TF.GenerationSoftware,KiCad,Pcbnew,(6.0.1)*%
%TF.CreationDate,2022-12-10T14:53:13+08:00*%
%TF.ProjectId,ESP32_Adapter 2,45535033-325f-4416-9461-707465722032,rev?*%
%TF.SameCoordinates,Original*%
%TF.FileFunction,Copper,L2,Bot*%
%TF.FilePolarity,Positive*%
%FSLAX46Y46*%
G04 Gerber Fmt 4.6, Leading zero omitted, Abs format (unit mm)*
G04 Created by KiCad (PCBNEW (6.0.1)) date 2022-12-10 14:53:13*
%MOMM*%
%LPD*%
G01*
G04 APERTURE LIST*
%TA.AperFunction,ComponentPad*%
%ADD10C,1.700000*%
%TD*%
%TA.AperFunction,ComponentPad*%
%ADD11O,1.700000X1.700000*%
%TD*%
%TA.AperFunction,ComponentPad*%
%ADD12R,1.700000X1.700000*%
%TD*%
%TA.AperFunction,ViaPad*%
%ADD13C,1.500000*%
%TD*%
%TA.AperFunction,Conductor*%
%ADD14C,0.500000*%
%TD*%
%TA.AperFunction,Conductor*%
%ADD15C,0.300000*%
%TD*%
G04 APERTURE END LIST*
D10*
%TO.P,MNT2,1,Pin_1*%
%TO.N,GND*%
X86360000Y-43180000D03*
D11*
%TO.P,MNT2,2,Pin_2*%
%TO.N,MT_SDA*%
X86360000Y-45720000D03*
%TO.P,MNT2,3,Pin_3*%
%TO.N,MT_SCL*%
X86360000Y-48260000D03*
%TO.P,MNT2,4,Pin_4*%
%TO.N,MT_CSN*%
X86360000Y-50800000D03*
%TO.P,MNT2,5,Pin_5*%
%TO.N,SERIAL_RX*%
X86360000Y-53340000D03*
%TO.P,MNT2,6,Pin_6*%
%TO.N,SERIAL_TX*%
X86360000Y-55880000D03*
%TO.P,MNT2,7,Pin_7*%
%TO.N,BTN_NEXT*%
X86360000Y-58420000D03*
%TD*%
D12*
%TO.P,J1,1,Pin_1*%
%TO.N,/RXD*%
X75184000Y-62462500D03*
D11*
%TO.P,J1,2,Pin_2*%
%TO.N,/TXD*%
X72644000Y-62462500D03*
%TD*%
D10*
%TO.P,MNT1,1,Pin_1*%
%TO.N,WL*%
X61040500Y-58400000D03*
D11*
%TO.P,MNT1,2,Pin_2*%
%TO.N,WH*%
X61040500Y-55860000D03*
%TO.P,MNT1,3,Pin_3*%
%TO.N,VL*%
X61040500Y-53320000D03*
%TO.P,MNT1,4,Pin_4*%
%TO.N,VH*%
X61040500Y-50780000D03*
%TO.P,MNT1,5,Pin_5*%
%TO.N,UL*%
X61040500Y-48240000D03*
%TO.P,MNT1,6,Pin_6*%
%TO.N,UH*%
X61040500Y-45700000D03*
%TO.P,MNT1,7,Pin_7*%
%TO.N,+3V3*%
X61040500Y-43160000D03*
%TD*%
D13*
%TO.N,VL*%
X68831000Y-47984500D03*
%TO.N,WL*%
X68223000Y-50778500D03*
%TO.N,UL*%
X68406500Y-52810500D03*
%TO.N,MT_CSN*%
X61040500Y-60938500D03*
%TO.N,MT_SCL*%
X80344500Y-49508500D03*
%TO.N,MT_SDA*%
X80090500Y-56112500D03*
%TO.N,/RXD*%
X76788500Y-55350500D03*
%TO.N,BTN_NEXT*%
X77606175Y-46262175D03*
%TO.N,/TXD*%
X75010500Y-54080500D03*
%TD*%
D14*
%TO.N,VL*%
X70184500Y-53064500D02*
X67136500Y-56112500D01*
X63580500Y-56112500D02*
X61040500Y-53572500D01*
X67136500Y-56112500D02*
X63580500Y-56112500D01*
X61040500Y-53572500D02*
X61040500Y-53320000D01*
X68831000Y-47984500D02*
X70184500Y-49338000D01*
X70184500Y-49338000D02*
X70184500Y-53064500D01*
%TO.N,WL*%
X66882500Y-49438000D02*
X66882500Y-47476500D01*
X68152500Y-46206500D02*
X70184500Y-46206500D01*
X71962500Y-53064500D02*
X66374500Y-58652500D01*
X68223000Y-50778500D02*
X66882500Y-49438000D01*
X66882500Y-47476500D02*
X68152500Y-46206500D01*
X71962500Y-47984500D02*
X71962500Y-53064500D01*
X66374500Y-58652500D02*
X61293000Y-58652500D01*
X70184500Y-46206500D02*
X71962500Y-47984500D01*
X61293000Y-58652500D02*
X61040500Y-58400000D01*
%TO.N,UL*%
X61804000Y-48240000D02*
X61040500Y-48240000D01*
X67226866Y-53990134D02*
X63998134Y-53990134D01*
X62818500Y-49254500D02*
X61804000Y-48240000D01*
X63998134Y-53990134D02*
X62818500Y-52810500D01*
X68406500Y-52810500D02*
X67226866Y-53990134D01*
X62818500Y-52810500D02*
X62818500Y-49254500D01*
D15*
%TO.N,MT_CSN*%
X84154500Y-64748500D02*
X88138000Y-60765000D01*
X88138000Y-52578000D02*
X86360000Y-50800000D01*
X61040500Y-60938500D02*
X61294500Y-60684500D01*
X64850500Y-60684500D02*
X68914500Y-64748500D01*
X61294500Y-60684500D02*
X64850500Y-60684500D01*
X88138000Y-60765000D02*
X88138000Y-52578000D01*
X68914500Y-64748500D02*
X84154500Y-64748500D01*
%TO.N,MT_SCL*%
X81360500Y-49508500D02*
X82376500Y-48492500D01*
X80344500Y-49508500D02*
X81360500Y-49508500D01*
X82376500Y-48492500D02*
X86127500Y-48492500D01*
X86127500Y-48492500D02*
X86360000Y-48260000D01*
%TO.N,MT_SDA*%
X85576500Y-44936500D02*
X86360000Y-45720000D01*
X79074500Y-50270500D02*
X79074500Y-46714500D01*
X80090500Y-56112500D02*
X80090500Y-51286500D01*
X80852500Y-44936500D02*
X85576500Y-44936500D01*
X80090500Y-51286500D02*
X79074500Y-50270500D01*
X79074500Y-46714500D02*
X80852500Y-44936500D01*
%TO.N,/RXD*%
X75264500Y-56874500D02*
X75264500Y-57382500D01*
X75269500Y-57387500D02*
X75269500Y-63167500D01*
X76788500Y-55350500D02*
X75264500Y-56874500D01*
%TO.N,BTN_NEXT*%
X77296500Y-50524500D02*
X78566500Y-51794500D01*
X78566500Y-51794500D02*
X78566500Y-57128500D01*
X86127500Y-58652500D02*
X86360000Y-58420000D01*
X78566500Y-57128500D02*
X80090500Y-58652500D01*
X80090500Y-58652500D02*
X86127500Y-58652500D01*
X77296500Y-46571850D02*
X77296500Y-50524500D01*
X77606175Y-46262175D02*
X77296500Y-46571850D01*
%TO.N,/TXD*%
X72729500Y-56361500D02*
X72729500Y-63167500D01*
X75010500Y-54080500D02*
X72729500Y-56361500D01*
%TD*%
M02*
