%TF.GenerationSoftware,KiCad,Pcbnew,(6.0.1)*%
%TF.CreationDate,2022-12-10T14:53:13+08:00*%
%TF.ProjectId,ESP32_Adapter 2,45535033-325f-4416-9461-707465722032,rev?*%
%TF.SameCoordinates,Original*%
%TF.FileFunction,Legend,Top*%
%TF.FilePolarity,Positive*%
%FSLAX46Y46*%
G04 Gerber Fmt 4.6, Leading zero omitted, Abs format (unit mm)*
G04 Created by KiCad (PCBNEW (6.0.1)) date 2022-12-10 14:53:13*
%MOMM*%
%LPD*%
G01*
G04 APERTURE LIST*
%ADD10C,0.150000*%
%ADD11C,0.254000*%
%ADD12C,0.120000*%
%ADD13C,0.100000*%
G04 APERTURE END LIST*
D10*
X69930595Y-61914880D02*
X70502023Y-61914880D01*
X70216309Y-62914880D02*
X70216309Y-61914880D01*
X70740119Y-61914880D02*
X71406785Y-62914880D01*
X71406785Y-61914880D02*
X70740119Y-62914880D01*
X86186595Y-40372500D02*
X86091357Y-40324880D01*
X85948500Y-40324880D01*
X85805642Y-40372500D01*
X85710404Y-40467738D01*
X85662785Y-40562976D01*
X85615166Y-40753452D01*
X85615166Y-40896309D01*
X85662785Y-41086785D01*
X85710404Y-41182023D01*
X85805642Y-41277261D01*
X85948500Y-41324880D01*
X86043738Y-41324880D01*
X86186595Y-41277261D01*
X86234214Y-41229642D01*
X86234214Y-40896309D01*
X86043738Y-40896309D01*
X86662785Y-41324880D02*
X86662785Y-40324880D01*
X87234214Y-41324880D01*
X87234214Y-40324880D01*
X87710404Y-41324880D02*
X87710404Y-40324880D01*
X87948500Y-40324880D01*
X88091357Y-40372500D01*
X88186595Y-40467738D01*
X88234214Y-40562976D01*
X88281833Y-40753452D01*
X88281833Y-40896309D01*
X88234214Y-41086785D01*
X88186595Y-41182023D01*
X88091357Y-41277261D01*
X87948500Y-41324880D01*
X87710404Y-41324880D01*
X59802404Y-40578880D02*
X60421452Y-40578880D01*
X60088119Y-40959833D01*
X60230976Y-40959833D01*
X60326214Y-41007452D01*
X60373833Y-41055071D01*
X60421452Y-41150309D01*
X60421452Y-41388404D01*
X60373833Y-41483642D01*
X60326214Y-41531261D01*
X60230976Y-41578880D01*
X59945261Y-41578880D01*
X59850023Y-41531261D01*
X59802404Y-41483642D01*
X60707166Y-40578880D02*
X61040500Y-41578880D01*
X61373833Y-40578880D01*
X61611928Y-40578880D02*
X62230976Y-40578880D01*
X61897642Y-40959833D01*
X62040500Y-40959833D01*
X62135738Y-41007452D01*
X62183357Y-41055071D01*
X62230976Y-41150309D01*
X62230976Y-41388404D01*
X62183357Y-41483642D01*
X62135738Y-41531261D01*
X62040500Y-41578880D01*
X61754785Y-41578880D01*
X61659547Y-41531261D01*
X61611928Y-41483642D01*
X64366404Y-71535071D02*
X64699738Y-71535071D01*
X64842595Y-72058880D02*
X64366404Y-72058880D01*
X64366404Y-71058880D01*
X64842595Y-71058880D01*
X65271166Y-72058880D02*
X65271166Y-71058880D01*
X65842595Y-72058880D01*
X65842595Y-71058880D01*
X81448023Y-71535071D02*
X81114690Y-71535071D01*
X81114690Y-72058880D02*
X81114690Y-71058880D01*
X81590880Y-71058880D01*
X82448023Y-72058880D02*
X81971833Y-72058880D01*
X81971833Y-71058880D01*
X82733738Y-71773166D02*
X83209928Y-71773166D01*
X82638500Y-72058880D02*
X82971833Y-71058880D01*
X83305166Y-72058880D01*
X83590880Y-72011261D02*
X83733738Y-72058880D01*
X83971833Y-72058880D01*
X84067071Y-72011261D01*
X84114690Y-71963642D01*
X84162309Y-71868404D01*
X84162309Y-71773166D01*
X84114690Y-71677928D01*
X84067071Y-71630309D01*
X83971833Y-71582690D01*
X83781357Y-71535071D01*
X83686119Y-71487452D01*
X83638500Y-71439833D01*
X83590880Y-71344595D01*
X83590880Y-71249357D01*
X83638500Y-71154119D01*
X83686119Y-71106500D01*
X83781357Y-71058880D01*
X84019452Y-71058880D01*
X84162309Y-71106500D01*
X84590880Y-72058880D02*
X84590880Y-71058880D01*
X84590880Y-71535071D02*
X85162309Y-71535071D01*
X85162309Y-72058880D02*
X85162309Y-71058880D01*
X77383833Y-62914880D02*
X77050500Y-62438690D01*
X76812404Y-62914880D02*
X76812404Y-61914880D01*
X77193357Y-61914880D01*
X77288595Y-61962500D01*
X77336214Y-62010119D01*
X77383833Y-62105357D01*
X77383833Y-62248214D01*
X77336214Y-62343452D01*
X77288595Y-62391071D01*
X77193357Y-62438690D01*
X76812404Y-62438690D01*
X77717166Y-61914880D02*
X78383833Y-62914880D01*
X78383833Y-61914880D02*
X77717166Y-62914880D01*
%TO.C,R2*%
X62755333Y-61484880D02*
X62422000Y-61008690D01*
X62183904Y-61484880D02*
X62183904Y-60484880D01*
X62564857Y-60484880D01*
X62660095Y-60532500D01*
X62707714Y-60580119D01*
X62755333Y-60675357D01*
X62755333Y-60818214D01*
X62707714Y-60913452D01*
X62660095Y-60961071D01*
X62564857Y-61008690D01*
X62183904Y-61008690D01*
X63136285Y-60580119D02*
X63183904Y-60532500D01*
X63279142Y-60484880D01*
X63517238Y-60484880D01*
X63612476Y-60532500D01*
X63660095Y-60580119D01*
X63707714Y-60675357D01*
X63707714Y-60770595D01*
X63660095Y-60913452D01*
X63088666Y-61484880D01*
X63707714Y-61484880D01*
%TO.C,R1*%
X83837333Y-61230880D02*
X83504000Y-60754690D01*
X83265904Y-61230880D02*
X83265904Y-60230880D01*
X83646857Y-60230880D01*
X83742095Y-60278500D01*
X83789714Y-60326119D01*
X83837333Y-60421357D01*
X83837333Y-60564214D01*
X83789714Y-60659452D01*
X83742095Y-60707071D01*
X83646857Y-60754690D01*
X83265904Y-60754690D01*
X84789714Y-61230880D02*
X84218285Y-61230880D01*
X84504000Y-61230880D02*
X84504000Y-60230880D01*
X84408761Y-60373738D01*
X84313523Y-60468976D01*
X84218285Y-60516595D01*
D11*
%TO.C,SW2*%
X63263166Y-67670547D02*
X63444595Y-67731023D01*
X63746976Y-67731023D01*
X63867928Y-67670547D01*
X63928404Y-67610071D01*
X63988880Y-67489119D01*
X63988880Y-67368166D01*
X63928404Y-67247214D01*
X63867928Y-67186738D01*
X63746976Y-67126261D01*
X63505071Y-67065785D01*
X63384119Y-67005309D01*
X63323642Y-66944833D01*
X63263166Y-66823880D01*
X63263166Y-66702928D01*
X63323642Y-66581976D01*
X63384119Y-66521500D01*
X63505071Y-66461023D01*
X63807452Y-66461023D01*
X63988880Y-66521500D01*
X64412214Y-66461023D02*
X64714595Y-67731023D01*
X64956500Y-66823880D01*
X65198404Y-67731023D01*
X65500785Y-66461023D01*
X65924119Y-66581976D02*
X65984595Y-66521500D01*
X66105547Y-66461023D01*
X66407928Y-66461023D01*
X66528880Y-66521500D01*
X66589357Y-66581976D01*
X66649833Y-66702928D01*
X66649833Y-66823880D01*
X66589357Y-67005309D01*
X65863642Y-67731023D01*
X66649833Y-67731023D01*
%TO.C,SW1*%
X81216666Y-67680547D02*
X81398095Y-67741023D01*
X81700476Y-67741023D01*
X81821428Y-67680547D01*
X81881904Y-67620071D01*
X81942380Y-67499119D01*
X81942380Y-67378166D01*
X81881904Y-67257214D01*
X81821428Y-67196738D01*
X81700476Y-67136261D01*
X81458571Y-67075785D01*
X81337619Y-67015309D01*
X81277142Y-66954833D01*
X81216666Y-66833880D01*
X81216666Y-66712928D01*
X81277142Y-66591976D01*
X81337619Y-66531500D01*
X81458571Y-66471023D01*
X81760952Y-66471023D01*
X81942380Y-66531500D01*
X82365714Y-66471023D02*
X82668095Y-67741023D01*
X82910000Y-66833880D01*
X83151904Y-67741023D01*
X83454285Y-66471023D01*
X84603333Y-67741023D02*
X83877619Y-67741023D01*
X84240476Y-67741023D02*
X84240476Y-66471023D01*
X84119523Y-66652452D01*
X83998571Y-66773404D01*
X83877619Y-66833880D01*
D10*
%TO.C,J1*%
X76906380Y-67180833D02*
X77620666Y-67180833D01*
X77763523Y-67228452D01*
X77858761Y-67323690D01*
X77906380Y-67466547D01*
X77906380Y-67561785D01*
X77906380Y-66180833D02*
X77906380Y-66752261D01*
X77906380Y-66466547D02*
X76906380Y-66466547D01*
X77049238Y-66561785D01*
X77144476Y-66657023D01*
X77192095Y-66752261D01*
%TO.C,C1*%
X67477833Y-61515642D02*
X67430214Y-61563261D01*
X67287357Y-61610880D01*
X67192119Y-61610880D01*
X67049261Y-61563261D01*
X66954023Y-61468023D01*
X66906404Y-61372785D01*
X66858785Y-61182309D01*
X66858785Y-61039452D01*
X66906404Y-60848976D01*
X66954023Y-60753738D01*
X67049261Y-60658500D01*
X67192119Y-60610880D01*
X67287357Y-60610880D01*
X67430214Y-60658500D01*
X67477833Y-60706119D01*
X68430214Y-61610880D02*
X67858785Y-61610880D01*
X68144500Y-61610880D02*
X68144500Y-60610880D01*
X68049261Y-60753738D01*
X67954023Y-60848976D01*
X67858785Y-60896595D01*
D12*
%TO.C,R2*%
X62667276Y-61940000D02*
X63176724Y-61940000D01*
X62667276Y-62985000D02*
X63176724Y-62985000D01*
%TO.C,ESP32*%
X64874500Y-59812500D02*
X65874500Y-59812500D01*
X83114500Y-59032500D02*
X83114500Y-59812500D01*
X64874500Y-34067500D02*
X64874500Y-40487500D01*
X64874500Y-40487500D02*
X64494500Y-40487500D01*
X83114500Y-59812500D02*
X82114500Y-59812500D01*
X83114500Y-34067500D02*
X83114500Y-40487500D01*
X64874500Y-59032500D02*
X64874500Y-59812500D01*
X64874500Y-34067500D02*
X83114500Y-34067500D01*
%TO.C,R1*%
X83749276Y-62731000D02*
X84258724Y-62731000D01*
X83749276Y-61686000D02*
X84258724Y-61686000D01*
D13*
%TO.C,SW2*%
X60706500Y-65256500D02*
X60706500Y-65256500D01*
X60806500Y-65256500D02*
X60806500Y-65256500D01*
X67806500Y-64556500D02*
X67806500Y-64556500D01*
X62606500Y-64556500D02*
X67806500Y-64556500D01*
X62606500Y-69756500D02*
X67806500Y-69756500D01*
X60806500Y-65256500D02*
G75*
G03*
X60706500Y-65256500I-50000J0D01*
G01*
X60706500Y-65256500D02*
G75*
G03*
X60806500Y-65256500I50000J0D01*
G01*
%TO.C,SW1*%
X78660000Y-65266500D02*
X78660000Y-65266500D01*
X80560000Y-69766500D02*
X85760000Y-69766500D01*
X80560000Y-64566500D02*
X85760000Y-64566500D01*
X78760000Y-65266500D02*
X78760000Y-65266500D01*
X85760000Y-64566500D02*
X85760000Y-64566500D01*
X78760000Y-65266500D02*
G75*
G03*
X78660000Y-65266500I-50000J0D01*
G01*
X78660000Y-65266500D02*
G75*
G03*
X78760000Y-65266500I50000J0D01*
G01*
D12*
%TO.C,J1*%
X76514000Y-66562500D02*
X76514000Y-63902500D01*
X72264000Y-72562500D02*
X72264000Y-66562500D01*
X75564000Y-66562500D02*
X75564000Y-72562500D01*
X75384000Y-66562500D02*
X75384000Y-72562500D01*
X75504000Y-66562500D02*
X75504000Y-72562500D01*
X75564000Y-63572500D02*
X75564000Y-63902500D01*
X74904000Y-66562500D02*
X74904000Y-72562500D01*
X73024000Y-72562500D02*
X72264000Y-72562500D01*
X75264000Y-66562500D02*
X75264000Y-72562500D01*
X74804000Y-63572500D02*
X74804000Y-63902500D01*
X73024000Y-63505429D02*
X73024000Y-63902500D01*
X71314000Y-66562500D02*
X76514000Y-66562500D01*
X74804000Y-72562500D02*
X74804000Y-66562500D01*
X73914000Y-63902500D02*
X73914000Y-66562500D01*
X71314000Y-63902500D02*
X71314000Y-66562500D01*
X76514000Y-63902500D02*
X71314000Y-63902500D01*
X72264000Y-63505429D02*
X72264000Y-63902500D01*
X75184000Y-61192500D02*
X76454000Y-61192500D01*
X75144000Y-66562500D02*
X75144000Y-72562500D01*
X75564000Y-72562500D02*
X74804000Y-72562500D01*
X76454000Y-61192500D02*
X76454000Y-62462500D01*
X75024000Y-66562500D02*
X75024000Y-72562500D01*
X73024000Y-66562500D02*
X73024000Y-72562500D01*
%TD*%
M02*
