%TF.GenerationSoftware,KiCad,Pcbnew,(6.0.1)*%
%TF.CreationDate,2023-03-02T15:38:04+08:00*%
%TF.ProjectId,Scroller Motor 1,5363726f-6c6c-4657-9220-4d6f746f7220,rev?*%
%TF.SameCoordinates,Original*%
%TF.FileFunction,Soldermask,Top*%
%TF.FilePolarity,Negative*%
%FSLAX46Y46*%
G04 Gerber Fmt 4.6, Leading zero omitted, Abs format (unit mm)*
G04 Created by KiCad (PCBNEW (6.0.1)) date 2023-03-02 15:38:04*
%MOMM*%
%LPD*%
G01*
G04 APERTURE LIST*
G04 Aperture macros list*
%AMRoundRect*
0 Rectangle with rounded corners*
0 $1 Rounding radius*
0 $2 $3 $4 $5 $6 $7 $8 $9 X,Y pos of 4 corners*
0 Add a 4 corners polygon primitive as box body*
4,1,4,$2,$3,$4,$5,$6,$7,$8,$9,$2,$3,0*
0 Add four circle primitives for the rounded corners*
1,1,$1+$1,$2,$3*
1,1,$1+$1,$4,$5*
1,1,$1+$1,$6,$7*
1,1,$1+$1,$8,$9*
0 Add four rect primitives between the rounded corners*
20,1,$1+$1,$2,$3,$4,$5,0*
20,1,$1+$1,$4,$5,$6,$7,0*
20,1,$1+$1,$6,$7,$8,$9,0*
20,1,$1+$1,$8,$9,$2,$3,0*%
G04 Aperture macros list end*
%ADD10RoundRect,0.449500X0.450500X-0.450500X0.450500X0.450500X-0.450500X0.450500X-0.450500X-0.450500X0*%
%ADD11O,1.800000X1.800000*%
%ADD12RoundRect,0.287500X-0.300000X-0.237500X0.300000X-0.237500X0.300000X0.237500X-0.300000X0.237500X0*%
%ADD13RoundRect,0.050000X-0.850000X0.850000X-0.850000X-0.850000X0.850000X-0.850000X0.850000X0.850000X0*%
%ADD14RoundRect,0.050000X0.850000X0.850000X-0.850000X0.850000X-0.850000X-0.850000X0.850000X-0.850000X0*%
%ADD15RoundRect,0.287500X0.237500X-0.300000X0.237500X0.300000X-0.237500X0.300000X-0.237500X-0.300000X0*%
%ADD16C,3.300000*%
%ADD17RoundRect,0.287500X-0.237500X0.250000X-0.237500X-0.250000X0.237500X-0.250000X0.237500X0.250000X0*%
%ADD18RoundRect,0.287500X0.237500X-0.250000X0.237500X0.250000X-0.237500X0.250000X-0.237500X-0.250000X0*%
%ADD19RoundRect,0.050000X0.800000X0.800000X-0.800000X0.800000X-0.800000X-0.800000X0.800000X-0.800000X0*%
%ADD20O,1.700000X1.700000*%
%ADD21C,1.800000*%
%ADD22RoundRect,0.050000X-1.000000X-0.750000X1.000000X-0.750000X1.000000X0.750000X-1.000000X0.750000X0*%
%ADD23RoundRect,0.050000X-1.000000X-1.900000X1.000000X-1.900000X1.000000X1.900000X-1.000000X1.900000X0*%
%ADD24RoundRect,0.050000X-0.300000X-1.100000X0.300000X-1.100000X0.300000X1.100000X-0.300000X1.100000X0*%
%ADD25RoundRect,0.050000X0.300000X0.350000X-0.300000X0.350000X-0.300000X-0.350000X0.300000X-0.350000X0*%
%ADD26C,1.300000*%
%ADD27RoundRect,0.300000X0.600000X0.725000X-0.600000X0.725000X-0.600000X-0.725000X0.600000X-0.725000X0*%
%ADD28O,1.800000X2.050000*%
G04 APERTURE END LIST*
D10*
%TO.C,TMC1*%
X100622893Y-130547107D03*
D11*
X98082893Y-130547107D03*
X95542893Y-130547107D03*
X93002893Y-130547107D03*
X90462893Y-130547107D03*
X87922893Y-130547107D03*
X85382893Y-130547107D03*
X82842893Y-130547107D03*
D10*
X100622893Y-153347107D03*
D11*
X98082893Y-153347107D03*
X95542893Y-153347107D03*
X93002893Y-153347107D03*
X90462893Y-153347107D03*
X87922893Y-153347107D03*
X85382893Y-153347107D03*
X82842893Y-153347107D03*
%TD*%
D12*
%TO.C,C4*%
X121737500Y-128200000D03*
X123462500Y-128200000D03*
%TD*%
D13*
%TO.C,J2*%
X122400000Y-97600000D03*
D11*
X119860000Y-97600000D03*
X117320000Y-97600000D03*
%TD*%
D14*
%TO.C,J3*%
X130800000Y-89800000D03*
D11*
X130800000Y-87260000D03*
X130800000Y-84720000D03*
%TD*%
D15*
%TO.C,C3*%
X131000000Y-129000000D03*
X131000000Y-127275000D03*
%TD*%
%TO.C,C1*%
X92075000Y-119835000D03*
X92075000Y-118110000D03*
%TD*%
D16*
%TO.C,MHole_4*%
X77600000Y-70000000D03*
%TD*%
D17*
%TO.C,RM_1*%
X122555000Y-86082500D03*
X122555000Y-87907500D03*
%TD*%
D16*
%TO.C,MHole_3*%
X77600000Y-155200000D03*
%TD*%
D17*
%TO.C,RS_2*%
X122555000Y-80725000D03*
X122555000Y-82550000D03*
%TD*%
D18*
%TO.C,RT_1*%
X123000000Y-124200000D03*
X123000000Y-126025000D03*
%TD*%
D19*
%TO.C,QMK1*%
X138430000Y-73025000D03*
D20*
X138430000Y-75565000D03*
X138430000Y-78105000D03*
X138430000Y-80645000D03*
X138430000Y-83185000D03*
X138430000Y-85725000D03*
X138430000Y-88265000D03*
X138430000Y-90805000D03*
X138430000Y-93345000D03*
X138430000Y-95885000D03*
X138430000Y-98425000D03*
X138430000Y-100965000D03*
X153670000Y-100965000D03*
X153670000Y-98425000D03*
X153670000Y-95885000D03*
X153670000Y-93345000D03*
X153670000Y-90805000D03*
X153670000Y-88265000D03*
X153670000Y-85725000D03*
X153670000Y-83185000D03*
X153670000Y-80645000D03*
X153670000Y-78105000D03*
X153670000Y-75565000D03*
X153670000Y-73025000D03*
%TD*%
D17*
%TO.C,RM_2*%
X122555000Y-89615000D03*
X122555000Y-91440000D03*
%TD*%
D11*
%TO.C,ESP32*%
X85170500Y-76106000D03*
X85170500Y-78646000D03*
X85170500Y-81186000D03*
X85170500Y-83726000D03*
X85170500Y-86266000D03*
X85170500Y-88806000D03*
D21*
X85170500Y-91346000D03*
X110490000Y-76126000D03*
D11*
X110490000Y-78666000D03*
X110490000Y-81206000D03*
X110490000Y-83746000D03*
X110490000Y-86286000D03*
X110490000Y-88826000D03*
X110490000Y-91366000D03*
%TD*%
D17*
%TO.C,RS_1*%
X122555000Y-76915000D03*
X122555000Y-78740000D03*
%TD*%
D22*
%TO.C,AMS1*%
X94665000Y-114540000D03*
D23*
X100965000Y-116840000D03*
D22*
X94665000Y-116840000D03*
X94665000Y-119140000D03*
%TD*%
D24*
%TO.C,MT6701*%
X125095000Y-129600000D03*
X126365000Y-129600000D03*
X127635000Y-129600000D03*
X128905000Y-129600000D03*
X128905000Y-124400000D03*
X127635000Y-124400000D03*
X126365000Y-124400000D03*
X125095000Y-124400000D03*
%TD*%
D15*
%TO.C,C2*%
X92075000Y-114300000D03*
X92075000Y-116025000D03*
%TD*%
D16*
%TO.C,MHole_2*%
X159400000Y-155200000D03*
%TD*%
%TO.C,MHole_1*%
X159385000Y-70000000D03*
%TD*%
D25*
%TO.C,D1*%
X123600000Y-129800000D03*
X122200000Y-129800000D03*
%TD*%
D26*
%TO.C,J1*%
X112090000Y-150400000D03*
D27*
X110490000Y-152400000D03*
D28*
X107990000Y-152400000D03*
X105490000Y-152400000D03*
%TD*%
M02*
