%TF.GenerationSoftware,KiCad,Pcbnew,(6.0.1)*%
%TF.CreationDate,2023-03-02T15:38:04+08:00*%
%TF.ProjectId,Scroller Motor 1,5363726f-6c6c-4657-9220-4d6f746f7220,rev?*%
%TF.SameCoordinates,Original*%
%TF.FileFunction,Copper,L1,Top*%
%TF.FilePolarity,Positive*%
%FSLAX46Y46*%
G04 Gerber Fmt 4.6, Leading zero omitted, Abs format (unit mm)*
G04 Created by KiCad (PCBNEW (6.0.1)) date 2023-03-02 15:38:04*
%MOMM*%
%LPD*%
G01*
G04 APERTURE LIST*
G04 Aperture macros list*
%AMRoundRect*
0 Rectangle with rounded corners*
0 $1 Rounding radius*
0 $2 $3 $4 $5 $6 $7 $8 $9 X,Y pos of 4 corners*
0 Add a 4 corners polygon primitive as box body*
4,1,4,$2,$3,$4,$5,$6,$7,$8,$9,$2,$3,0*
0 Add four circle primitives for the rounded corners*
1,1,$1+$1,$2,$3*
1,1,$1+$1,$4,$5*
1,1,$1+$1,$6,$7*
1,1,$1+$1,$8,$9*
0 Add four rect primitives between the rounded corners*
20,1,$1+$1,$2,$3,$4,$5,0*
20,1,$1+$1,$4,$5,$6,$7,0*
20,1,$1+$1,$6,$7,$8,$9,0*
20,1,$1+$1,$8,$9,$2,$3,0*%
G04 Aperture macros list end*
%TA.AperFunction,ComponentPad*%
%ADD10RoundRect,0.399500X0.450500X-0.450500X0.450500X0.450500X-0.450500X0.450500X-0.450500X-0.450500X0*%
%TD*%
%TA.AperFunction,ComponentPad*%
%ADD11O,1.700000X1.700000*%
%TD*%
%TA.AperFunction,SMDPad,CuDef*%
%ADD12RoundRect,0.237500X-0.300000X-0.237500X0.300000X-0.237500X0.300000X0.237500X-0.300000X0.237500X0*%
%TD*%
%TA.AperFunction,ComponentPad*%
%ADD13R,1.700000X1.700000*%
%TD*%
%TA.AperFunction,SMDPad,CuDef*%
%ADD14RoundRect,0.237500X0.237500X-0.300000X0.237500X0.300000X-0.237500X0.300000X-0.237500X-0.300000X0*%
%TD*%
%TA.AperFunction,SMDPad,CuDef*%
%ADD15RoundRect,0.237500X-0.237500X0.250000X-0.237500X-0.250000X0.237500X-0.250000X0.237500X0.250000X0*%
%TD*%
%TA.AperFunction,SMDPad,CuDef*%
%ADD16RoundRect,0.237500X0.237500X-0.250000X0.237500X0.250000X-0.237500X0.250000X-0.237500X-0.250000X0*%
%TD*%
%TA.AperFunction,ComponentPad*%
%ADD17R,1.600000X1.600000*%
%TD*%
%TA.AperFunction,ComponentPad*%
%ADD18O,1.600000X1.600000*%
%TD*%
%TA.AperFunction,ComponentPad*%
%ADD19C,1.700000*%
%TD*%
%TA.AperFunction,SMDPad,CuDef*%
%ADD20R,2.000000X1.500000*%
%TD*%
%TA.AperFunction,SMDPad,CuDef*%
%ADD21R,2.000000X3.800000*%
%TD*%
%TA.AperFunction,SMDPad,CuDef*%
%ADD22R,0.600000X2.200000*%
%TD*%
%TA.AperFunction,SMDPad,CuDef*%
%ADD23R,0.600000X0.700000*%
%TD*%
%TA.AperFunction,ComponentPad*%
%ADD24RoundRect,0.250000X0.600000X0.725000X-0.600000X0.725000X-0.600000X-0.725000X0.600000X-0.725000X0*%
%TD*%
%TA.AperFunction,ComponentPad*%
%ADD25O,1.700000X1.950000*%
%TD*%
%TA.AperFunction,ViaPad*%
%ADD26C,1.500000*%
%TD*%
%TA.AperFunction,Conductor*%
%ADD27C,0.500000*%
%TD*%
%TA.AperFunction,Conductor*%
%ADD28C,0.300000*%
%TD*%
%TA.AperFunction,Conductor*%
%ADD29C,1.000000*%
%TD*%
G04 APERTURE END LIST*
D10*
%TO.P,TMC1,1,+VCC_IO*%
%TO.N,+3V3*%
X100622893Y-130547107D03*
D11*
%TO.P,TMC1,2,GND*%
%TO.N,GND*%
X98082893Y-130547107D03*
%TO.P,TMC1,3,UH_in*%
%TO.N,UH_in*%
X95542893Y-130547107D03*
%TO.P,TMC1,4,UL_in*%
%TO.N,UL_in*%
X93002893Y-130547107D03*
%TO.P,TMC1,5,VH_in*%
%TO.N,VH_in*%
X90462893Y-130547107D03*
%TO.P,TMC1,6,VL_in*%
%TO.N,VL_in*%
X87922893Y-130547107D03*
%TO.P,TMC1,7,WH_in*%
%TO.N,WH_in*%
X85382893Y-130547107D03*
%TO.P,TMC1,8,WL_in*%
%TO.N,WL_in*%
X82842893Y-130547107D03*
D10*
%TO.P,TMC1,9,+VBAT*%
%TO.N,+5V*%
X100622893Y-153347107D03*
D11*
%TO.P,TMC1,10,GND*%
%TO.N,GND*%
X98082893Y-153347107D03*
%TO.P,TMC1,11,GND*%
X95542893Y-153347107D03*
%TO.P,TMC1,12,W*%
%TO.N,/W_Out*%
X93002893Y-153347107D03*
%TO.P,TMC1,13,V*%
%TO.N,/V_Out*%
X90462893Y-153347107D03*
%TO.P,TMC1,14,W*%
%TO.N,/U_Out*%
X87922893Y-153347107D03*
%TO.P,TMC1,15,GND*%
%TO.N,GND*%
X85382893Y-153347107D03*
%TO.P,TMC1,16,DIAG*%
%TO.N,unconnected-(TMC1-Pad16)*%
X82842893Y-153347107D03*
%TD*%
D12*
%TO.P,C4,1*%
%TO.N,+3V3*%
X121737500Y-128200000D03*
%TO.P,C4,2*%
%TO.N,GND*%
X123462500Y-128200000D03*
%TD*%
D13*
%TO.P,J2,1,Pin_1*%
%TO.N,SDA*%
X122400000Y-97600000D03*
D11*
%TO.P,J2,2,Pin_2*%
%TO.N,SCL*%
X119860000Y-97600000D03*
%TO.P,J2,3,Pin_3*%
%TO.N,CSn*%
X117320000Y-97600000D03*
%TD*%
D13*
%TO.P,J3,1,Pin_1*%
%TO.N,BTN_NEXT_O*%
X130800000Y-89800000D03*
D11*
%TO.P,J3,2,Pin_2*%
%TO.N,SERIAL_TX*%
X130800000Y-87260000D03*
%TO.P,J3,3,Pin_3*%
%TO.N,SERIAL_RX*%
X130800000Y-84720000D03*
%TD*%
D14*
%TO.P,C3,1*%
%TO.N,GND*%
X131000000Y-129000000D03*
%TO.P,C3,2*%
%TO.N,Net-(C3-Pad2)*%
X131000000Y-127275000D03*
%TD*%
%TO.P,C1,1*%
%TO.N,+5V*%
X92075000Y-119835000D03*
%TO.P,C1,2*%
%TO.N,GND*%
X92075000Y-118110000D03*
%TD*%
D15*
%TO.P,RM_1,1*%
%TO.N,BTN_NEXT_O*%
X122555000Y-86082500D03*
%TO.P,RM_1,2*%
%TO.N,BTN_NXT*%
X122555000Y-87907500D03*
%TD*%
%TO.P,RS_2,1*%
%TO.N,Net-(ESP32-Pad12)*%
X122555000Y-80725000D03*
%TO.P,RS_2,2*%
%TO.N,GND*%
X122555000Y-82550000D03*
%TD*%
D16*
%TO.P,RT_1,2*%
%TO.N,Net-(MT6701-Pad2)*%
X123000000Y-124200000D03*
%TO.P,RT_1,1*%
%TO.N,+3V3*%
X123000000Y-126025000D03*
%TD*%
D17*
%TO.P,QMK1,1,D1/TX*%
%TO.N,SERIAL_RX*%
X138430000Y-73025000D03*
D18*
%TO.P,QMK1,2,D0/RX*%
%TO.N,SERIAL_TX*%
X138430000Y-75565000D03*
%TO.P,QMK1,3,GND*%
%TO.N,GND*%
X138430000Y-78105000D03*
%TO.P,QMK1,4,GND*%
X138430000Y-80645000D03*
%TO.P,QMK1,5,D2*%
%TO.N,unconnected-(QMK1-Pad5)*%
X138430000Y-83185000D03*
%TO.P,QMK1,6,~D3*%
%TO.N,unconnected-(QMK1-Pad6)*%
X138430000Y-85725000D03*
%TO.P,QMK1,7,D4/A6*%
%TO.N,unconnected-(QMK1-Pad7)*%
X138430000Y-88265000D03*
%TO.P,QMK1,8,~D5*%
%TO.N,unconnected-(QMK1-Pad8)*%
X138430000Y-90805000D03*
%TO.P,QMK1,9,~D6/A7*%
%TO.N,unconnected-(QMK1-Pad9)*%
X138430000Y-93345000D03*
%TO.P,QMK1,10,D7*%
%TO.N,unconnected-(QMK1-Pad10)*%
X138430000Y-95885000D03*
%TO.P,QMK1,11,D8/A8*%
%TO.N,BTN_NEXT_O*%
X138430000Y-98425000D03*
%TO.P,QMK1,12,~D9/A9*%
%TO.N,unconnected-(QMK1-Pad12)*%
X138430000Y-100965000D03*
%TO.P,QMK1,13,~D10/A10*%
%TO.N,Col 4*%
X153670000Y-100965000D03*
%TO.P,QMK1,14,D16*%
%TO.N,Col 3*%
X153670000Y-98425000D03*
%TO.P,QMK1,15,D14*%
%TO.N,Col 2*%
X153670000Y-95885000D03*
%TO.P,QMK1,16,D15*%
%TO.N,Col 1*%
X153670000Y-93345000D03*
%TO.P,QMK1,17,D18/A0*%
%TO.N,Row 4*%
X153670000Y-90805000D03*
%TO.P,QMK1,18,D19/A1*%
%TO.N,Row 3*%
X153670000Y-88265000D03*
%TO.P,QMK1,19,D20/A2*%
%TO.N,Row 2*%
X153670000Y-85725000D03*
%TO.P,QMK1,20,D21/A3*%
%TO.N,Row 1*%
X153670000Y-83185000D03*
%TO.P,QMK1,21,VCC*%
%TO.N,+5V*%
X153670000Y-80645000D03*
%TO.P,QMK1,22,RST*%
%TO.N,unconnected-(QMK1-Pad22)*%
X153670000Y-78105000D03*
%TO.P,QMK1,23,GND*%
%TO.N,GND*%
X153670000Y-75565000D03*
%TO.P,QMK1,24,RAW*%
%TO.N,unconnected-(QMK1-Pad24)*%
X153670000Y-73025000D03*
%TD*%
D15*
%TO.P,RM_2,1*%
%TO.N,BTN_NXT*%
X122555000Y-89615000D03*
%TO.P,RM_2,2*%
%TO.N,GND*%
X122555000Y-91440000D03*
%TD*%
D11*
%TO.P,ESP32,1,3V3*%
%TO.N,+3V3*%
X85170500Y-76106000D03*
%TO.P,ESP32,2,UH*%
%TO.N,UH_in*%
X85170500Y-78646000D03*
%TO.P,ESP32,3,UL*%
%TO.N,UL_in*%
X85170500Y-81186000D03*
%TO.P,ESP32,4,VH*%
%TO.N,VH_in*%
X85170500Y-83726000D03*
%TO.P,ESP32,5,VL*%
%TO.N,VL_in*%
X85170500Y-86266000D03*
%TO.P,ESP32,6,WH*%
%TO.N,WH_in*%
X85170500Y-88806000D03*
D19*
%TO.P,ESP32,7,WL*%
%TO.N,WL_in*%
X85170500Y-91346000D03*
%TO.P,ESP32,8,GND*%
%TO.N,GND*%
X110490000Y-76126000D03*
D11*
%TO.P,ESP32,9,SDA*%
%TO.N,SDA*%
X110490000Y-78666000D03*
%TO.P,ESP32,10,SCL*%
%TO.N,SCL*%
X110490000Y-81206000D03*
%TO.P,ESP32,11,CSN*%
%TO.N,CSn*%
X110490000Y-83746000D03*
%TO.P,ESP32,12,S_RX*%
%TO.N,Net-(ESP32-Pad12)*%
X110490000Y-86286000D03*
%TO.P,ESP32,13,S_TX*%
%TO.N,SERIAL_TX*%
X110490000Y-88826000D03*
%TO.P,ESP32,14,B_NXT*%
%TO.N,BTN_NXT*%
X110490000Y-91366000D03*
%TD*%
D15*
%TO.P,RS_1,1*%
%TO.N,SERIAL_RX*%
X122555000Y-76915000D03*
%TO.P,RS_1,2*%
%TO.N,Net-(ESP32-Pad12)*%
X122555000Y-78740000D03*
%TD*%
D20*
%TO.P,AMS1,1,GND*%
%TO.N,GND*%
X94665000Y-114540000D03*
D21*
%TO.P,AMS1,2,VO*%
%TO.N,+3V3*%
X100965000Y-116840000D03*
D20*
X94665000Y-116840000D03*
%TO.P,AMS1,3,VI*%
%TO.N,+5V*%
X94665000Y-119140000D03*
%TD*%
D22*
%TO.P,MT6701,1,VDD*%
%TO.N,+3V3*%
X125095000Y-129600000D03*
%TO.P,MT6701,2,MODE*%
%TO.N,Net-(MT6701-Pad2)*%
X126365000Y-129600000D03*
%TO.P,MT6701,3,OUT*%
%TO.N,Net-(C3-Pad2)*%
X127635000Y-129600000D03*
%TO.P,MT6701,4,GND*%
%TO.N,GND*%
X128905000Y-129600000D03*
%TO.P,MT6701,5,PUSH*%
%TO.N,unconnected-(MT6701-Pad5)*%
X128905000Y-124400000D03*
%TO.P,MT6701,6,A/SDA*%
%TO.N,SDA*%
X127635000Y-124400000D03*
%TO.P,MT6701,7,B/SCL*%
%TO.N,SCL*%
X126365000Y-124400000D03*
%TO.P,MT6701,8,Z/CSn*%
%TO.N,CSn*%
X125095000Y-124400000D03*
%TD*%
D14*
%TO.P,C2,2*%
%TO.N,GND*%
X92075000Y-114300000D03*
%TO.P,C2,1*%
%TO.N,+3V3*%
X92075000Y-116025000D03*
%TD*%
D23*
%TO.P,D1,2,A*%
%TO.N,GND*%
X123600000Y-129800000D03*
%TO.P,D1,1,K*%
%TO.N,+3V3*%
X122200000Y-129800000D03*
%TD*%
D24*
%TO.P,J1,1,Pin_1*%
%TO.N,/U_Out*%
X110490000Y-152400000D03*
D25*
%TO.P,J1,2,Pin_2*%
%TO.N,/V_Out*%
X107990000Y-152400000D03*
%TO.P,J1,3,Pin_3*%
%TO.N,/W_Out*%
X105490000Y-152400000D03*
%TD*%
D26*
%TO.N,SERIAL_TX*%
X118400000Y-86800000D03*
%TO.N,BTN_NXT*%
X118200000Y-89400000D03*
%TO.N,GND*%
X120000000Y-91400000D03*
X120015000Y-83185000D03*
%TO.N,Net-(ESP32-Pad12)*%
X118745000Y-80645000D03*
%TO.N,+5V*%
X104775000Y-129540000D03*
X104775000Y-133350000D03*
%TO.N,GND*%
X123190000Y-135255000D03*
X89535000Y-118110000D03*
X89535000Y-114300000D03*
%TD*%
D27*
%TO.N,+3V3*%
X121737500Y-129337500D02*
X122200000Y-129800000D01*
X121737500Y-127287500D02*
X121737500Y-129337500D01*
X123000000Y-126025000D02*
X121737500Y-127287500D01*
D28*
%TO.N,SDA*%
X123825000Y-109220000D02*
X123825000Y-98825000D01*
D27*
%TO.N,+3V3*%
X123425000Y-126025000D02*
X125095000Y-127695000D01*
X123000000Y-126025000D02*
X123425000Y-126025000D01*
D28*
%TO.N,Net-(MT6701-Pad2)*%
X126365000Y-127565000D02*
X123000000Y-124200000D01*
X126365000Y-129600000D02*
X126365000Y-127565000D01*
D27*
%TO.N,+3V3*%
X125095000Y-129600000D02*
X125095000Y-127695000D01*
%TO.N,GND*%
X123600000Y-128400000D02*
X123600000Y-129800000D01*
X123400000Y-128200000D02*
X123600000Y-128400000D01*
X123600000Y-131855000D02*
X123825000Y-132080000D01*
X123600000Y-129800000D02*
X123600000Y-131855000D01*
%TO.N,+3V3*%
X122200000Y-130800000D02*
X122200000Y-129800000D01*
X121555000Y-131445000D02*
X122200000Y-130800000D01*
X104775000Y-131445000D02*
X121555000Y-131445000D01*
D28*
%TO.N,Net-(C3-Pad2)*%
X128525000Y-127275000D02*
X131000000Y-127275000D01*
X127635000Y-128165000D02*
X128525000Y-127275000D01*
X127635000Y-129600000D02*
X127635000Y-128165000D01*
D27*
%TO.N,GND*%
X130400000Y-129600000D02*
X131000000Y-129000000D01*
X128905000Y-129600000D02*
X130400000Y-129600000D01*
%TO.N,+3V3*%
X91400000Y-77800000D02*
X89526000Y-75926000D01*
X91400000Y-91400000D02*
X91400000Y-77800000D01*
X97000000Y-97000000D02*
X91400000Y-91400000D01*
X97000000Y-116480000D02*
X97000000Y-97000000D01*
X89526000Y-75926000D02*
X85170500Y-75926000D01*
X97360000Y-116840000D02*
X97000000Y-116480000D01*
X97360000Y-116840000D02*
X101600000Y-116840000D01*
X92760000Y-116840000D02*
X97360000Y-116840000D01*
D28*
%TO.N,CSn*%
X103759000Y-83566000D02*
X110490000Y-83566000D01*
X100965000Y-94615000D02*
X100965000Y-86360000D01*
X100965000Y-86360000D02*
X103759000Y-83566000D01*
X104140000Y-97790000D02*
X100965000Y-94615000D01*
X117390000Y-97790000D02*
X104140000Y-97790000D01*
X121285000Y-101685000D02*
X117390000Y-97790000D01*
X121285000Y-119985000D02*
X121285000Y-101685000D01*
X125095000Y-123795000D02*
X121285000Y-119985000D01*
X125095000Y-124400000D02*
X125095000Y-123795000D01*
%TO.N,SDA*%
X116840000Y-83820000D02*
X111506000Y-78486000D01*
X116840000Y-91840000D02*
X116840000Y-83820000D01*
X111506000Y-78486000D02*
X110490000Y-78486000D01*
X123825000Y-98825000D02*
X116840000Y-91840000D01*
%TO.N,SERIAL_TX*%
X121285000Y-84455000D02*
X126655000Y-84455000D01*
X126655000Y-84455000D02*
X129460000Y-87260000D01*
X118940000Y-86800000D02*
X121285000Y-84455000D01*
X129460000Y-87260000D02*
X130800000Y-87260000D01*
X118400000Y-86800000D02*
X118940000Y-86800000D01*
%TO.N,BTN_NXT*%
X118415000Y-89615000D02*
X122555000Y-89615000D01*
X118200000Y-89400000D02*
X118415000Y-89615000D01*
%TO.N,GND*%
X120000000Y-91400000D02*
X120040000Y-91440000D01*
X120040000Y-91440000D02*
X122555000Y-91440000D01*
%TO.N,SERIAL_RX*%
X136575000Y-73025000D02*
X138430000Y-73025000D01*
X132600000Y-77000000D02*
X136575000Y-73025000D01*
X132600000Y-81400000D02*
X132600000Y-77000000D01*
X130800000Y-83200000D02*
X132600000Y-81400000D01*
X124515000Y-76915000D02*
X130800000Y-83200000D01*
X130800000Y-83200000D02*
X130800000Y-84720000D01*
X122555000Y-76915000D02*
X124515000Y-76915000D01*
%TO.N,SERIAL_TX*%
X135000000Y-83060000D02*
X135000000Y-78995000D01*
X135000000Y-78995000D02*
X138430000Y-75565000D01*
X130800000Y-87260000D02*
X135000000Y-83060000D01*
%TO.N,BTN_NEXT_O*%
X128535000Y-89800000D02*
X124817500Y-86082500D01*
X130800000Y-89800000D02*
X128535000Y-89800000D01*
X130800000Y-93000000D02*
X136225000Y-98425000D01*
X136225000Y-98425000D02*
X138430000Y-98425000D01*
X130800000Y-89800000D02*
X130800000Y-93000000D01*
D29*
%TO.N,+5V*%
X137795000Y-155575000D02*
X148590000Y-144780000D01*
X148590000Y-144780000D02*
X148590000Y-83820000D01*
X116840000Y-155575000D02*
X137795000Y-155575000D01*
X148590000Y-83820000D02*
X151765000Y-80645000D01*
X151765000Y-80645000D02*
X153670000Y-80645000D01*
D28*
%TO.N,GND*%
X120650000Y-82550000D02*
X120015000Y-83185000D01*
X122555000Y-82550000D02*
X120650000Y-82550000D01*
%TO.N,BTN_NEXT_O*%
X122555000Y-86082500D02*
X124817500Y-86082500D01*
%TO.N,Net-(ESP32-Pad12)*%
X118745000Y-80645000D02*
X122475000Y-80645000D01*
X122475000Y-80645000D02*
X122555000Y-80725000D01*
X122555000Y-78740000D02*
X122555000Y-80725000D01*
%TO.N,BTN_NXT*%
X122555000Y-87907500D02*
X122555000Y-89615000D01*
D29*
%TO.N,+5V*%
X116840000Y-143510000D02*
X116840000Y-155575000D01*
X106680000Y-133350000D02*
X116840000Y-143510000D01*
X104775000Y-133350000D02*
X106680000Y-133350000D01*
X104775000Y-129250000D02*
X94665000Y-119140000D01*
X104775000Y-129540000D02*
X104775000Y-129250000D01*
D27*
%TO.N,+3V3*%
X106680000Y-131445000D02*
X104775000Y-131445000D01*
X101600000Y-116840000D02*
X106680000Y-121920000D01*
X106680000Y-121920000D02*
X106680000Y-131445000D01*
D29*
%TO.N,+5V*%
X102850786Y-155575000D02*
X116840000Y-155575000D01*
X100622893Y-153347107D02*
X102850786Y-155575000D01*
%TO.N,/W_Out*%
X104775000Y-152400000D02*
X105490000Y-152400000D01*
X103505000Y-151130000D02*
X104775000Y-152400000D01*
X95220000Y-151130000D02*
X103505000Y-151130000D01*
X93002893Y-153347107D02*
X95220000Y-151130000D01*
%TO.N,/V_Out*%
X104815000Y-149225000D02*
X107990000Y-152400000D01*
X90462893Y-153347107D02*
X94585000Y-149225000D01*
X94585000Y-149225000D02*
X104815000Y-149225000D01*
%TO.N,/U_Out*%
X110490000Y-151765000D02*
X110490000Y-152400000D01*
X106045000Y-147320000D02*
X110490000Y-151765000D01*
X93950000Y-147320000D02*
X106045000Y-147320000D01*
X87922893Y-153347107D02*
X93950000Y-147320000D01*
D27*
%TO.N,UH_in*%
X79014000Y-78466000D02*
X85170500Y-78466000D01*
X78105000Y-79375000D02*
X79014000Y-78466000D01*
X78105000Y-125305548D02*
X78105000Y-79375000D01*
X76835000Y-126575548D02*
X78105000Y-125305548D01*
X76835000Y-133985000D02*
X76835000Y-126575548D01*
X89535000Y-137795000D02*
X80645000Y-137795000D01*
X95542893Y-130547107D02*
X95542893Y-131787107D01*
X80645000Y-137795000D02*
X76835000Y-133985000D01*
X95542893Y-131787107D02*
X89535000Y-137795000D01*
%TO.N,UL_in*%
X81006000Y-81006000D02*
X85170500Y-81006000D01*
X81280000Y-135890000D02*
X78740000Y-133350000D01*
X78740000Y-127775365D02*
X80010000Y-126505365D01*
X80010000Y-126505365D02*
X80010000Y-82002000D01*
X88900000Y-135890000D02*
X81280000Y-135890000D01*
X78740000Y-133350000D02*
X78740000Y-127775365D01*
X80010000Y-82002000D02*
X81006000Y-81006000D01*
X93002893Y-131787107D02*
X88900000Y-135890000D01*
X93002893Y-130547107D02*
X93002893Y-131787107D01*
%TO.N,VH_in*%
X82824000Y-83546000D02*
X85170500Y-83546000D01*
X81915000Y-84455000D02*
X82824000Y-83546000D01*
X81915000Y-127635000D02*
X81915000Y-84455000D01*
X80645000Y-128905000D02*
X81915000Y-127635000D01*
X80645000Y-132080000D02*
X80645000Y-128905000D01*
X82550000Y-133985000D02*
X80645000Y-132080000D01*
X88265000Y-133985000D02*
X82550000Y-133985000D01*
X90462893Y-131787107D02*
X88265000Y-133985000D01*
X90462893Y-130547107D02*
X90462893Y-131787107D01*
%TO.N,WL_in*%
X83820000Y-92516500D02*
X85170500Y-91166000D01*
X82842893Y-130547107D02*
X83820000Y-129570000D01*
X83820000Y-129570000D02*
X83820000Y-92516500D01*
%TO.N,WH_in*%
X87630000Y-89535000D02*
X86721000Y-88626000D01*
X87630000Y-92710000D02*
X87630000Y-89535000D01*
X85725000Y-94615000D02*
X87630000Y-92710000D01*
X86721000Y-88626000D02*
X85170500Y-88626000D01*
X85725000Y-130205000D02*
X85725000Y-94615000D01*
X85382893Y-130547107D02*
X85725000Y-130205000D01*
%TO.N,VL_in*%
X89535000Y-88265000D02*
X87356000Y-86086000D01*
X89535000Y-95250000D02*
X89535000Y-88265000D01*
X87630000Y-97155000D02*
X89535000Y-95250000D01*
X87356000Y-86086000D02*
X85170500Y-86086000D01*
X87922893Y-130547107D02*
X87630000Y-130254214D01*
X87630000Y-130254214D02*
X87630000Y-97155000D01*
%TO.N,+5V*%
X92075000Y-119835000D02*
X93970000Y-119835000D01*
X93970000Y-119835000D02*
X94665000Y-119140000D01*
%TO.N,+3V3*%
X92075000Y-116155000D02*
X92760000Y-116840000D01*
X92075000Y-116025000D02*
X92075000Y-116155000D01*
D29*
%TO.N,GND*%
X94425000Y-114300000D02*
X94483588Y-114358588D01*
X92075000Y-114300000D02*
X94425000Y-114300000D01*
D27*
X123825000Y-134620000D02*
X123190000Y-135255000D01*
X123825000Y-132080000D02*
X123825000Y-134620000D01*
X123825000Y-132080000D02*
X128270000Y-132080000D01*
D29*
X92075000Y-118110000D02*
X89535000Y-118110000D01*
X89535000Y-114300000D02*
X92075000Y-114300000D01*
D27*
%TO.N,+3V3*%
X104775000Y-131445000D02*
X101520786Y-131445000D01*
X101520786Y-131445000D02*
X100622893Y-130547107D01*
%TO.N,GND*%
X128270000Y-132080000D02*
X128905000Y-131445000D01*
X128905000Y-131445000D02*
X128905000Y-129600000D01*
D28*
%TO.N,SCL*%
X122555000Y-106680000D02*
X122555000Y-100330000D01*
%TO.N,SDA*%
X123825000Y-119790000D02*
X123825000Y-109220000D01*
X127635000Y-123600000D02*
X123825000Y-119790000D01*
X127635000Y-124400000D02*
X127635000Y-123600000D01*
%TO.N,SCL*%
X114300000Y-84836000D02*
X110490000Y-81026000D01*
X122555000Y-100330000D02*
X114300000Y-92075000D01*
X122555000Y-119790000D02*
X122555000Y-106680000D01*
X126365000Y-123600000D02*
X122555000Y-119790000D01*
X114300000Y-92075000D02*
X114300000Y-84836000D01*
X126365000Y-124400000D02*
X126365000Y-123600000D01*
%TD*%
M02*
