<?xml version="1.0" standalone="no"?>
 <!DOCTYPE svg PUBLIC "-//W3C//DTD SVG 1.1//EN" 
 "http://www.w3.org/Graphics/SVG/1.1/DTD/svg11.dtd"> 
<svg
  xmlns:svg="http://www.w3.org/2000/svg"
  xmlns="http://www.w3.org/2000/svg"
  xmlns:xlink="http://www.w3.org/1999/xlink"
  version="1.1"
  width="15.491460cm" height="9.481820cm" viewBox="0 0 154914600 94818200">
<title>SVG Picture created as Scroller1-F_Paste.svg date 2022/11/25 19:18:33 </title>
  <desc>Picture generated by PCBNEW </desc>
<g style="fill:#000000; fill-opacity:1.000000;stroke:#000000; stroke-opacity:1.000000;
stroke-linecap:round; stroke-linejoin:round;"
 transform="translate(0 0) scale(1 1)">
</g>
<g style="fill:#000000; fill-opacity:0.0; 
stroke:#000000; stroke-width:0.000000; stroke-opacity:1; 
stroke-linecap:round; stroke-linejoin:round;">
<g >
</g>
<g style="fill:#000000; fill-opacity:0.0; 
stroke:#000000; stroke-width:1.000000; stroke-opacity:1; 
stroke-linecap:round; stroke-linejoin:round;">
</g>
<g style="fill:#000000; fill-opacity:1.0; 
stroke:#000000; stroke-width:1.000000; stroke-opacity:1; 
stroke-linecap:round; stroke-linejoin:round;">
<path style="fill:#000000; fill-opacity:1.0; 
stroke:#000000; stroke-width:1.000000; stroke-opacity:1; 
stroke-linecap:round; stroke-linejoin:round;fill-rule:evenodd;"
d="M 55372399.000000,37779001.000000
55372399.000000,38978999.000000
54472401.000000,38978999.000000
54472401.000000,37779001.000000
Z" /> 
<path style="fill:#000000; fill-opacity:1.0; 
stroke:#000000; stroke-width:1.000000; stroke-opacity:1; 
stroke-linecap:round; stroke-linejoin:round;fill-rule:evenodd;"
d="M 52072399.000000,37779001.000000
52072399.000000,38978999.000000
51172401.000000,38978999.000000
51172401.000000,37779001.000000
Z" /> 
</g>
<g >
</g>
<g style="fill:#000000; fill-opacity:1.0; 
stroke:#000000; stroke-width:1.000000; stroke-opacity:1; 
stroke-linecap:round; stroke-linejoin:round;">
<path style="fill:#000000; fill-opacity:1.0; 
stroke:#000000; stroke-width:1.000000; stroke-opacity:1; 
stroke-linecap:round; stroke-linejoin:round;fill-rule:evenodd;"
d="M 118186975.000000,25324500.000000
118096088.000000,25306421.000000
118019037.000000,25254938.000000
117967554.000000,25177887.000000
117949475.000000,25087000.000000
117949475.000000,24587000.000000
117967554.000000,24496113.000000
118019037.000000,24419062.000000
118096088.000000,24367579.000000
118186975.000000,24349500.000000
118661975.000000,24349500.000000
118752862.000000,24367579.000000
118829913.000000,24419062.000000
118881396.000000,24496113.000000
118899475.000000,24587000.000000
118899475.000000,25087000.000000
118881396.000000,25177887.000000
118829913.000000,25254938.000000
118752862.000000,25306421.000000
118661975.000000,25324500.000000
Z" /> 
<path style="fill:#000000; fill-opacity:1.0; 
stroke:#000000; stroke-width:1.000000; stroke-opacity:1; 
stroke-linecap:round; stroke-linejoin:round;fill-rule:evenodd;"
d="M 118186975.000000,23499500.000000
118096088.000000,23481421.000000
118019037.000000,23429938.000000
117967554.000000,23352887.000000
117949475.000000,23262000.000000
117949475.000000,22762000.000000
117967554.000000,22671113.000000
118019037.000000,22594062.000000
118096088.000000,22542579.000000
118186975.000000,22524500.000000
118661975.000000,22524500.000000
118752862.000000,22542579.000000
118829913.000000,22594062.000000
118881396.000000,22671113.000000
118899475.000000,22762000.000000
118899475.000000,23262000.000000
118881396.000000,23352887.000000
118829913.000000,23429938.000000
118752862.000000,23481421.000000
118661975.000000,23499500.000000
Z" /> 
</g>
<g >
</g>
<g >
</g>
<g style="fill:#000000; fill-opacity:1.0; 
stroke:#000000; stroke-width:1.000000; stroke-opacity:1; 
stroke-linecap:round; stroke-linejoin:round;">
<path style="fill:#000000; fill-opacity:1.0; 
stroke:#000000; stroke-width:1.000000; stroke-opacity:1; 
stroke-linecap:round; stroke-linejoin:round;fill-rule:evenodd;"
d="M 113530900.000000,71809500.000000
113440013.000000,71791421.000000
113362962.000000,71739938.000000
113311479.000000,71662887.000000
113293400.000000,71572000.000000
113293400.000000,70972000.000000
113311479.000000,70881113.000000
113362962.000000,70804062.000000
113440013.000000,70752579.000000
113530900.000000,70734500.000000
114005900.000000,70734500.000000
114096787.000000,70752579.000000
114173838.000000,70804062.000000
114225321.000000,70881113.000000
114243400.000000,70972000.000000
114243400.000000,71572000.000000
114225321.000000,71662887.000000
114173838.000000,71739938.000000
114096787.000000,71791421.000000
114005900.000000,71809500.000000
Z" /> 
<path style="fill:#000000; fill-opacity:1.0; 
stroke:#000000; stroke-width:1.000000; stroke-opacity:1; 
stroke-linecap:round; stroke-linejoin:round;fill-rule:evenodd;"
d="M 113530900.000000,70084500.000000
113440013.000000,70066421.000000
113362962.000000,70014938.000000
113311479.000000,69937887.000000
113293400.000000,69847000.000000
113293400.000000,69247000.000000
113311479.000000,69156113.000000
113362962.000000,69079062.000000
113440013.000000,69027579.000000
113530900.000000,69009500.000000
114005900.000000,69009500.000000
114096787.000000,69027579.000000
114173838.000000,69079062.000000
114225321.000000,69156113.000000
114243400.000000,69247000.000000
114243400.000000,69847000.000000
114225321.000000,69937887.000000
114173838.000000,70014938.000000
114096787.000000,70066421.000000
114005900.000000,70084500.000000
Z" /> 
</g>
<g >
</g>
<g style="fill:#000000; fill-opacity:1.0; 
stroke:#000000; stroke-width:1.000000; stroke-opacity:1; 
stroke-linecap:round; stroke-linejoin:round;">
<path style="fill:#000000; fill-opacity:1.0; 
stroke:#000000; stroke-width:1.000000; stroke-opacity:1; 
stroke-linecap:round; stroke-linejoin:round;fill-rule:evenodd;"
d="M 74674399.000000,56829001.000000
74674399.000000,58028999.000000
73774401.000000,58028999.000000
73774401.000000,56829001.000000
Z" /> 
<path style="fill:#000000; fill-opacity:1.0; 
stroke:#000000; stroke-width:1.000000; stroke-opacity:1; 
stroke-linecap:round; stroke-linejoin:round;fill-rule:evenodd;"
d="M 71374399.000000,56829001.000000
71374399.000000,58028999.000000
70474401.000000,58028999.000000
70474401.000000,56829001.000000
Z" /> 
</g>
<g >
</g>
<g style="fill:#000000; fill-opacity:1.0; 
stroke:#000000; stroke-width:1.000000; stroke-opacity:1; 
stroke-linecap:round; stroke-linejoin:round;">
<path style="fill:#000000; fill-opacity:1.0; 
stroke:#000000; stroke-width:1.000000; stroke-opacity:1; 
stroke-linecap:round; stroke-linejoin:round;fill-rule:evenodd;"
d="M 130515900.000000,40304500.000000
130606787.000000,40322579.000000
130683838.000000,40374062.000000
130735321.000000,40451113.000000
130753400.000000,40542000.000000
130753400.000000,41042000.000000
130735321.000000,41132887.000000
130683838.000000,41209938.000000
130606787.000000,41261421.000000
130515900.000000,41279500.000000
130040900.000000,41279500.000000
129950013.000000,41261421.000000
129872962.000000,41209938.000000
129821479.000000,41132887.000000
129803400.000000,41042000.000000
129803400.000000,40542000.000000
129821479.000000,40451113.000000
129872962.000000,40374062.000000
129950013.000000,40322579.000000
130040900.000000,40304500.000000
Z" /> 
<path style="fill:#000000; fill-opacity:1.0; 
stroke:#000000; stroke-width:1.000000; stroke-opacity:1; 
stroke-linecap:round; stroke-linejoin:round;fill-rule:evenodd;"
d="M 130515900.000000,42129500.000000
130606787.000000,42147579.000000
130683838.000000,42199062.000000
130735321.000000,42276113.000000
130753400.000000,42367000.000000
130753400.000000,42867000.000000
130735321.000000,42957887.000000
130683838.000000,43034938.000000
130606787.000000,43086421.000000
130515900.000000,43104500.000000
130040900.000000,43104500.000000
129950013.000000,43086421.000000
129872962.000000,43034938.000000
129821479.000000,42957887.000000
129803400.000000,42867000.000000
129803400.000000,42367000.000000
129821479.000000,42276113.000000
129872962.000000,42199062.000000
129950013.000000,42147579.000000
130040900.000000,42129500.000000
Z" /> 
</g>
<g >
</g>
<g style="fill:#000000; fill-opacity:1.0; 
stroke:#000000; stroke-width:1.000000; stroke-opacity:1; 
stroke-linecap:round; stroke-linejoin:round;">
<path style="fill:#000000; fill-opacity:1.0; 
stroke:#000000; stroke-width:1.000000; stroke-opacity:1; 
stroke-linecap:round; stroke-linejoin:round;fill-rule:evenodd;"
d="M 54313799.000000,18475001.000000
54313799.000000,19674999.000000
53413801.000000,19674999.000000
53413801.000000,18475001.000000
Z" /> 
<path style="fill:#000000; fill-opacity:1.0; 
stroke:#000000; stroke-width:1.000000; stroke-opacity:1; 
stroke-linecap:round; stroke-linejoin:round;fill-rule:evenodd;"
d="M 51013799.000000,18475001.000000
51013799.000000,19674999.000000
50113801.000000,19674999.000000
50113801.000000,18475001.000000
Z" /> 
</g>
<g >
</g>
<g >
</g>
<g style="fill:#000000; fill-opacity:1.0; 
stroke:#000000; stroke-width:1.000000; stroke-opacity:1; 
stroke-linecap:round; stroke-linejoin:round;">
<path style="fill:#000000; fill-opacity:1.0; 
stroke:#000000; stroke-width:1.000000; stroke-opacity:1; 
stroke-linecap:round; stroke-linejoin:round;fill-rule:evenodd;"
d="M 114178400.000000,42493250.000000
114162510.000000,42573135.000000
114117259.000000,42640859.000000
114049535.000000,42686110.000000
113969650.000000,42702000.000000
113552150.000000,42702000.000000
113472265.000000,42686110.000000
113404541.000000,42640859.000000
113359290.000000,42573135.000000
113343400.000000,42493250.000000
113343400.000000,41630750.000000
113359290.000000,41550865.000000
113404541.000000,41483141.000000
113472265.000000,41437890.000000
113552150.000000,41422000.000000
113969650.000000,41422000.000000
114049535.000000,41437890.000000
114117259.000000,41483141.000000
114162510.000000,41550865.000000
114178400.000000,41630750.000000
Z" /> 
<path style="fill:#000000; fill-opacity:1.0; 
stroke:#000000; stroke-width:1.000000; stroke-opacity:1; 
stroke-linecap:round; stroke-linejoin:round;fill-rule:evenodd;"
d="M 112923400.000000,42493250.000000
112907510.000000,42573135.000000
112862259.000000,42640859.000000
112794535.000000,42686110.000000
112714650.000000,42702000.000000
112297150.000000,42702000.000000
112217265.000000,42686110.000000
112149541.000000,42640859.000000
112104290.000000,42573135.000000
112088400.000000,42493250.000000
112088400.000000,41630750.000000
112104290.000000,41550865.000000
112149541.000000,41483141.000000
112217265.000000,41437890.000000
112297150.000000,41422000.000000
112714650.000000,41422000.000000
112794535.000000,41437890.000000
112862259.000000,41483141.000000
112907510.000000,41550865.000000
112923400.000000,41630750.000000
Z" /> 
</g>
<g >
</g>
<g style="fill:#000000; fill-opacity:1.0; 
stroke:#000000; stroke-width:1.000000; stroke-opacity:1; 
stroke-linecap:round; stroke-linejoin:round;">
<path style="fill:#000000; fill-opacity:1.0; 
stroke:#000000; stroke-width:1.000000; stroke-opacity:1; 
stroke-linecap:round; stroke-linejoin:round;fill-rule:evenodd;"
d="M 74676399.000000,37779001.000000
74676399.000000,38978999.000000
73776401.000000,38978999.000000
73776401.000000,37779001.000000
Z" /> 
<path style="fill:#000000; fill-opacity:1.0; 
stroke:#000000; stroke-width:1.000000; stroke-opacity:1; 
stroke-linecap:round; stroke-linejoin:round;fill-rule:evenodd;"
d="M 71376399.000000,37779001.000000
71376399.000000,38978999.000000
70476401.000000,38978999.000000
70476401.000000,37779001.000000
Z" /> 
</g>
<g >
</g>
<g >
</g>
<g >
</g>
<g >
</g>
<g style="fill:#000000; fill-opacity:1.0; 
stroke:#000000; stroke-width:1.000000; stroke-opacity:1; 
stroke-linecap:round; stroke-linejoin:round;">
<path style="fill:#000000; fill-opacity:1.0; 
stroke:#000000; stroke-width:1.000000; stroke-opacity:1; 
stroke-linecap:round; stroke-linejoin:round;fill-rule:evenodd;"
d="M 117278436.000000,67350459.000000
117278436.000000,65150461.000000
117878434.000000,65150461.000000
117878434.000000,67350459.000000
Z" /> 
<path style="fill:#000000; fill-opacity:1.0; 
stroke:#000000; stroke-width:1.000000; stroke-opacity:1; 
stroke-linecap:round; stroke-linejoin:round;fill-rule:evenodd;"
d="M 118548436.000000,67350459.000000
118548436.000000,65150461.000000
119148434.000000,65150461.000000
119148434.000000,67350459.000000
Z" /> 
<path style="fill:#000000; fill-opacity:1.0; 
stroke:#000000; stroke-width:1.000000; stroke-opacity:1; 
stroke-linecap:round; stroke-linejoin:round;fill-rule:evenodd;"
d="M 119818436.000000,67350459.000000
119818436.000000,65150461.000000
120418434.000000,65150461.000000
120418434.000000,67350459.000000
Z" /> 
<path style="fill:#000000; fill-opacity:1.0; 
stroke:#000000; stroke-width:1.000000; stroke-opacity:1; 
stroke-linecap:round; stroke-linejoin:round;fill-rule:evenodd;"
d="M 121088436.000000,67350459.000000
121088436.000000,65150461.000000
121688434.000000,65150461.000000
121688434.000000,67350459.000000
Z" /> 
<path style="fill:#000000; fill-opacity:1.0; 
stroke:#000000; stroke-width:1.000000; stroke-opacity:1; 
stroke-linecap:round; stroke-linejoin:round;fill-rule:evenodd;"
d="M 121088436.000000,62150459.000000
121088436.000000,59950461.000000
121688434.000000,59950461.000000
121688434.000000,62150459.000000
Z" /> 
<path style="fill:#000000; fill-opacity:1.0; 
stroke:#000000; stroke-width:1.000000; stroke-opacity:1; 
stroke-linecap:round; stroke-linejoin:round;fill-rule:evenodd;"
d="M 119818436.000000,62150459.000000
119818436.000000,59950461.000000
120418434.000000,59950461.000000
120418434.000000,62150459.000000
Z" /> 
<path style="fill:#000000; fill-opacity:1.0; 
stroke:#000000; stroke-width:1.000000; stroke-opacity:1; 
stroke-linecap:round; stroke-linejoin:round;fill-rule:evenodd;"
d="M 118548436.000000,62150459.000000
118548436.000000,59950461.000000
119148434.000000,59950461.000000
119148434.000000,62150459.000000
Z" /> 
<path style="fill:#000000; fill-opacity:1.0; 
stroke:#000000; stroke-width:1.000000; stroke-opacity:1; 
stroke-linecap:round; stroke-linejoin:round;fill-rule:evenodd;"
d="M 117278436.000000,62150459.000000
117278436.000000,59950461.000000
117878434.000000,59950461.000000
117878434.000000,62150459.000000
Z" /> 
</g>
<g >
</g>
<g >
</g>
<g style="fill:#000000; fill-opacity:1.0; 
stroke:#000000; stroke-width:1.000000; stroke-opacity:1; 
stroke-linecap:round; stroke-linejoin:round;">
<path style="fill:#000000; fill-opacity:1.0; 
stroke:#000000; stroke-width:1.000000; stroke-opacity:1; 
stroke-linecap:round; stroke-linejoin:round;fill-rule:evenodd;"
d="M 36194399.000000,37779001.000000
36194399.000000,38978999.000000
35294401.000000,38978999.000000
35294401.000000,37779001.000000
Z" /> 
<path style="fill:#000000; fill-opacity:1.0; 
stroke:#000000; stroke-width:1.000000; stroke-opacity:1; 
stroke-linecap:round; stroke-linejoin:round;fill-rule:evenodd;"
d="M 32894399.000000,37779001.000000
32894399.000000,38978999.000000
31994401.000000,38978999.000000
31994401.000000,37779001.000000
Z" /> 
</g>
<g >
</g>
<g style="fill:#000000; fill-opacity:1.0; 
stroke:#000000; stroke-width:1.000000; stroke-opacity:1; 
stroke-linecap:round; stroke-linejoin:round;">
<path style="fill:#000000; fill-opacity:1.0; 
stroke:#000000; stroke-width:1.000000; stroke-opacity:1; 
stroke-linecap:round; stroke-linejoin:round;fill-rule:evenodd;"
d="M 17270399.000000,56829001.000000
17270399.000000,58028999.000000
16370401.000000,58028999.000000
16370401.000000,56829001.000000
Z" /> 
<path style="fill:#000000; fill-opacity:1.0; 
stroke:#000000; stroke-width:1.000000; stroke-opacity:1; 
stroke-linecap:round; stroke-linejoin:round;fill-rule:evenodd;"
d="M 13970399.000000,56829001.000000
13970399.000000,58028999.000000
13070401.000000,58028999.000000
13070401.000000,56829001.000000
Z" /> 
</g>
<g >
</g>
<g >
</g>
<g >
</g>
<g >
</g>
<g style="fill:#000000; fill-opacity:1.0; 
stroke:#000000; stroke-width:1.000000; stroke-opacity:1; 
stroke-linecap:round; stroke-linejoin:round;">
<path style="fill:#000000; fill-opacity:1.0; 
stroke:#000000; stroke-width:1.000000; stroke-opacity:1; 
stroke-linecap:round; stroke-linejoin:round;fill-rule:evenodd;"
d="M 126705900.000000,40384500.000000
126796787.000000,40402579.000000
126873838.000000,40454062.000000
126925321.000000,40531113.000000
126943400.000000,40622000.000000
126943400.000000,41122000.000000
126925321.000000,41212887.000000
126873838.000000,41289938.000000
126796787.000000,41341421.000000
126705900.000000,41359500.000000
126230900.000000,41359500.000000
126140013.000000,41341421.000000
126062962.000000,41289938.000000
126011479.000000,41212887.000000
125993400.000000,41122000.000000
125993400.000000,40622000.000000
126011479.000000,40531113.000000
126062962.000000,40454062.000000
126140013.000000,40402579.000000
126230900.000000,40384500.000000
Z" /> 
<path style="fill:#000000; fill-opacity:1.0; 
stroke:#000000; stroke-width:1.000000; stroke-opacity:1; 
stroke-linecap:round; stroke-linejoin:round;fill-rule:evenodd;"
d="M 126705900.000000,42209500.000000
126796787.000000,42227579.000000
126873838.000000,42279062.000000
126925321.000000,42356113.000000
126943400.000000,42447000.000000
126943400.000000,42947000.000000
126925321.000000,43037887.000000
126873838.000000,43114938.000000
126796787.000000,43166421.000000
126705900.000000,43184500.000000
126230900.000000,43184500.000000
126140013.000000,43166421.000000
126062962.000000,43114938.000000
126011479.000000,43037887.000000
125993400.000000,42947000.000000
125993400.000000,42447000.000000
126011479.000000,42356113.000000
126062962.000000,42279062.000000
126140013.000000,42227579.000000
126230900.000000,42209500.000000
Z" /> 
</g>
<g >
</g>
<g >
</g>
<g style="fill:#000000; fill-opacity:1.0; 
stroke:#000000; stroke-width:1.000000; stroke-opacity:1; 
stroke-linecap:round; stroke-linejoin:round;">
<path style="fill:#000000; fill-opacity:1.0; 
stroke:#000000; stroke-width:1.000000; stroke-opacity:1; 
stroke-linecap:round; stroke-linejoin:round;fill-rule:evenodd;"
d="M 113482401.000000,46856999.000000
113482401.000000,46157001.000000
114082399.000000,46157001.000000
114082399.000000,46856999.000000
Z" /> 
<path style="fill:#000000; fill-opacity:1.0; 
stroke:#000000; stroke-width:1.000000; stroke-opacity:1; 
stroke-linecap:round; stroke-linejoin:round;fill-rule:evenodd;"
d="M 112082401.000000,46856999.000000
112082401.000000,46157001.000000
112682399.000000,46157001.000000
112682399.000000,46856999.000000
Z" /> 
</g>
<g >
</g>
<g >
</g>
<g style="fill:#000000; fill-opacity:1.0; 
stroke:#000000; stroke-width:1.000000; stroke-opacity:1; 
stroke-linecap:round; stroke-linejoin:round;">
<path style="fill:#000000; fill-opacity:1.0; 
stroke:#000000; stroke-width:1.000000; stroke-opacity:1; 
stroke-linecap:round; stroke-linejoin:round;fill-rule:evenodd;"
d="M 118186975.000000,19332000.000000
118096088.000000,19313921.000000
118019037.000000,19262438.000000
117967554.000000,19185387.000000
117949475.000000,19094500.000000
117949475.000000,18594500.000000
117967554.000000,18503613.000000
118019037.000000,18426562.000000
118096088.000000,18375079.000000
118186975.000000,18357000.000000
118661975.000000,18357000.000000
118752862.000000,18375079.000000
118829913.000000,18426562.000000
118881396.000000,18503613.000000
118899475.000000,18594500.000000
118899475.000000,19094500.000000
118881396.000000,19185387.000000
118829913.000000,19262438.000000
118752862.000000,19313921.000000
118661975.000000,19332000.000000
Z" /> 
<path style="fill:#000000; fill-opacity:1.0; 
stroke:#000000; stroke-width:1.000000; stroke-opacity:1; 
stroke-linecap:round; stroke-linejoin:round;fill-rule:evenodd;"
d="M 118186975.000000,17507000.000000
118096088.000000,17488921.000000
118019037.000000,17437438.000000
117967554.000000,17360387.000000
117949475.000000,17269500.000000
117949475.000000,16769500.000000
117967554.000000,16678613.000000
118019037.000000,16601562.000000
118096088.000000,16550079.000000
118186975.000000,16532000.000000
118661975.000000,16532000.000000
118752862.000000,16550079.000000
118829913.000000,16601562.000000
118881396.000000,16678613.000000
118899475.000000,16769500.000000
118899475.000000,17269500.000000
118881396.000000,17360387.000000
118829913.000000,17437438.000000
118752862.000000,17488921.000000
118661975.000000,17507000.000000
Z" /> 
</g>
<g >
</g>
<g >
</g>
<g >
</g>
<g >
</g>
<g >
</g>
<g style="fill:#000000; fill-opacity:1.0; 
stroke:#000000; stroke-width:1.000000; stroke-opacity:1; 
stroke-linecap:round; stroke-linejoin:round;">
<path style="fill:#000000; fill-opacity:1.0; 
stroke:#000000; stroke-width:1.000000; stroke-opacity:1; 
stroke-linecap:round; stroke-linejoin:round;fill-rule:evenodd;"
d="M 122260900.000000,40384500.000000
122351787.000000,40402579.000000
122428838.000000,40454062.000000
122480321.000000,40531113.000000
122498400.000000,40622000.000000
122498400.000000,41122000.000000
122480321.000000,41212887.000000
122428838.000000,41289938.000000
122351787.000000,41341421.000000
122260900.000000,41359500.000000
121785900.000000,41359500.000000
121695013.000000,41341421.000000
121617962.000000,41289938.000000
121566479.000000,41212887.000000
121548400.000000,41122000.000000
121548400.000000,40622000.000000
121566479.000000,40531113.000000
121617962.000000,40454062.000000
121695013.000000,40402579.000000
121785900.000000,40384500.000000
Z" /> 
<path style="fill:#000000; fill-opacity:1.0; 
stroke:#000000; stroke-width:1.000000; stroke-opacity:1; 
stroke-linecap:round; stroke-linejoin:round;fill-rule:evenodd;"
d="M 122260900.000000,42209500.000000
122351787.000000,42227579.000000
122428838.000000,42279062.000000
122480321.000000,42356113.000000
122498400.000000,42447000.000000
122498400.000000,42947000.000000
122480321.000000,43037887.000000
122428838.000000,43114938.000000
122351787.000000,43166421.000000
122260900.000000,43184500.000000
121785900.000000,43184500.000000
121695013.000000,43166421.000000
121617962.000000,43114938.000000
121566479.000000,43037887.000000
121548400.000000,42947000.000000
121548400.000000,42447000.000000
121566479.000000,42356113.000000
121617962.000000,42279062.000000
121695013.000000,42227579.000000
121785900.000000,42209500.000000
Z" /> 
</g>
<g >
</g>
<g >
</g>
<g style="fill:#000000; fill-opacity:1.0; 
stroke:#000000; stroke-width:1.000000; stroke-opacity:1; 
stroke-linecap:round; stroke-linejoin:round;">
<path style="fill:#000000; fill-opacity:1.0; 
stroke:#000000; stroke-width:1.000000; stroke-opacity:1; 
stroke-linecap:round; stroke-linejoin:round;fill-rule:evenodd;"
d="M 111733400.000000,51984500.000000
111751479.000000,51893613.000000
111802962.000000,51816562.000000
111880013.000000,51765079.000000
111970900.000000,51747000.000000
112470900.000000,51747000.000000
112561787.000000,51765079.000000
112638838.000000,51816562.000000
112690321.000000,51893613.000000
112708400.000000,51984500.000000
112708400.000000,52459500.000000
112690321.000000,52550387.000000
112638838.000000,52627438.000000
112561787.000000,52678921.000000
112470900.000000,52697000.000000
111970900.000000,52697000.000000
111880013.000000,52678921.000000
111802962.000000,52627438.000000
111751479.000000,52550387.000000
111733400.000000,52459500.000000
Z" /> 
<path style="fill:#000000; fill-opacity:1.0; 
stroke:#000000; stroke-width:1.000000; stroke-opacity:1; 
stroke-linecap:round; stroke-linejoin:round;fill-rule:evenodd;"
d="M 113558400.000000,51984500.000000
113576479.000000,51893613.000000
113627962.000000,51816562.000000
113705013.000000,51765079.000000
113795900.000000,51747000.000000
114295900.000000,51747000.000000
114386787.000000,51765079.000000
114463838.000000,51816562.000000
114515321.000000,51893613.000000
114533400.000000,51984500.000000
114533400.000000,52459500.000000
114515321.000000,52550387.000000
114463838.000000,52627438.000000
114386787.000000,52678921.000000
114295900.000000,52697000.000000
113795900.000000,52697000.000000
113705013.000000,52678921.000000
113627962.000000,52627438.000000
113576479.000000,52550387.000000
113558400.000000,52459500.000000
Z" /> 
</g>
<g >
</g>
<g style="fill:#000000; fill-opacity:1.0; 
stroke:#000000; stroke-width:1.000000; stroke-opacity:1; 
stroke-linecap:round; stroke-linejoin:round;">
<path style="fill:#000000; fill-opacity:1.0; 
stroke:#000000; stroke-width:1.000000; stroke-opacity:1; 
stroke-linecap:round; stroke-linejoin:round;fill-rule:evenodd;"
d="M 17270399.000000,18475001.000000
17270399.000000,19674999.000000
16370401.000000,19674999.000000
16370401.000000,18475001.000000
Z" /> 
<path style="fill:#000000; fill-opacity:1.0; 
stroke:#000000; stroke-width:1.000000; stroke-opacity:1; 
stroke-linecap:round; stroke-linejoin:round;fill-rule:evenodd;"
d="M 13970399.000000,18475001.000000
13970399.000000,19674999.000000
13070401.000000,19674999.000000
13070401.000000,18475001.000000
Z" /> 
</g>
<g >
</g>
<g style="fill:#000000; fill-opacity:1.0; 
stroke:#000000; stroke-width:1.000000; stroke-opacity:1; 
stroke-linecap:round; stroke-linejoin:round;">
<path style="fill:#000000; fill-opacity:1.0; 
stroke:#000000; stroke-width:1.000000; stroke-opacity:1; 
stroke-linecap:round; stroke-linejoin:round;fill-rule:evenodd;"
d="M 118186975.000000,31754500.000000
118096088.000000,31736421.000000
118019037.000000,31684938.000000
117967554.000000,31607887.000000
117949475.000000,31517000.000000
117949475.000000,31017000.000000
117967554.000000,30926113.000000
118019037.000000,30849062.000000
118096088.000000,30797579.000000
118186975.000000,30779500.000000
118661975.000000,30779500.000000
118752862.000000,30797579.000000
118829913.000000,30849062.000000
118881396.000000,30926113.000000
118899475.000000,31017000.000000
118899475.000000,31517000.000000
118881396.000000,31607887.000000
118829913.000000,31684938.000000
118752862.000000,31736421.000000
118661975.000000,31754500.000000
Z" /> 
<path style="fill:#000000; fill-opacity:1.0; 
stroke:#000000; stroke-width:1.000000; stroke-opacity:1; 
stroke-linecap:round; stroke-linejoin:round;fill-rule:evenodd;"
d="M 118186975.000000,29929500.000000
118096088.000000,29911421.000000
118019037.000000,29859938.000000
117967554.000000,29782887.000000
117949475.000000,29692000.000000
117949475.000000,29192000.000000
117967554.000000,29101113.000000
118019037.000000,29024062.000000
118096088.000000,28972579.000000
118186975.000000,28954500.000000
118661975.000000,28954500.000000
118752862.000000,28972579.000000
118829913.000000,29024062.000000
118881396.000000,29101113.000000
118899475.000000,29192000.000000
118899475.000000,29692000.000000
118881396.000000,29782887.000000
118829913.000000,29859938.000000
118752862.000000,29911421.000000
118661975.000000,29929500.000000
Z" /> 
</g>
<g >
</g>
<g style="fill:#000000; fill-opacity:1.0; 
stroke:#000000; stroke-width:1.000000; stroke-opacity:1; 
stroke-linecap:round; stroke-linejoin:round;">
<path style="fill:#000000; fill-opacity:1.0; 
stroke:#000000; stroke-width:1.000000; stroke-opacity:1; 
stroke-linecap:round; stroke-linejoin:round;fill-rule:evenodd;"
d="M 54862399.000000,75879001.000000
54862399.000000,77078999.000000
53962401.000000,77078999.000000
53962401.000000,75879001.000000
Z" /> 
<path style="fill:#000000; fill-opacity:1.0; 
stroke:#000000; stroke-width:1.000000; stroke-opacity:1; 
stroke-linecap:round; stroke-linejoin:round;fill-rule:evenodd;"
d="M 51562399.000000,75879001.000000
51562399.000000,77078999.000000
50662401.000000,77078999.000000
50662401.000000,75879001.000000
Z" /> 
</g>
<g >
</g>
<g >
</g>
<g >
</g>
<g style="fill:#000000; fill-opacity:1.0; 
stroke:#000000; stroke-width:1.000000; stroke-opacity:1; 
stroke-linecap:round; stroke-linejoin:round;">
<path style="fill:#000000; fill-opacity:1.0; 
stroke:#000000; stroke-width:1.000000; stroke-opacity:1; 
stroke-linecap:round; stroke-linejoin:round;fill-rule:evenodd;"
d="M 55116399.000000,56829001.000000
55116399.000000,58028999.000000
54216401.000000,58028999.000000
54216401.000000,56829001.000000
Z" /> 
<path style="fill:#000000; fill-opacity:1.0; 
stroke:#000000; stroke-width:1.000000; stroke-opacity:1; 
stroke-linecap:round; stroke-linejoin:round;fill-rule:evenodd;"
d="M 51816399.000000,56829001.000000
51816399.000000,58028999.000000
50916401.000000,58028999.000000
50916401.000000,56829001.000000
Z" /> 
</g>
<g >
</g>
<g style="fill:#000000; fill-opacity:1.0; 
stroke:#000000; stroke-width:1.000000; stroke-opacity:1; 
stroke-linecap:round; stroke-linejoin:round;">
<path style="fill:#000000; fill-opacity:1.0; 
stroke:#000000; stroke-width:1.000000; stroke-opacity:1; 
stroke-linecap:round; stroke-linejoin:round;fill-rule:evenodd;"
d="M 140268399.000000,73941999.000000
138968401.000000,73941999.000000
138968401.000000,73642001.000000
140268399.000000,73642001.000000
Z" /> 
<path style="fill:#000000; fill-opacity:1.0; 
stroke:#000000; stroke-width:1.000000; stroke-opacity:1; 
stroke-linecap:round; stroke-linejoin:round;fill-rule:evenodd;"
d="M 140268399.000000,73441999.000000
138968401.000000,73441999.000000
138968401.000000,73142001.000000
140268399.000000,73142001.000000
Z" /> 
<path style="fill:#000000; fill-opacity:1.0; 
stroke:#000000; stroke-width:1.000000; stroke-opacity:1; 
stroke-linecap:round; stroke-linejoin:round;fill-rule:evenodd;"
d="M 140268399.000000,72941999.000000
138968401.000000,72941999.000000
138968401.000000,72642001.000000
140268399.000000,72642001.000000
Z" /> 
<path style="fill:#000000; fill-opacity:1.0; 
stroke:#000000; stroke-width:1.000000; stroke-opacity:1; 
stroke-linecap:round; stroke-linejoin:round;fill-rule:evenodd;"
d="M 140268399.000000,72441999.000000
138968401.000000,72441999.000000
138968401.000000,72142001.000000
140268399.000000,72142001.000000
Z" /> 
<path style="fill:#000000; fill-opacity:1.0; 
stroke:#000000; stroke-width:1.000000; stroke-opacity:1; 
stroke-linecap:round; stroke-linejoin:round;fill-rule:evenodd;"
d="M 140268399.000000,71941999.000000
138968401.000000,71941999.000000
138968401.000000,71642001.000000
140268399.000000,71642001.000000
Z" /> 
<path style="fill:#000000; fill-opacity:1.0; 
stroke:#000000; stroke-width:1.000000; stroke-opacity:1; 
stroke-linecap:round; stroke-linejoin:round;fill-rule:evenodd;"
d="M 140268399.000000,71441999.000000
138968401.000000,71441999.000000
138968401.000000,71142001.000000
140268399.000000,71142001.000000
Z" /> 
<path style="fill:#000000; fill-opacity:1.0; 
stroke:#000000; stroke-width:1.000000; stroke-opacity:1; 
stroke-linecap:round; stroke-linejoin:round;fill-rule:evenodd;"
d="M 143968399.000000,76591999.000000
141768401.000000,76591999.000000
141768401.000000,74792001.000000
143968399.000000,74792001.000000
Z" /> 
<path style="fill:#000000; fill-opacity:1.0; 
stroke:#000000; stroke-width:1.000000; stroke-opacity:1; 
stroke-linecap:round; stroke-linejoin:round;fill-rule:evenodd;"
d="M 143968399.000000,70291999.000000
141768401.000000,70291999.000000
141768401.000000,68492001.000000
143968399.000000,68492001.000000
Z" /> 
</g>
<g >
</g>
<g style="fill:#000000; fill-opacity:1.0; 
stroke:#000000; stroke-width:1.000000; stroke-opacity:1; 
stroke-linecap:round; stroke-linejoin:round;">
<path style="fill:#000000; fill-opacity:1.0; 
stroke:#000000; stroke-width:1.000000; stroke-opacity:1; 
stroke-linecap:round; stroke-linejoin:round;fill-rule:evenodd;"
d="M 36192399.000000,56829001.000000
36192399.000000,58028999.000000
35292401.000000,58028999.000000
35292401.000000,56829001.000000
Z" /> 
<path style="fill:#000000; fill-opacity:1.0; 
stroke:#000000; stroke-width:1.000000; stroke-opacity:1; 
stroke-linecap:round; stroke-linejoin:round;fill-rule:evenodd;"
d="M 32892399.000000,56829001.000000
32892399.000000,58028999.000000
31992401.000000,58028999.000000
31992401.000000,56829001.000000
Z" /> 
</g>
<g >
</g>
<g >
</g>
<g >
</g>
<g style="fill:#000000; fill-opacity:1.0; 
stroke:#000000; stroke-width:1.000000; stroke-opacity:1; 
stroke-linecap:round; stroke-linejoin:round;">
<path style="fill:#000000; fill-opacity:1.0; 
stroke:#000000; stroke-width:1.000000; stroke-opacity:1; 
stroke-linecap:round; stroke-linejoin:round;fill-rule:evenodd;"
d="M 17270399.000000,75879001.000000
17270399.000000,77078999.000000
16370401.000000,77078999.000000
16370401.000000,75879001.000000
Z" /> 
<path style="fill:#000000; fill-opacity:1.0; 
stroke:#000000; stroke-width:1.000000; stroke-opacity:1; 
stroke-linecap:round; stroke-linejoin:round;fill-rule:evenodd;"
d="M 13970399.000000,75879001.000000
13970399.000000,77078999.000000
13070401.000000,77078999.000000
13070401.000000,75879001.000000
Z" /> 
</g>
<g >
</g>
<g style="fill:#000000; fill-opacity:1.0; 
stroke:#000000; stroke-width:1.000000; stroke-opacity:1; 
stroke-linecap:round; stroke-linejoin:round;">
<path style="fill:#000000; fill-opacity:1.0; 
stroke:#000000; stroke-width:1.000000; stroke-opacity:1; 
stroke-linecap:round; stroke-linejoin:round;fill-rule:evenodd;"
d="M 74420399.000000,75879001.000000
74420399.000000,77078999.000000
73520401.000000,77078999.000000
73520401.000000,75879001.000000
Z" /> 
<path style="fill:#000000; fill-opacity:1.0; 
stroke:#000000; stroke-width:1.000000; stroke-opacity:1; 
stroke-linecap:round; stroke-linejoin:round;fill-rule:evenodd;"
d="M 71120399.000000,75879001.000000
71120399.000000,77078999.000000
70220401.000000,77078999.000000
70220401.000000,75879001.000000
Z" /> 
</g>
<g >
</g>
<g >
</g>
<g >
</g>
<g style="fill:#000000; fill-opacity:1.0; 
stroke:#000000; stroke-width:1.000000; stroke-opacity:1; 
stroke-linecap:round; stroke-linejoin:round;">
<path style="fill:#000000; fill-opacity:1.0; 
stroke:#000000; stroke-width:1.000000; stroke-opacity:1; 
stroke-linecap:round; stroke-linejoin:round;fill-rule:evenodd;"
d="M 36320399.000000,18475001.000000
36320399.000000,19674999.000000
35420401.000000,19674999.000000
35420401.000000,18475001.000000
Z" /> 
<path style="fill:#000000; fill-opacity:1.0; 
stroke:#000000; stroke-width:1.000000; stroke-opacity:1; 
stroke-linecap:round; stroke-linejoin:round;fill-rule:evenodd;"
d="M 33020399.000000,18475001.000000
33020399.000000,19674999.000000
32120401.000000,19674999.000000
32120401.000000,18475001.000000
Z" /> 
</g>
<g >
</g>
<g style="fill:#000000; fill-opacity:1.0; 
stroke:#000000; stroke-width:1.000000; stroke-opacity:1; 
stroke-linecap:round; stroke-linejoin:round;">
<path style="fill:#000000; fill-opacity:1.0; 
stroke:#000000; stroke-width:1.000000; stroke-opacity:1; 
stroke-linecap:round; stroke-linejoin:round;fill-rule:evenodd;"
d="M 17144399.000000,37779001.000000
17144399.000000,38978999.000000
16244401.000000,38978999.000000
16244401.000000,37779001.000000
Z" /> 
<path style="fill:#000000; fill-opacity:1.0; 
stroke:#000000; stroke-width:1.000000; stroke-opacity:1; 
stroke-linecap:round; stroke-linejoin:round;fill-rule:evenodd;"
d="M 13844399.000000,37779001.000000
13844399.000000,38978999.000000
12944401.000000,38978999.000000
12944401.000000,37779001.000000
Z" /> 
</g>
<g >
</g>
<g style="fill:#000000; fill-opacity:1.0; 
stroke:#000000; stroke-width:1.000000; stroke-opacity:1; 
stroke-linecap:round; stroke-linejoin:round;">
<path style="fill:#000000; fill-opacity:1.0; 
stroke:#000000; stroke-width:1.000000; stroke-opacity:1; 
stroke-linecap:round; stroke-linejoin:round;fill-rule:evenodd;"
d="M 118186975.000000,14252000.000000
118096088.000000,14233921.000000
118019037.000000,14182438.000000
117967554.000000,14105387.000000
117949475.000000,14014500.000000
117949475.000000,13514500.000000
117967554.000000,13423613.000000
118019037.000000,13346562.000000
118096088.000000,13295079.000000
118186975.000000,13277000.000000
118661975.000000,13277000.000000
118752862.000000,13295079.000000
118829913.000000,13346562.000000
118881396.000000,13423613.000000
118899475.000000,13514500.000000
118899475.000000,14014500.000000
118881396.000000,14105387.000000
118829913.000000,14182438.000000
118752862.000000,14233921.000000
118661975.000000,14252000.000000
Z" /> 
<path style="fill:#000000; fill-opacity:1.0; 
stroke:#000000; stroke-width:1.000000; stroke-opacity:1; 
stroke-linecap:round; stroke-linejoin:round;fill-rule:evenodd;"
d="M 118186975.000000,12427000.000000
118096088.000000,12408921.000000
118019037.000000,12357438.000000
117967554.000000,12280387.000000
117949475.000000,12189500.000000
117949475.000000,11689500.000000
117967554.000000,11598613.000000
118019037.000000,11521562.000000
118096088.000000,11470079.000000
118186975.000000,11452000.000000
118661975.000000,11452000.000000
118752862.000000,11470079.000000
118829913.000000,11521562.000000
118881396.000000,11598613.000000
118899475.000000,11689500.000000
118899475.000000,12189500.000000
118881396.000000,12280387.000000
118829913.000000,12357438.000000
118752862.000000,12408921.000000
118661975.000000,12427000.000000
Z" /> 
</g>
<g >
</g>
<g style="fill:#000000; fill-opacity:1.0; 
stroke:#000000; stroke-width:1.000000; stroke-opacity:1; 
stroke-linecap:round; stroke-linejoin:round;">
<path style="fill:#000000; fill-opacity:1.0; 
stroke:#000000; stroke-width:1.000000; stroke-opacity:1; 
stroke-linecap:round; stroke-linejoin:round;fill-rule:evenodd;"
d="M 35938399.000000,75879001.000000
35938399.000000,77078999.000000
35038401.000000,77078999.000000
35038401.000000,75879001.000000
Z" /> 
<path style="fill:#000000; fill-opacity:1.0; 
stroke:#000000; stroke-width:1.000000; stroke-opacity:1; 
stroke-linecap:round; stroke-linejoin:round;fill-rule:evenodd;"
d="M 32638399.000000,75879001.000000
32638399.000000,77078999.000000
31738401.000000,77078999.000000
31738401.000000,75879001.000000
Z" /> 
</g>
<g >
</g>
<g style="fill:#000000; fill-opacity:1.0; 
stroke:#000000; stroke-width:1.000000; stroke-opacity:1; 
stroke-linecap:round; stroke-linejoin:round;">
<path style="fill:#000000; fill-opacity:1.0; 
stroke:#000000; stroke-width:1.000000; stroke-opacity:1; 
stroke-linecap:round; stroke-linejoin:round;fill-rule:evenodd;"
d="M 74420399.000000,18475001.000000
74420399.000000,19674999.000000
73520401.000000,19674999.000000
73520401.000000,18475001.000000
Z" /> 
<path style="fill:#000000; fill-opacity:1.0; 
stroke:#000000; stroke-width:1.000000; stroke-opacity:1; 
stroke-linecap:round; stroke-linejoin:round;fill-rule:evenodd;"
d="M 71120399.000000,18475001.000000
71120399.000000,19674999.000000
70220401.000000,19674999.000000
70220401.000000,18475001.000000
Z" /> 
</g>
<g >
</g>
<g >
</g>
<g >
</g>
<g >
</g>
<g >
</g>
</g>
<g style="fill:#000000; fill-opacity:1.0; 
stroke:#000000; stroke-width:1.000000; stroke-opacity:1; 
stroke-linecap:round; stroke-linejoin:round;">
</g>
<g style="fill:#000000; fill-opacity:1.0; 
stroke:#000000; stroke-width:100000.000000; stroke-opacity:1; 
stroke-linecap:round; stroke-linejoin:round;">
</g>
<g style="fill:#000000; fill-opacity:0.0; 
stroke:#000000; stroke-width:100000.000000; stroke-opacity:1; 
stroke-linecap:round; stroke-linejoin:round;">
<path d="M50000 3654000
L50000 91269000
" />
<path d="M151374400 154000
L3550000 154000
" />
<path d="M3550000.000000 154000.000000 A3499999.000000 3499999.000000 0.0 0 0 50000.000000 3654000.000000" />
<path d="M50000.000000 91269000.000000 A3499999.000000 3499999.000000 0.0 0 0 3550000.000000 94769000.000000" />
<path d="M3550000 94769000
L151374400 94769000
" />
<path d="M151374400.000000 94769000.000000 A3499999.000000 3499999.000000 0.0 0 0 154874400.000000 91269000.000000" />
<path d="M154874400.000000 3654000.000000 A3499999.000000 3499999.000000 0.0 0 0 151374400.000000 154000.000000" />
<path d="M154874400 91269000
L154874400 3654000
" />
</g>
<g style="fill:#000000; fill-opacity:0.0; 
stroke:#000000; stroke-width:120000.000000; stroke-opacity:1; 
stroke-linecap:round; stroke-linejoin:round;">
<path d="M134483435 65250460
L128983435 65250460
" />
</g>
<g style="fill:#000000; fill-opacity:0.0; 
stroke:#000000; stroke-width:100000.000000; stroke-opacity:1; 
stroke-linecap:round; stroke-linejoin:round;">
<path d="M130649778 55991133
L128484715 57241133
" />
</g>
<g style="fill:#000000; fill-opacity:0.0; 
stroke:#000000; stroke-width:120000.000000; stroke-opacity:1; 
stroke-linecap:round; stroke-linejoin:round;">
<path d="M120533435 74950460
L120533435 72850460
" />
<path d="M128983435 62050460
L134483435 62050460
" />
<path d="M121083435 78650460
L121083435 76150460
" />
</g>
<g style="fill:#000000; fill-opacity:0.0; 
stroke:#000000; stroke-width:100000.000000; stroke-opacity:1; 
stroke-linecap:round; stroke-linejoin:round;">
<path d="M108343372 55991133
L110508435 57241133
" />
</g>
<g style="fill:#000000; fill-opacity:0.0; 
stroke:#000000; stroke-width:120000.000000; stroke-opacity:1; 
stroke-linecap:round; stroke-linejoin:round;">
<path d="M121083435 51150460
L121083435 48650460
" />
<path d="M109983435 65250460
L104483435 65250460
" />
</g>
<g style="fill:#000000; fill-opacity:0.0; 
stroke:#000000; stroke-width:100000.000000; stroke-opacity:1; 
stroke-linecap:round; stroke-linejoin:round;">
<path d="M107293372 57809787
L109458435 59059787
" />
</g>
<g style="fill:#000000; fill-opacity:0.0; 
stroke:#000000; stroke-width:120000.000000; stroke-opacity:1; 
stroke-linecap:round; stroke-linejoin:round;">
<path d="M118433435 52350460
L118433435 54450460
" />
<path d="M120533435 52350460
L120533435 54450460
" />
</g>
<g style="fill:#000000; fill-opacity:0.0; 
stroke:#000000; stroke-width:100000.000000; stroke-opacity:1; 
stroke-linecap:round; stroke-linejoin:round;">
<path d="M131699778 57809787
L129534715 59059787
" />
</g>
<g style="fill:#000000; fill-opacity:0.0; 
stroke:#000000; stroke-width:120000.000000; stroke-opacity:1; 
stroke-linecap:round; stroke-linejoin:round;">
<path d="M118433435 74950460
L118433435 72850460
" />
<path d="M117883435 76150460
L117883435 78650460
" />
<path d="M104483435 62050460
L109983435 62050460
" />
<path d="M117883435 48650460
L117883435 51150460
" />
<path d="M128983435.000000 62050460.000000 A1600000.000000 1600000.000000 0.0 0 0 128983435.000000 65250460.000000" />
</g>
<g style="fill:#000000; fill-opacity:0.0; 
stroke:#000000; stroke-width:100000.000000; stroke-opacity:1; 
stroke-linecap:round; stroke-linejoin:round;">
<path d="M128484715.141174 57241133.244520 A1050000.000000 1050000.000000 0.0 0 0 129534714.858826 59059786.755480" />
</g>
<g style="fill:#000000; fill-opacity:0.0; 
stroke:#000000; stroke-width:120000.000000; stroke-opacity:1; 
stroke-linecap:round; stroke-linejoin:round;">
<path d="M121077956.000000 76150460.000000 A1594521.000000 1594521.000000 0.0 0 0 120533433.859471 74950461.160604" />
<path d="M120537041.839553 52354582.816632 A1599997.000000 1599997.000000 0.0 0 0 121083435.000000 51150460.000000" />
<path d="M118429828.160447 74946337.183368 A1599997.000000 1599997.000000 0.0 0 0 117883435.000000 76150460.000000" />
<path d="M120533433.696542 72850458.653191 A1594520.000000 1594520.000000 0.0 1 0 118433436.303458 72850458.653191" />
</g>
<g style="fill:#000000; fill-opacity:0.0; 
stroke:#000000; stroke-width:100000.000000; stroke-opacity:1; 
stroke-linecap:round; stroke-linejoin:round;">
<path d="M108343371.858826 55991133.244520 A1050000.000000 1050000.000000 0.0 0 0 107293372.141174 57809786.755480" />
<path d="M131699777.858826 57809786.755480 A1050000.000000 1050000.000000 0.0 1 0 130649778.141174 55991133.244520" />
</g>
<g style="fill:#000000; fill-opacity:0.0; 
stroke:#000000; stroke-width:120000.000000; stroke-opacity:1; 
stroke-linecap:round; stroke-linejoin:round;">
<path d="M104483435.000000 62050460.000000 A1600000.000000 1600000.000000 0.0 0 0 104483435.000000 65250460.000000" />
</g>
<g style="fill:#000000; fill-opacity:0.0; 
stroke:#000000; stroke-width:100000.000000; stroke-opacity:1; 
stroke-linecap:round; stroke-linejoin:round;">
<path d="M109458435.141174 59059786.755480 A1050000.000000 1050000.000000 0.0 0 0 110508434.858826 57241133.244520" />
</g>
<g style="fill:#000000; fill-opacity:0.0; 
stroke:#000000; stroke-width:120000.000000; stroke-opacity:1; 
stroke-linecap:round; stroke-linejoin:round;">
<path d="M118433436.303458 54450461.346809 A1594520.000000 1594520.000000 0.0 1 0 120533433.696542 54450461.346809" />
<path d="M109983435.000000 65250460.000000 A1600000.000000 1600000.000000 0.0 0 0 109983435.000000 62050460.000000" />
<path d="M117888914.000000 51150460.000000 A1594521.000000 1594521.000000 0.0 0 0 118433436.140529 52350458.839396" />
<path d="M117883435.000000 78650460.000000 A1600000.000000 1600000.000000 0.0 0 0 121083435.000000 78650460.000000" />
<path d="M121083435.000000 48650460.000000 A1600000.000000 1600000.000000 0.0 0 0 117883435.000000 48650460.000000" />
<path d="M134483435.000000 65250460.000000 A1600000.000000 1600000.000000 0.0 0 0 134483435.000000 62050460.000000" />
<g >
</g>
<g >
</g>
<g >
</g>
<g >
</g>
<g >
</g>
<g >
</g>
<g >
</g>
<g >
</g>
<g >
</g>
<g >
</g>
<g >
</g>
<g >
</g>
<g >
</g>
<g >
</g>
<g >
</g>
<g >
</g>
<g >
</g>
<g >
</g>
<g >
</g>
<g >
</g>
<g >
</g>
<g >
</g>
<g >
</g>
<g >
</g>
<g >
</g>
<g >
</g>
<g >
</g>
<g >
</g>
<g >
</g>
<g >
</g>
<g >
</g>
<g >
</g>
<g >
</g>
<g >
</g>
<g >
</g>
<g >
</g>
<g >
</g>
<g >
</g>
<g >
</g>
<g >
</g>
<g >
</g>
<g >
</g>
<g >
</g>
<g >
</g>
<g >
</g>
<g >
</g>
<g >
</g>
<g >
</g>
<g >
</g>
<g >
</g>
<g >
</g>
<g >
</g>
<g >
</g>
<g >
</g>
<g >
</g>
<g >
</g>
</g> 
</svg>
