<?xml version="1.0" encoding="utf-8"?>
<!-- Generator: Adobe Illustrator 25.2.1, SVG Export Plug-In . SVG Version: 6.00 Build 0)  -->
<svg version="1.1" id="Layer_1" xmlns:svg="http://www.w3.org/2000/svg"
	 xmlns="http://www.w3.org/2000/svg" xmlns:xlink="http://www.w3.org/1999/xlink" x="0px" y="0px" viewBox="0 0 438.7 268.2"
	 style="enable-background:new 0 0 438.7 268.2;" xml:space="preserve">
<style type="text/css">
	
		.st0{fill-rule:evenodd;clip-rule:evenodd;stroke:#000000;stroke-width:2.834646e-06;stroke-linecap:round;stroke-linejoin:round;stroke-miterlimit:10;}
</style>
<desc>Picture generated by PCBNEW</desc>
<g transform="translate(0 0) scale(1 1)">
</g>
<g>
	<path class="st0" d="M157,110.1L157,110.1l0,0.1l0,0l-0.1,0h-2.6l-0.1,0l0,0l0,0l0-0.1v-3.4l0-0.1l0,0l0,0l0.1,0h2.6l0.1,0l0,0l0,0
		l0,0.1V110.1z"/>
	<path class="st0" d="M147.6,110.1L147.6,110.1l0,0.1l0,0l-0.1,0h-2.6l-0.1,0l0,0l0,0l0-0.1v-3.4l0-0.1l0,0l0,0l0.1,0h2.6l0.1,0l0,0
		l0,0l0,0.1V110.1z"/>
</g>
<g>
	<path class="st0" d="M336.8,41.1l-0.2,0l-0.3-0.1l-0.2-0.2l-0.1-0.3l0-0.2v-1.4l0-0.2l0.1-0.3l0.2-0.2l0.3-0.1l0.2,0h1.3l0.2,0
		l0.3,0.1l0.2,0.2l0.1,0.3l0,0.2v1.4l0,0.2l-0.1,0.3l-0.2,0.2l-0.3,0.1l-0.2,0H336.8z"/>
	<path class="st0" d="M336.8,35.9l-0.2,0l-0.3-0.1l-0.2-0.2l-0.1-0.3l0-0.2v-1.4l0-0.2l0.1-0.3l0.2-0.2l0.3-0.1l0.2,0h1.3l0.2,0
		l0.3,0.1l0.2,0.2l0.1,0.3l0,0.2v1.4l0,0.2l-0.1,0.3l-0.2,0.2l-0.3,0.1l-0.2,0H336.8z"/>
</g>
<g>
	<path class="st0" d="M321.7,203.3l-0.2,0l-0.3-0.1l-0.2-0.2l-0.1-0.3l0-0.2v-1.7l0-0.2l0.1-0.3l0.2-0.2l0.3-0.1l0.2,0h1.3l0.2,0
		l0.3,0.1l0.2,0.2l0.1,0.3l0,0.2v1.7l0,0.2l-0.1,0.3l-0.2,0.2l-0.3,0.1l-0.2,0H321.7z"/>
	<path class="st0" d="M321.7,198.4l-0.2,0l-0.3-0.1L321,198l-0.1-0.3l0-0.2v-1.7l0-0.2l0.1-0.3l0.2-0.2l0.3-0.1l0.2,0h1.3l0.2,0
		l0.3,0.1l0.2,0.2l0.1,0.3l0,0.2v1.7l0,0.2l-0.1,0.3l-0.2,0.2l-0.3,0.1l-0.2,0H321.7z"/>
</g>
<g>
	<path class="st0" d="M211.7,164.1L211.7,164.1l0,0.1l0,0l-0.1,0H209l-0.1,0l0,0l0,0l0-0.1v-3.4l0-0.1l0,0l0,0l0.1,0h2.6l0.1,0l0,0
		l0,0l0,0.1V164.1z"/>
	<path class="st0" d="M202.3,164.1L202.3,164.1l0,0.1l0,0l-0.1,0h-2.6l-0.1,0l0,0l0,0l0-0.1v-3.4l0-0.1l0,0l0,0l0.1,0h2.6l0.1,0l0,0
		l0,0l0,0.1V164.1z"/>
</g>
<g>
	<path class="st0" d="M369.8,113.7l0.2,0l0.3,0.1l0.2,0.2l0.1,0.3l0,0.2v1.4l0,0.2l-0.1,0.3l-0.2,0.2l-0.3,0.1l-0.2,0h-1.3l-0.2,0
		l-0.3-0.1l-0.2-0.2l-0.1-0.3l0-0.2v-1.4l0-0.2l0.1-0.3l0.2-0.2l0.3-0.1l0.2,0H369.8z"/>
	<path class="st0" d="M369.8,118.8l0.2,0l0.3,0.1l0.2,0.2l0.1,0.3l0,0.2v1.4l0,0.2l-0.1,0.3l-0.2,0.2l-0.3,0.1l-0.2,0h-1.3l-0.2,0
		l-0.3-0.1l-0.2-0.2l-0.1-0.3l0-0.2v-1.4l0-0.2l0.1-0.3l0.2-0.2l0.3-0.1l0.2,0H369.8z"/>
</g>
<g>
	<path class="st0" d="M154,55.3L154,55.3l0,0.1l0,0l-0.1,0h-2.6l-0.1,0l0,0l0,0l0-0.1v-3.4l0-0.1l0,0l0,0l0.1,0h2.6l0.1,0l0,0l0,0
		l0,0.1V55.3z"/>
	<path class="st0" d="M144.6,55.3L144.6,55.3l0,0.1l0,0l-0.1,0h-2.6l-0.1,0l0,0l0,0l0-0.1v-3.4l0-0.1l0,0l0,0l0.1,0h2.6l0.1,0l0,0
		l0,0l0,0.1V55.3z"/>
</g>
<g>
	<path class="st0" d="M269.1,187.7l0.2,0l0.3,0.1l0.2,0.2l0.1,0.3l0,0.2v1.7l0,0.2l-0.1,0.3l-0.2,0.2l-0.3,0.1l-0.2,0h-1.3l-0.2,0
		l-0.3-0.1l-0.2-0.2l-0.1-0.3l0-0.2v-1.7l0-0.2l0.1-0.3l0.2-0.2l0.3-0.1l0.2,0H269.1z"/>
	<path class="st0" d="M269.1,192.6l0.2,0l0.3,0.1l0.2,0.2l0.1,0.3l0,0.2v1.7l0,0.2l-0.1,0.3l-0.2,0.2l-0.3,0.1l-0.2,0h-1.3l-0.2,0
		l-0.3-0.1l-0.2-0.2l-0.1-0.3l0-0.2v-1.7l0-0.2l0.1-0.3l0.2-0.2l0.3-0.1l0.2,0H269.1z"/>
</g>
<g>
	<path class="st0" d="M323.7,120l-0.1,0.3l-0.2,0.2l-0.2,0.2l-0.3,0.1h-1.2l-0.3-0.1l-0.2-0.2l-0.2-0.2L321,120v-2.4l0.1-0.3
		l0.2-0.2l0.2-0.2l0.3-0.1h1.2l0.3,0.1l0.2,0.2l0.2,0.2l0.1,0.3V120z"/>
	<path class="st0" d="M320.1,120l-0.1,0.3l-0.2,0.2l-0.2,0.2l-0.3,0.1h-1.2l-0.3-0.1l-0.2-0.2l-0.2-0.2l-0.1-0.3v-2.4l0.1-0.3
		l0.2-0.2l0.2-0.2l0.3-0.1h1.2l0.3,0.1l0.2,0.2l0.2,0.2l0.1,0.3V120z"/>
</g>
<g>
	<path class="st0" d="M211.7,110.1L211.7,110.1l0,0.1l0,0l-0.1,0H209l-0.1,0l0,0l0,0l0-0.1v-3.4l0-0.1l0,0l0,0l0.1,0h2.6l0.1,0l0,0
		l0,0l0,0.1V110.1z"/>
	<path class="st0" d="M202.3,110.1L202.3,110.1l0,0.1l0,0l-0.1,0h-2.6l-0.1,0l0,0l0,0l0-0.1v-3.4l0-0.1l0,0l0,0l0.1,0h2.6l0.1,0l0,0
		l0,0l0,0.1V110.1z"/>
</g>
<g>
	<path class="st0" d="M332.2,184.2L332.2,184.2l0-0.1l0,0l0.1,0h1.7l0.1,0l0,0l0,0l0,0.1v6.2l0,0.1l0,0l0,0l-0.1,0h-1.7l-0.1,0l0,0
		l0,0l0-0.1V184.2z"/>
	<path class="st0" d="M335.8,184.2L335.8,184.2l0-0.1l0,0l0.1,0h1.7l0.1,0l0,0l0,0l0,0.1v6.2l0,0.1l0,0l0,0l-0.1,0h-1.7l-0.1,0l0,0
		l0,0l0-0.1V184.2z"/>
	<path class="st0" d="M339.4,184.2L339.4,184.2l0-0.1l0,0l0.1,0h1.7l0.1,0l0,0l0,0l0,0.1v6.2l0,0.1l0,0l0,0l-0.1,0h-1.7l-0.1,0l0,0
		l0,0l0-0.1V184.2z"/>
	<path class="st0" d="M343,184.2L343,184.2l0-0.1l0,0l0.1,0h1.7l0.1,0l0,0l0,0l0,0.1v6.2l0,0.1l0,0l0,0l-0.1,0h-1.7l-0.1,0l0,0l0,0
		l0-0.1V184.2z"/>
	<path class="st0" d="M343,169.5L343,169.5l0-0.1l0,0l0.1,0h1.7l0.1,0l0,0l0,0l0,0.1v6.2l0,0.1l0,0l0,0l-0.1,0h-1.7l-0.1,0l0,0l0,0
		l0-0.1V169.5z"/>
	<path class="st0" d="M339.4,169.5L339.4,169.5l0-0.1l0,0l0.1,0h1.7l0.1,0l0,0l0,0l0,0.1v6.2l0,0.1l0,0l0,0l-0.1,0h-1.7l-0.1,0l0,0
		l0,0l0-0.1V169.5z"/>
	<path class="st0" d="M335.8,169.5L335.8,169.5l0-0.1l0,0l0.1,0h1.7l0.1,0l0,0l0,0l0,0.1v6.2l0,0.1l0,0l0,0l-0.1,0h-1.7l-0.1,0l0,0
		l0,0l0-0.1V169.5z"/>
	<path class="st0" d="M332.2,169.5L332.2,169.5l0-0.1l0,0l0.1,0h1.7l0.1,0l0,0l0,0l0,0.1v6.2l0,0.1l0,0l0,0l-0.1,0h-1.7l-0.1,0l0,0
		l0,0l0-0.1V169.5z"/>
</g>
<g>
	<path class="st0" d="M253.3,177.2L253.3,177.2l-0.1,0l0,0l0-0.1v-5.7l0-0.1l0,0l0,0l0.1,0h4.3l0.1,0l0,0l0,0l0,0.1v5.7l0,0.1l0,0
		l0,0l-0.1,0H253.3z"/>
	<path class="st0" d="M259.8,177.2L259.8,177.2l-0.1,0l0,0l0-0.1v-5.7l0-0.1l0,0l0,0l0.1,0h4.3l0.1,0l0,0l0,0l0,0.1v5.7l0,0.1l0,0
		l0,0l-0.1,0H259.8z"/>
	<path class="st0" d="M256.5,159.4L256.5,159.4l-0.1,0l0,0l0-0.1v-5.7l0-0.1l0,0l0,0l0.1,0h10.8l0.1,0l0,0l0,0l0,0.1v5.7l0,0.1l0,0
		l0,0l-0.1,0H256.5z"/>
	<path class="st0" d="M266.3,177.2L266.3,177.2l-0.1,0l0,0l0-0.1v-5.7l0-0.1l0,0l0,0l0.1,0h4.3l0.1,0l0,0l0,0l0,0.1v5.7l0,0.1l0,0
		l0,0l-0.1,0H266.3z"/>
</g>
<g>
	<path class="st0" d="M260.7,192.9l0,0.2l-0.1,0.3l-0.2,0.2l-0.3,0.1l-0.2,0h-1.7l-0.2,0l-0.3-0.1l-0.2-0.2l-0.1-0.3l0-0.2v-1.3
		l0-0.2l0.1-0.3l0.2-0.2l0.3-0.1l0.2,0h1.7l0.2,0l0.3,0.1l0.2,0.2l0.1,0.3l0,0.2V192.9z"/>
	<path class="st0" d="M255.8,192.9l0,0.2l-0.1,0.3l-0.2,0.2l-0.3,0.1l-0.2,0h-1.7l-0.2,0l-0.3-0.1l-0.2-0.2l-0.1-0.3l0-0.2v-1.3
		l0-0.2l0.1-0.3l0.2-0.2l0.3-0.1l0.2,0h1.7l0.2,0l0.3,0.1l0.2,0.2l0.1,0.3l0,0.2V192.9z"/>
</g>
<g>
	<path class="st0" d="M102.6,110.1L102.6,110.1l0,0.1l0,0l-0.1,0h-2.6l-0.1,0l0,0l0,0l0-0.1v-3.4l0-0.1l0,0l0,0l0.1,0h2.6l0.1,0l0,0
		l0,0l0,0.1V110.1z"/>
	<path class="st0" d="M93.2,110.1L93.2,110.1l0,0.1l0,0l-0.1,0h-2.6l-0.1,0l0,0l0,0l0-0.1v-3.4l0-0.1l0,0l0,0l0.1,0h2.6l0.1,0l0,0
		l0,0l0,0.1V110.1z"/>
</g>
<g>
	<path class="st0" d="M49,164.1L49,164.1l0,0.1l0,0l-0.1,0h-2.6l-0.1,0l0,0l0,0l0-0.1v-3.4l0-0.1l0,0l0,0l0.1,0h2.6l0.1,0l0,0l0,0
		l0,0.1V164.1z"/>
	<path class="st0" d="M39.6,164.1L39.6,164.1l0,0.1l0,0l-0.1,0h-2.6l-0.1,0l0,0l0,0l0-0.1v-3.4l0-0.1l0,0l0,0l0.1,0h2.6l0.1,0l0,0
		l0,0l0,0.1V164.1z"/>
</g>
<g>
	<path class="st0" d="M321.4,130.4L321.4,130.4l0-0.1l0,0l0.1,0h1.7l0.1,0l0,0l0,0l0,0.1v2l0,0.1l0,0l0,0l-0.1,0h-1.7l-0.1,0l0,0
		l0,0l0-0.1V130.4z"/>
	<path class="st0" d="M317.4,130.4L317.4,130.4l0-0.1l0,0l0.1,0h1.7l0.1,0l0,0l0,0l0,0.1v2l0,0.1l0,0l0,0l-0.1,0h-1.7l-0.1,0l0,0
		l0,0l0-0.1V130.4z"/>
</g>
<g>
	<path class="st0" d="M336.8,89.4l-0.2,0l-0.3-0.1l-0.2-0.2l-0.1-0.3l0-0.2v-1.4l0-0.2l0.1-0.3l0.2-0.2l0.3-0.1l0.2,0h1.3l0.2,0
		l0.3,0.1l0.2,0.2l0.1,0.3l0,0.2v1.4l0,0.2l-0.1,0.3l-0.2,0.2l-0.3,0.1l-0.2,0H336.8z"/>
	<path class="st0" d="M336.8,84.2l-0.2,0l-0.3-0.1l-0.2-0.2l-0.1-0.3l0-0.2V82l0-0.2l0.1-0.3l0.2-0.2l0.3-0.1l0.2,0h1.3l0.2,0
		l0.3,0.1l0.2,0.2l0.1,0.3l0,0.2v1.4l0,0.2l-0.1,0.3l-0.2,0.2l-0.3,0.1l-0.2,0H336.8z"/>
</g>
<g>
	<path class="st0" d="M346.4,113.9l0.2,0l0.3,0.1l0.2,0.2l0.1,0.3l0,0.2v1.4l0,0.2l-0.1,0.3l-0.2,0.2l-0.3,0.1l-0.2,0h-1.3l-0.2,0
		l-0.3-0.1l-0.2-0.2l-0.1-0.3l0-0.2v-1.4l0-0.2l0.1-0.3l0.2-0.2l0.3-0.1l0.2,0H346.4z"/>
	<path class="st0" d="M346.4,119.1l0.2,0l0.3,0.1l0.2,0.2l0.1,0.3l0,0.2v1.4l0,0.2l-0.1,0.3l-0.2,0.2l-0.3,0.1l-0.2,0h-1.3l-0.2,0
		l-0.3-0.1l-0.2-0.2l-0.1-0.3l0-0.2v-1.4l0-0.2l0.1-0.3l0.2-0.2l0.3-0.1l0.2,0H346.4z"/>
</g>
<g>
	<path class="st0" d="M316.4,146.9l0-0.2l0.1-0.3l0.2-0.2l0.3-0.1l0.2,0h1.4l0.2,0l0.3,0.1l0.2,0.2l0.1,0.3l0,0.2v1.3l0,0.2
		l-0.1,0.3l-0.2,0.2l-0.3,0.1l-0.2,0h-1.4l-0.2,0l-0.3-0.1l-0.2-0.2l-0.1-0.3l0-0.2V146.9z"/>
	<path class="st0" d="M321.6,146.9l0-0.2l0.1-0.3l0.2-0.2l0.3-0.1l0.2,0h1.4l0.2,0l0.3,0.1l0.2,0.2l0.1,0.3l0,0.2v1.3l0,0.2
		l-0.1,0.3l-0.2,0.2l-0.3,0.1l-0.2,0h-1.4l-0.2,0l-0.3-0.1l-0.2-0.2l-0.1-0.3l0-0.2V146.9z"/>
</g>
<g>
	<path class="st0" d="M49,55.3L49,55.3l0,0.1l0,0l-0.1,0h-2.6l-0.1,0l0,0l0,0l0-0.1v-3.4l0-0.1l0,0l0,0l0.1,0h2.6l0.1,0l0,0l0,0
		l0,0.1V55.3z"/>
	<path class="st0" d="M39.6,55.3L39.6,55.3l0,0.1l0,0l-0.1,0h-2.6l-0.1,0l0,0l0,0l0-0.1v-3.4l0-0.1l0,0l0,0l0.1,0h2.6l0.1,0l0,0l0,0
		l0,0.1V55.3z"/>
</g>
<g>
	<path class="st0" d="M336.8,54.5l-0.2,0l-0.3-0.1l-0.2-0.2l-0.1-0.3l0-0.2v-1.4l0-0.2l0.1-0.3l0.2-0.2l0.3-0.1l0.2,0h1.3l0.2,0
		l0.3,0.1l0.2,0.2l0.1,0.3l0,0.2v1.4l0,0.2l-0.1,0.3l-0.2,0.2l-0.3,0.1l-0.2,0H336.8z"/>
	<path class="st0" d="M336.8,49.3l-0.2,0l-0.3-0.1l-0.2-0.2l-0.1-0.3l0-0.2v-1.4l0-0.2l0.1-0.3l0.2-0.2l0.3-0.1l0.2,0h1.3l0.2,0
		l0.3,0.1l0.2,0.2l0.1,0.3l0,0.2v1.4l0,0.2l-0.1,0.3l-0.2,0.2l-0.3,0.1l-0.2,0H336.8z"/>
</g>
<g>
	<path class="st0" d="M155.5,218.1L155.5,218.1l0,0.1l0,0l-0.1,0h-2.6l-0.1,0l0,0l0,0l0-0.1v-3.4l0-0.1l0,0l0,0l0.1,0h2.6l0.1,0l0,0
		l0,0l0,0.1V218.1z"/>
	<path class="st0" d="M146.2,218.1L146.2,218.1l0,0.1l0,0l-0.1,0h-2.6l-0.1,0l0,0l0,0l0-0.1v-3.4l0-0.1l0,0l0,0l0.1,0h2.6l0.1,0l0,0
		l0,0l0,0.1V218.1z"/>
</g>
<g>
	<path class="st0" d="M156.2,164.1L156.2,164.1l0,0.1l0,0l-0.1,0h-2.6l-0.1,0l0,0l0,0l0-0.1v-3.4l0-0.1l0,0l0,0l0.1,0h2.6l0.1,0l0,0
		l0,0l0,0.1V164.1z"/>
	<path class="st0" d="M146.9,164.1L146.9,164.1l0,0.1l0,0l-0.1,0h-2.6l-0.1,0l0,0l0,0l0-0.1v-3.4l0-0.1l0,0l0,0l0.1,0h2.6l0.1,0l0,0
		l0,0l0,0.1V164.1z"/>
</g>
<g>
	<path class="st0" d="M393.8,209.3L393.8,209.3l-0.1,0l0,0l0-0.1v-0.9l0-0.1l0,0l0,0l0.1,0h3.7l0.1,0l0,0l0,0l0,0.1v0.9l0,0.1l0,0
		l0,0l-0.1,0H393.8z"/>
	<path class="st0" d="M393.8,207.9L393.8,207.9l-0.1,0l0,0l0-0.1v-0.9l0-0.1l0,0l0,0l0.1,0h3.7l0.1,0l0,0l0,0l0,0.1v0.9l0,0.1l0,0
		l0,0l-0.1,0H393.8z"/>
	<path class="st0" d="M393.8,206.5L393.8,206.5l-0.1,0l0,0l0-0.1v-0.9l0-0.1l0,0l0,0l0.1,0h3.7l0.1,0l0,0l0,0l0,0.1v0.9l0,0.1l0,0
		l0,0l-0.1,0H393.8z"/>
	<path class="st0" d="M393.8,205.1L393.8,205.1l-0.1,0l0,0l0-0.1v-0.9l0-0.1l0,0l0,0l0.1,0h3.7l0.1,0l0,0l0,0l0,0.1v0.9l0,0.1l0,0
		l0,0l-0.1,0H393.8z"/>
	<path class="st0" d="M393.8,203.6L393.8,203.6l-0.1,0l0,0l0-0.1v-0.9l0-0.1l0,0l0,0l0.1,0h3.7l0.1,0l0,0l0,0l0,0.1v0.9l0,0.1l0,0
		l0,0l-0.1,0H393.8z"/>
	<path class="st0" d="M393.8,202.2L393.8,202.2l-0.1,0l0,0l0-0.1v-0.9l0-0.1l0,0l0,0l0.1,0h3.7l0.1,0l0,0l0,0l0,0.1v0.9l0,0.1l0,0
		l0,0l-0.1,0H393.8z"/>
	<path class="st0" d="M401.7,216.8L401.7,216.8l-0.1,0l0,0l0-0.1v-5.1l0-0.1l0,0l0,0l0.1,0h6.2l0.1,0l0,0l0,0l0,0.1v5.1l0,0.1l0,0
		l0,0l-0.1,0H401.7z"/>
	<path class="st0" d="M401.7,199L401.7,199l-0.1,0l0,0l0-0.1v-5.1l0-0.1l0,0l0,0l0.1,0h6.2l0.1,0l0,0l0,0l0,0.1v5.1l0,0.1l0,0l0,0
		l-0.1,0H401.7z"/>
</g>
<g>
	<path class="st0" d="M102.6,164.1L102.6,164.1l0,0.1l0,0l-0.1,0h-2.6l-0.1,0l0,0l0,0l0-0.1v-3.4l0-0.1l0,0l0,0l0.1,0h2.6l0.1,0l0,0
		l0,0l0,0.1V164.1z"/>
	<path class="st0" d="M93.2,164.1L93.2,164.1l0,0.1l0,0l-0.1,0h-2.6l-0.1,0l0,0l0,0l0-0.1v-3.4l0-0.1l0,0l0,0l0.1,0h2.6l0.1,0l0,0
		l0,0l0,0.1V164.1z"/>
</g>
<g>
	<path class="st0" d="M49,218.1L49,218.1l0,0.1l0,0l-0.1,0h-2.6l-0.1,0l0,0l0,0l0-0.1v-3.4l0-0.1l0,0l0,0l0.1,0h2.6l0.1,0l0,0l0,0
		l0,0.1V218.1z"/>
	<path class="st0" d="M39.6,218.1L39.6,218.1l0,0.1l0,0l-0.1,0h-2.6l-0.1,0l0,0l0,0l0-0.1v-3.4l0-0.1l0,0l0,0l0.1,0h2.6l0.1,0l0,0
		l0,0l0,0.1V218.1z"/>
</g>
<g>
	<path class="st0" d="M211,218.1L211,218.1l0,0.1l0,0l-0.1,0h-2.6l-0.1,0l0,0l0,0l0-0.1v-3.4l0-0.1l0,0l0,0l0.1,0h2.6l0.1,0l0,0l0,0
		l0,0.1V218.1z"/>
	<path class="st0" d="M201.6,218.1L201.6,218.1l0,0.1l0,0l-0.1,0h-2.6l-0.1,0l0,0l0,0l0-0.1v-3.4l0-0.1l0,0l0,0l0.1,0h2.6l0.1,0l0,0
		l0,0l0,0.1V218.1z"/>
</g>
<g>
	<path class="st0" d="M103,55.3L103,55.3l0,0.1l0,0l-0.1,0h-2.6l-0.1,0l0,0l0,0l0-0.1v-3.4l0-0.1l0,0l0,0l0.1,0h2.6l0.1,0l0,0l0,0
		l0,0.1V55.3z"/>
	<path class="st0" d="M93.6,55.3L93.6,55.3l0,0.1l0,0l-0.1,0h-2.6l-0.1,0l0,0l0,0l0-0.1v-3.4l0-0.1l0,0l0,0l0.1,0h2.6l0.1,0l0,0l0,0
		l0,0.1V55.3z"/>
</g>
<g>
	<path class="st0" d="M48.6,110.1L48.6,110.1l0,0.1l0,0l-0.1,0h-2.6l-0.1,0l0,0l0,0l0-0.1v-3.4l0-0.1l0,0l0,0l0.1,0h2.6l0.1,0l0,0
		l0,0l0,0.1V110.1z"/>
	<path class="st0" d="M39.2,110.1L39.2,110.1l0,0.1l0,0l-0.1,0h-2.6l-0.1,0l0,0l0,0l0-0.1v-3.4l0-0.1l0,0l0,0l0.1,0h2.6l0.1,0l0,0
		l0,0l0,0.1V110.1z"/>
</g>
<g>
	<path class="st0" d="M336.8,72.1l-0.2,0l-0.3-0.1l-0.2-0.2l-0.1-0.3l0-0.2v-1.4l0-0.2l0.1-0.3l0.2-0.2l0.3-0.1l0.2,0h1.3l0.2,0
		l0.3,0.1l0.2,0.2l0.1,0.3l0,0.2v1.4l0,0.2l-0.1,0.3l-0.2,0.2l-0.3,0.1l-0.2,0H336.8z"/>
	<path class="st0" d="M336.8,66.9l-0.2,0l-0.3-0.1l-0.2-0.2l-0.1-0.3l0-0.2v-1.4l0-0.2l0.1-0.3l0.2-0.2l0.3-0.1l0.2,0h1.3l0.2,0
		l0.3,0.1l0.2,0.2l0.1,0.3l0,0.2v1.4l0,0.2l-0.1,0.3l-0.2,0.2l-0.3,0.1l-0.2,0H336.8z"/>
</g>
<g>
	<path class="st0" d="M101.9,218.1L101.9,218.1l0,0.1l0,0l-0.1,0h-2.6l-0.1,0l0,0l0,0l0-0.1v-3.4l0-0.1l0,0l0,0l0.1,0h2.6l0.1,0l0,0
		l0,0l0,0.1V218.1z"/>
	<path class="st0" d="M92.5,218.1L92.5,218.1l0,0.1l0,0l-0.1,0h-2.6l-0.1,0l0,0l0,0l0-0.1v-3.4l0-0.1l0,0l0,0l0.1,0h2.6l0.1,0l0,0
		l0,0l0,0.1V218.1z"/>
</g>
<g>
	<path class="st0" d="M211,55.3L211,55.3l0,0.1l0,0l-0.1,0h-2.6l-0.1,0l0,0l0,0l0-0.1v-3.4l0-0.1l0,0l0,0l0.1,0h2.6l0.1,0l0,0l0,0
		l0,0.1V55.3z"/>
	<path class="st0" d="M201.6,55.3L201.6,55.3l0,0.1l0,0l-0.1,0h-2.6l-0.1,0l0,0l0,0l0-0.1v-3.4l0-0.1l0,0l0,0l0.1,0h2.6l0.1,0l0,0
		l0,0l0,0.1V55.3z"/>
</g>
</svg>
